<?xml version="1.0" encoding="iso-8859-1"?>
<!-- Generator: Adobe Illustrator 16.0.0, SVG Export Plug-In . SVG Version: 6.00 Build 0)  -->
<!DOCTYPE svg PUBLIC "-//W3C//DTD SVG 1.1//EN" "http://www.w3.org/Graphics/SVG/1.1/DTD/svg11.dtd">
<svg version="1.1" id="australia_x5F_5-layer" xmlns="http://www.w3.org/2000/svg" xmlns:xlink="http://www.w3.org/1999/xlink"
	 x="0px" y="0px" width="38.714px" height="40.637px" viewBox="0 0 38.714 40.637"
	 style="enable-background:new 0 0 38.714 40.637;" xml:space="preserve">
<g id="australia_x5F_5">
	<path style="fill:#559856;" d="M19.384,40.637c-0.239,0-0.476-0.048-0.701-0.144L3.507,34.126
		c-1.002-0.482-3.578-1.727-3.506-6.064V6.119C0.001,2.746,1.89,0,4.209,0h30.294c2.322,0,4.209,2.746,4.209,6.121v22.028
		c0.037,1.93-0.527,4.559-3.422,5.936l-15.203,6.406C19.86,40.589,19.625,40.637,19.384,40.637z"/>
	<path style="fill:none;stroke:#F6EBAF;stroke-miterlimit:10;" d="M4.208,3.674h30.296c0.932,0,1.684,1.097,1.684,2.45v22.028
		c0.027,1.456-0.801,2.024-1.684,2.445l-15.12,6.368L4.208,30.598c-0.868-0.421-1.71-0.804-1.683-2.445V6.121
		C2.525,4.773,3.28,3.674,4.208,3.674z"/>
</g>
</svg>
