<?xml version="1.0" encoding="iso-8859-1"?>
<!-- Generator: Adobe Illustrator 16.0.3, SVG Export Plug-In . SVG Version: 6.00 Build 0)  -->
<!DOCTYPE svg PUBLIC "-//W3C//DTD SVG 1.1//EN" "http://www.w3.org/Graphics/SVG/1.1/DTD/svg11.dtd">
<svg version="1.1" id="blue_x5F_shield-layer" xmlns="http://www.w3.org/2000/svg" xmlns:xlink="http://www.w3.org/1999/xlink"
	 x="0px" y="0px" width="53.85px" height="53.668px" viewBox="0 0 53.85 53.668" style="enable-background:new 0 0 53.85 53.668;"
	 xml:space="preserve">
<g id="blue_x5F_shield">
	<rect style="fill:none;" width="53.85" height="53.668"/>
	<path style="fill:#588AC6;" d="M26.854,49.668c-0.832,0-1.646-0.34-2.297-0.951c-0.014-0.016-2.146-1.945-4.9-1.945
		c-0.783,0.012-1.455,0.039-2.107,0.064c-0.885,0.031-1.732,0.059-2.559,0.059c-3.721,0-8.004-0.666-11.58-5.631
		c-4.178-5.803-4.188-12.578-0.031-20.148c0.326-0.592,0.455-1.072,0.379-1.422c-0.18-0.828-1.215-1.793-1.596-2.039
		c-0.871-0.557-1.529-1.529-1.795-2.67C0.105,13.848,0.246,12.613,0.76,11.6l4.59-9.049c0.986-1.945,3.297-2.67,4.977-1.527
		c0.152,0.1,3.957,2.605,7.35,2.605c2.785,0,6.355-1.951,7.389-2.637c1.082-0.717,2.484-0.719,3.572-0.002
		c0.041,0.025,4.088,2.639,7.396,2.639c2.883,0,6.354-1.928,7.342-2.604c1.67-1.139,3.994-0.424,4.984,1.525l4.59,9.049
		c0.516,1.018,0.656,2.252,0.389,3.391c-0.262,1.135-0.918,2.107-1.795,2.666c-0.471,0.313-1.432,1.277-1.59,2.047
		c-0.07,0.352,0.053,0.826,0.375,1.418c4.154,7.568,4.146,14.344-0.025,20.143c-3.58,4.965-7.863,5.637-11.584,5.637
		c-0.822,0-1.676-0.033-2.559-0.064c-0.652-0.025-1.322-0.053-2.012-0.061c-2.854,0-4.963,1.914-4.99,1.934
		C28.518,49.322,27.697,49.668,26.854,49.668z"/>
	<path style="fill:#588AC6;" d="M6.275,15.348c-1.031-1.545-2.367-1.213-2.367-1.213l4.588-9.049c0,0,4.664,3.186,9.18,3.186
		c4.361,0,9.178-3.186,9.178-3.186s4.82,3.186,9.18,3.186c4.512,0,9.178-3.186,9.178-3.186l4.59,9.049c0,0-1.42-0.277-2.463,1.357
		L6.275,15.348z"/>
	<path style="fill:none;stroke:#FFFFFF;stroke-linecap:round;stroke-linejoin:round;" d="M26.854,4.785c0,0,4.82,3.186,9.18,3.186
		c4.512,0,9.178-3.186,9.178-3.186l4.59,9.051c0,0-1.42,0.904-2.463,2.539c-1.066,1.672-1.738,4.107-0.088,7.111
		c3.221,5.867,3.469,10.496,0.256,14.961c-3.613,5.016-7.879,4.07-13.309,3.98c-4.26-0.066-7.344,2.896-7.344,2.896
		s-3.082-2.963-7.342-2.896c-5.434,0.09-9.695,1.035-13.313-3.98c-3.213-4.461-2.963-9.094,0.256-14.961
		c1.699-3.092,0.939-5.58-0.18-7.254c-1.031-1.545-2.367-2.396-2.367-2.396l4.588-9.051c0,0,4.664,3.186,9.18,3.186
		C22.037,7.971,26.854,4.785,26.854,4.785z"/>
	
		<line style="fill:none;stroke:#FFFFFF;stroke-linecap:round;stroke-linejoin:round;" x1="5.619" y1="15.492" x2="47.951" y2="15.492"/>
</g>
</svg>
