<?xml version="1.0" encoding="iso-8859-1"?>
<!-- Generator: Adobe Illustrator 16.0.3, SVG Export Plug-In . SVG Version: 6.00 Build 0)  -->
<!DOCTYPE svg PUBLIC "-//W3C//DTD SVG 1.1//EN" "http://www.w3.org/Graphics/SVG/1.1/DTD/svg11.dtd">
<svg version="1.1" id="CAN_x5F_saskatchewan_x5F_3-layer"
	 xmlns="http://www.w3.org/2000/svg" xmlns:xlink="http://www.w3.org/1999/xlink" x="0px" y="0px" width="24px" height="23.442px"
	 viewBox="0 0 24 23.442" style="enable-background:new 0 0 24 23.442;" xml:space="preserve">
<g id="CAN_x5F_saskatchewan_x5F_3_1_">
	<rect style="fill:none;" width="24" height="23.442"/>
	<path style="fill:#F4F2E9;" d="M21,19.358l-9,2.377l-9-2.377c-1.305-0.73-2.285-0.961-2.5-2.291V3.014
		c0-1.384,1.123-2.511,2.5-2.511h18c1.379,0,2.5,1.127,2.5,2.511v14.054C23.32,18.46,22.346,18.692,21,19.358z"/>
	<path style="fill:#588AC6;" d="M21.037,2.009H2.773C2.441,2.009,2,2.471,2,3.037v2.625h20V3.039C22,2.47,21.369,2.009,21.037,2.009
		z"/>
	<path style="fill:none;stroke:#588BC6;stroke-linejoin:round;" d="M2.773,2.009h18.264C21.369,2.009,22,2.47,22,3.039v13.265
		c0.01,0.611-0.285,0.85-0.6,1.027l-9.391,2.676l-9.408-2.676C2.291,17.154,1.99,16.993,2,16.304V3.037
		C2,2.471,2.441,2.009,2.773,2.009z"/>
	<g>
		<path style="fill:#F4F2E9;" d="M6.226,2.997V2.99c-0.022,0-0.043,0.002-0.066,0.003C6.138,2.993,6.117,2.99,6.094,2.99v0.006
			c-0.838,0.067-0.96,0.754-0.96,0.754h0.53v0.927h0.43h0.132h0.431V3.751h0.529C7.186,3.751,7.064,3.064,6.226,2.997z"/>
		<path style="fill:#F4F2E9;" d="M12.226,2.997V2.99c-0.022,0-0.043,0.002-0.066,0.003c-0.021-0.001-0.042-0.003-0.065-0.003v0.006
			c-0.838,0.067-0.96,0.754-0.96,0.754h0.53v0.927h0.43h0.132h0.431V3.751h0.529C13.186,3.751,13.064,3.064,12.226,2.997z"/>
		<path style="fill:#F4F2E9;" d="M18.226,2.997V2.99c-0.022,0-0.043,0.002-0.066,0.003c-0.021-0.001-0.042-0.003-0.065-0.003v0.006
			c-0.838,0.067-0.96,0.754-0.96,0.754h0.53v0.927h0.43h0.132h0.431V3.751h0.529C19.186,3.751,19.064,3.064,18.226,2.997z"/>
	</g>
</g>
</svg>
