<?xml version="1.0" encoding="iso-8859-1"?>
<!-- Generator: Adobe Illustrator 16.0.3, SVG Export Plug-In . SVG Version: 6.00 Build 0)  -->
<!DOCTYPE svg PUBLIC "-//W3C//DTD SVG 1.1//EN" "http://www.w3.org/Graphics/SVG/1.1/DTD/svg11.dtd">
<svg version="1.1" id="CAN_x5F_saskatchewan_x5F_1-layer"
	 xmlns="http://www.w3.org/2000/svg" xmlns:xlink="http://www.w3.org/1999/xlink" x="0px" y="0px" width="24px" height="23.5px"
	 viewBox="0 0 24 23.5" style="enable-background:new 0 0 24 23.5;" xml:space="preserve">
<g id="CAN_x5F_saskatchewan_x5F_1">
	<rect style="fill:none;" width="24" height="23.5"/>
	<path style="fill:#588AC6;" d="M21,19.359l-9,2.376l-9-2.376c-1.305-0.732-2.285-0.962-2.5-2.293V3.014
		c0-1.384,1.123-2.511,2.5-2.511h18c1.379,0,2.5,1.127,2.5,2.511v14.053C23.32,18.46,22.346,18.692,21,19.359z"/>
	<line style="fill:none;stroke:#F4F2E9;stroke-miterlimit:10;" x1="2" y1="5.663" x2="22" y2="5.663"/>
	<path style="fill:none;stroke:#F4F2E9;stroke-miterlimit:10;" d="M2.773,2.009h18.264C21.369,2.009,22,2.47,22,3.039v13.264
		c0.01,0.613-0.285,0.852-0.6,1.028l-9.391,2.677l-9.408-2.676C2.291,17.154,1.99,16.994,2,16.304V3.037
		C2,2.471,2.441,2.009,2.773,2.009z"/>
	<g>
		<circle style="fill:#F4F2E9;" cx="6" cy="3.843" r="1.018"/>
		<circle style="fill:#F4F2E9;" cx="12" cy="3.843" r="1.018"/>
		<circle style="fill:#F4F2E9;" cx="18" cy="3.843" r="1.018"/>
	</g>
</g>
</svg>
