<?xml version="1.0" encoding="iso-8859-1"?>
<!-- Generator: Adobe Illustrator 16.0.3, SVG Export Plug-In . SVG Version: 6.00 Build 0)  -->
<!DOCTYPE svg PUBLIC "-//W3C//DTD SVG 1.1//EN" "http://www.w3.org/Graphics/SVG/1.1/DTD/svg11.dtd">
<svg version="1.1" id="CAN_x5F_manitoba_x5F_3-layer"
	 xmlns="http://www.w3.org/2000/svg" xmlns:xlink="http://www.w3.org/1999/xlink" x="0px" y="0px" width="24px" height="27.014px"
	 viewBox="0 0 24 27.014" style="enable-background:new 0 0 24 27.014;" xml:space="preserve">
<g id="CAN_x5F_manitoba_x5F_3">
	<rect style="fill:none;" width="24" height="27.014"/>
	<path style="fill:#F4F2E9;" d="M23.5,3.014c0-1.384-1.121-2.511-2.5-2.511H3c-1.377,0-2.5,1.127-2.5,2.511l2,16.174
		c0,1.384,1.121,2.511,2.5,2.511h14c1.377,0,2.5-1.127,2.5-2.511L23.5,3.014z"/>
	<path style="fill:#62A562;" d="M21.037,2.009H2.773C2.441,2.009,2,2.471,2,3.037l0.556,4.477h18.89L22,3.039
		C22,2.47,21.369,2.009,21.037,2.009z"/>
	<path style="fill:none;stroke:#323232;stroke-linecap:round;stroke-linejoin:round;" d="M19.4,20.187
		c0.314-0.177,0.609-0.415,0.6-1.028l2-16.12c0-0.569-0.631-1.029-0.963-1.029H2.773C2.441,2.009,2,2.471,2,3.037l2,16.122
		c-0.01,0.69,0.291,0.851,0.602,1.028L19.4,20.187z"/>
</g>
</svg>
