<?xml version="1.0" encoding="iso-8859-1"?>
<!-- Generator: Adobe Illustrator 16.0.3, SVG Export Plug-In . SVG Version: 6.00 Build 0)  -->
<!DOCTYPE svg PUBLIC "-//W3C//DTD SVG 1.1//EN" "http://www.w3.org/Graphics/SVG/1.1/DTD/svg11.dtd">
<svg version="1.1" id="CAN_x5F_british_x5F_columbia_x5F_1-layer"
	 xmlns="http://www.w3.org/2000/svg" xmlns:xlink="http://www.w3.org/1999/xlink" x="0px" y="0px" width="17.002px"
	 height="25.973px" viewBox="0 0 17.002 25.973" style="enable-background:new 0 0 17.002 25.973;" xml:space="preserve">
<g id="CAN_x5F_british_x5F_columbia_x5F_1">
	<rect x="0.501" y="0.787" style="fill:none;" width="16" height="25.186"/>
	<path style="fill:#F4F2E9;" d="M16.922,2.833c-0.157-0.369-0.52-0.608-0.92-0.608h-3.837v-1C12.165,0.549,11.615,0,10.94,0H6.107
		C5.433,0,4.883,0.549,4.883,1.225v1H1c-0.4,0-0.763,0.239-0.92,0.608c-0.157,0.369-0.079,0.796,0.199,1.085l0.9,0.938
		C1.063,5.148,1.001,5.463,1.001,5.787v8.352c0,4.136,3.364,7.5,7.5,7.5s7.5-3.364,7.5-7.5V5.787c0-0.324-0.062-0.639-0.179-0.932
		l0.9-0.938C17.001,3.628,17.079,3.202,16.922,2.833z"/>
	<path style="fill:#588AC6;" d="M14.56,4.726l1.442-1.501h-4.837v-2C11.165,1.101,11.064,1,10.94,1H6.107
		C5.983,1,5.883,1.101,5.883,1.225v2H1l1.442,1.501C2.17,4.998,2.001,5.373,2.001,5.787v8.352c0,3.584,2.916,6.5,6.5,6.5
		s6.5-2.916,6.5-6.5V5.787C15.001,5.373,14.832,4.998,14.56,4.726z M10.387,5.287L8.501,7.298L6.615,5.287H10.387z M6.332,1.449
		h4.384v1.775H8.5H6.332V1.449z M14.001,14.139c0,3.033-2.468,5.5-5.5,5.5s-5.5-2.467-5.5-5.5V5.787c0-0.276,0.225-0.5,0.5-0.5H5.93
		l2.571,2.742l2.571-2.742h2.429c0.275,0,0.5,0.224,0.5,0.5V14.139z"/>
	<polygon style="fill:#F3D424;" points="8.501,7.298 10.387,5.287 6.615,5.287 	"/>
	<rect x="6.332" y="1.449" style="fill:#EB4D4D;" width="4.384" height="1.775"/>
</g>
</svg>
