<?xml version="1.0" encoding="iso-8859-1"?>
<!-- Generator: Adobe Illustrator 16.0.3, SVG Export Plug-In . SVG Version: 6.00 Build 0)  -->
<!DOCTYPE svg PUBLIC "-//W3C//DTD SVG 1.1//EN" "http://www.w3.org/Graphics/SVG/1.1/DTD/svg11.dtd">
<svg version="1.1" id="CAN_x5F_saskatchewan_x5F_2-layer"
	 xmlns="http://www.w3.org/2000/svg" xmlns:xlink="http://www.w3.org/1999/xlink" x="0px" y="0px" width="18.997px"
	 height="34.824px" viewBox="0 0 18.997 34.824" style="enable-background:new 0 0 18.997 34.824;" xml:space="preserve">
<g id="CAN_x5F_saskatchewan_x5F_2_6_">
	<rect style="fill:none;" width="18.997" height="34.824"/>
	<path style="fill:#F4F1E8;" d="M0.5,21.5v-18C0.5,2.122,1.621,1,3,1h12.997c1.378,0,2.5,1.122,2.5,2.5v18
		c0,1.379-1.122,2.5-2.5,2.5H3C1.621,24,0.5,22.879,0.5,21.5z"/>
	<path style="fill:none;stroke:#559856;stroke-miterlimit:10;" d="M16.997,3.5v18c0,0.553-0.448,1-1,1H3c-0.553,0-1-0.447-1-1v-18
		c0-0.553,0.447-1,1-1h12.997C16.549,2.5,16.997,2.947,16.997,3.5z"/>
	<line style="fill:none;stroke:#559856;stroke-miterlimit:10;" x1="1.906" y1="12.667" x2="17.091" y2="12.667"/>
	<g>
		<path style="fill:#559856;" d="M12.331,6.682c0,0-0.365-2.147-2.829-2.152v0c-0.002,0-0.002,0-0.002,0c-0.003,0-0.004,0-0.004,0
			l-0.001,0C7.033,4.535,6.666,6.682,6.666,6.682l1.497,1.214h2.67L12.331,6.682z"/>
		<polygon style="fill:#559856;" points="8.423,8.474 7.759,10.91 9.495,10.91 9.502,10.91 11.237,10.91 10.575,8.474 		"/>
	</g>
</g>
</svg>
