<?xml version="1.0" encoding="iso-8859-1"?>
<!-- Generator: Adobe Illustrator 16.0.3, SVG Export Plug-In . SVG Version: 6.00 Build 0)  -->
<!DOCTYPE svg PUBLIC "-//W3C//DTD SVG 1.1//EN" "http://www.w3.org/Graphics/SVG/1.1/DTD/svg11.dtd">
<svg version="1.1" id="CAN_x5F_northw_x5F_territories_x5F_1-layer"
	 xmlns="http://www.w3.org/2000/svg" xmlns:xlink="http://www.w3.org/1999/xlink" x="0px" y="0px" width="20px" height="32.185px"
	 viewBox="0 0 20 32.185" style="enable-background:new 0 0 20 32.185;" xml:space="preserve">
<g id="CAN_x5F_northw_x5F_territories_x5F_1">
	<path style="fill:#588AC6;" d="M17,24.5H3c-1.378,0-2.5-1.09-2.5-2.43V2.957c0-1.338,1.122-2.428,2.5-2.428h14
		c1.379,0,2.5,1.09,2.5,2.428V22.07C19.5,23.41,18.379,24.5,17,24.5z"/>
	<path style="fill:none;stroke:#FFFFFF;" d="M3,2.029h14c0.552,0,1,0.433,1,0.965v19.039C18,22.566,17.552,23,17,23H3
		c-0.552,0-1-0.434-1-0.967V2.994C2,2.462,2.448,2.029,3,2.029z"/>
	<path style="fill-rule:evenodd;clip-rule:evenodd;fill:#FDFDFE;" d="M8.476,3.261c0.712,0.026,1.415,0.087,2.07,0.406
		c0.165,0.081,0.349,0.076,0.53,0.082c0.552,0.019,1.105-0.023,1.657,0.04c0.175,0.021,0.34,0.068,0.501,0.137
		c0.086,0.037,0.178,0.07,0.253-0.027c0.042-0.054,0.093-0.041,0.142-0.021c0.292,0.127,0.583,0.255,0.875,0.385
		c0.031,0.014,0.065,0.034,0.084,0.061c0.145,0.201,0.322,0.271,0.573,0.207c0.136-0.036,0.2,0.053,0.152,0.185
		c-0.104,0.294-0.224,0.578-0.59,0.632c-0.097,0.014-0.19,0.061-0.254,0.143c-0.107,0.14-0.251,0.168-0.416,0.168
		c-0.699-0.005-1.396,0.025-2.09,0.125c-0.034,0.005-0.067,0.011-0.102,0.018c-0.384,0.076-0.378,0.273-0.291,0.549
		c0.051,0.164,0.097,0.359,0.192,0.477c0.141,0.171,0.244,0.34,0.307,0.546c0.015,0.047,0.066,0.087,0.124,0.088
		c0.187,0.002,0.154,0.122,0.112,0.227c-0.065,0.163-0.176,0.309-0.354,0.332c-0.365,0.047-0.737,0.115-1.088-0.09
		c-0.118-0.069-0.196-0.14-0.18-0.284c0.007-0.065-0.002-0.129-0.036-0.185c-0.14-0.222-0.278-0.443-0.423-0.66
		c-0.064-0.095-0.156-0.168-0.28-0.139c-0.12,0.028-0.148,0.137-0.172,0.24C9.758,6.97,9.745,7.039,9.739,7.108
		c-0.036,0.424-0.034,0.427,0.378,0.531c0.158,0.04,0.271,0.124,0.323,0.284c0.076,0.232,0.005,0.437-0.156,0.591
		c-0.431,0.411-0.89,0.558-1.458,0.164C8.723,8.605,8.615,8.526,8.499,8.482C8.291,8.405,8.188,8.254,8.133,8.053
		C8.078,7.852,8.019,7.652,7.964,7.45c-0.04-0.155-0.316-0.398-0.469-0.415c-0.1-0.011-0.114,0.058-0.104,0.12
		c0.049,0.307-0.087,0.54-0.285,0.752c-0.125,0.134-0.1,0.301-0.045,0.446c0.121,0.328,0.074,0.603-0.12,0.901
		c-0.11,0.169-0.186,0.293-0.399,0.263C6.375,9.493,6.193,9.604,6.041,9.456C6.012,9.426,5.97,9.421,5.927,9.42
		C5.83,9.417,5.723,9.459,5.68,9.307c-0.017-0.053-0.154-0.01-0.2-0.104C5.431,9.1,5.413,8.988,5.424,8.881
		c0.04-0.378,0.034-0.767,0.256-1.106C5.767,7.643,5.775,7.48,5.801,7.324c0.071-0.449,0.111-0.892-0.016-1.341
		C5.722,5.76,5.732,5.521,5.758,5.288c0.009-0.099,0.02-0.204,0.083-0.28c0.151-0.177,0.231-0.388,0.325-0.594
		C6.447,3.792,6.941,3.451,7.607,3.34C7.896,3.292,8.184,3.25,8.476,3.261z"/>
	<rect style="fill:none;" width="20" height="32.185"/>
	<path style="fill:none;stroke:#FFFFFF;stroke-miterlimit:10;" d="M2,10.685h16H2z"/>
</g>
</svg>
