<?xml version="1.0" encoding="iso-8859-1"?>
<!-- Generator: Adobe Illustrator 16.0.3, SVG Export Plug-In . SVG Version: 6.00 Build 0)  -->
<!DOCTYPE svg PUBLIC "-//W3C//DTD SVG 1.1//EN" "http://www.w3.org/Graphics/SVG/1.1/DTD/svg11.dtd">
<svg version="1.1" id="CAN_x5F_novia_x5F_scotia_x5F_1-layer"
	 xmlns="http://www.w3.org/2000/svg" xmlns:xlink="http://www.w3.org/1999/xlink" x="0px" y="0px" width="20px" height="30px"
	 viewBox="0 0 20 30" style="enable-background:new 0 0 20 30;" xml:space="preserve">
<g id="CAN_x5F_novia_x5F_scotia_x5F_1_2_">
	<path style="fill:#588AC6;" d="M10,24.248c-3.983,0-9.5-2.953-9.5-8.5v-13c0-1.378,1.122-2.5,2.5-2.5h14c1.379,0,2.5,1.122,2.5,2.5
		v13C19.5,21.27,14.605,24.248,10,24.248z"/>
	<rect style="fill:none;" width="20" height="30"/>
	<g>
		<path style="fill:#F4F2E9;" d="M17,1.248H3c-0.827,0-1.5,0.673-1.5,1.5v13c0,5.174,4.971,7.5,8.5,7.5c3.286,0,8.5-2.035,8.5-7.5
			v-13C18.5,1.921,17.827,1.248,17,1.248z M17.5,3.089l-5.844,2.969l5.844,2.97v0.845v0.074v5.803c0,4.77-4.485,6.5-7.5,6.5
			c-3.114,0-7.5-2.016-7.5-6.5V9.947V9.873V9.027l5.846-2.97L2.5,3.087V2.746c0-0.276,0.225-0.5,0.5-0.5h1.156l5.845,2.97
			l5.847-2.97H17c0.275,0,0.5,0.224,0.5,0.5V3.089z"/>
		<polygon style="fill:#F4F2E9;" points="4.298,9.873 15.702,9.873 10.001,6.899 		"/>
	</g>
	<path style="fill:#F3D424;" d="M10,8.453c-0.056,0-0.11-0.012-0.161-0.034C9.764,8.386,8.011,7.6,8.001,5.923V4.588
		c0-0.368,0.299-0.667,0.666-0.667h2.666c0.366,0,0.666,0.299,0.666,0.667v1.333c-0.01,1.681-1.763,2.465-1.838,2.498
		C10.11,8.441,10.055,8.453,10,8.453z"/>
	<circle style="fill:#EB4D4D;" cx="10" cy="5.906" r="0.75"/>
</g>
</svg>
