<?xml version="1.0" encoding="iso-8859-1"?>
<!-- Generator: Adobe Illustrator 16.0.3, SVG Export Plug-In . SVG Version: 6.00 Build 0)  -->
<!DOCTYPE svg PUBLIC "-//W3C//DTD SVG 1.1//EN" "http://www.w3.org/Graphics/SVG/1.1/DTD/svg11.dtd">
<svg version="1.1" id="CAN_x5F_ontario_x5F_1-layer"
	 xmlns="http://www.w3.org/2000/svg" xmlns:xlink="http://www.w3.org/1999/xlink" x="0px" y="0px" width="16px" height="25.066px"
	 viewBox="0 0 16 25.066" style="enable-background:new 0 0 16 25.066;" xml:space="preserve">
<g id="CAN_x5F_ontario_x5F_1">
	<rect style="fill:none;" width="16" height="25.066"/>
	<path style="fill-rule:evenodd;clip-rule:evenodd;fill:#F4F2E9;" d="M13,6.479h-1.102l0.349-1.965l-0.264-0.348
		C11.911,4.07,11.232,3.225,9.883,3.22c-0.054,0-0.106,0.001-0.158,0.004C9.76,3.065,9.783,2.921,9.789,2.802
		c0.024-0.494-0.136-0.949-0.45-1.282C9.013,1.175,8.54,0.983,7.992,0.98c-0.528,0-0.999,0.189-1.326,0.533
		C6.349,1.846,6.187,2.304,6.211,2.802C6.217,2.921,6.24,3.065,6.275,3.225C6.221,3.222,6.164,3.22,6.107,3.22
		c-1.34,0.004-2.019,0.85-2.091,0.946L3.753,4.515l0.349,1.965H3c-1.378,0-2.5,1.122-2.5,2.5v5.009
		c0.036,6.293,6.617,9.242,6.896,9.363C7.587,23.437,7.79,23.479,8,23.479s0.413-0.043,0.604-0.127
		c0.279-0.122,6.86-3.066,6.896-9.373v-5C15.5,7.602,14.379,6.479,13,6.479z"/>
	<path style="fill:none;stroke:#4B4B4B;stroke-linecap:round;stroke-linejoin:round;" d="M13,7.979c0.553,0,1,0.448,1,1v5
		c-0.031,5.375-6,8-6,8s-5.97-2.625-6-8v-5c0-0.552,0.446-1,1-1H13z"/>
	<path style="fill-rule:evenodd;clip-rule:evenodd;fill:#4B4B4B;" d="M8.001,1.98C7.491,1.977,7.187,2.277,7.21,2.752
		c0.023,0.476,0.607,1.944,0.607,1.944C7.478,4.7,6.991,4.218,6.11,4.22C5.228,4.223,4.813,4.77,4.813,4.77l0.57,3.209h5.232
		l0.57-3.209c0,0-0.414-0.547-1.297-0.55C9.009,4.218,8.522,4.7,8.183,4.697c0,0,0.584-1.468,0.607-1.944
		C8.813,2.277,8.509,1.983,8.001,1.98z"/>
</g>
</svg>
