<?xml version="1.0" encoding="iso-8859-1"?>
<!-- Generator: Adobe Illustrator 16.0.3, SVG Export Plug-In . SVG Version: 6.00 Build 0)  -->
<!DOCTYPE svg PUBLIC "-//W3C//DTD SVG 1.1//EN" "http://www.w3.org/Graphics/SVG/1.1/DTD/svg11.dtd">
<svg version="1.1" id="canada_x5F_a-layer" xmlns="http://www.w3.org/2000/svg" xmlns:xlink="http://www.w3.org/1999/xlink" x="0px"
	 y="0px" width="19px" height="23.25px" viewBox="0 0 19 23.25" style="enable-background:new 0 0 19 23.25;" xml:space="preserve">
<g id="canada_x5F_a_2_">
	<rect style="fill:none;" width="19" height="23.25"/>
	<path style="fill:#569956;" d="M15.93,19.52H3.07C1.377,19.52,0,18.143,0,16.451V3.592c0-0.818,0.319-1.59,0.9-2.171
		c0.581-0.58,1.351-0.899,2.17-0.899H15.93c1.693,0,3.07,1.377,3.07,3.069V16.45C19,18.143,17.623,19.52,15.93,19.52z"/>
	<path style="fill:none;stroke:#FFFFFF;" d="M2.833,2.021h13.335c0.734,0,1.332,0.598,1.332,1.332v13.334
		c0,0.733-0.598,1.334-1.332,1.334H2.833c-0.734,0-1.334-0.601-1.334-1.334V3.354C1.499,2.619,2.099,2.021,2.833,2.021z"/>
	<path style="fill:#FFFFFF;" d="M9.5,3.784L9.5,3.784C8.302,4.402,7.812,5.182,7.51,5.6C7.026,6.271,6.729,6.896,6.541,7.616
		C6.299,8.546,6.259,9.05,6.259,9.05C4.656,7.841,3.072,8.132,3.072,8.132c-0.434,1.213-0.291,2.709-0.041,3.459
		c0.537,1.611,1.438,2.25,1.438,2.25C3.76,14.236,3.51,14.57,3.51,14.57c2.354,2.012,5.502,0.965,5.502,0.965
		c0.309,0.547-0.016,2.031-0.016,2.031h1.01c0,0-0.325-1.484-0.017-2.031c0,0,3.148,1.047,5.503-0.965c0,0-0.25-0.332-0.959-0.729
		c0,0,0.896-0.639,1.438-2.25c0.25-0.75,0.393-2.246-0.041-3.459c0,0-1.584-0.291-3.188,0.918c0,0-0.041-0.504-0.283-1.434
		C12.27,6.896,11.975,6.271,11.49,5.6C11.188,5.184,10.699,4.402,9.5,3.784L9.5,3.784L9.5,3.784z"/>
</g>
</svg>
