<?xml version="1.0" encoding="iso-8859-1"?>
<!-- Generator: Adobe Illustrator 16.0.0, SVG Export Plug-In . SVG Version: 6.00 Build 0)  -->
<!DOCTYPE svg PUBLIC "-//W3C//DTD SVG 1.1//EN" "http://www.w3.org/Graphics/SVG/1.1/DTD/svg11.dtd">
<svg version="1.1" id="china_x5F_1-layer" xmlns="http://www.w3.org/2000/svg" xmlns:xlink="http://www.w3.org/1999/xlink" x="0px"
	 y="0px" width="24px" height="22px" viewBox="0 0 24 22" style="enable-background:new 0 0 24 22;" xml:space="preserve">
<g id="china_x5F_1">
	<rect style="fill:none;" width="24" height="22"/>
	<path style="fill:#569956;" d="M21,17.5H3c-1.378,0-2.5-1.121-2.5-2.5V3c0-1.378,1.122-2.5,2.5-2.5h18c1.379,0,2.5,1.122,2.5,2.5
		v12C23.5,16.379,22.379,17.5,21,17.5z"/>
	<path style="fill:#D66867;" d="M2,6V3.055C2,2.473,2.447,2,3,2h18c0.553,0,1,0.473,1,1.055V6H2z"/>
	<path style="fill:none;stroke:#FFFFFF;" d="M3,2h18c0.553,0,1,0.448,1,1v12c0,0.553-0.447,1-1,1H3c-0.553,0-1-0.447-1-1V3
		C2,2.448,2.447,2,3,2z"/>
</g>
</svg>
