<?xml version="1.0" encoding="UTF-8"?>
<!DOCTYPE svg PUBLIC "-//W3C//DTD SVG 1.1 Tiny//EN" "http://www.w3.org/Graphics/SVG/1.1/DTD/svg11-tiny.dtd">
<svg baseProfile="tiny" height="20px" version="1.1" viewBox="0 0 20 20" width="20px" x="0px" xmlns="http://www.w3.org/2000/svg" xmlns:xlink="http://www.w3.org/1999/xlink" y="0px">
<path d="M10.007,18.994H9.993c-0.463-0.008-0.882-0.21-1.16-0.557c-0.022-0.024-0.754-0.864-2.437-0.875  c-5.088-0.033-5.887-3.051-5.911-4.846V5.606c0-1.385,1.122-2.511,2.5-2.511H17.02c1.379,0,2.5,1.126,2.5,2.511v7.092  c-0.022,1.807-0.816,4.831-5.881,4.864c-1.714,0.011-2.443,0.852-2.475,0.888C10.881,18.79,10.447,18.994,10.007,18.994z" fill="#F4F2E9"/>
<path d="M10.003,17.5L10.003,17.5c0,0-1.112-1.422-3.597-1.438  c-1.146-0.008-4.376,0-4.42-3.364V5.606c0-0.557,0.448-1.011,1-1.011H17.02c0.556,0,1,0.454,1,1.011v7.092  c-0.043,3.364-3.271,3.356-4.42,3.364C11.115,16.078,10.003,17.5,10.003,17.5L10.003,17.5L10.003,17.5z" fill="none" stroke="#588BC6" stroke-linejoin="round"/>
</svg>
