<?xml version="1.0" encoding="iso-8859-1"?>
<!-- Generator: Adobe Illustrator 16.0.0, SVG Export Plug-In . SVG Version: 6.00 Build 0)  -->
<!DOCTYPE svg PUBLIC "-//W3C//DTD SVG 1.1//EN" "http://www.w3.org/Graphics/SVG/1.1/DTD/svg11.dtd">
<svg version="1.1" id="green_x5F_hexagon_x5F_yellow-layer"
	 xmlns="http://www.w3.org/2000/svg" xmlns:xlink="http://www.w3.org/1999/xlink" x="0px" y="0px" width="28px" height="19.702px"
	 viewBox="0 0 28 19.702" style="enable-background:new 0 0 28 19.702;" xml:space="preserve">
<g id="green_x5F_hexagon_x5F_yellow_1_">
	<path style="fill:#559856;" d="M14,19.703c-0.146,0-0.292-0.023-0.433-0.064L1.121,16.01C0.461,15.818,0,15.205,0,14.518V5.184
		c0-0.687,0.461-1.301,1.121-1.493l12.444-3.629c0.282-0.083,0.589-0.083,0.873,0L26.88,3.691C27.54,3.883,28,4.496,28,5.184v9.333
		c0,0.688-0.46,1.301-1.12,1.492l-12.444,3.629C14.291,19.68,14.146,19.703,14,19.703z"/>
	<polygon style="fill:none;stroke:#F7ECB0;stroke-miterlimit:10;" points="14,1.554 26.444,5.184 26.444,14.518 14,18.146 
		1.556,14.518 1.556,5.184 	"/>
</g>
</svg>
