<?xml version="1.0" encoding="utf-8"?>
<!-- Generator: Adobe Illustrator 15.0.0, SVG Export Plug-In . SVG Version: 6.00 Build 0)  -->
<!DOCTYPE svg PUBLIC "-//W3C//DTD SVG 1.1//EN" "http://www.w3.org/Graphics/SVG/1.1/DTD/svg11.dtd">
<svg version="1.1" id="Layer_1" xmlns="http://www.w3.org/2000/svg" xmlns:xlink="http://www.w3.org/1999/xlink" x="0px" y="0px"
	 width="20px" height="31px" viewBox="0 0 20 31" enable-background="new 0 0 20 31" xml:space="preserve">
<path fill="#F7ECB0" d="M10,24.5c-3.983,0-9.5-2.954-9.5-8.5V3c0-1.378,1.122-2.5,2.5-2.5h14c1.379,0,2.5,1.122,2.5,2.5v13
	C19.5,21.521,14.605,24.5,10,24.5z"/>
<path fill="none" stroke="#323232" stroke-miterlimit="10" d="M18,16c0,5.023-4.688,7-8,7c-3.312,0-8-2.186-8-7V3
	c0-0.552,0.448-1,1-1h14c0.553,0,1,0.448,1,1V16"/>
<polygon fill="#323232" points="9.345,9.534 8.436,9.534 8.399,9.473 6.001,5.403 6.001,9.534 5.031,9.534 5.031,3.66 5.988,3.66 
	8.375,7.754 8.375,3.66 9.345,3.66 "/>
<polygon fill="#323232" points="14.969,9.534 13.982,9.534 13.982,6.861 11.641,6.861 11.641,9.534 10.654,9.534 10.654,3.66 
	11.641,3.66 11.641,5.948 13.982,5.948 13.982,3.66 14.969,3.66 "/>
</svg>
