<?xml version="1.0" encoding="UTF-8"?>
<!DOCTYPE svg PUBLIC "-//W3C//DTD SVG 1.1 Tiny//EN" "http://www.w3.org/Graphics/SVG/1.1/DTD/svg11-tiny.dtd">
<svg baseProfile="tiny" height="20px" version="1.1" viewBox="0 0 28 20" width="28px" x="0px" xmlns="http://www.w3.org/2000/svg" xmlns:xlink="http://www.w3.org/1999/xlink" y="0px">
<path d="M14,19.5c-0.141,0-0.281-0.021-0.418-0.061l-12.002-3.5C0.944,15.755,0.5,15.163,0.5,14.5v-9  c0-0.662,0.444-1.254,1.08-1.44l12-3.5c0.271-0.079,0.568-0.08,0.841,0l11.999,3.5c0.637,0.186,1.08,0.778,1.08,1.44v9  c0,0.663-0.443,1.255-1.08,1.439l-12,3.5C14.281,19.479,14.141,19.5,14,19.5z" fill="#F4F2E9"/>
<polygon fill="none" points="14,2 26,5.5 26,14.5 14,18 2,14.5   2,5.5 " stroke="#569956" stroke-linecap="round" stroke-linejoin="round"/>
</svg>
