<?xml version="1.0" encoding="utf-8"?>
<!-- Generator: Adobe Illustrator 24.1.1, SVG Export Plug-In . SVG Version: 6.00 Build 0)  -->
<svg version="1.2" baseProfile="tiny" id="Layer_1" xmlns="http://www.w3.org/2000/svg" xmlns:xlink="http://www.w3.org/1999/xlink"
	 x="0px" y="0px" viewBox="0 0 20 16" xml:space="preserve">
<g>
	<rect fill="none" width="20" height="16"/>
	<g>
		<path fill="#0F9C7A" d="M17,15.5H3c-1.4,0-2.5-1.1-2.5-2.5V3c0-1.4,1.1-2.5,2.5-2.5h14c1.4,0,2.5,1.1,2.5,2.5v10
			C19.5,14.4,18.4,15.5,17,15.5z"/>
		<path fill="none" stroke="#FFFFFF" d="M17,15.5H3c-1.4,0-2.5-1.1-2.5-2.5V3c0-1.4,1.1-2.5,2.5-2.5h14c1.4,0,2.5,1.1,2.5,2.5v10
			C19.5,14.4,18.4,15.5,17,15.5z"/>
	</g>
</g>
</svg>
