<?xml version="1.0" encoding="utf-8"?>
<!-- Generator: Adobe Illustrator 24.1.1, SVG Export Plug-In . SVG Version: 6.00 Build 0)  -->
<svg version="1.2" baseProfile="tiny" id="Layer_1" xmlns="http://www.w3.org/2000/svg" xmlns:xlink="http://www.w3.org/1999/xlink"
	 x="0px" y="0px" viewBox="0 0 28 16" xml:space="preserve">
<g>
	<rect fill="none" width="28" height="16"/>
	<g>
		<path fill="#0F9C7A" d="M25.1,15.5H2.9c-1.3,0-2.4-1.1-2.4-2.5V3c0-1.4,1.1-2.5,2.4-2.5H25c1.3,0,2.4,1.1,2.4,2.5v10
			C27.5,14.4,26.4,15.5,25.1,15.5z"/>
		<path fill="none" stroke="#FFFFFF" d="M25.1,15.5H2.9c-1.3,0-2.4-1.1-2.4-2.5V3c0-1.4,1.1-2.5,2.4-2.5H25c1.3,0,2.4,1.1,2.4,2.5
			v10C27.5,14.4,26.4,15.5,25.1,15.5z"/>
	</g>
</g>
</svg>
