<?xml version="1.0" encoding="utf-8"?>
<!-- Generator: Adobe Illustrator 24.1.1, SVG Export Plug-In . SVG Version: 6.00 Build 0)  -->
<svg version="1.2" baseProfile="tiny" id="Layer_1" xmlns="http://www.w3.org/2000/svg" xmlns:xlink="http://www.w3.org/1999/xlink"
	 x="0px" y="0px" viewBox="0 0 20 21" xml:space="preserve">
<g>
	<rect fill="none" width="20" height="21"/>
	<g>
		<path fill="#0F9C7A" d="M10,20.5c-6.4,0-9.5-5.2-9.5-11.6V5c0-1.4,1.1-2.5,2.5-2.5h14c1.4,0,2.5,1.1,2.5,2.5v3.9
			C19.5,15.3,16.4,20.5,10,20.5z"/>
		<path fill="none" stroke="#FFFFFF" d="M10,20.5c-6.4,0-9.5-5.2-9.5-11.6V5c0-1.4,1.1-2.5,2.5-2.5h14c1.4,0,2.5,1.1,2.5,2.5v3.9
			C19.5,15.3,16.4,20.5,10,20.5z"/>
	</g>
</g>
</svg>
