<?xml version="1.0" encoding="iso-8859-1"?>
<!-- Generator: Adobe Illustrator 16.0.0, SVG Export Plug-In . SVG Version: 6.00 Build 0)  -->
<!DOCTYPE svg PUBLIC "-//W3C//DTD SVG 1.1//EN" "http://www.w3.org/Graphics/SVG/1.1/DTD/svg11.dtd">
<svg version="1.1" id="korea_x5F_5-layer" xmlns="http://www.w3.org/2000/svg" xmlns:xlink="http://www.w3.org/1999/xlink" x="0px"
	 y="0px" width="63.518px" height="35.434px" viewBox="0 0 63.518 35.434" style="enable-background:new 0 0 63.518 35.434;"
	 xml:space="preserve">
<g id="korea_x5F_5">
	<g>
		<polygon style="fill:#FFFFFF;" points="0,17.65 12.764,0 50.787,0 63.518,17.717 50.787,35.434 12.764,35.434 		"/>
	</g>
	<g>
		<g>
			<path style="fill:#588AC6;" d="M50.088,34.794H13.384c-0.174,0-0.336-0.07-0.441-0.195L1.155,17.958
				c-0.154-0.183-0.154-0.436,0-0.616L12.942,0.7c0.105-0.125,0.268-0.195,0.441-0.195h36.704c0.174,0,0.336,0.07,0.441,0.195
				l11.787,16.642c0.154,0.181,0.154,0.434,0,0.616L50.529,34.599C50.424,34.724,50.262,34.794,50.088,34.794z M13.658,33.845
				h36.154l6.881-16.194L49.812,1.456H13.658L6.777,17.65L13.658,33.845z"/>
		</g>
	</g>
</g>
</svg>
