<?xml version="1.0" encoding="iso-8859-1"?>
<!-- Generator: Adobe Illustrator 16.0.0, SVG Export Plug-In . SVG Version: 6.00 Build 0)  -->
<!DOCTYPE svg PUBLIC "-//W3C//DTD SVG 1.1//EN" "http://www.w3.org/Graphics/SVG/1.1/DTD/svg11.dtd">
<svg version="1.1" id="korea_x5F_2-layer" xmlns="http://www.w3.org/2000/svg" xmlns:xlink="http://www.w3.org/1999/xlink" x="0px"
	 y="0px" width="63.516px" height="35.434px" viewBox="0 0 63.516 35.434" style="enable-background:new 0 0 63.516 35.434;"
	 xml:space="preserve">
<g id="korea_x5F_2">
	<g>
		<polygon style="fill:#FFFFFF;" points="0,17.65 12.764,0 50.786,0 63.517,17.716 50.786,35.434 12.764,35.434 		"/>
	</g>
	<g>
		<g>
			<path style="fill:#588AC6;" d="M50.087,34.795H13.384c-0.174,0-0.336-0.071-0.442-0.195L1.156,17.958
				C1,17.775,1,17.521,1.156,17.342L12.942,0.7c0.106-0.124,0.268-0.196,0.442-0.196h36.703c0.174,0,0.336,0.072,0.441,0.196
				l11.787,16.642c0.155,0.18,0.155,0.434,0,0.616L50.528,34.6C50.423,34.724,50.261,34.795,50.087,34.795z M13.658,33.845h36.154
				l6.881-16.194L49.812,1.456H13.658L6.777,17.65L13.658,33.845z"/>
		</g>
	</g>
	<g>
		<polygon style="fill:#D66867;" points="49.722,9.336 13.626,9.336 15.51,4.016 47.837,4.016 		"/>
	</g>
</g>
</svg>
