<?xml version="1.0" encoding="UTF-8"?>
<!DOCTYPE svg PUBLIC "-//W3C//DTD SVG 1.1 Tiny//EN" "http://www.w3.org/Graphics/SVG/1.1/DTD/svg11-tiny.dtd">
<svg baseProfile="tiny" height="18px" version="1.1" viewBox="0 0 16 18" width="16px" x="0px" xmlns="http://www.w3.org/2000/svg" xmlns:xlink="http://www.w3.org/1999/xlink" y="0px">
<path d="M8,17.5c-4.136,0-7.5-3.364-7.5-7.5V3c0-1.378,1.122-2.5,2.5-2.5h10c1.379,0,2.5,1.122,2.5,2.5v7  C15.5,14.136,12.137,17.5,8,17.5z" fill="#F4F2E9"/>
<path d="M14,10c0,3.313-2.688,6-6,6c-3.313,0-6-2.688-6-6V3c0-0.552,0.448-1,1-1h10  c0.553,0,1,0.448,1,1V10" fill="none" stroke="#323232"/>
</svg>
