<?xml version="1.0" encoding="UTF-8"?>
<!DOCTYPE svg PUBLIC "-//W3C//DTD SVG 1.1 Tiny//EN" "http://www.w3.org/Graphics/SVG/1.1/DTD/svg11-tiny.dtd">
<svg baseProfile="tiny" height="20px" version="1.1" viewBox="0 0 30 20" width="30px" x="0px" xmlns="http://www.w3.org/2000/svg" xmlns:xlink="http://www.w3.org/1999/xlink" y="0px">
<path d="M15,19.5c-4.897,0-9.131-1.139-13.728-3.688C0.796,15.548,0.5,15.045,0.5,14.5v-9  c0-0.545,0.296-1.047,0.772-1.312C5.871,1.638,10.104,0.5,15,0.5c4.896,0,9.13,1.138,13.729,3.688C29.204,4.453,29.5,4.956,29.5,5.5  v9c0,0.545-0.296,1.048-0.771,1.313C24.131,18.361,19.896,19.5,15,19.5z" fill="#F4F2E9"/>
<path d="M2,5.5C6.563,2.969,10.634,2,15,2  c4.365,0,8.438,0.969,13,3.5v9c-4.563,2.531-8.634,3.5-13,3.5c-4.365,0-8.438-0.969-13-3.5V5.5z" fill="none" stroke="#323232" stroke-linecap="round" stroke-linejoin="round"/>
</svg>
