<?xml version="1.0" encoding="UTF-8"?>
<!DOCTYPE svg PUBLIC "-//W3C//DTD SVG 1.1 Tiny//EN" "http://www.w3.org/Graphics/SVG/1.1/DTD/svg11-tiny.dtd">
<svg baseProfile="tiny" height="20px" version="1.1" viewBox="0 0 20 20" width="20px" x="0px" xmlns="http://www.w3.org/2000/svg" xmlns:xlink="http://www.w3.org/1999/xlink" y="0px">
<path d="M10.036,19.77c-0.191,0-0.379-0.035-0.559-0.107l-5.103-2.053c-2.672-1.141-3.846-2.047-3.916-5.944V5.639  c0-0.069,0.005-0.139,0.014-0.208C0.661,4.097,1.656,3.21,3.006,3.169l14.016-0.001c1.379,0,2.5,1.122,2.5,2.501v6  c-0.047,3.829-1.438,4.782-3.723,5.897l-5.203,2.095C10.416,19.732,10.228,19.77,10.036,19.77z" fill="#F4F2E9"/>
<path d="M17.021,4.668c0.554,0,1,0.448,1,1.001v6  c-0.037,3.065-0.896,3.581-2.881,4.55l-5.104,2.051l-5.103-2.051c-2.268-0.969-2.919-1.406-2.975-4.58v-6  c0.086-0.606,0.446-0.95,1.094-0.97L17.021,4.668L17.021,4.668z" fill="none" stroke="#323232" stroke-linecap="round" stroke-linejoin="round"/>
</svg>
