<?xml version="1.0" encoding="iso-8859-1"?>
<!-- Generator: Adobe Illustrator 16.0.3, SVG Export Plug-In . SVG Version: 6.00 Build 0)  -->
<!DOCTYPE svg PUBLIC "-//W3C//DTD SVG 1.1//EN" "http://www.w3.org/Graphics/SVG/1.1/DTD/svg11.dtd">
<svg version="1.1" id="peru_x5F_1-layer" xmlns="http://www.w3.org/2000/svg" xmlns:xlink="http://www.w3.org/1999/xlink" x="0px"
	 y="0px" width="22px" height="22.5px" viewBox="0 0 22 22.5" style="enable-background:new 0 0 22 22.5;" xml:space="preserve">
<g id="peru_x5F_1_1_">
	<rect style="fill:none;" width="22" height="22.5"/>
	<path style="fill:#F4F2E9;" d="M10.971,20.107c-0.34,0-0.672-0.139-0.938-0.389c-0.006-0.006-0.877-0.795-2.002-0.795
		c-0.32,0.006-0.596,0.018-0.861,0.027c-0.361,0.012-0.709,0.023-1.045,0.023c-1.521,0-3.271-0.271-4.732-2.301
		c-1.707-2.371-1.711-5.139-0.012-8.231c0.133-0.242,0.186-0.438,0.154-0.582C1.461,7.523,1.039,7.128,0.883,7.028
		C0.527,6.801,0.258,6.403,0.15,5.937C0.043,5.473,0.1,4.969,0.311,4.555l1.875-3.698c0.402-0.794,1.348-1.09,2.033-0.623
		c0.063,0.04,1.617,1.063,3.004,1.063c1.137,0,2.596-0.796,3.018-1.077c0.443-0.293,1.016-0.294,1.461-0.001
		c0.016,0.01,1.67,1.078,3.021,1.078c1.178,0,2.596-0.787,3-1.063c0.682-0.465,1.631-0.173,2.035,0.623l1.875,3.697
		c0.211,0.416,0.268,0.92,0.16,1.386c-0.107,0.463-0.375,0.861-0.734,1.089c-0.191,0.127-0.584,0.521-0.648,0.836
		c-0.029,0.144,0.021,0.337,0.152,0.579c1.697,3.092,1.693,5.86-0.01,8.229c-1.463,2.029-3.213,2.303-4.732,2.303
		c-0.336,0-0.686-0.012-1.047-0.025c-0.266-0.01-0.539-0.021-0.822-0.025c-1.166,0-2.027,0.783-2.037,0.791
		C11.65,19.967,11.314,20.107,10.971,20.107z"/>
	<path style="fill:#D66867;" d="M2.563,6.086C2.143,5.455,1.596,5.59,1.596,5.59l1.875-3.697c0,0,1.906,1.302,3.75,1.302
		c1.783,0,3.75-1.302,3.75-1.302s1.969,1.302,3.752,1.302c1.842,0,3.748-1.302,3.748-1.302l1.877,3.697c0,0-0.58-0.114-1.008,0.554
		L2.563,6.086z"/>
	<path style="fill:none;stroke:#323232;stroke-linecap:round;stroke-linejoin:round;" d="M10.971,1.771c0,0,1.969,1.302,3.752,1.302
		c1.842,0,3.748-1.302,3.748-1.302l1.877,3.697c0,0-0.58,0.37-1.008,1.038c-0.436,0.683-0.709,1.678-0.035,2.905
		c1.316,2.397,1.418,4.289,0.104,6.113c-1.475,2.049-3.219,1.662-5.438,1.627c-1.74-0.027-3,1.184-3,1.184s-1.26-1.211-3-1.184
		c-2.219,0.035-3.961,0.422-5.438-1.627c-1.314-1.822-1.213-3.715,0.104-6.113C3.33,8.147,3.02,7.131,2.563,6.447
		c-0.42-0.631-0.967-0.979-0.967-0.979l1.875-3.697c0,0,1.906,1.302,3.75,1.302C9.004,3.072,10.971,1.771,10.971,1.771z"/>
	
		<line style="fill:none;stroke:#323232;stroke-linecap:round;stroke-linejoin:round;" x1="2.336" y1="6.145" x2="19.59" y2="6.145"/>
</g>
</svg>
