<?xml version="1.0" encoding="UTF-8"?>
<!DOCTYPE svg PUBLIC "-//W3C//DTD SVG 1.1 Tiny//EN" "http://www.w3.org/Graphics/SVG/1.1/DTD/svg11-tiny.dtd">
<svg baseProfile="tiny" height="18px" version="1.1" viewBox="0 0 24 18" width="24px" x="0px" xmlns="http://www.w3.org/2000/svg" xmlns:xlink="http://www.w3.org/1999/xlink" y="0px">
<path d="M12,17.5c-0.34,0-0.673-0.117-0.938-0.329c-0.006-0.005-0.877-0.671-2.002-0.671  c-0.321,0.004-0.595,0.013-0.862,0.021c-0.361,0.012-0.708,0.022-1.045,0.022c-1.52,0-3.27-0.231-4.731-1.946  c-1.707-2.002-1.711-4.342-0.013-6.957c0.624-0.958-0.811-2.423-0.825-2.438C1.266,4.9,1.1,4.47,1.128,4.028  c0.029-0.442,0.25-0.847,0.606-1.11l2.875-2.125c0.457-0.34,1.098-0.386,1.603-0.115C6.228,0.688,8.317,1.75,11.862,1.75  c3.842-0.018,5.915-1.065,5.936-1.076c0.492-0.259,1.139-0.217,1.594,0.119l2.875,2.125c0.355,0.263,0.576,0.667,0.605,1.108  c0.028,0.444-0.14,0.874-0.459,1.18c-0.008,0.008-1.452,1.465-0.822,2.434c1.697,2.614,1.693,4.954-0.011,6.957  c-1.463,1.715-3.213,1.946-4.732,1.946c-0.336,0-0.685-0.011-1.046-0.022c-0.267-0.009-0.54-0.018-0.822-0.021  c-1.165,0-2.029,0.661-2.038,0.668C12.68,17.381,12.344,17.5,12,17.5z" fill="#D66767"/>
<path d="M18.5,2l2.875,2.125  c0,0-2.375,2.281-1.042,4.333c1.315,2.026,1.417,3.625,0.104,5.167C18.961,15.357,17.219,15.031,15,15c-1.74-0.023-3,1-3,1  s-1.26-1.023-3-1c-2.219,0.031-3.961,0.357-5.438-1.375c-1.313-1.541-1.212-3.141,0.104-5.167C5,6.406,2.625,4.125,2.625,4.125  L5.5,2c0,0,2.354,1.27,6.458,1.25C16.23,3.229,18.5,2,18.5,2z" fill="none" stroke="#FFFFFF" stroke-linecap="round" stroke-linejoin="round"/>
</svg>
