<?xml version="1.0" encoding="iso-8859-1"?>
<!-- Generator: Adobe Illustrator 16.0.3, SVG Export Plug-In . SVG Version: 6.00 Build 0)  -->
<!DOCTYPE svg PUBLIC "-//W3C//DTD SVG 1.1//EN" "http://www.w3.org/Graphics/SVG/1.1/DTD/svg11.dtd">
<svg version="1.1" id="saudiarabia_x5F_3-layer" xmlns="http://www.w3.org/2000/svg" xmlns:xlink="http://www.w3.org/1999/xlink"
	 x="0px" y="0px" width="16px" height="16px" viewBox="0 0 16 16" style="enable-background:new 0 0 16 16;" xml:space="preserve">
<g id="saudiarabia_x5F_3">
	<path style="fill:#559856;" d="M12.999,15.5H3c-1.379,0-2.5-1.121-2.5-2.5V3c0-1.379,1.121-2.5,2.5-2.5h9.999
		c1.38,0,2.501,1.121,2.501,2.5v10C15.5,14.379,14.379,15.5,12.999,15.5z"/>
	<circle style="fill:#FCF8EF;" cx="8" cy="8" r="6"/>
	<path style="fill:none;stroke:#FFFFFF;stroke-linecap:round;stroke-linejoin:round;" d="M3,2h9.999C13.553,2,14,2.448,14,3v10
		c0,0.553-0.447,1-1.001,1H3c-0.553,0-1.001-0.447-1.001-1V3C1.999,2.448,2.447,2,3,2z"/>
	<rect style="fill:none;" width="16" height="16"/>
</g>
</svg>
