<?xml version="1.0" encoding="iso-8859-1"?>
<!-- Generator: Adobe Illustrator 16.0.3, SVG Export Plug-In . SVG Version: 6.00 Build 0)  -->
<!DOCTYPE svg PUBLIC "-//W3C//DTD SVG 1.1//EN" "http://www.w3.org/Graphics/SVG/1.1/DTD/svg11.dtd">
<svg version="1.1" id="saudiarabia_x5F_2-layer" xmlns="http://www.w3.org/2000/svg" xmlns:xlink="http://www.w3.org/1999/xlink"
	 x="0px" y="0px" width="16px" height="19.67px" viewBox="0 0 16 19.67" style="enable-background:new 0 0 16 19.67;"
	 xml:space="preserve">
<g id="saudiarabia_x5F_2_1_">
	<path style="fill:#559856;" d="M12.999,15.5H3c-1.379,0-2.5-1.121-2.5-2.5V3c0-1.379,1.121-2.5,2.5-2.5h9.999
		c1.38,0,2.501,1.121,2.501,2.5v10C15.5,14.379,14.379,15.5,12.999,15.5z"/>
	<path style="fill:#FCF8EF;" d="M14,13V7.495c0-0.442-0.165-0.845-0.288-1.007c-0.148-0.195-0.365-0.538-1.049-0.538
		s-1.026,0.534-1.026,0.534s0.031-0.759,0-1.358c-0.031-0.601,0-0.79-0.373-1.137c-0.373-0.348-1.243-0.348-1.771-0.664
		C8.963,3.01,8,2.03,8,2.03S7.035,3.01,6.508,3.325c-0.529,0.316-1.4,0.316-1.773,0.664C4.361,4.336,4.393,4.525,4.361,5.126
		c-0.031,0.6,0,1.358,0,1.358S4.02,5.95,3.336,5.95c-0.686,0-0.899,0.343-1.049,0.538C2.162,6.65,1.999,7.053,1.999,7.495V13
		c0,0.553,0.448,1,1.001,1h9.999C13.552,14,14,13.553,14,13z"/>
	<path style="fill:none;stroke:#FFFFFF;stroke-linecap:round;stroke-linejoin:round;" d="M3,2h9.999C13.553,2,14,2.448,14,3v10
		c0,0.553-0.447,1-1.001,1H3c-0.553,0-1.001-0.447-1.001-1V3C1.999,2.448,2.447,2,3,2z"/>
	<rect style="fill:none;" width="16" height="19.67"/>
</g>
</svg>
