<?xml version="1.0" encoding="UTF-8"?>
<!DOCTYPE svg PUBLIC "-//W3C//DTD SVG 1.1 Tiny//EN" "http://www.w3.org/Graphics/SVG/1.1/DTD/svg11-tiny.dtd">
<svg baseProfile="tiny" height="26px" version="1.1" viewBox="0 0 26 26" width="26px" x="0px" xmlns="http://www.w3.org/2000/svg" xmlns:xlink="http://www.w3.org/1999/xlink" y="0px">
<path d="M13,25.432c-0.566,0-1.098-0.221-1.499-0.621L1.191,14.498c-0.826-0.826-0.826-2.17,0-2.997l10.31-10.31  c0.801-0.8,2.197-0.801,2.997,0l10.313,10.31c0.824,0.827,0.824,2.171,0.001,2.998L14.498,24.811  C14.098,25.211,13.565,25.432,13,25.432z" fill="#569956"/>
<path d="M13.573,2.118l10.31,10.31c0.318,0.316,0.316,0.828,0,1.146l-10.31,10.31  c-0.317,0.318-0.829,0.318-1.146,0L2.118,13.573c-0.317-0.317-0.317-0.829,0-1.146l10.309-10.31  C12.744,1.801,13.256,1.801,13.573,2.118z" fill="none" stroke="#FFFFFF"/>
</svg>
