<?xml version="1.0" encoding="UTF-8"?>
<!DOCTYPE svg PUBLIC "-//W3C//DTD SVG 1.1 Tiny//EN" "http://www.w3.org/Graphics/SVG/1.1/DTD/svg11-tiny.dtd">
<svg baseProfile="tiny" height="20px" version="1.1" viewBox="0 0 22 20" width="22px" x="0px" xmlns="http://www.w3.org/2000/svg" xmlns:xlink="http://www.w3.org/1999/xlink" y="0px">
<path d="M11.308,19.5h-0.616c-4.362,0-4.802-0.126-9.42-2.688C0.796,16.548,0.5,16.045,0.5,15.5v-11  c0-0.545,0.296-1.047,0.772-1.312C5.892,0.625,6.332,0.5,10.692,0.5h0.616c4.36,0,4.8,0.125,9.419,2.688  C21.204,3.453,21.5,3.956,21.5,4.5v11c0,0.545-0.296,1.048-0.772,1.312C16.109,19.374,15.669,19.5,11.308,19.5z" fill="#588BC6"/>
<path d="M2,4.5C6.563,1.969,6.634,2,11,2  c4.365,0,4.438-0.031,9,2.5v11c-4.563,2.531-4.634,2.5-9,2.5c-4.365,0-4.438,0.031-9-2.5V4.5z" fill="none" stroke="#FFFFFF" stroke-linecap="round" stroke-linejoin="round"/>
</svg>
