<?xml version="1.0" encoding="iso-8859-1"?>
<!-- Generator: Adobe Illustrator 16.0.3, SVG Export Plug-In . SVG Version: 6.00 Build 0)  -->
<!DOCTYPE svg PUBLIC "-//W3C//DTD SVG 1.1//EN" "http://www.w3.org/Graphics/SVG/1.1/DTD/svg11.dtd">
<svg version="1.1" id="u_x5F_a_x5F_emirates_x5F_2c-layer"
	 xmlns="http://www.w3.org/2000/svg" xmlns:xlink="http://www.w3.org/1999/xlink" x="0px" y="0px" width="18.75px"
	 height="30.439px" viewBox="0 0 18.75 30.439" style="enable-background:new 0 0 18.75 30.439;" xml:space="preserve">
<g id="u_x5F_a_x5F_emirates_x5F_2c">
	<rect style="fill:none;" width="18.625" height="30.439"/>
	<path style="fill:#FCF8EF;" d="M2.5,22.447c-1.378,0-2.5-1.121-2.5-2.5V5.044c0-1.379,1.122-2.5,2.5-2.5h5.375V2.5
		c0-1.379,1.122-2.5,2.5-2.5h5.875c1.379,0,2.5,1.121,2.5,2.5v17.447c0,1.379-1.121,2.5-2.5,2.5H2.5z"/>
	<g>
		<path style="fill-rule:evenodd;clip-rule:evenodd;fill:#333333;" d="M14.752,9.833c-0.127-0.053-0.275-0.105-0.416-0.176
			c-0.391-0.193-0.52-0.457-0.434-0.885c0.063-0.316,0.197-0.602,0.402-0.848c0.377-0.457,0.922-0.372,1.119,0.188
			c0.092,0.263,0.121,0.549,0.166,0.826c0.021,0.127,0.012,0.258,0.012,0.389c0.002,0.424,0,0.846,0,1.297
			c-0.066,0-0.125,0.001-0.184,0c-1.391,0-2.779,0.003-4.17-0.005c-0.537-0.003-1.072-0.046-1.583-0.233
			c-0.751-0.273-1.074-0.813-0.9-1.588C8.849,8.423,9.02,8.069,9.156,7.69c0.085,0.048,0.133,0.074,0.179,0.1
			c-0.087,0.239-0.188,0.466-0.25,0.703C8.967,8.951,9.143,9.315,9.563,9.535c0.383,0.2,0.806,0.286,1.226,0.292
			C12.115,9.846,13.441,9.833,14.752,9.833z M15.152,9.313c-0.004-0.261-0.014-0.489-0.139-0.694c-0.07-0.111-0.18-0.173-0.303-0.13
			c-0.08,0.027-0.172,0.094-0.207,0.167c-0.094,0.197-0.012,0.407,0.186,0.498C14.83,9.218,14.982,9.256,15.152,9.313z"/>
		<path style="fill-rule:evenodd;clip-rule:evenodd;fill:#333333;" d="M14.033,5.812c0.242,0.129,0.465,0.248,0.703,0.376
			c-0.121,0.219-0.236,0.427-0.357,0.646c-0.24-0.131-0.465-0.253-0.707-0.385C13.793,6.235,13.908,6.032,14.033,5.812z"/>
	</g>
	<path style="fill:#333333;" d="M16.25,21.447H2.5c-0.827,0-1.5-0.673-1.5-1.5V5.044c0-0.828,0.673-1.5,1.5-1.5h5.875
		c0.275,0,0.5-0.225,0.5-0.5V2.5c0-0.827,0.673-1.5,1.5-1.5h5.875c0.828,0,1.5,0.673,1.5,1.5v17.447
		C17.75,20.774,17.078,21.447,16.25,21.447z M2.5,4.544c-0.275,0-0.5,0.224-0.5,0.5v14.903c0,0.276,0.225,0.5,0.5,0.5h13.75
		c0.275,0,0.5-0.224,0.5-0.5V2.5c0-0.276-0.225-0.5-0.5-0.5h-5.875c-0.275,0-0.5,0.224-0.5,0.5v0.544c0,0.826-0.672,1.5-1.5,1.5H2.5
		z"/>
	<rect x="11.5" y="1.908" style="fill:#333333;" width="1" height="1"/>
	<rect x="14.236" y="1.908" style="fill:#333333;" width="1" height="1"/>
	<g>
		<path style="fill:#333333;" d="M3.816,5.944h3.646v1.044H4.995v1.288h1.887v1.046H4.995v2.542H3.816V5.944z"/>
	</g>
</g>
</svg>
