<?xml version="1.0" encoding="iso-8859-1"?>
<!-- Generator: Adobe Illustrator 16.0.3, SVG Export Plug-In . SVG Version: 6.00 Build 0)  -->
<!DOCTYPE svg PUBLIC "-//W3C//DTD SVG 1.1//EN" "http://www.w3.org/Graphics/SVG/1.1/DTD/svg11.dtd">
<svg version="1.1" id="white_x5F_pentagon_x5F_round-layer"
	 xmlns="http://www.w3.org/2000/svg" xmlns:xlink="http://www.w3.org/1999/xlink" x="0px" y="0px" width="20px" height="20px"
	 viewBox="0 0 20 20" style="enable-background:new 0 0 20 20;" xml:space="preserve">
<g id="white_x5F_pentagon_x5F_round">
	<rect style="fill:none;" width="20" height="20"/>
	<path style="fill:#F4F2E9;" d="M10.035,19.77c-0.189,0-0.379-0.035-0.559-0.106l-5.104-2.054c-2.672-1.141-3.846-2.047-3.916-5.943
		V5.639c0-0.069,0.006-0.139,0.016-0.208C0.66,4.097,1.656,3.21,3.006,3.169l14.016-0.001c1.379,0,2.5,1.122,2.5,2.501v6
		c-0.047,3.829-1.438,4.782-3.723,5.897l-5.203,2.095C10.416,19.732,10.229,19.77,10.035,19.77z"/>
	<path style="fill:none;stroke:#323232;stroke-linecap:round;stroke-linejoin:round;" d="M17.021,4.668c0.553,0,1,0.448,1,1.001v6
		c-0.037,3.065-0.896,3.581-2.881,4.55l-5.105,2.051l-5.102-2.051c-2.27-0.969-2.92-1.406-2.977-4.58v-6
		c0.086-0.606,0.447-0.95,1.096-0.97L17.021,4.668L17.021,4.668z"/>
</g>
</svg>
