<svg width="28" height="35" viewBox="0 0 28 35" fill="none" xmlns="http://www.w3.org/2000/svg">
<g id=" usa / x_axles_restriction_usa">
<rect width="28" height="35" fill="white" fill-opacity="0.01"/>
<g id="non-stretchable_items">
<g id="_Elements / Background">
<path id="Vector" d="M14 1L1 14L14 27L27 14L14 1Z" fill="#333333"/>
<path id="Vector_2" d="M13.9995 25.5L25.5 14L13.9995 2.5L2.5 14L13.9995 25.5Z" fill="#F7FA19"/>
</g>
<g id="Group 3">
<path id="Vector_3" d="M11 12.5C11 12.775 10.775 13 10.5 13H9.5C9.225 13 9 12.775 9 12.5V9.5C9 9.225 9.225 9 9.5 9H10.5C10.775 9 11 9.225 11 9.5V12.5Z" fill="#333333"/>
<path id="Vector_4" d="M19 12.5C19 12.775 18.775 13 18.5 13H17.5C17.225 13 17 12.775 17 12.5V9.5C17 9.225 17.225 9 17.5 9H18.5C18.775 9 19 9.225 19 9.5V12.5Z" fill="#333333"/>
<path id="Vector_5" d="M17 10.5H11V11.5H17V10.5Z" fill="#333333"/>
<path id="Vector_6" d="M14 12.5C14.8284 12.5 15.5 11.8284 15.5 11C15.5 10.1716 14.8284 9.5 14 9.5C13.1716 9.5 12.5 10.1716 12.5 11C12.5 11.8284 13.1716 12.5 14 12.5Z" fill="#333333"/>
</g>
</g>
</g>
</svg>
