<svg width="28" height="35" viewBox="0 0 28 35" fill="none" xmlns="http://www.w3.org/2000/svg">
<g id="axle_number_restriction2">
<rect width="28" height="35" fill="white" fill-opacity="0.01"/>
<g id="non-stretchable_items">
<g id="_Elements / Background">
<circle id="outer-ring" cx="14" cy="14" r="13" fill="#FB1858"/>
<circle id="inner-ring" cx="14" cy="14" r="10" fill="white"/>
</g>
<g id="Group 4">
<path id="Vector" d="M11 11.5C11 11.775 10.775 12 10.5 12H9.5C9.225 12 9 11.775 9 11.5V8.5C9 8.225 9.225 8 9.5 8H10.5C10.775 8 11 8.225 11 8.5V11.5Z" fill="#333333"/>
<path id="Vector_2" d="M19 11.5C19 11.775 18.775 12 18.5 12H17.5C17.225 12 17 11.775 17 11.5V8.5C17 8.225 17.225 8 17.5 8H18.5C18.775 8 19 8.225 19 8.5V11.5Z" fill="#333333"/>
<path id="Vector_3" d="M14 11.5C14.8284 11.5 15.5 10.8284 15.5 10C15.5 9.17157 14.8284 8.5 14 8.5C13.1716 8.5 12.5 9.17157 12.5 10C12.5 10.8284 13.1716 11.5 14 11.5Z" fill="#333333"/>
<path id="Vector_4" d="M17 9.5H11V10.5H17V9.5Z" fill="#333333"/>
</g>
</g>
</g>
</svg>
