<svg width="28" height="28" viewBox="0 0 28 28" fill="none" xmlns="http://www.w3.org/2000/svg">
<g id="hazmat_explosives_usa">
<rect width="28" height="28" fill="white" fill-opacity="0.01"/>
<g id="non-stretchable_items">
<g id="truck-icon_base03">
<path id="Union" d="M13.9993 1.00018L26.9994 14.0002L14 26.9995L1 13.9995L13.9993 1.00018Z" fill="#333333"/>
<path id="Union_2" d="M25.0003 13.9998L14.0006 24.9995L3.00098 13.9998L14.0006 3.00018L25.0003 13.9998Z" fill="#FF860D"/>
</g>
<path id="Vector" d="M18 8L15 10L14 7L13 10L10 8L11.364 11.745L9 11L10.657 12.947L7 14.063L10.677 15.188L9 17L11.361 16.4L10 20L13 18L14 21L15 18L18 20L16.637 16.379L19 17L17.348 15.182L21 14.063L17.324 12.94L19 11L16.643 11.726L18 8ZM10 14L13 13L14 10L15 13L18 14L15 15L14 18L13 15L10 14Z" fill="#333333"/>
</g>
</g>
</svg>
