<svg width="28" height="28" viewBox="0 0 28 28" fill="none" xmlns="http://www.w3.org/2000/svg">
<g id="hazmat_flammablesolid_combustible_usa">
<rect width="28" height="28" fill="white" fill-opacity="0.01"/>
<g id="non-stretchable_items">
<g id="truck-icon_base05">
<path id="Union" d="M13.9993 1.00018L26.9994 14.0002L14 26.9995L1 13.9995L13.9993 1.00018Z" fill="#333333"/>
<path id="Union_2" d="M25.0003 13.9998L14.0006 24.9995L3.00098 13.9998L14.0006 3.00018L25.0003 13.9998Z" fill="white"/>
</g>
<path id="Vector" d="M9 8V20L6 17V11L9 8ZM14 3L12 5V23L14 25L16 23V5L14 3ZM19 8V20L22 17V11L19 8Z" fill="#FC1959"/>
<path id="Vector_2" d="M17.443 11.358C17.125 12.968 15.964 13.971 14.976 14.405C14.965 14.416 15.659 13.111 15.601 11.342C15.529 9.14799 14.075 7.18199 12.181 6.29099C12.343 6.83699 12.437 7.41299 12.437 8.01099C12.437 9.59899 11.814 11.047 10.791 12.104C9.52095 13.417 8.94895 14.631 8.99995 16.029C9.14795 20.148 12.777 20.974 12.885 21C12.215 20.607 11.763 19.859 11.763 19.003C11.763 16.965 13.952 15.413 13.952 15.413C13.952 15.413 16.14 16.993 16.14 19.003C16.14 19.857 15.691 20.602 15.029 20.995C16.302 20.7 17.287 20.025 18 18.947C18.02 18.916 19 17.437 19 15.497C19 13.857 18.398 12.384 17.443 11.358Z" fill="#333333"/>
</g>
</g>
</svg>
