<svg width="28" height="30" viewBox="0 0 28 30" fill="none" xmlns="http://www.w3.org/2000/svg">
<g id="weight_per_axle_restriction_usa">
<rect width="28" height="30" fill="white" fill-opacity="0.01"/>
<g id="non-stretchable_items">
<g id="truck-icon_base04">
<path id="Vector" d="M14 3L1 16L14 29L27 16L14 3Z" fill="#333333"/>
<path id="Vector_2" d="M13.9995 27.5L25.5 16L13.9995 4.5L2.5 16L13.9995 27.5Z" fill="#F6FA18"/>
</g>
<path id="Vector_3" d="M11 21.5C11 21.775 10.775 22 10.5 22H9.5C9.225 22 9 21.775 9 21.5V18.5C9 18.225 9.225 18 9.5 18H10.5C10.775 18 11 18.225 11 18.5V21.5Z" fill="#333333"/>
<path id="Vector_4" d="M19 21.5C19 21.775 18.775 22 18.5 22H17.5C17.225 22 17 21.775 17 21.5V18.5C17 18.225 17.225 18 17.5 18H18.5C18.775 18 19 18.225 19 18.5V21.5Z" fill="#333333"/>
<path id="Vector_5" d="M17 19.5H11V20.5H17V19.5Z" fill="#333333"/>
<path id="Vector_6" d="M14 21.5C14.8284 21.5 15.5 20.8284 15.5 20C15.5 19.1716 14.8284 18.5 14 18.5C13.1716 18.5 12.5 19.1716 12.5 20C12.5 20.8284 13.1716 21.5 14 21.5Z" fill="#333333"/>
<path id="Union" d="M14.0006 2.99939L17.0007 6.00117L14.0011 8.99913L11.001 5.99735L14.0006 2.99939Z" fill="#333333"/>
</g>
</g>
</svg>
