<svg width="20" height="26" viewBox="0 0 20 26" fill="none" xmlns="http://www.w3.org/2000/svg">
<g id="default / accommodation">
<g id="POI-base">
<g id="Category_Master">
<g id="Baseshape_Pin">
<path id="shape" d="M6.12903 20.4794L6.12726 20.4777C3.78964 18.19 2.64527 16.3664 2.07698 14.8457C1.50986 13.3281 1.5 12.0735 1.5 10.8565C1.5 6.24879 5.30485 2.5 9.99133 2.5C14.6791 2.5 18.5 6.25003 18.5 10.8565C18.5 12.0735 18.4901 13.3281 17.923 14.8457C17.3547 16.3664 16.2104 18.19 13.8728 20.4777L13.8717 20.4787L9.99205 24.2977L6.12903 20.4794Z" fill="#5A7FCE" stroke="#3E5EA2"/>
</g>
</g>
<g id="Icon_Master">
<g id="accommodation">
<path id="Vector" d="M14.5 11.5H10V9.5H13.5C13.7652 9.5 14.0196 9.60536 14.2071 9.79289C14.3946 9.98043 14.5 10.2348 14.5 10.5V11.5ZM7 11.5V10.5C7 10.2348 7.10536 9.98043 7.29289 9.79289C7.48043 9.60536 7.73478 9.5 8 9.5C8.26522 9.5 8.51957 9.60536 8.70711 9.79289C8.89464 9.98043 9 10.2348 9 10.5V11.5H7ZM15 12.875C14.9987 12.7759 14.9588 12.6813 14.8887 12.6113C14.8187 12.5412 14.7241 12.5013 14.625 12.5H6V8.5H5V16H6V14.5H14V16H15V12.875Z" fill="white"/>
</g>
</g>
</g>
</g>
</svg>
