<svg width="20" height="26" viewBox="0 0 20 26" fill="none" xmlns="http://www.w3.org/2000/svg">
<g id="default / beach">
<g id="POI-base">
<g id="Category_Master">
<g id="Baseshape_Pin">
<path id="shape" d="M6.12903 20.4794L6.12726 20.4777C3.78964 18.19 2.64527 16.3664 2.07698 14.8457C1.50986 13.3281 1.5 12.0735 1.5 10.8565C1.5 6.24879 5.30485 2.5 9.99133 2.5C14.6791 2.5 18.5 6.25003 18.5 10.8565C18.5 12.0735 18.4901 13.3281 17.923 14.8457C17.3547 16.3664 16.2104 18.19 13.8728 20.4777L13.8717 20.4787L9.99205 24.2977L6.12903 20.4794Z" fill="#45BF94" stroke="#308C7A"/>
</g>
</g>
<g id="Icon_Master">
<g id="beach">
<path id="Vector" d="M15 10.69C15.0027 10.7938 14.9849 10.897 14.9476 10.9939C14.9103 11.0907 14.8544 11.1793 14.7828 11.2545C14.7113 11.3298 14.6257 11.3902 14.5309 11.4323C14.436 11.4744 14.3338 11.4974 14.23 11.5H13C12.898 11.4997 12.7971 11.4787 12.7035 11.4383C12.6098 11.3979 12.5253 11.339 12.455 11.265L11.925 10.69L11.38 11.265C11.3098 11.339 11.2252 11.3979 11.1316 11.4383C11.0379 11.4787 10.937 11.4997 10.835 11.5H9.16502C9.06301 11.4997 8.96213 11.4787 8.86846 11.4383C8.77479 11.3979 8.69027 11.339 8.62002 11.265L8.07502 10.69L7.53502 11.265C7.46593 11.3378 7.38303 11.396 7.29117 11.4364C7.19931 11.4767 7.10033 11.4983 7.00002 11.5H5.77002C5.66626 11.4974 5.56403 11.4744 5.46918 11.4323C5.37432 11.3902 5.28869 11.3298 5.21718 11.2545C5.14568 11.1793 5.08969 11.0907 5.05243 10.9939C5.01517 10.897 4.99736 10.7938 5.00002 10.69C6.04502 9.155 7.14502 8 9.52502 8H9.73502V7.25H10.235V8H10.5C12.855 8 13.955 9.155 15 10.69ZM9.61502 12.5L9.50002 16.5H10.5L10.385 12.5H9.61502Z" fill="white"/>
</g>
</g>
</g>
</g>
</svg>
