<svg width="20" height="26" viewBox="0 0 20 26" fill="none" xmlns="http://www.w3.org/2000/svg">
<g id="default / car-rental">
<g id="POI-base">
<g id="Category_Master">
<g id="Baseshape_Pin">
<path id="shape" d="M6.12903 20.4794L6.12726 20.4777C3.78964 18.19 2.64527 16.3664 2.07698 14.8457C1.50986 13.3281 1.5 12.0735 1.5 10.8565C1.5 6.24879 5.30485 2.5 9.99133 2.5C14.6791 2.5 18.5 6.25003 18.5 10.8565C18.5 12.0735 18.4901 13.3281 17.923 14.8457C17.3547 16.3664 16.2104 18.19 13.8728 20.4777L13.8717 20.4787L9.99205 24.2977L6.12903 20.4794Z" fill="#A0B1DA" stroke="#7182AB"/>
</g>
</g>
<g id="Icon_Master">
<g id="car-rental">
<path id="Vector" d="M6.855 10H9L9.375 9.25H10.75L11.25 8.75L11.75 9.25H13L13.735 8.5L13 7.75H9.375L9 7H6.855C6.62864 7.00131 6.41193 7.09181 6.25187 7.25187C6.09181 7.41193 6.00131 7.62864 6 7.855V9.14C5.99934 9.2527 6.02097 9.36442 6.06364 9.46873C6.10631 9.57304 6.16919 9.66789 6.24865 9.74781C6.32811 9.82774 6.42259 9.89116 6.52665 9.93444C6.63071 9.97772 6.7423 10 6.855 10ZM7 8H8.5V9H7V8ZM13.89 12.5L13.39 11.35C13.2838 11.1013 13.1078 10.8886 12.8833 10.7378C12.6588 10.5869 12.3954 10.5043 12.125 10.5H7.89C7.62185 10.506 7.36115 10.5894 7.13935 10.7402C6.91756 10.891 6.74413 11.1028 6.64 11.35L6.14 12.5H5.25C5.17238 12.5582 5.10938 12.6337 5.06598 12.7205C5.02259 12.8073 5 12.903 5 13C5 13.097 5.02259 13.1927 5.06598 13.2795C5.10938 13.3663 5.17238 13.4418 5.25 13.5H5.5V16.5C5.5 16.6326 5.55268 16.7598 5.64645 16.8536C5.74021 16.9473 5.86739 17 6 17H7.5C7.63261 17 7.75979 16.9473 7.85355 16.8536C7.94732 16.7598 8 16.6326 8 16.5V16H12V16.5C12 16.6326 12.0527 16.7598 12.1464 16.8536C12.2402 16.9473 12.3674 17 12.5 17H14C14.1326 17 14.2598 16.9473 14.3536 16.8536C14.4473 16.7598 14.5 16.6326 14.5 16.5V13.5H14.75C14.8276 13.4418 14.8906 13.3663 14.934 13.2795C14.9774 13.1927 15 13.097 15 13C15 12.903 14.9774 12.8073 14.934 12.7205C14.8906 12.6337 14.8276 12.5582 14.75 12.5H13.89ZM7.555 11.755C7.58059 11.6849 7.62576 11.6236 7.68514 11.5784C7.74452 11.5332 7.81562 11.506 7.89 11.5H12.125C12.2001 11.5057 12.272 11.5327 12.3322 11.5779C12.3925 11.6231 12.4385 11.6845 12.465 11.755L13 13H7L7.555 11.755ZM8 15H6.75C6.67238 14.9418 6.60938 14.8663 6.56598 14.7795C6.52259 14.6927 6.5 14.597 6.5 14.5C6.5 14.403 6.52259 14.3073 6.56598 14.2205C6.60938 14.1337 6.67238 14.0582 6.75 14H8V15ZM13.25 15H12V14H13.25C13.3276 14.0582 13.3906 14.1337 13.434 14.2205C13.4774 14.3073 13.5 14.403 13.5 14.5C13.5 14.597 13.4774 14.6927 13.434 14.7795C13.3906 14.8663 13.3276 14.9418 13.25 15Z" fill="white"/>
</g>
</g>
</g>
</g>
</svg>
