<svg width="20" height="26" viewBox="0 0 20 26" fill="none" xmlns="http://www.w3.org/2000/svg">
<g id="default / car-repair">
<g id="POI-base">
<g id="Category_Master">
<g id="Baseshape_Pin">
<path id="shape" d="M6.12903 20.4794L6.12726 20.4777C3.78964 18.19 2.64527 16.3664 2.07698 14.8457C1.50986 13.3281 1.5 12.0735 1.5 10.8565C1.5 6.24879 5.30485 2.5 9.99133 2.5C14.6791 2.5 18.5 6.25003 18.5 10.8565C18.5 12.0735 18.4901 13.3281 17.923 14.8457C17.3547 16.3664 16.2104 18.19 13.8728 20.4777L13.8717 20.4787L9.99205 24.2977L6.12903 20.4794Z" fill="#A0B1DA" stroke="#7182AB"/>
</g>
</g>
<g id="Icon_Master">
<g id="car-repair">
<path id="Vector" d="M13.235 7.86V8H11.5V9H13.235V9.145C13.2337 9.37222 13.1425 9.58968 12.9814 9.74988C12.8202 9.91008 12.6022 10 12.375 10H10.735L10.36 9.25H6.75C6.65143 9.15155 6.57323 9.03464 6.51988 8.90595C6.46653 8.77726 6.43907 8.63931 6.43907 8.5C6.43907 8.36069 6.46653 8.22274 6.51988 8.09405C6.57323 7.96536 6.65143 7.84845 6.75 7.75H10.365L10.735 7H12.38C12.6072 7.00132 12.8247 7.09251 12.9849 7.25365C13.1451 7.41479 13.235 7.63278 13.235 7.86ZM14.735 12.5C14.8126 12.5582 14.8756 12.6337 14.919 12.7205C14.9624 12.8073 14.985 12.903 14.985 13C14.985 13.097 14.9624 13.1927 14.919 13.2795C14.8756 13.3663 14.8126 13.4418 14.735 13.5H14.5V16.5C14.5 16.6326 14.4473 16.7598 14.3536 16.8536C14.2598 16.9473 14.1326 17 14 17H12.5C12.3674 17 12.2402 16.9473 12.1464 16.8536C12.0527 16.7598 12 16.6326 12 16.5V16H8V16.5C8 16.6326 7.94732 16.7598 7.85355 16.8536C7.75979 16.9473 7.63261 17 7.5 17H6C5.86739 17 5.74021 16.9473 5.64645 16.8536C5.55268 16.7598 5.5 16.6326 5.5 16.5V13.5H5.25C5.17238 13.4418 5.10938 13.3663 5.06598 13.2795C5.02259 13.1927 5 13.097 5 13C5 12.903 5.02259 12.8073 5.06598 12.7205C5.10938 12.6337 5.17238 12.5582 5.25 12.5H6.12L6.62 11.35C6.72569 11.1009 6.90156 10.8879 7.12616 10.737C7.35077 10.5861 7.61442 10.5037 7.885 10.5H12.115C12.3839 10.5056 12.6454 10.5889 12.868 10.7397C13.0907 10.8905 13.265 11.1024 13.37 11.35L13.87 12.5H14.735ZM7 13H13L12.445 11.755C12.4185 11.6845 12.3725 11.6231 12.3122 11.5779C12.252 11.5327 12.1801 11.5057 12.105 11.5H7.885C7.80992 11.5057 7.73802 11.5327 7.67778 11.5779C7.61754 11.6231 7.57147 11.6845 7.545 11.755L7 13ZM8 14H6.75C6.67238 14.0582 6.60938 14.1337 6.56598 14.2205C6.52259 14.3073 6.5 14.403 6.5 14.5C6.5 14.597 6.52259 14.6927 6.56598 14.7795C6.60938 14.8663 6.67238 14.9418 6.75 15H8V14ZM13.25 14H12V15H13.25C13.3276 14.9418 13.3906 14.8663 13.434 14.7795C13.4774 14.6927 13.5 14.597 13.5 14.5C13.5 14.403 13.4774 14.3073 13.434 14.2205C13.3906 14.1337 13.3276 14.0582 13.25 14Z" fill="white"/>
</g>
</g>
</g>
</g>
</svg>
