<svg width="20" height="26" viewBox="0 0 20 26" fill="none" xmlns="http://www.w3.org/2000/svg">
<g id="default / car-wash">
<g id="POI-base">
<g id="Category_Master">
<g id="Baseshape_Pin">
<path id="shape" d="M6.12903 20.4794L6.12726 20.4777C3.78964 18.19 2.64527 16.3664 2.07698 14.8457C1.50986 13.3281 1.5 12.0735 1.5 10.8565C1.5 6.24879 5.30485 2.5 9.99133 2.5C14.6791 2.5 18.5 6.25003 18.5 10.8565C18.5 12.0735 18.4901 13.3281 17.923 14.8457C17.3547 16.3664 16.2104 18.19 13.8728 20.4777L13.8717 20.4787L9.99205 24.2977L6.12903 20.4794Z" fill="#A0B1DA" stroke="#7182AB"/>
</g>
</g>
<g id="Icon_Master">
<g id="car-wash">
<path id="Vector" d="M11.75 8C11.75 7.80222 11.8086 7.60888 11.9185 7.44443C12.0284 7.27998 12.1846 7.15181 12.3673 7.07612C12.55 7.00043 12.7511 6.98063 12.9451 7.01922C13.1391 7.0578 13.3173 7.15304 13.4571 7.29289C13.597 7.43275 13.6922 7.61093 13.7308 7.80491C13.7694 7.99889 13.7496 8.19996 13.6739 8.38268C13.5982 8.56541 13.47 8.72159 13.3056 8.83147C13.1411 8.94135 12.9478 9 12.75 9C12.4848 9 12.2304 8.89464 12.0429 8.70711C11.8554 8.51957 11.75 8.26522 11.75 8ZM10 9C10.1978 9 10.3911 8.94135 10.5556 8.83147C10.72 8.72159 10.8482 8.56541 10.9239 8.38268C10.9996 8.19996 11.0194 7.99889 10.9808 7.80491C10.9422 7.61093 10.847 7.43275 10.7071 7.29289C10.5673 7.15304 10.3891 7.0578 10.1951 7.01922C10.0011 6.98063 9.80004 7.00043 9.61732 7.07612C9.43459 7.15181 9.27841 7.27998 9.16853 7.44443C9.05865 7.60888 9 7.80222 9 8C9 8.26522 9.10536 8.51957 9.29289 8.70711C9.48043 8.89464 9.73478 9 10 9ZM14.5 11C14.6761 10.9982 14.8486 10.9499 15 10.86V9.14C14.8673 9.06127 14.7181 9.01432 14.5642 9.00283C14.4104 8.99134 14.2559 9.01562 14.113 9.07377C13.97 9.13193 13.8425 9.22237 13.7403 9.33803C13.6381 9.45369 13.5641 9.59142 13.5241 9.74045C13.484 9.88948 13.479 10.0458 13.5094 10.197C13.5398 10.3483 13.6048 10.4905 13.6993 10.6125C13.7938 10.7345 13.9153 10.833 14.0542 10.9002C14.1931 10.9674 14.3457 11.0016 14.5 11ZM5 10.86C5.15183 10.9501 5.32481 10.9984 5.50135 11C5.67789 11.0015 5.8517 10.9564 6.00512 10.869C6.15854 10.7816 6.2861 10.6552 6.37482 10.5026C6.46355 10.3499 6.51029 10.1765 6.51029 10C6.51029 9.82345 6.46355 9.65005 6.37482 9.49742C6.2861 9.34479 6.15854 9.21837 6.00512 9.13101C5.8517 9.04365 5.67789 8.99846 5.50135 9.00004C5.32481 9.00162 5.15183 9.04991 5 9.14V10.86ZM13.88 12.5H14.75C14.8276 12.5582 14.8906 12.6337 14.934 12.7205C14.9774 12.8073 15 12.903 15 13C15 13.097 14.9774 13.1927 14.934 13.2795C14.8906 13.3663 14.8276 13.4418 14.75 13.5H14.5V16.5C14.5 16.6326 14.4473 16.7598 14.3536 16.8536C14.2598 16.9473 14.1326 17 14 17H12.5C12.3674 17 12.2402 16.9473 12.1464 16.8536C12.0527 16.7598 12 16.6326 12 16.5V16H8V16.5C8 16.6326 7.94732 16.7598 7.85355 16.8536C7.75979 16.9473 7.63261 17 7.5 17H6C5.86739 17 5.74021 16.9473 5.64645 16.8536C5.55268 16.7598 5.5 16.6326 5.5 16.5V13.5H5.25C5.17238 13.4418 5.10938 13.3663 5.06598 13.2795C5.02259 13.1927 5 13.097 5 13C5 12.903 5.02259 12.8073 5.06598 12.7205C5.10938 12.6337 5.17238 12.5582 5.25 12.5H6.12L6.62 11.35C6.72569 11.1009 6.90156 10.8879 7.12616 10.737C7.35077 10.5861 7.61442 10.5037 7.885 10.5H12.115C12.3839 10.5056 12.6454 10.5889 12.868 10.7397C13.0907 10.8905 13.265 11.1024 13.37 11.35L13.88 12.5ZM8 14H6.75C6.67238 14.0582 6.60938 14.1337 6.56598 14.2205C6.52259 14.3073 6.5 14.403 6.5 14.5C6.5 14.597 6.52259 14.6927 6.56598 14.7795C6.60938 14.8663 6.67238 14.9418 6.75 15H8V14ZM13 13L12.445 11.755C12.4185 11.6845 12.3725 11.6231 12.3122 11.5779C12.252 11.5327 12.1801 11.5057 12.105 11.5H7.885C7.80992 11.5057 7.73802 11.5327 7.67778 11.5779C7.61754 11.6231 7.57147 11.6845 7.545 11.755L7 13H13ZM13.245 14H12V15H13.255C13.605 14.69 13.58 14.355 13.255 14H13.245ZM7.25 9C7.44778 9 7.64112 8.94135 7.80557 8.83147C7.97002 8.72159 8.09819 8.56541 8.17388 8.38268C8.24957 8.19996 8.26937 7.99889 8.23079 7.80491C8.1922 7.61093 8.09696 7.43275 7.95711 7.29289C7.81725 7.15304 7.63907 7.0578 7.44509 7.01922C7.25111 6.98063 7.05004 7.00043 6.86732 7.07612C6.68459 7.15181 6.52841 7.27998 6.41853 7.44443C6.30865 7.60888 6.25 7.80222 6.25 8C6.25 8.26522 6.35536 8.51957 6.54289 8.70711C6.73043 8.89464 6.98478 9 7.25 9Z" fill="white"/>
</g>
</g>
</g>
</g>
</svg>
