<svg width="20" height="26" viewBox="0 0 20 26" fill="none" xmlns="http://www.w3.org/2000/svg">
<g id="default / casino">
<g id="POI-base">
<g id="Category_Master">
<g id="Baseshape_Pin">
<path id="shape" d="M6.12903 20.4794L6.12726 20.4777C3.78964 18.19 2.64527 16.3664 2.07698 14.8457C1.50986 13.3281 1.5 12.0735 1.5 10.8565C1.5 6.24879 5.30485 2.5 9.99133 2.5C14.6791 2.5 18.5 6.25003 18.5 10.8565C18.5 12.0735 18.4901 13.3281 17.923 14.8457C17.3547 16.3664 16.2104 18.19 13.8728 20.4777L13.8717 20.4787L9.99205 24.2977L6.12903 20.4794Z" fill="#ED97C2" stroke="#A66F9A"/>
</g>
</g>
<g id="Icon_Master">
<g id="casino">
<path id="Vector" d="M13.75 7.5H6.25C6.05109 7.5 5.86032 7.57902 5.71967 7.71967C5.57902 7.86032 5.5 8.05109 5.5 8.25V15.75C5.5 15.9489 5.57902 16.1397 5.71967 16.2803C5.86032 16.421 6.05109 16.5 6.25 16.5H13.75C13.9489 16.5 14.1397 16.421 14.2803 16.2803C14.421 16.1397 14.5 15.9489 14.5 15.75V8.25C14.5 8.05109 14.421 7.86032 14.2803 7.71967C14.1397 7.57902 13.9489 7.5 13.75 7.5ZM7.5 15.75C7.25277 15.75 7.0111 15.6767 6.80554 15.5393C6.59998 15.402 6.43976 15.2068 6.34515 14.9784C6.25054 14.7499 6.22579 14.4986 6.27402 14.2561C6.32225 14.0137 6.4413 13.7909 6.61612 13.6161C6.79093 13.4413 7.01366 13.3222 7.25614 13.274C7.49861 13.2258 7.74995 13.2505 7.97835 13.3452C8.20676 13.4398 8.40199 13.6 8.53934 13.8055C8.67669 14.0111 8.75 14.2528 8.75 14.5C8.75 14.8315 8.6183 15.1495 8.38388 15.3839C8.14946 15.6183 7.83152 15.75 7.5 15.75ZM10 13.25C9.75277 13.25 9.5111 13.1767 9.30554 13.0393C9.09998 12.902 8.93976 12.7068 8.84515 12.4784C8.75054 12.2499 8.72579 11.9986 8.77402 11.7561C8.82225 11.5137 8.9413 11.2909 9.11612 11.1161C9.29093 10.9413 9.51366 10.8222 9.75614 10.774C9.99861 10.7258 10.2499 10.7505 10.4784 10.8452C10.7068 10.9398 10.902 11.1 11.0393 11.3055C11.1767 11.5111 11.25 11.7528 11.25 12C11.25 12.3315 11.1183 12.6495 10.8839 12.8839C10.6495 13.1183 10.3315 13.25 10 13.25ZM12.5 10.75C12.2528 10.75 12.0111 10.6767 11.8055 10.5393C11.6 10.402 11.4398 10.2068 11.3452 9.97835C11.2505 9.74995 11.2258 9.49861 11.274 9.25614C11.3222 9.01366 11.4413 8.79093 11.6161 8.61612C11.7909 8.4413 12.0137 8.32225 12.2561 8.27402C12.4986 8.22579 12.7499 8.25054 12.9784 8.34515C13.2068 8.43976 13.402 8.59998 13.5393 8.80554C13.6767 9.0111 13.75 9.25277 13.75 9.5C13.75 9.83152 13.6183 10.1495 13.3839 10.3839C13.1495 10.6183 12.8315 10.75 12.5 10.75Z" fill="white"/>
</g>
</g>
</g>
</g>
</svg>
