<svg width="20" height="26" viewBox="0 0 20 26" fill="none" xmlns="http://www.w3.org/2000/svg">
<g id="default / cinema">
<g id="POI-base">
<g id="Category_Master">
<g id="Baseshape_Pin">
<path id="shape" d="M6.12903 20.4794L6.12726 20.4777C3.78964 18.19 2.64527 16.3664 2.07698 14.8457C1.50986 13.3281 1.5 12.0735 1.5 10.8565C1.5 6.24879 5.30485 2.5 9.99133 2.5C14.6791 2.5 18.5 6.25003 18.5 10.8565C18.5 12.0735 18.4901 13.3281 17.923 14.8457C17.3547 16.3664 16.2104 18.19 13.8728 20.4777L13.8717 20.4787L9.99205 24.2977L6.12903 20.4794Z" fill="#ED97C2" stroke="#A66F9A"/>
</g>
</g>
<g id="Icon_Master">
<g id="cinema">
<path id="Vector" d="M11.1251 11.5C11.5436 11.4999 11.9538 11.383 12.3095 11.1626C12.6653 10.9422 12.9525 10.627 13.1389 10.2523C13.3253 9.87761 13.4035 9.45837 13.3648 9.04168C13.3261 8.625 13.1719 8.22737 12.9196 7.89349C12.6673 7.55962 12.3268 7.30272 11.9366 7.15167C11.5463 7.00063 11.1216 6.96142 10.7103 7.03845C10.299 7.11548 9.91726 7.30571 9.60809 7.58774C9.29892 7.86978 9.07453 8.23245 8.96015 8.635C8.78711 8.35965 8.54525 8.13418 8.25844 7.98086C7.97164 7.82754 7.64981 7.75166 7.32472 7.76073C6.99964 7.76979 6.68253 7.86348 6.40472 8.03254C6.1269 8.2016 5.89798 8.44019 5.74055 8.72476C5.58312 9.00933 5.50262 9.33003 5.50701 9.65522C5.51139 9.9804 5.60051 10.2988 5.76555 10.579C5.9306 10.8593 6.16587 11.0916 6.44815 11.2531C6.73042 11.4146 7.04993 11.4997 7.37515 11.5H11.1251ZM11.1251 8.5C11.2735 8.5 11.4185 8.54399 11.5418 8.6264C11.6652 8.70881 11.7613 8.82594 11.8181 8.96299C11.8748 9.10003 11.8897 9.25083 11.8607 9.39632C11.8318 9.5418 11.7604 9.67544 11.6555 9.78033C11.5506 9.88522 11.417 9.95665 11.2715 9.98559C11.126 10.0145 10.9752 9.99968 10.8381 9.94291C10.7011 9.88614 10.584 9.79001 10.5015 9.66668C10.4191 9.54334 10.3751 9.39834 10.3751 9.25C10.3751 9.05109 10.4542 8.86032 10.5948 8.71967C10.7355 8.57902 10.9262 8.5 11.1251 8.5ZM6.62515 9.625C6.62515 9.47666 6.66913 9.33166 6.75154 9.20832C6.83396 9.08499 6.95109 8.98886 7.08813 8.93209C7.22518 8.87533 7.37598 8.86047 7.52146 8.88941C7.66695 8.91835 7.80059 8.98978 7.90548 9.09467C8.01037 9.19956 8.0818 9.3332 8.11074 9.47868C8.13967 9.62417 8.12482 9.77497 8.06806 9.91201C8.01129 10.0491 7.91516 10.1662 7.79182 10.2486C7.66849 10.331 7.52348 10.375 7.37515 10.375C7.17623 10.375 6.98547 10.296 6.84482 10.1553C6.70416 10.0147 6.62515 9.82391 6.62515 9.625ZM14.5001 13V16.5H13.5001L12.0001 15.5V16.5C12.0001 16.6326 11.9475 16.7598 11.8537 16.8536C11.7599 16.9473 11.6328 17 11.5001 17H7.00015C6.86754 17 6.74036 16.9473 6.64659 16.8536C6.55283 16.7598 6.50015 16.6326 6.50015 16.5V13C6.50015 12.8674 6.55283 12.7402 6.64659 12.6464C6.74036 12.5527 6.86754 12.5 7.00015 12.5H11.5001C11.6328 12.5 11.7599 12.5527 11.8537 12.6464C11.9475 12.7402 12.0001 12.8674 12.0001 13V14L13.5001 13H14.5001Z" fill="white"/>
</g>
</g>
</g>
</g>
</svg>
