<svg width="20" height="26" viewBox="0 0 20 26" fill="none" xmlns="http://www.w3.org/2000/svg">
<g id="default / coffee">
<g id="POI-base">
<g id="Category_Master">
<g id="Baseshape_Pin">
<path id="shape" d="M6.12903 20.4794L6.12726 20.4777C3.78964 18.19 2.64527 16.3664 2.07698 14.8457C1.50986 13.3281 1.5 12.0735 1.5 10.8565C1.5 6.24879 5.30485 2.5 9.99133 2.5C14.6791 2.5 18.5 6.25003 18.5 10.8565C18.5 12.0735 18.4901 13.3281 17.923 14.8457C17.3547 16.3664 16.2104 18.19 13.8728 20.4777L13.8717 20.4787L9.99205 24.2977L6.12903 20.4794Z" fill="#FFA857" stroke="#B37B50"/>
</g>
</g>
<g id="Icon_Master">
<g id="coffee">
<path id="Vector" d="M7.185 15H11.565C11.8185 15.0006 12.0628 14.9049 12.2485 14.7323C12.4341 14.5596 12.5473 14.3229 12.565 14.07L12.715 12H12.92C13.3907 12.0088 13.8502 11.8556 14.2215 11.5662C14.5929 11.2768 14.8535 10.8686 14.96 10.41C15.021 10.1187 15.0162 9.81741 14.946 9.52817C14.8758 9.23892 14.7419 8.969 14.5541 8.73808C14.3663 8.50717 14.1293 8.32108 13.8605 8.19339C13.5916 8.0657 13.2976 7.99963 13 8H5.75L6.185 14.065C6.20153 14.3188 6.31414 14.5567 6.49992 14.7304C6.68569 14.9041 6.93067 15.0005 7.185 15ZM13 9C13.1596 8.99931 13.317 9.03684 13.4592 9.10944C13.6013 9.18203 13.724 9.2876 13.817 9.4173C13.91 9.54701 13.9706 9.69708 13.9937 9.855C14.0169 10.0129 14.0019 10.1741 13.95 10.325C13.8755 10.5284 13.7387 10.7031 13.5592 10.8242C13.3796 10.9454 13.1665 11.0069 12.95 11H12.79L12.935 9H13ZM5 16H14.5L14.275 16.445C14.1922 16.6116 14.0646 16.7518 13.9065 16.8499C13.7484 16.9479 13.566 16.9999 13.38 17H6.12C5.93396 16.9999 5.75163 16.9479 5.59352 16.8499C5.43541 16.7518 5.30779 16.6116 5.225 16.445L5 16Z" fill="white"/>
</g>
</g>
</g>
</g>
</svg>
