<svg width="20" height="26" viewBox="0 0 20 26" fill="none" xmlns="http://www.w3.org/2000/svg">
<g id="default / education">
<g id="POI-base">
<g id="Category_Master">
<g id="Baseshape_Pin">
<path id="shape" d="M6.12903 20.4794L6.12726 20.4777C3.78964 18.19 2.64527 16.3664 2.07698 14.8457C1.50986 13.3281 1.5 12.0735 1.5 10.8565C1.5 6.24879 5.30485 2.5 9.99133 2.5C14.6791 2.5 18.5 6.25003 18.5 10.8565C18.5 12.0735 18.4901 13.3281 17.923 14.8457C17.3547 16.3664 16.2104 18.19 13.8728 20.4777L13.8717 20.4787L9.99205 24.2977L6.12903 20.4794Z" fill="#C19D95" stroke="#87737B"/>
</g>
</g>
<g id="Icon_Master">
<g id="education">
<path id="Vector" d="M10 13.11C11.0241 13.1575 12.0466 12.987 13 12.61V12.755C13 15.1 11.66 17 10 17C8.34 17 7 15.1 7 12.755V12.61C7.95324 12.9875 8.97586 13.1579 10 13.11ZM15 9.855L10 7L5 9.855L7 11.25V11.75C7.95902 12.1063 8.97728 12.276 10 12.25C11.0227 12.276 12.041 12.1063 13 11.75V11.285L13.75 10.75V14.56H14.75V10.06L15 9.855Z" fill="white"/>
</g>
</g>
</g>
</g>
</svg>
