<svg width="20" height="26" viewBox="0 0 20 26" fill="none" xmlns="http://www.w3.org/2000/svg">
<g id="default / first-aid">
<g id="POI-base">
<g id="Category_Master">
<g id="Baseshape_Pin">
<path id="shape" d="M6.12903 20.4794L6.12726 20.4777C3.78964 18.19 2.64527 16.3664 2.07698 14.8457C1.50986 13.3281 1.5 12.0735 1.5 10.8565C1.5 6.24879 5.30485 2.5 9.99133 2.5C14.6791 2.5 18.5 6.25003 18.5 10.8565C18.5 12.0735 18.4901 13.3281 17.923 14.8457C17.3547 16.3664 16.2104 18.19 13.8728 20.4777L13.8717 20.4787L9.99205 24.2977L6.12903 20.4794Z" fill="#FC5A72" stroke="#B04462"/>
</g>
</g>
<g id="Icon_Master">
<g id="first-aid">
<path id="Vector" d="M14.5 7H5.5C5.36739 7 5.24021 7.05268 5.14645 7.14645C5.05268 7.24021 5 7.36739 5 7.5V16.5C5 16.6326 5.05268 16.7598 5.14645 16.8536C5.24021 16.9473 5.36739 17 5.5 17H14.5C14.6326 17 14.7598 16.9473 14.8536 16.8536C14.9473 16.7598 15 16.6326 15 16.5V7.5C15 7.36739 14.9473 7.24021 14.8536 7.14645C14.7598 7.05268 14.6326 7 14.5 7ZM14 13.5H11.5V16H8.5V13.5H6V10.5H8.5V8H11.5V10.5H14V13.5Z" fill="white"/>
</g>
</g>
</g>
</g>
</svg>
