<svg width="20" height="26" viewBox="0 0 20 26" fill="none" xmlns="http://www.w3.org/2000/svg">
<g id="default / frontier-crossing">
<g id="POI-base">
<g id="Category_Master">
<g id="Baseshape_Pin">
<path id="shape" d="M6.12903 20.4794L6.12726 20.4777C3.78964 18.19 2.64527 16.3664 2.07698 14.8457C1.50986 13.3281 1.5 12.0735 1.5 10.8565C1.5 6.24879 5.30485 2.5 9.99133 2.5C14.6791 2.5 18.5 6.25003 18.5 10.8565C18.5 12.0735 18.4901 13.3281 17.923 14.8457C17.3547 16.3664 16.2104 18.19 13.8728 20.4777L13.8717 20.4787L9.99205 24.2977L6.12903 20.4794Z" fill="#C19D95" stroke="#87737B"/>
</g>
</g>
<g id="Icon_Master">
<g id="frontier-crossing">
<path id="Vector" d="M7.5 7V8.5L6 9V9.5H12V8.385C12.0019 8.14008 11.9139 7.90298 11.7526 7.71866C11.5913 7.53433 11.368 7.41561 11.125 7.385L7.5 7ZM14.295 15.815L14.47 17H10.025L13.145 14C13.4515 14.2068 13.7119 14.4748 13.9099 14.7872C14.1078 15.0996 14.2389 15.4495 14.295 15.815ZM8.17 17H5.5L5.675 15.815C5.78725 15.1587 6.13089 14.5644 6.64364 14.1397C7.15639 13.715 7.80432 13.4881 8.47 13.5H11.5C11.6004 13.5032 11.7005 13.5115 11.8 13.525L8.17 17ZM12 10.25V10.28C12 11.34 11.5 11.5 11.5 12.5H8.25C8.25 11.695 7.5 11.545 7.5 10.75V10.25H12Z" fill="white"/>
</g>
</g>
</g>
</g>
</svg>
