<svg width="20" height="26" viewBox="0 0 20 26" fill="none" xmlns="http://www.w3.org/2000/svg">
<g id="default / game-arcade">
<g id="POI-base">
<g id="Category_Master">
<g id="Baseshape_Pin">
<path id="shape" d="M6.12903 20.4794L6.12726 20.4777C3.78964 18.19 2.64527 16.3664 2.07698 14.8457C1.50986 13.3281 1.5 12.0735 1.5 10.8565C1.5 6.24879 5.30485 2.5 9.99133 2.5C14.6791 2.5 18.5 6.25003 18.5 10.8565C18.5 12.0735 18.4901 13.3281 17.923 14.8457C17.3547 16.3664 16.2104 18.19 13.8728 20.4777L13.8717 20.4787L9.99205 24.2977L6.12903 20.4794Z" fill="#ED97C2" stroke="#A66F9A"/>
</g>
</g>
<g id="Icon_Master">
<g id="game-arcade">
<path id="Vector" d="M7 16H6V15H7V16ZM6 16H5V17H6V16ZM14 15H13V16H14V15ZM15 16H14V17H15V16ZM15 11.5V13H13V15H12V13H10.5V14H11V16H9V14H9.5V13H8V15H7V13H5V11.5H6V10H7V8.5H8V7H12V8.5H13V10H14V11.5H15ZM9 11.5V10H7.5V11.5H9ZM12.5 10H11V11.5H12.5V10Z" fill="white"/>
</g>
</g>
</g>
</g>
</svg>
