<svg width="20" height="26" viewBox="0 0 20 26" fill="none" xmlns="http://www.w3.org/2000/svg">
<g id="default / generic-point_entertainment">
<g id="POI-base">
<g id="Category_Master">
<g id="Baseshape_Pin">
<path id="shape" d="M6.12903 20.4794L6.12726 20.4777C3.78964 18.19 2.64527 16.3664 2.07698 14.8457C1.50986 13.3281 1.5 12.0735 1.5 10.8565C1.5 6.24879 5.30485 2.5 9.99133 2.5C14.6791 2.5 18.5 6.25003 18.5 10.8565C18.5 12.0735 18.4901 13.3281 17.923 14.8457C17.3547 16.3664 16.2104 18.19 13.8728 20.4777L13.8717 20.4787L9.99205 24.2977L6.12903 20.4794Z" fill="#ED97C2" stroke="#A66F9A"/>
</g>
</g>
<g id="Icon_Master">
<g id="generic-point">
<path id="Vector" d="M10 9.5C10.4945 9.5 10.9778 9.64662 11.3889 9.92133C11.8 10.196 12.1205 10.5865 12.3097 11.0433C12.4989 11.5001 12.5484 12.0028 12.452 12.4877C12.3555 12.9727 12.1174 13.4181 11.7678 13.7678C11.4181 14.1174 10.9727 14.3555 10.4877 14.452C10.0028 14.5484 9.50011 14.4989 9.04329 14.3097C8.58648 14.1205 8.19603 13.8 7.92133 13.3889C7.64662 12.9778 7.5 12.4945 7.5 12C7.5 11.337 7.76339 10.7011 8.23223 10.2322C8.70107 9.76339 9.33696 9.5 10 9.5Z" fill="white"/>
</g>
</g>
</g>
</g>
</svg>
