<svg width="20" height="26" viewBox="0 0 20 26" fill="none" xmlns="http://www.w3.org/2000/svg">
<g id="default / golf-course">
<g id="POI-base">
<g id="Category_Master">
<g id="Baseshape_Pin">
<path id="shape" d="M6.12903 20.4794L6.12726 20.4777C3.78964 18.19 2.64527 16.3664 2.07698 14.8457C1.50986 13.3281 1.5 12.0735 1.5 10.8565C1.5 6.24879 5.30485 2.5 9.99133 2.5C14.6791 2.5 18.5 6.25003 18.5 10.8565C18.5 12.0735 18.4901 13.3281 17.923 14.8457C17.3547 16.3664 16.2104 18.19 13.8728 20.4777L13.8717 20.4787L9.99205 24.2977L6.12903 20.4794Z" fill="#45BF94" stroke="#308C7A"/>
</g>
</g>
<g id="Icon_Master">
<g id="golf-course">
<path id="Vector" d="M12 13.25C12 12.9533 12.088 12.6633 12.2528 12.4166C12.4176 12.17 12.6519 11.9777 12.926 11.8642C13.2001 11.7506 13.5017 11.7209 13.7926 11.7788C14.0836 11.8367 14.3509 11.9796 14.5607 12.1893C14.7704 12.3991 14.9133 12.6664 14.9712 12.9574C15.0291 13.2483 14.9994 13.5499 14.8858 13.824C14.7723 14.0981 14.58 14.3324 14.3334 14.4972C14.0867 14.662 13.7967 14.75 13.5 14.75C13.1022 14.75 12.7206 14.592 12.4393 14.3107C12.158 14.0294 12 13.6478 12 13.25ZM15 15.5H7.5V11.1L11.5 9L6.5 7V15.5H5V16.5H15V15.5Z" fill="white"/>
</g>
</g>
</g>
</g>
</svg>
