<svg width="20" height="26" viewBox="0 0 20 26" fill="none" xmlns="http://www.w3.org/2000/svg">
<g id="default / harbor">
<g id="POI-base">
<g id="Category_Master">
<g id="Baseshape_Pin">
<path id="shape" d="M6.12903 20.4794L6.12726 20.4777C3.78964 18.19 2.64527 16.3664 2.07698 14.8457C1.50986 13.3281 1.5 12.0735 1.5 10.8565C1.5 6.24879 5.30485 2.5 9.99133 2.5C14.6791 2.5 18.5 6.25003 18.5 10.8565C18.5 12.0735 18.4901 13.3281 17.923 14.8457C17.3547 16.3664 16.2104 18.19 13.8728 20.4777L13.8717 20.4787L9.99205 24.2977L6.12903 20.4794Z" fill="#24ADB2" stroke="#197F8F"/>
</g>
</g>
<g id="Icon_Master">
<g id="harbor">
<path id="Vector" d="M15 12.75L13.75 10.75L12.5 12.75H13.25C13.25 14.355 12.21 15.09 10.705 15.25L10.58 12H12V11H10.545L10.5 10.16C10.8659 10.0377 11.1763 9.78931 11.3758 9.45915C11.5753 9.12899 11.6509 8.73863 11.5889 8.35788C11.527 7.97712 11.3316 7.63082 11.0378 7.38091C10.7439 7.13099 10.3708 6.99376 9.985 6.99376C9.59925 6.99376 9.22607 7.13099 8.93222 7.38091C8.63837 7.63082 8.44301 7.97712 8.38108 8.35788C8.31915 8.73863 8.39469 9.12899 8.59419 9.45915C8.79368 9.78931 9.10413 10.0377 9.47 10.16L9.455 11H8V12H9.42L9.295 15.25C7.795 15.09 6.75 14.355 6.75 12.75H7.5L6.25 10.75L5 12.75H5.75V13C5.75 14.71 6.795 15.435 8.295 16.08C8.815 16.305 10 17 10 17C10 17 11.185 16.305 11.705 16.08C13.205 15.435 14.25 14.71 14.25 13V12.75H15ZM9.125 8.62499C9.125 8.45193 9.17632 8.28276 9.27246 8.13887C9.36861 7.99498 9.50527 7.88282 9.66515 7.8166C9.82504 7.75037 10.001 7.73304 10.1707 7.76681C10.3404 7.80057 10.4963 7.8839 10.6187 8.00627C10.7411 8.12864 10.8244 8.28455 10.8582 8.45429C10.8919 8.62402 10.8746 8.79995 10.8084 8.95984C10.7422 9.11973 10.63 9.25638 10.4861 9.35253C10.3422 9.44867 10.1731 9.49999 10 9.49999C9.76834 9.49868 9.54654 9.40607 9.38273 9.24226C9.21892 9.07845 9.12631 8.85665 9.125 8.62499Z" fill="white"/>
</g>
</g>
</g>
</g>
</svg>
