<svg width="20" height="26" viewBox="0 0 20 26" fill="none" xmlns="http://www.w3.org/2000/svg">
<g id="default / hotel">
<g id="POI-base">
<g id="Category_Master">
<g id="Baseshape_Pin">
<path id="shape" d="M6.12903 20.4794L6.12726 20.4777C3.78964 18.19 2.64527 16.3664 2.07698 14.8457C1.50986 13.3281 1.5 12.0735 1.5 10.8565C1.5 6.24879 5.30485 2.5 9.99133 2.5C14.6791 2.5 18.5 6.25003 18.5 10.8565C18.5 12.0735 18.4901 13.3281 17.923 14.8457C17.3547 16.3664 16.2104 18.19 13.8728 20.4777L13.8717 20.4787L9.99205 24.2977L6.12903 20.4794Z" fill="#5A7FCE" stroke="#3E5EA2"/>
</g>
</g>
<g id="Icon_Master">
<g id="hotel">
<path id="Vector" d="M14 13H10.5V11H13C13.2652 11 13.5196 11.1054 13.7071 11.2929C13.8946 11.4804 14 11.7348 14 12V13ZM7.5 13V12C7.5 11.7348 7.60536 11.4804 7.79289 11.2929C7.98043 11.1054 8.23478 11 8.5 11C8.76522 11 9.01957 11.1054 9.20711 11.2929C9.39464 11.4804 9.5 11.7348 9.5 12V13H7.5ZM14.5 14.375C14.4987 14.2759 14.4588 14.1813 14.3887 14.1113C14.3187 14.0412 14.2241 14.0013 14.125 14H6.5V11H5.5V17H6.5V16H13.5V17H14.5V14.375ZM15 10.21L10 8.42L5 10.21V8.78L10 7L15 8.78V10.21Z" fill="white"/>
</g>
</g>
</g>
</g>
</svg>
