<svg width="20" height="26" viewBox="0 0 20 26" fill="none" xmlns="http://www.w3.org/2000/svg">
<g id="default / inclined">
<g id="POI-base">
<g id="Category_Master">
<g id="Baseshape_Dot">
<path id="Outline Outside" d="M1.5 12C1.5 7.30558 5.30558 3.5 10 3.5C14.6944 3.5 18.5 7.30558 18.5 12C18.5 16.6944 14.6944 20.5 10 20.5C5.30558 20.5 1.5 16.6944 1.5 12Z" fill="#6BC9FF" stroke="#4A91C5"/>
</g>
</g>
<g id="Icon_Master">
<g id="inclined">
<path id="Vector" d="M13.755 7C13.6556 6.9993 13.5565 7.01106 13.46 7.035L6.655 8.645C6.32618 8.72271 6.03323 8.90916 5.8236 9.17414C5.61398 9.43913 5.49995 9.76712 5.5 10.105V15L15 12.75V8.25C15 7.91934 14.869 7.60216 14.6357 7.36788C14.4023 7.1336 14.0857 7.00132 13.755 7ZM9.875 11.5L6.5 12.29V10.16C6.50076 10.017 6.55095 9.87857 6.64208 9.76831C6.73321 9.65804 6.85966 9.58268 7 9.555L9.895 8.865L9.875 11.5ZM14 10.5L10.625 11.305V8.685L13.54 8H13.63C13.7286 8.00131 13.8227 8.0414 13.8919 8.11159C13.9612 8.18177 14 8.2764 14 8.375V10.5ZM5 16.94L15 14.57V13.82L5 16.19V16.94Z" fill="white"/>
</g>
</g>
</g>
</g>
</svg>
