<svg width="20" height="26" viewBox="0 0 20 26" fill="none" xmlns="http://www.w3.org/2000/svg">
<g id="default / laundry">
<g id="POI-base">
<g id="Category_Master">
<g id="Baseshape_Pin">
<path id="shape" d="M6.12903 20.4794L6.12726 20.4777C3.78964 18.19 2.64527 16.3664 2.07698 14.8457C1.50986 13.3281 1.5 12.0735 1.5 10.8565C1.5 6.24879 5.30485 2.5 9.99133 2.5C14.6791 2.5 18.5 6.25003 18.5 10.8565C18.5 12.0735 18.4901 13.3281 17.923 14.8457C17.3547 16.3664 16.2104 18.19 13.8728 20.4777L13.8717 20.4787L9.99205 24.2977L6.12903 20.4794Z" fill="#A0B1DA" stroke="#7182AB"/>
</g>
</g>
<g id="Icon_Master">
<g id="laundry">
<path id="Vector" d="M13.5 7H6.5C6.36739 7 6.24021 7.05268 6.14645 7.14645C6.05268 7.24021 6 7.36739 6 7.5V17H14V7.5C14 7.36739 13.9473 7.24021 13.8536 7.14645C13.7598 7.05268 13.6326 7 13.5 7ZM13 13C13 13.5933 12.8241 14.1734 12.4944 14.6667C12.1648 15.1601 11.6962 15.5446 11.1481 15.7716C10.5999 15.9987 9.99667 16.0581 9.41473 15.9424C8.83279 15.8266 8.29824 15.5409 7.87868 15.1213C7.45912 14.7018 7.1734 14.1672 7.05764 13.5853C6.94189 13.0033 7.0013 12.4001 7.22836 11.8519C7.45542 11.3038 7.83994 10.8352 8.33329 10.5056C8.82664 10.1759 9.40666 10 10 10H10.05C10.837 10.0131 11.5872 10.335 12.1391 10.8962C12.6909 11.4574 13.0001 12.2129 13 13ZM11 8H13V9H11V8ZM11.5 13C11.4997 13.2965 11.4116 13.5862 11.2468 13.8327C11.0819 14.0791 10.8478 14.2712 10.5738 14.3846C10.2999 14.498 9.99853 14.5277 9.70773 14.4699C9.41693 14.4122 9.14977 14.2695 8.94 14.06C8.65862 13.779 8.50035 13.3977 8.5 13H11.5Z" fill="white"/>
</g>
</g>
</g>
</g>
</svg>
