<svg width="20" height="26" viewBox="0 0 20 26" fill="none" xmlns="http://www.w3.org/2000/svg">
<g id="default / mountain-pass">
<g id="POI-base">
<g id="Category_Master">
<g id="Baseshape_Pin">
<path id="shape" d="M6.12903 20.4794L6.12726 20.4777C3.78964 18.19 2.64527 16.3664 2.07698 14.8457C1.50986 13.3281 1.5 12.0735 1.5 10.8565C1.5 6.24879 5.30485 2.5 9.99133 2.5C14.6791 2.5 18.5 6.25003 18.5 10.8565C18.5 12.0735 18.4901 13.3281 17.923 14.8457C17.3547 16.3664 16.2104 18.19 13.8728 20.4777L13.8717 20.4787L9.99205 24.2977L6.12903 20.4794Z" fill="#359C7B" stroke="#267369"/>
</g>
</g>
<g id="Icon_Master">
<g id="mountain-pass">
<path id="Vector" d="M12 8L10.44 8.5L9 7L5 12.44V17H6.955L8.83 15.53C8.89978 15.4793 8.95716 15.4135 8.99782 15.3375C9.03848 15.2614 9.06135 15.1772 9.06472 15.091C9.06809 15.0048 9.05186 14.919 9.01727 14.84C8.98268 14.7611 8.93061 14.6909 8.865 14.635L7.82 13.7C7.70996 13.6187 7.6199 13.5135 7.55665 13.3922C7.49341 13.2709 7.45864 13.1367 7.455 13C7.48065 12.7306 7.60426 12.48 7.80241 12.2957C8.00055 12.1113 8.25945 12.0061 8.53 12L10.935 11.72L11.235 12.045L9.075 12.495C8.98509 12.5058 8.90151 12.5468 8.83793 12.6113C8.77435 12.6758 8.73454 12.7599 8.725 12.85C8.72933 12.923 8.75548 12.993 8.80005 13.0509C8.84463 13.1089 8.90557 13.1521 8.975 13.175L11.44 14.205C11.7402 14.3092 12.0031 14.4994 12.196 14.7519C12.3889 15.0043 12.5033 15.308 12.525 15.625C12.525 15.65 12.415 16.49 12.355 16.98H15V12.5L12 8ZM9.1 8.55L9.715 9.19L10.15 9.64L10.74 9.45L11.585 9.18L12.465 10.5H7.665L9.1 8.55Z" fill="white"/>
</g>
</g>
</g>
</g>
</svg>
