<svg width="20" height="26" viewBox="0 0 20 26" fill="none" xmlns="http://www.w3.org/2000/svg">
<g id="default / nature">
<g id="POI-base">
<g id="Category_Master">
<g id="Baseshape_Pin">
<path id="shape" d="M6.12903 20.4794L6.12726 20.4777C3.78964 18.19 2.64527 16.3664 2.07698 14.8457C1.50986 13.3281 1.5 12.0735 1.5 10.8565C1.5 6.24879 5.30485 2.5 9.99133 2.5C14.6791 2.5 18.5 6.25003 18.5 10.8565C18.5 12.0735 18.4901 13.3281 17.923 14.8457C17.3547 16.3664 16.2104 18.19 13.8728 20.4777L13.8717 20.4787L9.99205 24.2977L6.12903 20.4794Z" fill="#45BF94" stroke="#308C7A"/>
</g>
</g>
<g id="Icon_Master">
<g id="nature">
<path id="Vector" d="M9.045 15.03L7.38 17L6.47 16.09L8.44 14.425C8.1721 13.8259 8.08661 13.1612 8.19421 12.5139C8.3018 11.8665 8.59772 11.2652 9.045 10.785C10.635 9.195 14.5 8.97 14.5 8.97C14.5 8.97 14.27 12.835 12.68 14.425C12.2002 14.8713 11.5998 15.1666 10.9535 15.2742C10.3071 15.3817 9.64344 15.2968 9.045 15.03ZM6.925 14.58L7.425 14.14C7.23055 13.4501 7.22057 12.7213 7.39606 12.0264C7.57154 11.3315 7.92634 10.6948 8.425 10.18C8.79496 9.82176 9.21834 9.5232 9.68 9.295C9.21503 8.48213 8.67608 7.71388 8.07 7C8.07 7 5.5 9.895 5.5 12.145C5.51154 12.6384 5.64839 13.1208 5.89767 13.5467C6.14695 13.9727 6.50047 14.3283 6.925 14.58Z" fill="white"/>
</g>
</g>
</g>
</g>
</svg>
