<svg width="20" height="26" viewBox="0 0 20 26" fill="none" xmlns="http://www.w3.org/2000/svg">
<g id="default / parking-garage">
<g id="POI-base">
<g id="Category_Master">
<g id="Baseshape_Pin">
<path id="shape" d="M6.12903 20.4794L6.12726 20.4777C3.78964 18.19 2.64527 16.3664 2.07698 14.8457C1.50986 13.3281 1.5 12.0735 1.5 10.8565C1.5 6.24879 5.30485 2.5 9.99133 2.5C14.6791 2.5 18.5 6.25003 18.5 10.8565C18.5 12.0735 18.4901 13.3281 17.923 14.8457C17.3547 16.3664 16.2104 18.19 13.8728 20.4777L13.8717 20.4787L9.99205 24.2977L6.12903 20.4794Z" fill="#4E91E9" stroke="#386CB6"/>
</g>
</g>
<g id="Icon_Master">
<g id="parking-garage">
<path id="Vector" d="M15 10.21L10 8.42L5 10.21V8.78L10 7L15 8.78V10.21ZM12.68 12.785C12.68 14.41 11.53 15.165 9.915 15.165H9.155V17H7.5V10.5H9.765C11.57 10.5 12.68 11.25 12.68 12.785ZM10.975 12.785C10.975 12.035 10.56 11.68 9.74 11.68H9.155V14H9.775C9.94192 14.0321 10.1141 14.0229 10.2767 13.9734C10.4393 13.9239 10.5874 13.8354 10.7081 13.7157C10.8288 13.596 10.9184 13.4487 10.9693 13.2865C11.0202 13.1243 11.0307 12.9522 11 12.785H10.975Z" fill="white"/>
</g>
</g>
</g>
</g>
</svg>
