<svg width="20" height="26" viewBox="0 0 20 26" fill="none" xmlns="http://www.w3.org/2000/svg">
<g id="default / park-and-ride">
<g id="POI-base">
<g id="Category_Master">
<g id="Baseshape_Pin">
<path id="shape" d="M6.12903 20.4794L6.12726 20.4777C3.78964 18.19 2.64527 16.3664 2.07698 14.8457C1.50986 13.3281 1.5 12.0735 1.5 10.8565C1.5 6.24879 5.30485 2.5 9.99133 2.5C14.6791 2.5 18.5 6.25003 18.5 10.8565C18.5 12.0735 18.4901 13.3281 17.923 14.8457C17.3547 16.3664 16.2104 18.19 13.8728 20.4777L13.8717 20.4787L9.99205 24.2977L6.12903 20.4794Z" fill="#4E91E9" stroke="#386CB6"/>
</g>
</g>
<g id="Icon_Master">
<g id="park-and-ride">
<path id="Vector" d="M15 8.5H5V8C5 7.73478 5.10536 7.48043 5.29289 7.29289C5.48043 7.10536 5.73478 7 6 7H14C14.2652 7 14.5196 7.10536 14.7071 7.29289C14.8946 7.48043 15 7.73478 15 8V8.5ZM5 16C5 16.2652 5.10536 16.5196 5.29289 16.7071C5.48043 16.8946 5.73478 17 6 17H14C14.2652 17 14.5196 16.8946 14.7071 16.7071C14.8946 16.5196 15 16.2652 15 16V15.5H5V16ZM6.18 14.5H5V9.5H6.615C7.905 9.5 8.7 10.035 8.7 11.13C8.7 12.225 7.875 12.835 6.7 12.835H6.18V14.5ZM6.18 12H6.62C7.155 12 7.5 11.76 7.5 11.13C7.5 10.595 7.185 10.345 6.6 10.345H6.18V12ZM9 11.745C8.99901 11.8938 9.04228 12.0394 9.12431 12.1635C9.20634 12.2876 9.32342 12.3846 9.46067 12.4419C9.59792 12.4993 9.74913 12.5146 9.89508 12.4858C10.041 12.457 10.1751 12.3855 10.2803 12.2803C10.3855 12.1751 10.457 12.041 10.4858 11.8951C10.5146 11.7491 10.4993 11.5979 10.4419 11.4607C10.3846 11.3234 10.2876 11.2063 10.1635 11.1243C10.0394 11.0423 9.89376 10.999 9.745 11C9.64642 10.9972 9.5483 11.0146 9.45667 11.0511C9.36503 11.0876 9.2818 11.1423 9.21206 11.2121C9.14233 11.2818 9.08755 11.365 9.05109 11.4567C9.01462 11.5483 8.99724 11.6464 9 11.745ZM13.735 12.37L15 14.5H13.67L12.645 12.59H12.18V14.5H11V9.5H12.635C13.99 9.5 14.69 10 14.69 11C14.7032 11.3015 14.6169 11.599 14.4443 11.8466C14.2717 12.0942 14.0225 12.2781 13.735 12.37ZM13.5 11C13.5 10.5 13.215 10.31 12.63 10.31H12.205V11.755H12.705C13.2 11.775 13.5 11.55 13.5 11Z" fill="white"/>
</g>
</g>
</g>
</g>
</svg>
