<svg width="20" height="26" viewBox="0 0 20 26" fill="none" xmlns="http://www.w3.org/2000/svg">
<g id="default / petrol-station">
<g id="POI-base">
<g id="Category_Master">
<g id="Baseshape_Pin">
<path id="shape" d="M6.12903 20.4794L6.12726 20.4777C3.78964 18.19 2.64527 16.3664 2.07698 14.8457C1.50986 13.3281 1.5 12.0735 1.5 10.8565C1.5 6.24879 5.30485 2.5 9.99133 2.5C14.6791 2.5 18.5 6.25003 18.5 10.8565C18.5 12.0735 18.4901 13.3281 17.923 14.8457C17.3547 16.3664 16.2104 18.19 13.8728 20.4777L13.8717 20.4787L9.99205 24.2977L6.12903 20.4794Z" fill="#6BC9FF" stroke="#4A91C5"/>
</g>
</g>
<g id="Icon_Master">
<g id="petrol-station">
<path id="Vector" d="M15 10L13 8L12.5 8.545L13.5 9.545V12L14 12.5V15C14 15.2652 13.8946 15.5196 13.7071 15.7071C13.5196 15.8946 13.2652 16 13 16H11V8C11.0109 7.74699 10.9214 7.49993 10.7509 7.31262C10.5805 7.12532 10.3429 7.01296 10.09 7H6.91C6.65709 7.01296 6.41954 7.12532 6.24909 7.31262C6.07865 7.49993 5.98912 7.74699 6 8V16H5V17H13C13.5304 17 14.0391 16.7893 14.4142 16.4142C14.7893 16.0391 15 15.5304 15 15V10ZM7 8H10V11.5H7V8Z" fill="white"/>
</g>
</g>
</g>
</g>
</svg>
