<svg width="20" height="26" viewBox="0 0 20 26" fill="none" xmlns="http://www.w3.org/2000/svg">
<g id="default / pharmacy">
<g id="POI-base">
<g id="Category_Master">
<g id="Baseshape_Pin">
<path id="shape" d="M6.12903 20.4794L6.12726 20.4777C3.78964 18.19 2.64527 16.3664 2.07698 14.8457C1.50986 13.3281 1.5 12.0735 1.5 10.8565C1.5 6.24879 5.30485 2.5 9.99133 2.5C14.6791 2.5 18.5 6.25003 18.5 10.8565C18.5 12.0735 18.4901 13.3281 17.923 14.8457C17.3547 16.3664 16.2104 18.19 13.8728 20.4777L13.8717 20.4787L9.99205 24.2977L6.12903 20.4794Z" fill="#FC5A72" stroke="#B04462"/>
</g>
</g>
<g id="Icon_Master">
<g id="pharmacy">
<path id="Vector" d="M12.5 8.50001H7.5V7.85501C7.49934 7.74255 7.521 7.63107 7.56373 7.52704C7.60646 7.423 7.66942 7.32849 7.74894 7.24896C7.82847 7.16943 7.92299 7.10648 8.02702 7.06375C8.13106 7.02101 8.24253 6.99935 8.355 7.00001H11.645C11.7575 6.99935 11.8689 7.02101 11.973 7.06375C12.077 7.10648 12.1715 7.16943 12.2511 7.24896C12.3306 7.32849 12.3935 7.423 12.4363 7.52704C12.479 7.63107 12.5007 7.74255 12.5 7.85501V8.50001ZM14 10.5V17H6V10.5C6 10.2348 6.10536 9.98044 6.29289 9.79291C6.48043 9.60537 6.73478 9.50001 7 9.50001H13C13.2652 9.50001 13.5196 9.60537 13.7071 9.79291C13.8946 9.98044 14 10.2348 14 10.5ZM12.75 12.5H10.75V10.5H9.25V12.5H7.25V14H9.25V16H10.75V14H12.75V12.5Z" fill="white"/>
</g>
</g>
</g>
</g>
</svg>
