<svg width="20" height="26" viewBox="0 0 20 26" fill="none" xmlns="http://www.w3.org/2000/svg">
<g id="default / police">
<g id="POI-base">
<g id="Category_Master">
<g id="Baseshape_Pin">
<path id="shape" d="M6.12903 20.4794L6.12726 20.4777C3.78964 18.19 2.64527 16.3664 2.07698 14.8457C1.50986 13.3281 1.5 12.0735 1.5 10.8565C1.5 6.24879 5.30485 2.5 9.99133 2.5C14.6791 2.5 18.5 6.25003 18.5 10.8565C18.5 12.0735 18.4901 13.3281 17.923 14.8457C17.3547 16.3664 16.2104 18.19 13.8728 20.4777L13.8717 20.4787L9.99205 24.2977L6.12903 20.4794Z" fill="#FC5A72" stroke="#B04462"/>
</g>
</g>
<g id="Icon_Master">
<g id="police">
<path id="Vector" d="M11.285 9.285C11.2662 9.6664 11.1338 10.0335 10.9049 10.3391C10.6759 10.6447 10.3608 10.8748 10 11C9.63923 10.8748 9.32412 10.6447 9.09515 10.3391C8.86617 10.0335 8.73379 9.6664 8.715 9.285V8.855L10 8.43L11.285 8.855V9.285ZM14.75 9.5L10 7L5.25 9.5L7 11V11.5C7 11.5 7.5 12 10 12C12.5 12 13 11.5 13 11.5V11L14.75 9.5ZM13 12.25C13 12.25 12.5 13.5 10 13.5C7.5 13.5 7 12.25 7 12.25V12.75C7 15.095 8.345 17 10 17C11.655 17 13 15.095 13 12.75V12.25Z" fill="white"/>
</g>
</g>
</g>
</g>
</svg>
