<svg width="20" height="26" viewBox="0 0 20 26" fill="none" xmlns="http://www.w3.org/2000/svg">
<g id="default / pool">
<g id="POI-base">
<g id="Category_Master">
<g id="Baseshape_Pin">
<path id="shape" d="M6.12903 20.4794L6.12726 20.4777C3.78964 18.19 2.64527 16.3664 2.07698 14.8457C1.50986 13.3281 1.5 12.0735 1.5 10.8565C1.5 6.24879 5.30485 2.5 9.99133 2.5C14.6791 2.5 18.5 6.25003 18.5 10.8565C18.5 12.0735 18.4901 13.3281 17.923 14.8457C17.3547 16.3664 16.2104 18.19 13.8728 20.4777L13.8717 20.4787L9.99205 24.2977L6.12903 20.4794Z" fill="#ED97C2" stroke="#A66F9A"/>
</g>
</g>
<g id="Icon_Master">
<g id="pool">
<path id="Vector" d="M10 7C9.0111 7 8.0444 7.29324 7.22215 7.84265C6.39991 8.39206 5.75904 9.17295 5.3806 10.0866C5.00217 11.0002 4.90315 12.0055 5.09608 12.9755C5.289 13.9454 5.76521 14.8363 6.46447 15.5355C7.16373 16.2348 8.05465 16.711 9.02455 16.9039C9.99446 17.0969 10.9998 16.9978 11.9134 16.6194C12.8271 16.241 13.6079 15.6001 14.1573 14.7779C14.7068 13.9556 15 12.9889 15 12C15 11.3434 14.8707 10.6932 14.6194 10.0866C14.3681 9.47995 13.9998 8.92876 13.5355 8.46447C13.0712 8.00017 12.52 7.63188 11.9134 7.3806C11.3068 7.12933 10.6566 7 10 7ZM10 14.945C9.41754 14.945 8.84815 14.7723 8.36385 14.4487C7.87955 14.1251 7.50208 13.6651 7.27918 13.127C7.05628 12.5889 6.99796 11.9967 7.11159 11.4255C7.22522 10.8542 7.50571 10.3294 7.91757 9.91757C8.32944 9.5057 8.85419 9.22522 9.42546 9.11159C9.99674 8.99795 10.5889 9.05627 11.127 9.27917C11.6651 9.50207 12.1251 9.87954 12.4487 10.3638C12.7723 10.8481 12.945 11.4175 12.945 12C12.945 12.3867 12.8688 12.7697 12.7208 13.127C12.5728 13.4843 12.3559 13.809 12.0824 14.0824C11.809 14.3559 11.4843 14.5728 11.127 14.7208C10.7697 14.8688 10.3867 14.945 10 14.945ZM10.6 11.855C10.776 11.7905 10.9284 11.6744 11.0373 11.5219C11.1461 11.3693 11.2063 11.1874 11.21 11C11.21 10.385 10.655 10.055 10 10.055C9.345 10.055 8.79 10.425 8.79 11.03C8.78724 11.2141 8.83829 11.3949 8.93689 11.5503C9.03548 11.7058 9.17733 11.8291 9.345 11.905C9.14413 11.967 8.96789 12.0907 8.84133 12.2585C8.71477 12.4264 8.64432 12.6298 8.64 12.84C8.64 13.44 9.14 13.905 9.985 13.905C10.83 13.905 11.36 13.43 11.36 12.825C11.348 12.6049 11.2687 12.3938 11.1328 12.2203C10.9968 12.0468 10.8108 11.9193 10.6 11.855ZM10 10.57C10.0693 10.5599 10.1401 10.5657 10.2069 10.5868C10.2737 10.6079 10.3348 10.6439 10.3858 10.692C10.4368 10.74 10.4762 10.799 10.5012 10.8645C10.5261 10.9299 10.536 11.0002 10.53 11.07C10.5317 11.2019 10.4947 11.3313 10.4236 11.4424C10.3525 11.5535 10.2504 11.6413 10.13 11.695L10.03 11.66C9.67 11.525 9.47 11.39 9.47 11.075C9.46319 11.0048 9.47245 10.934 9.49706 10.8679C9.52167 10.8018 9.561 10.7421 9.61206 10.6935C9.66313 10.6448 9.72459 10.6084 9.7918 10.587C9.85901 10.5656 9.93021 10.5598 10 10.57ZM10 13.405C9.605 13.405 9.35 13.19 9.35 12.835C9.34441 12.6831 9.38361 12.5329 9.46274 12.4031C9.54186 12.2733 9.65741 12.1696 9.795 12.105L9.965 12.165C10.465 12.345 10.645 12.5 10.645 12.845C10.6451 12.926 10.6278 13.0061 10.5942 13.0798C10.5606 13.1536 10.5116 13.2192 10.4504 13.2723C10.3892 13.3254 10.3174 13.3648 10.2396 13.3877C10.1619 13.4106 10.0802 13.4165 10 13.405Z" fill="white"/>
</g>
</g>
</g>
</g>
</svg>
