<svg width="20" height="26" viewBox="0 0 20 26" fill="none" xmlns="http://www.w3.org/2000/svg">
<g id="default / pub">
<g id="POI-base">
<g id="Category_Master">
<g id="Baseshape_Pin">
<path id="shape" d="M6.12903 20.4794L6.12726 20.4777C3.78964 18.19 2.64527 16.3664 2.07698 14.8457C1.50986 13.3281 1.5 12.0735 1.5 10.8565C1.5 6.24879 5.30485 2.5 9.99133 2.5C14.6791 2.5 18.5 6.25003 18.5 10.8565C18.5 12.0735 18.4901 13.3281 17.923 14.8457C17.3547 16.3664 16.2104 18.19 13.8728 20.4777L13.8717 20.4787L9.99205 24.2977L6.12903 20.4794Z" fill="#ED97C2" stroke="#A66F9A"/>
</g>
</g>
<g id="Icon_Master">
<g id="pub">
<path id="Vector" d="M14.0552 11H6.00017V16L5.75017 17H13.2502L13.0002 16V15.5L14.1952 15.31C14.4254 15.2643 14.6321 15.139 14.7793 14.9562C14.9265 14.7734 15.0047 14.5447 15.0002 14.31V12C15.0006 11.744 14.9028 11.4977 14.727 11.3117C14.5512 11.1256 14.3107 11.0141 14.0552 11ZM9.00017 15.5H8.00017V12H9.00017V15.5ZM11.0002 15.5H10.0002V12H11.0002V15.5ZM14.0002 14.095C14.0002 14.1526 13.9803 14.2085 13.9438 14.2531C13.9074 14.2978 13.8566 14.3285 13.8002 14.34L13.0002 14.5V12H13.7502C13.8165 12 13.8801 12.0263 13.9269 12.0732C13.9738 12.1201 14.0002 12.1837 14.0002 12.25V14.095ZM6.54517 10H5.54517C5.53996 9.91675 5.53996 9.83325 5.54517 9.75C5.54502 9.29357 5.7232 8.85513 6.04172 8.52821C6.36024 8.20128 6.79388 8.01174 7.25017 8H7.75017C7.92663 7.69925 8.17866 7.44986 8.48125 7.27657C8.78383 7.10328 9.12647 7.01212 9.47517 7.01212C9.82387 7.01212 10.1665 7.10328 10.4691 7.27657C10.7717 7.44986 11.0237 7.69925 11.2002 8H11.7502C12.2143 8 12.6594 8.18438 12.9876 8.51256C13.3158 8.84075 13.5002 9.28587 13.5002 9.75C13.5054 9.83325 13.5054 9.91675 13.5002 10H12.5002C12.5153 9.91735 12.5153 9.83265 12.5002 9.75C12.5002 9.55109 12.4212 9.36032 12.2805 9.21967C12.1398 9.07902 11.9491 9 11.7502 9H10.5002C10.5002 8.73478 10.3948 8.48043 10.2073 8.29289C10.0197 8.10536 9.76539 8 9.50017 8C9.23495 8 8.9806 8.10536 8.79306 8.29289C8.60553 8.48043 8.50017 8.73478 8.50017 9H7.25017C7.05126 9 6.86049 9.07902 6.71984 9.21967C6.57919 9.36032 6.50017 9.55109 6.50017 9.75C6.50209 9.83517 6.51728 9.91951 6.54517 10Z" fill="white"/>
</g>
</g>
</g>
</g>
</svg>
