<svg width="20" height="26" viewBox="0 0 20 26" fill="none" xmlns="http://www.w3.org/2000/svg">
<g id="default / religious-place">
<g id="POI-base">
<g id="Category_Master">
<g id="Baseshape_Pin">
<path id="shape" d="M6.12903 20.4794L6.12726 20.4777C3.78964 18.19 2.64527 16.3664 2.07698 14.8457C1.50986 13.3281 1.5 12.0735 1.5 10.8565C1.5 6.24879 5.30485 2.5 9.99133 2.5C14.6791 2.5 18.5 6.25003 18.5 10.8565C18.5 12.0735 18.4901 13.3281 17.923 14.8457C17.3547 16.3664 16.2104 18.19 13.8728 20.4777L13.8717 20.4787L9.99205 24.2977L6.12903 20.4794Z" fill="#C19D95" stroke="#87737B"/>
</g>
</g>
<g id="Icon_Master">
<g id="religious-place">
<path id="Vector" d="M13 7L11 12V15.5H9.49996V11.5H5.49996V17H15V12L13 7ZM6.99996 15.5V12.5C7.05818 12.4224 7.13367 12.3594 7.22046 12.316C7.30724 12.2726 7.40294 12.25 7.49996 12.25C7.59699 12.25 7.69269 12.2726 7.77947 12.316C7.86626 12.3594 7.94175 12.4224 7.99996 12.5V15.5H6.99996ZM12.5 15.5V12.5C12.5582 12.4224 12.6337 12.3594 12.7205 12.316C12.8072 12.2726 12.9029 12.25 13 12.25C13.097 12.25 13.1927 12.2726 13.2795 12.316C13.3663 12.3594 13.4417 12.4224 13.5 12.5V15.5H12.5ZM9.99996 9.5C10.0054 9.69496 9.96253 9.88823 9.87531 10.0627C9.78809 10.2371 9.65916 10.3873 9.49996 10.5H5.49996C5.34077 10.3873 5.21184 10.2371 5.12462 10.0627C5.03739 9.88823 4.99458 9.69496 4.99996 9.5C4.99996 8.5 7.49996 7 7.49996 7C7.49996 7 9.99996 8.5 9.99996 9.5Z" fill="white"/>
</g>
</g>
</g>
</g>
</svg>
