<svg width="20" height="26" viewBox="0 0 20 26" fill="none" xmlns="http://www.w3.org/2000/svg">
<g id="default / stadium">
<g id="POI-base">
<g id="Category_Master">
<g id="Baseshape_Pin">
<path id="shape" d="M6.12903 20.4794L6.12726 20.4777C3.78964 18.19 2.64527 16.3664 2.07698 14.8457C1.50986 13.3281 1.5 12.0735 1.5 10.8565C1.5 6.24879 5.30485 2.5 9.99133 2.5C14.6791 2.5 18.5 6.25003 18.5 10.8565C18.5 12.0735 18.4901 13.3281 17.923 14.8457C17.3547 16.3664 16.2104 18.19 13.8728 20.4777L13.8717 20.4787L9.99205 24.2977L6.12903 20.4794Z" fill="#C19D95" stroke="#87737B"/>
</g>
</g>
<g id="Icon_Master">
<g id="stadium">
<path id="Vector" d="M11 17V15.75C11.001 15.6211 10.9753 15.4934 10.9247 15.375C10.874 15.2565 10.7993 15.1497 10.7054 15.0615C10.6115 14.9732 10.5004 14.9053 10.379 14.862C10.2576 14.8187 10.1286 14.801 10 14.81C9.87144 14.801 9.74241 14.8187 9.62101 14.862C9.49962 14.9053 9.38848 14.9732 9.29458 15.0615C9.20068 15.1497 9.12604 15.2565 9.07534 15.375C9.02465 15.4934 8.999 15.6211 9 15.75V17H6.685C6.29901 17.0004 5.92772 16.852 5.64834 16.5857C5.36896 16.3194 5.20301 15.9556 5.185 15.57L5 11.57L7.25 13.665C7.50469 13.8866 7.83246 14.0059 8.17 14H11.67C12.0109 13.9991 12.339 13.8707 12.59 13.64L15 11.545L14.815 15.57C14.797 15.9556 14.631 16.3194 14.3517 16.5857C14.0723 16.852 13.701 17.0004 13.315 17H11ZM7.925 12.905C7.99254 12.9652 8.07955 12.9989 8.17 13H11.67C11.7606 12.9998 11.848 12.966 11.915 12.905L12.915 12.02H6.915L7.925 12.905ZM15 7.45L13 7V10H10V8.15L11 7.86V7.43L9 7V10H6V8.155L7 7.86V7.43L5 7V10.18L5.88 11H14.1L15 10.225V10H14V8.175L15 7.88V7.45Z" fill="white"/>
</g>
</g>
</g>
</g>
</svg>
