<svg width="20" height="26" viewBox="0 0 20 26" fill="none" xmlns="http://www.w3.org/2000/svg">
<g id="default / swimming">
<g id="POI-base">
<g id="Category_Master">
<g id="Baseshape_Pin">
<path id="shape" d="M6.12903 20.4794L6.12726 20.4777C3.78964 18.19 2.64527 16.3664 2.07698 14.8457C1.50986 13.3281 1.5 12.0735 1.5 10.8565C1.5 6.24879 5.30485 2.5 9.99133 2.5C14.6791 2.5 18.5 6.25003 18.5 10.8565C18.5 12.0735 18.4901 13.3281 17.923 14.8457C17.3547 16.3664 16.2104 18.19 13.8728 20.4777L13.8717 20.4787L9.99205 24.2977L6.12903 20.4794Z" fill="#C19D95" stroke="#87737B"/>
</g>
</g>
<g id="Icon_Master">
<g id="swimming">
<path id="Vector" d="M11.4 8L7.575 14.115C7.94551 13.9996 8.332 13.944 8.72 13.95C9.32934 13.9392 9.93201 14.0783 10.475 14.355C10.7168 14.4924 10.992 14.56 11.27 14.55C11.5496 14.5609 11.8267 14.4934 12.07 14.355C12.613 14.0783 13.2157 13.9392 13.825 13.95C13.98 13.95 14.12 13.95 14.255 13.95L11.725 11.225C11.6581 11.153 11.6139 11.063 11.5979 10.9661C11.5819 10.8691 11.5948 10.7696 11.635 10.68L12.66 8.395C12.7251 8.24356 12.7518 8.07836 12.7376 7.91412C12.7235 7.74987 12.669 7.59168 12.5789 7.4536C12.4888 7.31553 12.366 7.20187 12.2214 7.12273C12.0768 7.04359 11.9148 7.00143 11.75 7H7.555L7.91 8H11.4ZM13.825 15.4C13.3263 15.3906 12.833 15.5058 12.39 15.735C12.0465 15.9203 11.6601 16.0117 11.27 16C10.8815 16.011 10.497 15.9196 10.155 15.735C9.71196 15.5058 9.21875 15.3906 8.72 15.4C8.22274 15.3895 7.73088 15.5048 7.29 15.735C6.94802 15.9196 6.56348 16.011 6.175 16C5.78638 16.0124 5.40147 15.921 5.06 15.735H5V16.805C5.37336 16.9528 5.77393 17.0192 6.175 17C6.67375 17.0094 7.16696 16.8942 7.61 16.665C7.94991 16.4797 8.33303 16.3882 8.72 16.4C9.10862 16.3876 9.49353 16.479 9.835 16.665C10.278 16.8942 10.7713 17.0094 11.27 17C11.7687 17.0094 12.262 16.8942 12.705 16.665C13.0485 16.4797 13.4349 16.3883 13.825 16.4C14.2136 16.3876 14.5985 16.479 14.94 16.665L15 16.69V15.62C14.6283 15.4643 14.2278 15.3893 13.825 15.4ZM7.39 12.5H6.5C6.23478 12.5 5.98043 12.3946 5.79289 12.2071C5.60536 12.0196 5.5 11.7652 5.5 11.5V10.5C5.5 10.2348 5.60536 9.98043 5.79289 9.79289C5.98043 9.60536 6.23478 9.5 6.5 9.5H7.25C7.44891 9.5 7.63968 9.57902 7.78033 9.71967C7.92098 9.86032 8 10.0511 8 10.25L8.175 11.28L7.39 12.5Z" fill="white"/>
</g>
</g>
</g>
</g>
</svg>
