<svg width="20" height="26" viewBox="0 0 20 26" fill="none" xmlns="http://www.w3.org/2000/svg">
<g id="default / taxi">
<g id="POI-base">
<g id="Category_Master">
<g id="Baseshape_Dot">
<path id="Outline Outside" d="M1.5 12C1.5 7.30558 5.30558 3.5 10 3.5C14.6944 3.5 18.5 7.30558 18.5 12C18.5 16.6944 14.6944 20.5 10 20.5C5.30558 20.5 1.5 16.6944 1.5 12Z" fill="#6BC9FF" stroke="#4A91C5"/>
</g>
</g>
<g id="Icon_Master">
<g id="taxi">
<path id="Vector" d="M14.75 11.5H13.89L13.39 10.35C13.2838 10.1013 13.1078 9.88863 12.8833 9.73778C12.6588 9.58694 12.3954 9.50435 12.125 9.5H11.72L11.53 8.05C11.5167 7.90348 11.4505 7.76681 11.3438 7.66558C11.237 7.56434 11.097 7.50548 10.95 7.5H9.05C8.90298 7.50548 8.76299 7.56434 8.65624 7.66558C8.54948 7.76681 8.48327 7.90348 8.47 8.05L8.28 9.5H7.89C7.62185 9.50598 7.36115 9.58941 7.13935 9.74023C6.91756 9.89105 6.74413 10.1028 6.64 10.35L6.14 11.5H5.25C5.17238 11.5582 5.10938 11.6337 5.06598 11.7205C5.02259 11.8073 5 11.903 5 12C5 12.097 5.02259 12.1927 5.06598 12.2795C5.10938 12.3663 5.17238 12.4418 5.25 12.5H5.5V15.5C5.5 15.6326 5.55268 15.7598 5.64645 15.8536C5.74021 15.9473 5.86739 16 6 16H7.5C7.63261 16 7.75979 15.9473 7.85355 15.8536C7.94732 15.7598 8 15.6326 8 15.5V15H12V15.5C12 15.6326 12.0527 15.7598 12.1464 15.8536C12.2402 15.9473 12.3674 16 12.5 16H14C14.1326 16 14.2598 15.9473 14.3536 15.8536C14.4473 15.7598 14.5 15.6326 14.5 15.5V12.5H14.75C14.8276 12.4418 14.8906 12.3663 14.934 12.2795C14.9774 12.1927 15 12.097 15 12C15 11.903 14.9774 11.8073 14.934 11.7205C14.8906 11.6337 14.8276 11.5582 14.75 11.5ZM8 14H6.75C6.67238 13.9418 6.60938 13.8663 6.56598 13.7795C6.52259 13.6927 6.5 13.597 6.5 13.5C6.5 13.403 6.52259 13.3073 6.56598 13.2205C6.60938 13.1337 6.67238 13.0582 6.75 13H8V14ZM7 12L7.555 10.755C7.58059 10.6849 7.62576 10.6236 7.68514 10.5784C7.74452 10.5332 7.81562 10.506 7.89 10.5H12.125C12.2001 10.5057 12.272 10.5327 12.3322 10.5779C12.3925 10.6231 12.4385 10.6845 12.465 10.755L13 12H7ZM13.25 14H12V13H13.25C13.3276 13.0582 13.3906 13.1337 13.434 13.2205C13.4774 13.3073 13.5 13.403 13.5 13.5C13.5 13.597 13.4774 13.6927 13.434 13.7795C13.3906 13.8663 13.3276 13.9418 13.25 14Z" fill="white"/>
</g>
</g>
</g>
</g>
</svg>
