<svg width="20" height="26" viewBox="0 0 20 26" fill="none" xmlns="http://www.w3.org/2000/svg">
<g id="default / tourist-information">
<g id="POI-base">
<g id="Category_Master">
<g id="Baseshape_Pin">
<path id="shape" d="M6.12903 20.4794L6.12726 20.4777C3.78964 18.19 2.64527 16.3664 2.07698 14.8457C1.50986 13.3281 1.5 12.0735 1.5 10.8565C1.5 6.24879 5.30485 2.5 9.99133 2.5C14.6791 2.5 18.5 6.25003 18.5 10.8565C18.5 12.0735 18.4901 13.3281 17.923 14.8457C17.3547 16.3664 16.2104 18.19 13.8728 20.4777L13.8717 20.4787L9.99205 24.2977L6.12903 20.4794Z" fill="#A0B1DA" stroke="#7182AB"/>
</g>
</g>
<g id="Icon_Master">
<g id="tourist-information">
<path id="Vector" d="M11 15V10.5H7.5V12.5H9V15H7V17H12.5V15H11ZM11.35 8.49999C11.35 8.767 11.2708 9.02801 11.1225 9.25001C10.9741 9.47202 10.7633 9.64505 10.5166 9.74723C10.2699 9.84941 9.9985 9.87614 9.73663 9.82405C9.47475 9.77196 9.23421 9.64339 9.04541 9.45459C8.8566 9.26579 8.72803 9.02524 8.67594 8.76337C8.62385 8.50149 8.65058 8.23005 8.75276 7.98337C8.85494 7.73669 9.02797 7.52585 9.24998 7.37751C9.47199 7.22917 9.733 7.14999 10 7.14999C10.358 7.14999 10.7014 7.29223 10.9546 7.5454C11.2078 7.79857 11.35 8.14195 11.35 8.49999Z" fill="white"/>
</g>
</g>
</g>
</g>
</svg>
