<svg width="20" height="26" viewBox="0 0 20 26" fill="none" xmlns="http://www.w3.org/2000/svg">
<g id="default / train">
<g id="POI-base">
<g id="Category_Master">
<g id="Baseshape_Dot">
<path id="Outline Outside" d="M1.5 12C1.5 7.30558 5.30558 3.5 10 3.5C14.6944 3.5 18.5 7.30558 18.5 12C18.5 16.6944 14.6944 20.5 10 20.5C5.30558 20.5 1.5 16.6944 1.5 12Z" fill="#6BC9FF" stroke="#4A91C5"/>
</g>
</g>
<g id="Icon_Master">
<g id="train">
<path id="Vector" d="M12.155 14.5C12.3598 14.5004 12.5625 14.4588 12.7506 14.3779C12.9387 14.2969 13.1083 14.1783 13.2488 14.0293C13.3893 13.8804 13.4979 13.7042 13.5677 13.5117C13.6376 13.3192 13.6673 13.1144 13.655 12.91L13.335 8.41C13.312 8.02798 13.1439 7.66918 12.8651 7.40706C12.5862 7.14494 12.2177 6.99931 11.835 7H8.16C7.77729 6.99931 7.40879 7.14494 7.12993 7.40706C6.85108 7.66918 6.68296 8.02798 6.66 8.41L6.34 12.91C6.32771 13.1144 6.35741 13.3192 6.42727 13.5117C6.49714 13.7042 6.60568 13.8804 6.74621 14.0293C6.88674 14.1783 7.05628 14.2969 7.2444 14.3779C7.43251 14.4588 7.63521 14.5004 7.84 14.5H8L5.5 17H7L9.25 14.5H10.75L13 17H14.5L12 14.5H12.155ZM8.75 13.25H7.855C7.78674 13.2501 7.71917 13.2363 7.65647 13.2093C7.59376 13.1823 7.53725 13.1428 7.4904 13.0931C7.44356 13.0435 7.40738 12.9847 7.38409 12.9206C7.3608 12.8564 7.3509 12.7881 7.355 12.72V12.47C7.36265 12.3427 7.41869 12.2231 7.51164 12.1357C7.6046 12.0483 7.72743 11.9998 7.855 12H8.75V13.25ZM7.5 10.75L7.645 8.5C7.65109 8.36936 7.70572 8.24568 7.7982 8.1532C7.89068 8.06072 8.01435 8.00609 8.145 8H11.805C11.94 7.99985 12.0699 8.05172 12.1677 8.14483C12.2654 8.23794 12.3236 8.36514 12.33 8.5L12.5 10.75H7.5ZM11.25 13.25V12H12.125C12.2526 11.9998 12.3754 12.0483 12.4684 12.1357C12.5613 12.2231 12.6173 12.3427 12.625 12.47V12.72C12.6291 12.7881 12.6192 12.8564 12.5959 12.9206C12.5726 12.9847 12.5364 13.0435 12.4896 13.0931C12.4428 13.1428 12.3862 13.1823 12.3235 13.2093C12.2608 13.2363 12.1933 13.2501 12.125 13.25H11.25Z" fill="white"/>
</g>
</g>
</g>
</g>
</svg>
