<svg width="17" height="21" viewBox="0 0 17 21" fill="none" xmlns="http://www.w3.org/2000/svg">
<g id="canada_e_QC_02">
<g id="_Elements / _canada_e_base">
<g id="stretchable-items">
<path id="shape" d="M1.5 1.5H15.5V11.5C15.5 12.9438 15.2287 13.8834 14.8442 14.4881C14.4682 15.0794 13.9581 15.3916 13.3781 15.5374C12.7561 15.6938 12.3215 15.6936 11.8725 15.654C11.7518 15.6434 11.6232 15.6288 11.4856 15.6132C11.1168 15.5714 10.6837 15.5223 10.1667 15.5223C9.88689 15.5223 9.61774 15.6194 9.39969 15.7256C9.17461 15.8352 8.96072 15.9761 8.7809 16.1088C8.67801 16.1846 8.58311 16.2601 8.5 16.3293C8.41689 16.2601 8.32199 16.1846 8.2191 16.1088C8.03928 15.9761 7.82539 15.8352 7.60031 15.7256C7.38226 15.6194 7.11311 15.5223 6.83333 15.5223C6.3048 15.5223 5.85321 15.5927 5.48083 15.6507C5.34556 15.6718 5.22074 15.6912 5.10648 15.7051C4.67193 15.7578 4.25933 15.7585 3.6653 15.5504C3.05431 15.3364 2.53478 15.0116 2.15724 14.4336C1.77368 13.8464 1.5 12.9417 1.5 11.5V1.5Z" fill="#53C2AE" stroke="white"/>
</g>
<rect id="Rectangle 28" x="1.5" y="1.5" width="14" height="4" fill="#53C2AE" stroke="white"/>
<g id="Union">
<path d="M6 3.5L5 3L4.5 2L4 3L3 3.5L4 4L4.5 5L5 4L6 3.5Z" fill="white"/>
<path d="M10 3.5L9 3L8.5 2L8 3L7 3.5L8 4L8.5 5L9 4L10 3.5Z" fill="white"/>
<path d="M14 3.5L13 4L12.5 5L12 4L11 3.5L12 3L12.5 2L13 3L14 3.5Z" fill="white"/>
</g>
</g>
</g>
</svg>
