<svg width="17" height="26" viewBox="0 0 17 26" fill="none" xmlns="http://www.w3.org/2000/svg">
<g id="canada_i_MB_01">
<g id="_Elements / _canada_i_base">
<g id="stretchable-items">
<path id="shape01" d="M1.5 1.5H15.5V16.6615L8.50003 19.4615L1.5 16.6615V1.5Z" fill="white" stroke="#888B8F"/>
</g>
<g id="non-stretchable-items">
<path id="Vector" fill-rule="evenodd" clip-rule="evenodd" d="M12.4 5.7277C12.2 5.0277 11.6 4.72766 11 4.62766C10 4.42766 9.20002 4.02771 8.40002 3.42771C7.50002 2.82771 7.20002 2.82766 6.40002 3.62766C6.20002 3.82766 5.9 4.02767 5.5 4.32767C5.4 4.32767 5.1 4.32767 5 4.32767C5.1 4.52767 5.30002 4.52766 5.40002 4.62766C5.60002 4.92766 5.70005 5.42771 5.80005 5.92771C5.90005 6.22771 6.10002 6.42769 6.40002 6.52769C7.20002 6.62769 7.4 7.22767 7 7.82767C7 7.92767 6.90002 7.92769 6.90002 8.02769C6.90002 8.02769 7.20007 8.1277 7.20007 8.2277C7.50007 7.9277 7.60005 7.62771 7.80005 7.42771C8.30005 7.62771 8.10005 7.92767 7.80005 8.32767C7.90005 8.32767 7.99998 8.32771 8.09998 8.42771C8.09998 8.42771 8.5 8.12769 8.5 8.02769C9 7.42769 9.3 6.9277 10 6.7277C10.4 6.6277 10.6 6.62767 10.9 6.82767C11.2 7.02767 11.2 7.3277 11.1 7.7277C11.1 7.9277 10.9 8.12767 10.9 8.32767C11 8.32767 11.3 8.32771 11.3 8.42771C11.4 7.92771 11.6001 7.62766 11.7001 7.12766C12.1001 7.32766 12.1 7.42771 11.9 8.42771C12 8.42771 12.2 8.42771 12.3 8.42771C12.3 8.42771 12.6 7.6277 12.5 7.2277C12.2 6.5277 11.9 6.0277 12.4 5.7277ZM7.09998 6.02769C6.69998 6.02769 6.40002 5.72767 6.40002 5.32767C6.40002 4.92767 6.69998 4.62766 7.09998 4.62766C7.49998 4.62766 7.80005 4.92767 7.80005 5.32767C7.80005 5.72767 7.39998 6.02769 7.09998 6.02769Z" fill="#888B8F"/>
</g>
</g>
</g>
</svg>
