<svg width="19" height="22" viewBox="0 0 19 22" fill="none" xmlns="http://www.w3.org/2000/svg">
<g id="canada_b_01">
<g id="_Elements / _canada_b_base">
<rect id="Rectangle 7" x="1.5" y="1.5" width="16" height="16" rx="1.5" fill="#53C2AE" stroke="white"/>
<path id="Vector" d="M7.64671 4.82608C7.93934 4.42028 8.42705 3.6087 9.59755 3C10.7507 3.6087 11.2312 4.42028 11.5195 4.82608C12 5.53622 12.2883 6.14492 12.4805 6.85506C12.6727 7.76811 12.7688 8.27535 12.7688 8.27535C14.3064 7.05796 15.844 7.36231 15.844 7.36231C16.2284 8.5797 16.1323 10.1014 15.844 10.913C15.3635 12.5362 14.4986 13.2464 14.4986 13.2464C15.1713 13.6522 15.4596 13.9565 15.4596 13.9565C13.1532 15.9855 10.1742 14.971 10.1742 14.971C9.88585 15.4783 10.1742 17 10.1742 17L9.01229 17C9.01229 17 9.30492 15.4783 9.01229 14.971C9.01229 14.971 5.9885 15.9855 3.6475 13.9565C3.6475 13.9565 3.94013 13.6522 4.62292 13.2464C4.62292 13.2464 3.74505 12.5362 3.25734 10.913C2.96472 10.1014 2.86717 8.5797 3.25734 7.36231C3.25734 7.36231 4.81799 7.05796 6.37866 8.27535C6.37866 8.27535 6.47621 7.76811 6.6713 6.85506C6.86638 6.14492 7.15901 5.53622 7.64671 4.82608Z" fill="white"/>
</g>
</g>
</svg>
