<svg width="19" height="18" viewBox="0 0 19 18" fill="none" xmlns="http://www.w3.org/2000/svg">
<g id="detailedshield_b_01">
<g id="_Elements / _detailedshield_b_base">
<g id="stretchable-items">
<path id="shape01" d="M9.49952 1.61767C9.66064 1.72415 9.87963 1.85534 10.15 1.98598C10.7543 2.2779 11.6249 2.57152 12.684 2.57152C13.7429 2.57152 14.6141 2.27791 15.2189 1.98608C15.4066 1.89554 15.5695 1.80474 15.7055 1.72208L17.3811 4.67268C17.2779 4.78528 17.1543 4.92606 17.0298 5.0818C16.8757 5.2747 16.7118 5.50106 16.5842 5.73255C16.4638 5.95089 16.3409 6.23442 16.3409 6.52632C16.3409 7.36474 16.6264 7.86657 16.8809 8.3139C16.9155 8.37466 16.9495 8.43441 16.9821 8.49386C17.2376 8.95937 17.5 9.53359 17.5 10.75C17.5 11.8275 17.149 12.8132 16.4772 13.5253C15.8109 14.2315 14.7899 14.7105 13.3636 14.7105H11.3645C10.6877 14.7105 10.0356 14.933 9.5 15.3363C8.96445 14.933 8.31234 14.7105 7.6355 14.7105H5.63636C4.21006 14.7105 3.18906 14.2315 2.52279 13.5253C1.85095 12.8132 1.5 11.8275 1.5 10.75C1.5 9.53359 1.76237 8.95937 2.01787 8.49386C2.0505 8.43441 2.08449 8.37466 2.11906 8.3139C2.37357 7.86657 2.65909 7.36474 2.65909 6.52632C2.65909 6.23442 2.53622 5.95089 2.41583 5.73255C2.28817 5.50106 2.1243 5.2747 1.97017 5.0818C1.84561 4.92592 1.72189 4.78503 1.61863 4.67238L3.28979 1.72238C3.42573 1.80495 3.58849 1.89565 3.7759 1.98608C4.3807 2.27791 5.25191 2.57152 6.31089 2.57152C7.36983 2.57152 8.24163 2.27793 8.84696 1.98618C9.11822 1.85544 9.33793 1.72415 9.49952 1.61767Z" fill="white" stroke="#888B8F"/>
</g>
</g>
</g>
</svg>
