<svg width="21" height="22" viewBox="0 0 21 22" fill="none" xmlns="http://www.w3.org/2000/svg">
<g id="detailedshield_g_01">
<g id="_Elements / _detailedshield_g_base">
<g id="stretchable-items">
<path id="shape01" d="M18.9988 9.21383C19.1713 9.30289 19.3411 9.36021 19.4884 9.39733C19.3311 12.2841 17.5924 14.2737 15.6084 15.5766C14.5684 16.2595 13.4741 16.7434 12.538 17.0559C11.5895 17.3726 10.8437 17.5 10.5 17.5C10.1563 17.5 9.41055 17.3726 8.46203 17.0559C7.52588 16.7434 6.43157 16.2595 5.39164 15.5766C3.40763 14.2737 1.66893 12.2841 1.51158 9.39733C1.65888 9.36021 1.82869 9.30289 2.00122 9.21383C2.25471 9.08298 2.52106 8.87969 2.72257 8.56763C2.92562 8.2532 3.04375 7.85773 3.04375 7.375C3.04375 6.77919 2.86352 6.32161 2.57701 5.98719L2.1973 6.3125L2.57701 5.98719C2.26174 5.61921 1.85861 5.4472 1.56006 5.36542C1.5397 5.35984 1.51967 5.35464 1.5 5.34978V2.76431L3.35301 1.60374C3.52117 1.71415 3.75729 1.85159 4.06144 1.98766C4.71323 2.27925 5.67315 2.5625 6.9375 2.5625C8.20185 2.5625 9.16176 2.27925 9.81356 1.98766C10.1047 1.85742 10.3335 1.72592 10.5 1.61808C10.6665 1.72592 10.8953 1.85742 11.1864 1.98766C11.8382 2.27925 12.7981 2.5625 14.0625 2.5625C15.3269 2.5625 16.2868 2.27925 16.9386 1.98766C17.2427 1.85159 17.4788 1.71415 17.647 1.60374L19.5 2.76431V5.34978C19.4803 5.35464 19.4603 5.35984 19.4399 5.36542C19.1414 5.4472 18.7383 5.61921 18.423 5.98719C18.1365 6.32161 17.9562 6.77919 17.9562 7.375C17.9562 7.85773 18.0744 8.2532 18.2774 8.56763C18.4789 8.87969 18.7453 9.08298 18.9988 9.21383Z" fill="white" stroke="#888B8F"/>
<path id="shape02" d="M1.56006 5.36542C1.5397 5.35984 1.51967 5.35464 1.5 5.34978V2.76431L3.35301 1.60374C3.52117 1.71415 3.75729 1.85159 4.06144 1.98766C4.71323 2.27925 5.67315 2.5625 6.9375 2.5625C8.20185 2.5625 9.16177 2.27925 9.81356 1.98766C10.1047 1.85742 10.3335 1.72592 10.5 1.61808C10.6665 1.72592 10.8953 1.85742 11.1864 1.98766C11.8382 2.27925 12.7981 2.5625 14.0625 2.5625C15.3269 2.5625 16.2868 2.27925 16.9386 1.98766C17.2427 1.85159 17.4788 1.71415 17.647 1.60374L19.5 2.76431V5.34978C19.4803 5.35464 19.4603 5.35984 19.4399 5.36542C19.1933 5.43298 18.8753 5.56214 18.5944 5.8125H2.40564C2.12475 5.56214 1.80671 5.43298 1.56006 5.36542Z" fill="white" stroke="#888B8F"/>
</g>
</g>
</g>
</svg>
