<svg width="19" height="18" viewBox="0 0 19 18" fill="none" xmlns="http://www.w3.org/2000/svg">
<g id="detailedshield_d_01">
<g id="_Elements / _detailedshield_d_base">
<g id="stretchable-items">
<path id="shape" d="M1.88359 4.70132C1.81622 4.62075 1.7492 4.54557 1.68646 4.47803L4.25293 1.57188C4.44305 1.63008 4.6231 1.68582 4.79508 1.73906C6.50212 2.2675 7.4147 2.55 9.5 2.55C11.5853 2.55 12.4979 2.2675 14.2049 1.73906C14.3769 1.68582 14.5569 1.63008 14.7471 1.57188L17.3135 4.47803C17.2508 4.54557 17.1838 4.62075 17.1164 4.70132C16.9803 4.86417 16.8337 5.05967 16.7189 5.26675C16.6092 5.46473 16.5 5.72323 16.5 6C16.5 6.73462 16.7216 7.18747 16.9254 7.60376C16.9665 7.68787 17.007 7.77049 17.0447 7.85363C17.2631 8.33494 17.5 9.01581 17.5 10.5C17.5 12.5166 16.1028 14.7632 13.3636 14.7632H11.3645C10.6911 14.7632 10.0381 14.9712 9.5 15.3536C8.96189 14.9712 8.30887 14.7632 7.6355 14.7632H5.63636C2.89722 14.7632 1.5 12.5166 1.5 10.5C1.5 9.01581 1.73694 8.33494 1.95532 7.85363C1.99305 7.77049 2.03348 7.68787 2.07465 7.60376C2.27838 7.18747 2.5 6.73462 2.5 6C2.5 5.72323 2.3908 5.46473 2.28105 5.26675C2.16626 5.05967 2.01974 4.86417 1.88359 4.70132Z" fill="#F56C6C" stroke="white"/>
</g>
</g>
</g>
</svg>
