<svg width="17" height="20" viewBox="0 0 17 20" fill="none" xmlns="http://www.w3.org/2000/svg">
<g id="saudiarabia_02">
<g id="_Elements / _saudiarabia_base">
<g id="stretchable-items">
<rect id="shape" x="1" y="1" width="15" height="15" fill="#53C2AE"/>
</g>
<g id="non-stretchable-items">
<path id="symbol02" d="M15 13.9167V7.95833C15 7.525 14.7833 7.09167 14.675 6.875C14.5666 6.65833 14.2416 6.33333 13.5916 6.33333C12.8333 6.33333 12.5083 6.875 12.5083 6.875C12.5083 6.875 12.5083 6.00834 12.5083 5.35834C12.5083 4.70834 12.5083 4.49167 12.075 4.16667C11.6417 3.84167 10.775 3.84169 10.125 3.40835C9.58333 3.08335 8.5 2 8.5 2C8.5 2 7.41667 3.08335 6.875 3.40835C6.33333 3.73335 5.35831 3.73333 4.92498 4.16667C4.49165 4.49167 4.59999 4.70834 4.49165 5.35834C4.49165 6.00834 4.49165 6.875 4.49165 6.875C4.49165 6.875 4.16665 6.33333 3.40832 6.33333C2.64999 6.33333 2.43332 6.65833 2.32499 6.875C2.21665 7.09167 2 7.525 2 7.95833V13.9167C2 14.5667 2.43333 15 3.08333 15H13.9167C14.4583 15 15 14.5667 15 13.9167Z" fill="white"/>
</g>
</g>
</g>
</svg>
