<svg width="17" height="17" viewBox="0 0 17 17" fill="none" xmlns="http://www.w3.org/2000/svg">
<g id="saudiarabia_01">
<g id="_Elements / _saudiarabia_base">
<g id="stretchable-items">
<rect id="shape" x="1" y="1" width="15" height="15" fill="#53C2AE"/>
</g>
<g id="non-stretchable-items">
<path id="symbol01" d="M3.21507 2.10834L4.1706 2L4.80763 2.32502L5.65698 2.54167L6.29401 2.97499L6.93104 3.30001L7.56807 3.625L8.09892 3.73334L8.84209 4.16667L9.37294 4.81667C9.37294 4.92501 9.9038 5.35834 9.9038 5.35834L10.647 5.57502L11.0717 5.68333H11.4964L11.7087 5.46668L12.0272 5.14166L12.2396 4.81667L12.5581 4.49169H12.8766L13.0889 4.81667V5.57502L13.3013 5.79167L14.363 6.33333L15 6.76666V7.52501V8.39166V9.15001L13.8321 11.1L11.9211 12.6167L10.1162 14.025L8.94827 14.4583L7.78039 15H6.93104H5.86933L5.55083 14.025L4.9138 11.75C4.9138 11.75 4.59529 10.9917 4.38295 10.775C4.17061 10.5583 3.63974 9.90835 3.63974 9.90835L3.10889 8.60834C3.10889 8.60834 3.1089 7.85002 2.79039 7.74169C2.47188 7.63335 2.15336 6.87502 2.04719 6.65835C1.94102 6.44169 2.04719 5.79167 2.04719 5.79167V4.81667V4.16667V3.51666V2.75835L3.21507 2.10834Z" fill="white"/>
</g>
</g>
</g>
</svg>
