<svg width="19" height="20" viewBox="0 0 19 20" fill="none" xmlns="http://www.w3.org/2000/svg">
<g id="simpleshield_f_02">
<g id="_Elements / _simpleshield_f_base">
<g id="stretchable-items">
<path id="shape" d="M17.5002 9.39179L17.5002 9.39179V9.39999C17.5002 11.979 16.1088 14.2566 14.3627 15.9089C13.4931 16.7318 12.5492 17.3858 11.6765 17.8318C10.7927 18.2835 10.0248 18.5 9.50012 18.5C8.97546 18.5 8.20758 18.2835 7.32372 17.8318C6.45102 17.3858 5.50707 16.7318 4.63746 15.9089C2.89133 14.2566 1.49998 11.979 1.5 9.39999C1.50002 7.54728 2.10171 6.03294 2.70853 4.97704C3.01163 4.44964 3.31419 4.03989 3.53916 3.76388C3.62855 3.6542 3.70546 3.56592 3.765 3.50003L15.2213 3.5C15.2838 3.57526 15.3648 3.67581 15.4588 3.79949C15.6913 4.10528 16.0019 4.5503 16.3108 5.10249C16.9317 6.21248 17.5276 7.72354 17.5002 9.39179Z" fill="#C19D70" stroke="white"/>
</g>
</g>
</g>
</svg>
