<svg width="17" height="17" viewBox="0 0 17 17" fill="none" xmlns="http://www.w3.org/2000/svg">
<g id="simpleshield_b_01">
<g id="_Elements / _simpleshield_b_base">
<g id="stretchable-items">
<path id="shape" d="M8.49995 15.5C8.20931 15.5 7.67873 15.3967 7.00506 15.1545C6.34315 14.9165 5.58017 14.5577 4.83198 14.0789C3.34159 13.125 1.97144 11.7362 1.5 9.93705L1.50002 4.875L1.50001 2.82812L1.5 2.5H15.4999V2.50046V2.51021V2.52005V2.52997V2.53998V2.55006V2.56023V2.57048V2.58081V2.59123V2.60172V2.6123V2.62295V2.63369V2.6445V2.6554V2.66637V2.67742V2.68855V2.69976V2.71105V2.72241V2.73385V2.74537V2.75697V2.76864V2.78038V2.79221V2.8041V2.81608V2.82812V2.84025V2.85244V2.86471V2.87706V2.88947V2.90196V2.91452V2.92716V2.93986V2.95264V2.96549V2.97841V2.9914V3.00446V3.01759V3.03079V3.04406V3.0574V3.07081V3.08428V3.09783V3.11144V3.12512V3.13887V3.15268V3.16656V3.18051V3.19452V3.2086V3.22274V3.23695V3.25122V3.26556V3.27996V3.29442V3.30895V3.32354V3.3382V3.35292V3.36769V3.38254V3.39744V3.4124V3.42743V3.44251V3.45766V3.47286V3.48813V3.50345V3.51884V3.53428V3.54978V3.56534V3.58096V3.59663V3.61236V3.62815V3.644V3.6599V3.67585V3.69187V3.70793V3.72406V3.74023V3.75647V3.77275V3.78909V3.80549V3.82193V3.83843V3.85498V3.87159V3.88824V3.90495V3.92171V3.93852V3.95538V3.97229V3.98925V4.00626V4.02332V4.04042V4.05758V4.07479V4.09204V4.10934V4.12669V4.14408V4.16153V4.17902V4.19655V4.21413V4.23176V4.24943V4.26715V4.28491V4.30272V4.32057V4.33846V4.3564V4.37438V4.3924V4.41047V4.42858V4.44673V4.46492V4.48315V4.50142V4.51974V4.53809V4.55649V4.57492V4.59339V4.61191V4.63046V4.64905V4.66767V4.68634V4.70504V4.72378V4.74256V4.76137V4.78022V4.79911V4.81803V4.83698V4.85597V4.875V4.89406V4.91315V4.93228V4.95144V4.97064V4.98986V5.00912V5.02842V5.04774V5.06709V5.08648V5.1059V5.12534V5.14482V5.16433V5.18387V5.20344V5.22303V5.24266V5.26231V5.28199V5.3017V5.32143V5.3412V5.36099V5.3808V5.40065V5.42052V5.44041V5.46033V5.48027V5.50024V5.52024V5.54026V5.5603V5.58036V5.60045V5.62056V5.64069V5.66085V5.68102V5.70122V5.72144V5.74168V5.76194V5.78222V5.80252V5.82285V5.84319V5.86354V5.88392V5.90432V5.92473V5.94516V5.96561V5.98608V6.00656V6.02706V6.04758V6.06811V6.08866V6.10922V6.1298V6.15039V6.171V6.19162V6.21225V6.2329V6.25356V6.27423V6.29492V6.31562V6.33633V6.35705V6.37778V6.39852V6.41928V6.44004V6.46081V6.4816V6.50239V6.52319V6.544V6.56482V6.58565V6.60648V6.62733V6.64817V6.66903V6.68989V6.71076V6.73164V6.75252V6.7734V6.79429V6.81519V6.83608V6.85699V6.87789V6.8988V6.91972V6.94063V6.96155V6.98247V7.00339V7.02432V7.04524V7.06617V7.08709V7.10802V7.12895V7.14987V7.1708V7.19172V7.21264V7.23356V7.25448V7.2754V7.29632V7.31723V7.33813V7.35904V7.37994V7.40084V7.42173V7.44262V7.4635V7.48438V7.50525V7.52611V7.54697V7.56782V7.58867V7.6095V7.63033V7.65116V7.67197V7.69278V7.71357V7.73436V7.75514V7.77591V7.79667V7.81741V7.83815V7.85888V7.87959V7.90029V7.92098V7.94166V7.96233V7.98298V8.00362V8.02425V8.04486V8.06546V8.08604V8.10661V8.12717V8.14771V8.16823V8.18873V8.20923V8.2297V8.25016V8.27059V8.29102V8.31142V8.33181V8.35217V8.37252V8.39285V8.41316V8.43345V8.45372V8.47397V8.4942V8.5144V8.53459V8.55475V8.5749V8.59502V8.61511V8.63519V8.65524V8.67527V8.69527V8.71525V8.73521V8.75514V8.77504V8.79492V8.81478V8.8346V8.85441V8.87418V8.89393V8.91365V8.93334V8.95301V8.97264V8.99225V9.01183V9.03138V9.0509V9.07039V9.08985V9.10928V9.12868V9.14805V9.16739V9.18669V9.20597V9.22521V9.24442V9.26359V9.28273V9.30184V9.32092V9.33996V9.35896V9.37793V9.39687V9.41577V9.43464V9.45346V9.47226V9.49101V9.50973V9.52841V9.54706V9.56566V9.58423V9.60276V9.62125V9.6397V9.65811V9.67648V9.69481V9.7131V9.73135V9.74956V9.76773V9.78586V9.80394V9.82198V9.83998V9.85794V9.87585V9.89372V9.91154V9.92932V9.93704C15.0285 11.7362 13.6583 13.125 12.1679 14.0789C11.4197 14.5577 10.6567 14.9165 9.99483 15.1545C9.32116 15.3967 8.79059 15.5 8.49995 15.5Z" fill="#5397F0" stroke="white"/>
</g>
</g>
</g>
</svg>
