<svg width="20" height="20" viewBox="0 0 20 20" fill="none" xmlns="http://www.w3.org/2000/svg">
<g id="taiwan_01">
<g id="_Elements / _taiwan_base">
<g id="stretchable-items">
<path id="shape" d="M5.48851 4.88657L5.8421 4.86722L5.94122 4.52726C6.45068 2.77972 8.07429 1.5 10 1.5C11.9257 1.5 13.5493 2.77971 14.0588 4.52723L14.1579 4.8672L14.5115 4.88654C16.7372 5.0083 18.5 6.84071 18.5 9.07746C18.5 10.3908 17.8933 11.5638 16.9401 12.3346L16.7241 12.5092L16.7582 12.7848C16.7792 12.9543 16.79 13.1271 16.79 13.3026C16.79 15.618 14.9012 17.5 12.565 17.5C11.7181 17.5 10.931 17.2529 10.2707 16.8278L10 16.6536L9.72934 16.8278C9.06906 17.2529 8.28191 17.5 7.43499 17.5C5.09882 17.5 3.20999 15.618 3.20999 13.3026C3.20999 13.1271 3.22081 12.9543 3.24177 12.7848L3.27585 12.5093L3.05994 12.3347C2.10669 11.5638 1.5 10.3909 1.5 9.07748C1.5 6.84074 3.26279 5.00834 5.48851 4.88657Z" fill="white" stroke="#53C2AE"/>
</g>
</g>
</g>
</svg>
