<svg width="23" height="32" viewBox="0 0 23 32" fill="none" xmlns="http://www.w3.org/2000/svg">
<g id="u_a_emirates_c_01">
<g id="_Elements / _u_a_emirates_c_base">
<g id="stretchable-items">
<path id="symbol02" d="M13.7105 21.5H13.5179L13.3751 21.6292L11.5 23.3257L9.62493 21.6292L9.48209 21.5H9.28947H3.5V14.921V14.7412L3.38548 14.6026L1.64854 12.5L3.38548 10.3974L3.5 10.2588V10.0789V3.5H9.28947H9.48209L9.62493 3.37077L11.5 1.67428L13.3751 3.37077L13.5179 3.5H13.7105H19.5V10.0789V10.2588L19.6145 10.3974L21.3515 12.5L19.6145 14.6026L19.5 14.7412V14.921V21.5H13.7105Z" fill="#53C2AE" stroke="white"/>
</g>
<g id="non-stretchable-items">
<g id="symbol01">
<path d="M15.5586 6.45486C15.4688 6.61427 15.1893 6.8556 15.0821 6.8634C14.9235 6.8751 14.5204 6.59916 14.5327 6.43974C14.623 6.37259 14.7531 6.24238 14.856 6.13937C14.9205 6.07487 14.9743 6.02102 15.001 6C15.109 6.02689 15.4224 6.32517 15.5527 6.44924L15.5586 6.45486Z" fill="#FFF9BA"/>
<path d="M6.17909 7.21087C6.3297 6.04754 7.62009 5.65003 9.19136 6.33794L8.85351 7.04164C8.16964 6.67323 7.07057 6.59871 7.01358 7.31074C6.97345 7.81206 7.5265 7.93775 8.01154 8.04799L8.10044 8.06831C8.86979 8.24632 9.61471 9.03286 9.12217 10.0678C8.4877 11.4009 6.8735 10.9493 6 10.5356L6.36033 9.72122C7.01063 10.001 8.12182 10.4107 8.42884 9.55204C8.50063 9.35125 8.33652 8.85485 7.54275 8.78034C6.93478 8.72327 6.02445 8.40526 6.17909 7.21087Z" fill="#FFF9BA"/>
<path d="M16.104 8.35767C16.2264 8.10465 16.6197 7.91403 16.7555 7.91403C16.8912 7.91403 17.0284 8.50539 16.9947 8.81204C16.9585 9.15087 16.605 9.76953 16.4902 9.81585C16.1476 9.9533 15.3476 9.92904 14.8529 9.91404C14.644 9.9077 14.4895 9.90302 14.447 9.91286C14.3776 10.5354 13.8241 10.8894 13.2649 10.9342C13.2176 10.938 13.1589 10.9446 13.0913 10.9521C12.5334 11.0144 11.3737 11.1439 11.0906 10.339C10.76 9.39755 11.4217 8.48735 11.6824 8.13488C11.6013 8.98024 11.6457 9.72614 11.739 9.82998C11.889 9.9972 12.263 10.0542 12.7191 10.0903C13.1751 10.1264 13.6731 10.085 13.771 10.0645C13.8152 9.81405 13.7537 9.515 13.6928 9.21886C13.6397 8.96099 13.5872 8.70532 13.6052 8.48589C13.6353 8.12854 14.2388 7.61616 14.3526 7.61616C14.3286 7.88819 14.3194 8.6536 14.4607 8.77304C14.5999 8.8906 14.9309 8.85389 15.0745 8.83795L15.0796 8.83739C15.1884 8.82538 15.2909 8.3658 15.3446 8.12503C15.3606 8.05326 15.3723 8.00092 15.3785 7.9857C15.4056 7.91793 15.6193 8.58632 15.5056 8.88712C15.7214 8.97244 16.3835 9.0012 16.3402 8.80912C16.2968 8.61703 16.2422 8.50539 16.104 8.35767Z" fill="#FFF9BA"/>
<path d="M14.7036 7.73847C14.7862 7.73262 14.9627 7.59026 15.0806 7.45181C15.2092 7.5654 15.3933 7.66388 15.4892 7.65656C15.5964 7.64876 15.8759 7.40744 15.9657 7.24802L15.9542 7.23708C15.8207 7.11044 15.5146 6.82016 15.4081 6.79366C15.3809 6.81487 15.3264 6.86899 15.2614 6.93361C15.1739 7.0205 15.0673 7.12639 14.9821 7.19683C14.8296 7.04619 14.6995 6.83997 14.6995 6.83997C14.6995 6.83997 14.2842 7.12371 14.272 7.28361C14.2603 7.44303 14.5449 7.75017 14.7036 7.73847Z" fill="#FFF9BA"/>
</g>
</g>
</g>
</g>
</svg>
