<svg width="17" height="30" viewBox="0 0 17 30" fill="none" xmlns="http://www.w3.org/2000/svg">
<g id="u_a_emirates_b_01">
<g id="_Elements / _u_a_emirates_b_base">
<g id="stretchable-items">
<rect id="shape" x="1" y="1" width="15" height="20" rx="1" fill="white"/>
</g>
<g id="non-stretchable-items">
<g id="var01">
<path id="symbol02" d="M2 6.23529V2H4V4H4.75V2H6.75V4H7.5V2H9.5V4H10.25V2H12.25V4H13V2H15V6.23529H14.2353C14.5412 7.00444 15 9.4677 15 11.6493V20H2V11.6493C2 9.4677 2.45882 7.00444 2.76471 6.23529H2Z" fill="#53C2AE"/>
<g id="symbol01">
<path fill-rule="evenodd" clip-rule="evenodd" d="M7.27273 7C7.27273 8.60123 6.21733 9 5.63802 9H4V5H5.63802C6.14618 5 7.27273 5.49345 7.27273 7ZM6.45496 7C6.45496 7.77563 6.04545 8.36 5.63636 8.36H4.81818V5.64H5.63636C6.04545 5.64 6.45496 6.27024 6.45496 7Z" fill="#FFF9BA"/>
<path d="M10.8035 6.28515L11.3968 5C11.9534 5.19277 13.0655 5.77873 12.997 7.10764C12.9307 8.39278 12.308 9 12.308 9H9.72727L10.115 7.45039H11.9915C11.9915 6.55883 11.0618 6.28515 10.8035 6.28515Z" fill="#FFF9BA"/>
</g>
</g>
</g>
</g>
</g>
</svg>
