<svg width="19" height="35" viewBox="0 0 19 35" fill="none" xmlns="http://www.w3.org/2000/svg">
<g id="u_a_emirates_a_01">
<g id="_Elements / _u_a_emirates_a_base">
<g id="stretchable-items">
<path id="shape" d="M9.03 1C7.923 1 7.676 1.212 6.691 2.214C6.469 2.44 6.191 2.722 5.833 3.075C5.113 3.784 4.225 4.29 3.261 4.596C3.084 4.652 2.918 4.717 2.789 4.791C1.869 5.317 1 6.244 1 7.362C1 7.436 1.182 11.328 1.341 14.456C1.5 17.566 1.68 21.09 1.68 21.447C1.68 23.331 5.151 24 8.123 24C8.208 24 16.703 23.676 17.049 21.338C17.203 20.29 18.2 9.41 17.96 7.251C17.674 4.675 15.445 3.808 14.472 3.808C14.464 3.808 14.455 3.808 14.446 3.808C13.021 3.847 11.66 3.308 10.89 2.108C10.817 1.994 10.745 1.894 10.675 1.813C10.264 1.338 9.73 1 9.03 1Z" fill="white"/>
</g>
<g id="non-stretchable-items">
<path id="symbol02" d="M9.02957 2C8.12253 2 8.34929 2 6.53521 3.78723C7.44225 3.2766 8.91587 3.87283 8.12253 5.06383C7.44225 6.08511 6.30845 6.08511 5.85493 6.08511C5.17465 6.08511 4.81332 5.31915 4.2676 5.31915C3.58732 5.31915 2 6.28601 2 7.3617C2 8.12766 2.68028 20.6809 2.68028 21.4468C2.68028 22.2128 4.94789 23 8.12253 23C11.2972 23 15.9458 21.9574 16.0591 21.1915C16.2103 20.1702 17.193 9.40425 16.9662 7.3617C16.7394 5.31915 14.9253 4.80851 14.4718 4.80851C13.5648 4.80851 13.1113 6.08511 12.2042 6.08511C11.7507 6.08511 11.2732 5.52056 11.0704 5.06383C10.8437 4.55319 10.3371 2 9.02957 2Z" fill="#5397F0"/>
<g id="symbol01">
<path d="M11.2885 7.26173L13.8984 6.5C14.0724 7.60028 14.1072 10.004 12.8545 10.8165H11.8105C12.2277 8.7872 11.8669 8.21756 11.5275 7.68176C11.4423 7.54715 11.3584 7.41468 11.2885 7.26173Z" fill="#FFD28A"/>
<path d="M13.2936 11.6323V11.3421C13.1733 11.3003 12.8738 11.2166 12.4455 11.234C12.136 11.2465 11.2452 11.3709 11.3226 11.7473C11.3845 12.0484 11.8489 12.0505 12.0653 12.0505L11.5289 12.362L11.7611 12.5L12.9953 12.1672L14.2885 11.8853V11.6469H13.7727L13.4867 11.729H12.1589V11.6323H13.2936Z" fill="#FFD28A"/>
<path d="M4.61816 11.9561V7.45605C4.61816 7.31798 4.74489 7.20605 4.90122 7.20605H8.33511C8.49143 7.20605 8.61816 7.31798 8.61816 7.45605V7.95605C8.61816 8.09413 8.49143 8.20605 8.3351 8.20605H6.13546C5.97913 8.20605 5.8524 8.31798 5.8524 8.45605V8.84709C5.8524 8.98516 5.97913 9.09709 6.13546 9.09709H8.05205C8.20838 9.09709 8.33511 9.20901 8.33511 9.34709V9.66541C8.33511 9.80348 8.20838 9.91541 8.05205 9.91541H6.13546C5.97913 9.91541 5.8524 10.0273 5.8524 10.1654V10.9561C5.8524 11.0941 5.97913 11.2061 6.13546 11.2061H8.33511C8.49143 11.2061 8.61816 11.318 8.61816 11.4561V11.9561C8.61816 12.0941 8.49143 12.2061 8.33511 12.2061H4.90122C4.74489 12.2061 4.61816 12.0941 4.61816 11.9561Z" fill="#FFD28A"/>
</g>
</g>
</g>
</g>
</svg>
