<svg width="28" height="28" viewBox="0 0 28 28" fill="none" xmlns="http://www.w3.org/2000/svg">
<g id="hazmat_organic_usa">
<rect width="28" height="28" fill="white" fill-opacity="0.01"/>
<g id="non-stretchable_items">
<g id="truck-icon_base02">
<path id="Union" d="M13.9993 1.00018L26.9994 14.0002L14 26.9995L1 13.9995L13.9993 1.00018Z" fill="#333333"/>
<path id="Union_2" d="M25.0003 13.9998L14.0006 24.9995L3.00098 13.9998L14.0006 3.00018L25.0003 13.9998Z" fill="#F7D50C"/>
</g>
<path id="Vector" d="M17.29 10.02C17.246 10.344 17.281 11.047 16.666 11.797C16.236 11.51 16.15 11.47 15.6 11.29C15.67 9.019 14.08 6.89 12.181 6C12.351 6.55 12.442 7.12 12.442 7.72C12.442 9.31 11.822 10.76 10.792 11.81C9.52 13.12 9 14.34 9 15.74C9 18.89 11.24 21 14 21C17.23 21 19 18.811 19 15.21C19 13.56 18.422 11.141 17.29 10.02ZM14 19.675C11.97 19.675 10.325 18.029 10.325 16C10.325 13.969 11.97 12.325 14 12.325C16.029 12.325 17.675 13.969 17.675 16C17.675 18.029 16.029 19.675 14 19.675Z" fill="#333333"/>
</g>
</g>
</svg>
