<svg width="28" height="28" viewBox="0 0 28 28" fill="none" xmlns="http://www.w3.org/2000/svg">
<g id="hazmat_poison_inhalation_hazard_usa">
<rect width="28" height="28" fill="white" fill-opacity="0.01"/>
<g id="non-stretchable_items">
<g id="truck-icon_base02">
<path id="Union" d="M13.9993 1.00018L26.9994 14.0002L14 26.9995L1 13.9995L13.9993 1.00018Z" fill="#333333"/>
<path id="Union_2" d="M25.0003 13.9998L14.0006 24.9995L3.00098 13.9998L14.0006 3.00018L25.0003 13.9998Z" fill="#F7D50C"/>
</g>
<path id="Vector" d="M14 7C11.24 7 9.05601 9.24 9.01001 12C8.98001 13.813 10.063 15.583 11.33 17.641C11.82 16.66 12.83 16 14 16C15.189 16 16.21 16.68 16.689 17.68C17.046 16.961 19.008 14.23 18.99 12C18.965 9.24 16.76 7 14 7ZM12 14.5C11.17 14.5 10.5 13.83 10.5 13C10.5 12.17 11.17 11.5 12 11.5C12.83 11.5 13.5 12.17 13.5 13C13.5 13.83 12.83 14.5 12 14.5ZM16 14.5C15.17 14.5 14.5 13.83 14.5 13C14.5 12.17 15.17 11.5 16 11.5C16.83 11.5 17.5 12.17 17.5 13C17.5 13.83 16.83 14.5 16 14.5ZM14 17C12.896 17 12.01 17.896 12.01 19C12.01 20.104 12.896 21 14 21C15.104 21 16 20.104 16 19C16 17.896 15.104 17 14 17ZM15 19C15 19.553 14.553 20 14 20C13.447 20 13 19.553 13 19C13 18.447 13.447 18 14 18C14.553 18 15 18.447 15 19Z" fill="#333333"/>
</g>
</g>
</svg>
