<svg width="28" height="28" viewBox="0 0 28 28" fill="none" xmlns="http://www.w3.org/2000/svg">
<g id="hazmat_corrosive_usa">
<rect width="28" height="28" fill="white" fill-opacity="0.01"/>
<g id="non-stretchable_items">
<g id="truck-icon_base02">
<path id="Union" d="M13.9993 1.00018L26.9994 14.0002L14 26.9995L1 13.9995L13.9993 1.00018Z" fill="#333333"/>
<path id="Union_2" d="M25.0003 13.9998L14.0006 24.9995L3.00098 13.9998L14.0006 3.00018L25.0003 13.9998Z" fill="#F7D50C"/>
</g>
<path id="Vector" d="M14.35 15.84C14.96 15.942 15.57 16.08 16 16.17V17.77C14.48 17.85 12.4 17.88 12 18C11.38 18.18 10 20 10 20L8 18C8 18 11.667 15.812 12.62 15.73C12.78 15.587 13.91 14.547 14.19 14.318C14.48 14.068 14.58 13.858 14.85 14.108C15.121 14.368 15.299 14.387 15.079 14.708C14.939 14.891 14.609 15.42 14.35 15.84ZM19.77 14.02C19.77 14.02 17.05 16.121 17 16.15V17.711C17.771 17.668 20.188 15.356 20.471 14.841C20.62 14.566 20.15 13.86 19.77 14.02ZM10 9C9.447 9 9 9.447 9 10C9 10.553 9.447 11 10 11H15V9H10ZM16.5 10C16.225 10 16 10.224 16 10.5C16 10.776 16.225 11 16.5 11C16.775 11 17 10.776 17 10.5C17 10.224 16.775 10 16.5 10ZM16.5 12C16.225 12 16 12.224 16 12.5C16 12.776 16.225 13 16.5 13C16.775 13 17 12.776 17 12.5C17 12.224 16.775 12 16.5 12ZM16.5 14C16.225 14 16 14.224 16 14.5C16 14.775 16.225 15 16.5 15C16.775 15 17 14.775 17 14.5C17 14.224 16.775 14 16.5 14Z" fill="#333333"/>
</g>
</g>
</svg>
