<svg width="28" height="28" viewBox="0 0 28 28" fill="none" xmlns="http://www.w3.org/2000/svg">
<g id="hazmat_harmfulforwater_usa">
<rect width="28" height="28" fill="white" fill-opacity="0.01"/>
<g id="non-stretchable_items">
<g id="truck-icon_base03">
<path id="Union" d="M13.9993 1.00018L26.9994 14.0002L14 26.9995L1 13.9995L13.9993 1.00018Z" fill="#333333"/>
<path id="Union_2" d="M25.0003 13.9998L14.0006 24.9995L3.00098 13.9998L14.0006 3.00018L25.0003 13.9998Z" fill="#FF860D"/>
</g>
<path id="Vector (Stroke)" fill-rule="evenodd" clip-rule="evenodd" d="M9.41839 16.5209C9.21691 15.9365 8.66461 15.5147 8.01062 15.51C7.18052 15.504 6.506 16.1722 6.50001 17.0004C6.49905 17.133 6.55083 17.2606 6.64394 17.355C6.73705 17.4495 6.86387 17.5031 6.9965 17.504L8.58165 17.5151C8.78334 18.0994 9.33631 18.5193 9.98938 18.524C10.6429 18.5287 11.2017 18.1168 11.4115 17.5347L12.5817 17.5423C12.7835 18.1265 13.3364 18.5463 13.9894 18.551C14.643 18.5557 15.2015 18.1432 15.4113 17.5617L16.5862 17.5693C16.7913 18.1466 17.3403 18.5603 17.9894 18.565C18.6432 18.5697 19.2028 18.1572 19.4121 17.5749L20.9965 17.586C21.2726 17.5879 21.498 17.3657 21.5 17.0896C21.506 16.2612 20.8414 15.584 20.0106 15.578C19.3552 15.5733 18.7967 15.9889 18.5878 16.5717L17.4186 16.5623C17.2175 15.9778 16.6658 15.5557 16.0106 15.551C15.3509 15.5462 14.7895 15.9673 14.5838 16.5561L13.4184 16.5479C13.2169 15.9635 12.6646 15.5417 12.0106 15.537C11.3557 15.5323 10.7982 15.9476 10.5887 16.5291L9.41839 16.5209ZM10.5 20.0044C10.506 19.1742 11.1825 18.511 12.0106 18.517C12.6636 18.5217 13.2171 18.9404 13.4186 19.5259L14.5838 19.5341C14.7897 18.9454 15.3518 18.5263 16.0106 18.531C16.8388 18.537 17.5038 19.2086 17.5 20.0365C17.5 20.0425 17.5 20.0486 17.5 20.0546C17.498 20.3308 17.2725 20.553 16.9964 20.551C16.9558 20.5507 16.9163 20.5456 16.8786 20.5362L15.4162 20.5259C15.2105 21.1147 14.6491 21.5358 13.9894 21.531C13.3353 21.5263 12.783 21.1044 12.5815 20.5199L10.9962 20.508C10.7202 20.5059 10.498 20.2805 10.5 20.0044Z" fill="#333333"/>
<path id="Vector" d="M14.92 11L16.783 9.13699C16.976 8.94299 16.976 8.62399 16.783 8.42999L16.57 8.21699C16.376 8.02299 16.056 8.02299 15.863 8.21699L14 10.08L12.105 8.18499C11.911 7.99099 11.592 7.99099 11.398 8.18499L11.185 8.39799C10.991 8.59199 10.991 8.91099 11.185 9.10499L13.08 11L11.166 12.914C10.972 13.108 10.972 13.427 11.166 13.621L11.379 13.834C11.573 14.028 11.892 14.028 12.086 13.834L14 11.92L15.898 13.818C16.09 14.012 16.411 14.012 16.605 13.818L16.818 13.605C17.011 13.411 17.011 13.092 16.818 12.898L14.92 11Z" fill="#333333"/>
</g>
</g>
</svg>
