<svg width="28" height="28" viewBox="0 0 28 28" fill="none" xmlns="http://www.w3.org/2000/svg">
<g id="hazmat_poison_usa">
<rect width="28" height="28" fill="white" fill-opacity="0.01"/>
<g id="non-stretchable_items">
<g id="truck-icon_base03">
<path id="Union" d="M13.9993 1.00018L26.9994 14.0002L14 26.9995L1 13.9995L13.9993 1.00018Z" fill="black"/>
<path id="Union_2" d="M25.0003 13.9998L14.0006 24.9995L3.00098 13.9998L14.0006 3.00018L25.0003 13.9998Z" fill="#FF6600"/>
</g>
<path id="Vector" d="M14 8C11.24 8 9.01001 10.24 9.01001 13C9.01001 14.63 9.80001 16.09 11 17V19.42C11.016 20.219 12 19.981 12 19.981V18C12 17.721 12.22 17.5 12.5 17.5C12.78 17.5 13 17.721 13 18V20H15V18C15 17.721 15.221 17.5 15.5 17.5C15.779 17.5 16 17.721 16 18V19.98C16 19.98 16.984 20.187 17 19.417V17C18.2 16.09 19 14.63 19 13C19 10.24 16.76 8 14 8ZM12.5 15H11.5C11.22 15 11 14.779 11 14.5V13.5C11 13.22 11.22 13 11.5 13H12.5C12.78 13 13 13.22 13 13.5V14.5C13 14.779 12.78 15 12.5 15ZM17 14.5C17 14.779 16.779 15 16.5 15H15.5C15.221 15 15 14.779 15 14.5V13.5C15 13.22 15.221 13 15.5 13H16.5C16.779 13 17 13.22 17 13.5V14.5Z" fill="black"/>
</g>
</g>
</svg>
