<?xml version="1.0" encoding="iso-8859-1"?>
<!-- Generator: Adobe Illustrator 24.0.1, SVG Export Plug-In . SVG Version: 6.00 Build 0)  -->
<svg version="1.1" id="nature_x5F_mountainpass-layer"
	 xmlns="http://www.w3.org/2000/svg" xmlns:xlink="http://www.w3.org/1999/xlink" x="0px" y="0px" viewBox="0 0 30 30"
	 style="enable-background:new 0 0 30 30;" xml:space="preserve">
<g id="nature_x5F_mountainpass">
	<g>
		<path style="fill:#FFFFFF;" d="M2,29.5c-0.827,0-1.5-0.673-1.5-1.5V2c0-0.827,0.673-1.5,1.5-1.5h26c0.827,0,1.5,0.673,1.5,1.5v26
			c0,0.827-0.673,1.5-1.5,1.5H2z"/>
		<path style="fill:#9F9FB4;" d="M28,1c0.551,0,1,0.449,1,1v26c0,0.551-0.449,1-1,1H2c-0.551,0-1-0.449-1-1V2c0-0.551,0.449-1,1-1
			H28 M28,0H2C0.895,0,0,0.895,0,2v26c0,1.105,0.895,2,2,2h26c1.105,0,2-0.895,2-2V2C30,0.895,29.105,0,28,0L28,0z"/>
	</g>
	<rect x="3" y="3" style="fill:none;" width="24" height="24"/>
	<g>
		<path style="fill:#494849;" d="M23.667,14L19,7l-3.125,1L13,5l-5.885,8L5,15.875V25h2.502l0,0h1.406l3.748-2.939
			c0.29-0.246,0.471-0.573,0.471-0.934c0-0.328-0.152-0.625-0.395-0.862L10.639,18.4c-0.448-0.36-0.726-0.853-0.726-1.397
			c0-1,0.934-1.82,2.15-1.966l4.81-0.555l0.601,0.649l-4.324,0.902c-0.402,0.088-0.702,0.366-0.702,0.71
			c0,0.284,0.209,0.523,0.505,0.65c0,0,4.931,2.055,4.93,2.059c1.282,0.551,2.162,1.61,2.162,2.842c0,0.05-0.211,1.725-0.335,2.707
			H25v-9L23.667,14z M13.202,8.101l1.229,1.283l0.864,0.901l1.189-0.38l1.688-0.54L19.93,12h-9.596L13.202,8.101z"/>
	</g>
</g>
</svg>
