<?xml version="1.0" encoding="iso-8859-1"?>
<!-- Generator: Adobe Illustrator 24.0.1, SVG Export Plug-In . SVG Version: 6.00 Build 0)  -->
<svg version="1.1" id="nature_x5F_waterfall-layer" xmlns="http://www.w3.org/2000/svg" xmlns:xlink="http://www.w3.org/1999/xlink"
	 x="0px" y="0px" viewBox="0 0 30 30" style="enable-background:new 0 0 30 30;" xml:space="preserve">
<g id="nature_x5F_waterfall">
	<g>
		<path style="fill:#FFFFFF;" d="M2,29.5c-0.827,0-1.5-0.673-1.5-1.5V2c0-0.827,0.673-1.5,1.5-1.5h26c0.827,0,1.5,0.673,1.5,1.5v26
			c0,0.827-0.673,1.5-1.5,1.5H2z"/>
		<path style="fill:#9F9FB4;" d="M28,1c0.551,0,1,0.449,1,1v26c0,0.551-0.449,1-1,1H2c-0.551,0-1-0.449-1-1V2c0-0.551,0.449-1,1-1
			H28 M28,0H2C0.895,0,0,0.895,0,2v26c0,1.105,0.895,2,2,2h26c1.105,0,2-0.895,2-2V2C30,0.895,29.105,0,28,0L28,0z"/>
	</g>
	<rect x="3" y="3" style="fill:none;" width="24" height="24"/>
	<path style="fill:#494849;" d="M24.5,16.449v2c-0.37,0-0.52,0.12-0.89,0.48c-0.586,0.638-1.413,1.001-2.28,1
		c-0.869,0.013-1.701-0.352-2.28-1c-0.37-0.36-0.52-0.48-0.89-0.48c-0.37,0-0.52,0.12-0.89,0.48
		c-1.08,1.256-2.974,1.399-4.231,0.319c-0.114-0.098-0.221-0.205-0.319-0.319c-0.38-0.36-0.52-0.48-0.89-0.48s-0.52,0.12-0.89,0.48
		c-1.08,1.256-2.974,1.399-4.231,0.319c-0.114-0.098-0.221-0.205-0.319-0.319c-0.37-0.36-0.52-0.48-0.89-0.48v-2
		c0.863,0,1.687,0.363,2.27,1c0.38,0.36,0.52,0.48,0.89,0.48s0.52-0.12,0.89-0.48c0.295-0.292,0.632-0.538,1-0.73v-7.72
		c0-1.105-0.895-2-1.999-2.001c-0.017,0-0.034,0-0.051,0.001h-1v-2h8c2.209,0,4,1.791,4,4v7.77c0.342,0.195,0.656,0.437,0.93,0.72
		c0.38,0.36,0.53,0.48,0.9,0.48s0.52-0.12,0.89-0.48C22.798,16.835,23.627,16.457,24.5,16.449z M24.5,23.449v-2
		c-0.37,0-0.52,0.12-0.89,0.48c-0.586,0.638-1.413,1.001-2.28,1c-0.869,0.013-1.701-0.352-2.28-1c-0.37-0.36-0.52-0.48-0.89-0.48
		c-0.37,0-0.52,0.12-0.89,0.48c-1.08,1.256-2.974,1.399-4.231,0.319c-0.114-0.098-0.221-0.205-0.319-0.319
		c-0.38-0.36-0.52-0.48-0.89-0.48s-0.52,0.12-0.89,0.48c-1.08,1.256-2.974,1.399-4.231,0.319c-0.114-0.098-0.221-0.205-0.319-0.319
		c-0.37-0.36-0.52-0.48-0.89-0.48v2.37c0.876,0.763,1.999,1.182,3.16,1.18c1.161,0.012,2.287-0.397,3.17-1.15
		c0.878,0.756,2.002,1.165,3.16,1.15c1.161,0.012,2.287-0.397,3.17-1.15c1.835,1.535,4.505,1.535,6.34,0V23.449z"/>
</g>
</svg>
