<svg width="28" height="31" viewBox="0 0 28 31" fill="none" xmlns="http://www.w3.org/2000/svg">
<path d="M1.85936 18.4846C-0.618485 16.007 -0.618483 11.9901 1.85936 9.51249L9.51445 1.85819C11.9923 -0.619397 16.0097 -0.619396 18.4875 1.85819L26.1426 9.51249C28.6204 11.9901 28.6204 16.007 26.1426 18.4846L14.001 30.625L1.85936 18.4846Z" fill="#6B7485"/>
<path d="M2.21289 9.86606L9.86798 2.21176C12.1506 -0.0705879 15.8514 -0.0705867 18.134 2.21176L25.7891 9.86607C28.0716 12.1484 28.0716 15.8487 25.7891 18.1311L14.001 29.9179L2.21289 18.1311C-0.0696629 15.8487 -0.0696617 12.1484 2.21289 9.86606Z" stroke="white"/>
<path d="M18.0999 19.0003L20.0999 16.0003V19.0003H18.0999ZM19.0999 14.6003L17.4999 15.7003L16.4999 20.1003H10.7999L10.1999 21.1003L8.99995 20.2003L9.59995 19.2003L7.59995 17.9003C6.99995 17.5003 6.89995 16.8003 7.19995 16.3003L8.59995 14.1003L10.1999 14.9003L12.7999 10.9003L11.4999 9.8003L12.8999 7.60029C13.2999 7.00029 13.9999 6.80029 14.4999 7.20029L16.4999 8.50029L17.0999 7.50029L18.2999 8.3003L17.6999 9.3003L19.4999 12.5003C19.9999 13.2003 19.7999 14.1003 19.0999 14.6003ZM13.5999 10.7003C13.6999 11.2003 14.2999 11.6003 14.7999 11.5003C15.2999 11.4003 15.6999 10.8003 15.5999 10.3003C15.4999 9.8003 14.8999 9.40029 14.3999 9.50029C13.7999 9.60029 13.4999 10.2003 13.5999 10.7003ZM11.5999 16.4003C11.4999 15.9003 10.8999 15.5003 10.3999 15.6003C9.89995 15.7003 9.49995 16.3003 9.59995 16.8003C9.69995 17.3003 10.2999 17.7003 10.7999 17.6003C11.3999 17.4003 11.7999 16.9003 11.5999 16.4003ZM18.2999 13.2003L16.8999 10.7003H16.7999L12.3999 17.6003L11.8999 18.4003H15.3999L16.0999 15.2003L16.1999 14.6003L16.6999 14.3003L18.2999 13.2003C18.2999 13.3003 18.2999 13.3003 18.2999 13.2003Z" fill="white"/>
</svg>
