<?xml version="1.0" encoding="iso-8859-1"?>
<!-- Generator: Adobe Illustrator 24.0.1, SVG Export Plug-In . SVG Version: 6.00 Build 0)  -->
<svg version="1.1" id="volcano-layer" xmlns="http://www.w3.org/2000/svg" xmlns:xlink="http://www.w3.org/1999/xlink" x="0px"
	 y="0px" viewBox="0 0 20 20" style="enable-background:new 0 0 20 20;" xml:space="preserve">
<g id="volcano_3_">
	<rect style="fill:none;" width="20" height="20"/>
	<path style="fill:#353232;" d="M2.633,14.422c-0.892,0-1.596-0.365-1.933-1.002c-0.329-0.622-0.246-1.387,0.227-2.108l4.36-8.173
		c0.173-0.324,0.509-0.52,0.866-0.52c0.061,0,0.122,0.006,0.183,0.018c0.423,0.08,0.744,0.425,0.794,0.85
		C7.252,4.534,8.916,5.979,10,5.979c1.108,0,2.746-1.419,2.871-2.49c0.051-0.426,0.373-0.77,0.795-0.85
		c0.062-0.012,0.121-0.019,0.184-0.019c0.357,0,0.693,0.196,0.869,0.52l4.359,8.173c0.47,0.721,0.553,1.489,0.224,2.108
		c-0.339,0.634-1.043,1.002-1.935,1.002H2.633z"/>
	<path style="fill:#42403E;" d="M13.841,3.611c-0.186,1.58-2.277,3.351-3.84,3.351C8.441,6.964,6.346,5.191,6.16,3.611L1.787,11.81
		c-0.606,0.89-0.222,1.62,0.86,1.62h5.392c1.079,0,2.84,0,3.921,0h5.392c1.08,0,1.467-0.73,0.862-1.62L13.841,3.611z"/>
</g>
</svg>
