<svg width="17" height="32" viewBox="0 0 17 32" fill="none" xmlns="http://www.w3.org/2000/svg">
<g id="canada_a_SK_02">
<g id="_Elements / _canada_a_base">
<g id="stretchable-items">
<path id="Rectangle 6" d="M15.5 20C15.5 20.8284 14.8284 21.5 14 21.5L3 21.5C2.17157 21.5 1.5 20.8284 1.5 20L1.5 3C1.5 2.17157 2.17157 1.5 3 1.5L14 1.5C14.8284 1.5 15.5 2.17157 15.5 3L15.5 20Z" fill="white" stroke="#53C2AE"/>
<path id="Rectangle 6_2" d="M1 10H16V11H1V10Z" fill="#53C2AE"/>
</g>
<g id="non-stretchable-items">
<g id="sk">
<path d="M8.48682 3.00001C6.49341 3.0044 5 4.0044 5 6C5 6.77735 11.9693 6.77397 11.9693 6C11.9693 4.0044 10.4777 3.0044 8.48682 3.00001Z" fill="#53C2AE"/>
<path d="M6.22363 9.00004L7 6.83337C7 6.83337 7.68392 6.90388 8.40932 6.90388C9.13473 6.90388 10 6.83337 10 6.83337L10.7236 9.00004H6.22363Z" fill="#53C2AE"/>
</g>
</g>
</g>
</g>
</svg>
