<svg width="17" height="28" viewBox="0 0 17 28" fill="none" xmlns="http://www.w3.org/2000/svg">
<g id="canada_c_PE_01">
<g id="_Elements / _canada_c_base">
<g id="stretchable-items">
<path id="shape01" d="M1.5 2.5H15.5V14.5C15.5 18.366 12.366 21.5 8.5 21.5C4.63401 21.5 1.5 18.366 1.5 14.5V2.5Z" fill="white" stroke="#53C2AE"/>
<rect id="shape02" x="2" y="3" width="13" height="6" fill="#53C2AE"/>
</g>
<g id="non-stretchable-items">
<path id="var02_symbol02" fill-rule="evenodd" clip-rule="evenodd" d="M13.2667 7.99654C14.2765 7.64354 15 6.69104 15 5.57143C15 4.15127 13.8359 3 12.4 3C10.9641 3 9.8 4.15127 9.8 5.57143C9.8 6.69104 10.5235 7.64354 11.5333 7.99654V8.99993H13.2667V7.99654ZM3.7334 8.14293C3.73338 8.14293 3.73336 8.14293 3.73333 8.14293C2.77604 8.14293 2 7.37541 2 6.42864C2 5.48187 2.77604 4.71436 3.73333 4.71436C4.04906 4.71436 4.34507 4.79784 4.60003 4.94371C4.85499 4.79784 5.151 4.71436 5.46673 4.71436C5.78241 4.71436 6.07838 4.79782 6.33331 4.94365C6.58824 4.79782 6.88421 4.71436 7.19989 4.71436C8.15718 4.71436 8.93322 5.48187 8.93322 6.42864C8.93322 7.06312 8.5847 7.6171 8.06667 7.91352V8.99993H7.2V8.14293C7.19996 8.14293 7.19992 8.14293 7.19989 8.14293C6.88422 8.14293 6.58826 8.05947 6.33333 7.91365V8.99993H5.46667V8.14293C5.15098 8.14292 4.855 8.05944 4.60007 7.91359V8.99993H3.7334V8.14293Z" fill="white"/>
</g>
</g>
</g>
</svg>
