<svg width="17" height="25" viewBox="0 0 17 25" fill="none" xmlns="http://www.w3.org/2000/svg">
<g id="canada_j_ON_01">
<g id="_Elements / _canada_j_base">
<g id="stretchable-items">
<path id="shape01" d="M8.62047 20.4107C8.57543 20.4306 8.53516 20.4478 8.50003 20.4625C8.4649 20.4478 8.42463 20.4306 8.37958 20.4107C8.18727 20.3259 7.9085 20.1932 7.57206 20.0052C6.89849 19.6288 5.99825 19.0331 5.09825 18.1596C3.30664 16.4207 1.5 13.5675 1.5 9.08824V6.5H15.5V9.08824C15.5 13.5675 13.6934 16.4207 11.9018 18.1596C11.0018 19.0331 10.1016 19.6288 9.42799 20.0052C9.09155 20.1932 8.81278 20.3259 8.62047 20.4107Z" fill="white" stroke="#888B8F"/>
</g>
<g id="non-stretchable-items">
<path id="Vector" fill-rule="evenodd" clip-rule="evenodd" d="M8.50007 1C7.95319 1 7.62502 1.30507 7.62502 1.81355C7.62502 2.32203 8.28124 3.74579 8.28124 3.74579C7.95311 3.74579 7.40629 3.23731 6.42192 3.23731C5.43755 3.23731 5 3.74579 5 3.74579L5.65622 7H11.3438L12 3.74579C12 3.74579 11.5624 3.23731 10.5781 3.23731C9.59371 3.23731 9.04689 3.74579 8.71876 3.74579C8.71876 3.74579 9.37498 2.22033 9.37498 1.81355C9.37498 1.30507 9.04694 1 8.50007 1Z" fill="#888B8F"/>
</g>
</g>
</g>
</svg>
