<svg width="17" height="21" viewBox="0 0 17 21" fill="none" xmlns="http://www.w3.org/2000/svg">
<g id="canada_g_QC_01">
<g id="_Elements / _canada_g_base">
<g id="stretchable-items">
<path id="shape01" d="M8.66799 18.4266C8.60162 18.4482 8.54525 18.4657 8.50003 18.4794C8.45481 18.4657 8.39844 18.4482 8.33207 18.4266C8.13634 18.3631 7.85416 18.2651 7.51445 18.1287C6.83348 17.8553 5.92926 17.4308 5.02866 16.8264C3.22029 15.6126 1.5 13.7286 1.5 10.9323V1.5H15.5V10.9323C15.5 13.7286 13.7797 15.6127 11.9714 16.8264C11.0708 17.4308 10.1666 17.8553 9.4856 18.1287C9.14589 18.2651 8.86371 18.3631 8.66799 18.4266Z" fill="#5397F0" stroke="white"/>
<rect id="shape02" x="1.5" y="1.5" width="14" height="4" fill="#F56C6C" stroke="white"/>
</g>
<g id="non-stretchable-items">
<path id="symbol01" d="M10 15.5L9 15L8.5 14L8 15L7 15.5L8 16L8.5 17L9 16L10 15.5Z" fill="white"/>
</g>
</g>
</g>
</svg>
