<svg width="17" height="28" viewBox="0 0 17 28" fill="none" xmlns="http://www.w3.org/2000/svg">
<g id="canada_c_NS_01">
<g id="_Elements / _canada_c_base">
<g id="stretchable-items">
<path id="shape01" d="M1.5 2.5H15.5V14.5C15.5 18.366 12.366 21.5 8.5 21.5C4.63401 21.5 1.5 18.366 1.5 14.5V2.5Z" fill="#5397F0" stroke="white"/>
<rect id="shape02" x="2" y="3" width="13" height="6" fill="white"/>
<path id="var01_shape03" d="M8.5 5.29167L14 3H15V4L10.2 6L15 8V9H14L8.5 6.70833L3 9H2V8L6.8 6L2 4V3H3L8.5 5.29167Z" fill="#5397F0"/>
</g>
<g id="non-stretchable-items">
<g id="var01_symbol01">
<path id="Rectangle 23" d="M6.5 4H10.5002V6.00012C10.5002 7.10475 9.60475 8.00024 8.50012 8.00024C7.39548 8.00024 6.5 7.10476 6.5 6.00012V4Z" fill="#FFF9BA"/>
<circle id="Ellipse 6" cx="8.50006" cy="6.00006" r="1.00006" fill="#F56C6C"/>
</g>
</g>
</g>
</g>
</svg>
