<svg width="17" height="32" viewBox="0 0 17 32" fill="none" xmlns="http://www.w3.org/2000/svg">
<g id="canada_a_NWT_01">
<g id="_Elements / _canada_a_base">
<g id="stretchable-items">
<path id="Rectangle 6" d="M15.5 20C15.5 20.8284 14.8284 21.5 14 21.5L3 21.5C2.17157 21.5 1.5 20.8284 1.5 20L1.5 3C1.5 2.17157 2.17157 1.5 3 1.5L14 1.5C14.8284 1.5 15.5 2.17157 15.5 3L15.5 20Z" fill="#5397F0" stroke="white"/>
<path id="Rectangle 6_2" d="M1 10H16V11H1V10Z" fill="white"/>
</g>
<g id="non-stretchable-items">
<path id="nwt" fill-rule="evenodd" clip-rule="evenodd" d="M7 3.5C7.7 3.5 8.4 3.57907 9.1 3.81622C9.3 3.89527 9.4 3.89526 9.6 3.89526C10.2 3.89526 10.7 3.89526 11.3 3.89526C11.5 3.89526 11.6 3.97433 11.8 3.97433C11.9 3.97433 12 4.05339 12.1 3.97433C12.1 3.89528 12.2 3.97433 12.2 3.97433C12.5 4.05339 12.8 4.21146 13.1 4.29051C13.1 4.29051 13.2 4.29054 13.2 4.36959C13.3 4.52769 13.5 4.60675 13.8 4.5277C13.9 4.5277 14 4.60671 14 4.68577C13.9 4.92292 13.8 5.1601 13.4 5.1601C13.3 5.1601 13.2 5.23913 13.1 5.23913C13 5.31818 12.8 5.39724 12.7 5.39724C12 5.39724 11.3 5.39722 10.6 5.47628H10.5C10.1 5.55533 10.1 5.71343 10.2 5.87153C10.3 6.02963 10.3 6.18773 10.4 6.26679C10.5 6.42489 10.6 6.50394 10.7 6.66204L10.8 6.74112C11 6.74112 11 6.82018 10.9 6.89923C10.8 7.05733 10.7 7.13638 10.5 7.13638C10.1 7.13638 9.8 7.2154 9.4 7.0573C9.3 6.97824 9.2 6.97825 9.2 6.82015C9.2 6.7411 9.2 6.74109 9.2 6.66204C9.1 6.50394 8.9 6.34587 8.8 6.10872C8.7 6.02967 8.6 5.95059 8.5 6.02964C8.4 6.02964 8.4 6.1087 8.3 6.18775C8.3 6.2668 8.3 6.26681 8.3 6.34587C8.3 6.66207 8.3 6.66207 8.7 6.74112C8.9 6.74112 9 6.82016 9 6.97826C9.1 7.13637 9 7.29445 8.8 7.45255C8.4 7.76875 7.9 7.92687 7.3 7.61066C7.2 7.53161 7.1 7.45255 7 7.45255C6.8 7.3735 6.7 7.29448 6.6 7.13638C6.6 7.13638 6.5 6.97825 6.5 6.82015C6.5 6.66205 6.2 6.50398 6 6.50398C5.9 6.50398 5.9 6.58301 5.9 6.58301C5.9 6.82016 5.8 6.97825 5.6 7.21541C5.5 7.29446 5.5 7.45258 5.6 7.53163C5.7 7.76878 5.7 8.00591 5.5 8.24306C5.4 8.40116 5.3 8.48025 5.1 8.48025C4.9 8.48025 4.8 8.55927 4.6 8.40117H4.5C4.4 8.40117 4.3 8.40119 4.3 8.32214C4.3 8.24309 4.1 8.32211 4.1 8.24306C4.1 8.16401 4 8.08497 4 8.00592C4 7.68971 4 7.37353 4.3 7.13638C4.4 7.05732 4.4 6.89922 4.4 6.74112C4.5 6.42492 4.5 6.02967 4.4 5.71347C4.3 5.55536 4.3 5.3182 4.4 5.1601C4.4 5.08105 4.4 5.00201 4.5 4.92296C4.7 4.76485 4.7 4.60672 4.8 4.44862C5.1 3.97432 5.6 3.65813 6.2 3.57908C6.4 3.50003 6.7 3.5 7 3.5Z" fill="white"/>
</g>
</g>
</g>
</svg>
