<svg width="19" height="22" viewBox="0 0 19 22" fill="none" xmlns="http://www.w3.org/2000/svg">
<g id="detailedshield_c_02">
<g id="_Elements / _detailedshield_c_base">
<g id="stretchable-items">
<path id="shape01" d="M12.5 2.35C13.7079 2.35 14.5913 2.03699 15.3856 1.62908C15.4171 1.66921 15.4512 1.71399 15.4876 1.76354C15.7029 2.05671 15.9978 2.51725 16.2954 3.16745C16.8896 4.46593 17.5 6.53225 17.5 9.55C17.5 12.519 16.5426 14.6911 15.0711 16.2754C13.6207 17.837 11.6411 18.8586 9.5 19.48C7.35892 18.8586 5.37928 17.837 3.92886 16.2754C2.45737 14.6911 1.5 12.519 1.5 9.55C1.5 6.53225 2.11038 4.46593 2.70465 3.16745C3.00222 2.51725 3.29707 2.05671 3.51237 1.76354C3.54876 1.71399 3.58289 1.66921 3.61439 1.62908C4.40874 2.03699 5.29205 2.35 6.5 2.35C7.2274 2.35 8.04457 2.11236 8.6474 1.89548C8.95573 1.78454 9.22196 1.67381 9.41142 1.59069C9.4431 1.57679 9.47267 1.56364 9.5 1.55137C9.52732 1.56364 9.5569 1.57679 9.58858 1.59069C9.77804 1.67381 10.0443 1.78454 10.3526 1.89548C10.9554 2.11236 11.7726 2.35 12.5 2.35Z" fill="#5397F0" stroke="white"/>
<path id="shape02" d="M15.9265 2.39807C16.314 3.05865 16.7702 4.06789 17.0816 5.5H1.91822C2.22957 4.06789 2.68576 3.05864 3.07329 2.39806C3.28233 2.04173 3.47216 1.78557 3.60989 1.61831C4.39374 2.00749 5.29275 2.35 6.49988 2.35C7.2221 2.35 8.03946 2.11222 8.64293 1.8956C8.95177 1.78473 9.21887 1.67408 9.40904 1.59103C9.44159 1.57681 9.47193 1.56339 9.4999 1.55088C9.52787 1.56339 9.55821 1.57681 9.59076 1.59102C9.78093 1.67407 10.048 1.78473 10.3568 1.8956C10.9603 2.11222 11.7777 2.35 12.4999 2.35C13.707 2.35 14.606 2.00749 15.3899 1.6183C15.5276 1.78556 15.7174 2.04173 15.9265 2.39807Z" fill="#F56C6C" stroke="white"/>
</g>
</g>
</g>
</svg>
