<svg width="19" height="23" viewBox="0 0 19 23" fill="none" xmlns="http://www.w3.org/2000/svg">
<g id="detailedshield_a_02">
<g id="_Elements / _detailedshield_a_base">
<g id="stretchable-items">
<path id="shape01" d="M9.49948 1.64535C9.65813 1.76269 9.86927 1.90442 10.1274 2.04577C10.7335 2.37761 11.6121 2.71439 12.684 2.71439C13.7557 2.71439 14.6349 2.37763 15.2416 2.04588C15.4148 1.95112 15.567 1.85618 15.6963 1.76854L17.4044 5.17747C17.2939 5.31206 17.1533 5.49093 17.0118 5.69167C16.8585 5.90912 16.6972 6.16195 16.5724 6.41843C16.4529 6.66401 16.3409 6.96446 16.3409 7.26316C16.3409 8.1801 16.6136 8.72412 16.868 9.23171C16.9028 9.30098 16.9371 9.36956 16.9704 9.43833C17.2313 9.97707 17.5 10.6467 17.5 12.05C17.5 13.3016 17.1393 14.4442 16.4566 15.2643C15.7838 16.0726 14.7684 16.6053 13.3636 16.6053H11.3645C10.6799 16.6053 10.0298 16.8569 9.5 17.3001C8.97018 16.8569 8.32009 16.6053 7.6355 16.6053H5.63636C4.23155 16.6053 3.2162 16.0726 2.54337 15.2643C1.86072 14.4442 1.5 13.3016 1.5 12.05C1.5 10.6467 1.76865 9.97707 2.02955 9.43833C2.06285 9.36956 2.09723 9.30098 2.13195 9.23172C2.38639 8.72412 2.65909 8.1801 2.65909 7.26316C2.65909 6.96446 2.54708 6.66401 2.42759 6.41843C2.30279 6.16195 2.14151 5.90912 1.9882 5.69167C1.84658 5.4908 1.70587 5.31181 1.59537 5.1772L3.29902 1.76888C3.42824 1.85642 3.58022 1.95124 3.75328 2.04588C4.35991 2.37763 5.23912 2.71439 6.31089 2.71439C7.38261 2.71439 8.26241 2.37765 8.86957 2.046C9.12853 1.90455 9.34037 1.76271 9.49948 1.64535Z" fill="white" stroke="#888B8F"/>
<path id="shape01_2" d="M9.49949 1.73786C9.65879 1.85257 9.87184 1.99174 10.1329 2.13048C10.7387 2.45238 11.6153 2.77829 12.684 2.77829C13.7525 2.77829 14.6298 2.4524 15.2361 2.13059C15.4127 2.03681 15.5675 1.94284 15.6985 1.85636L17.3993 5.15091C17.3487 5.21093 17.2924 5.27928 17.2329 5.35403C17.0712 5.55732 16.876 5.82077 16.7107 6.09961H2.28927C2.12397 5.82077 1.92875 5.55732 1.76708 5.35403C1.70755 5.27917 1.65115 5.21071 1.60051 5.15063L3.29687 1.85669C3.42776 1.94307 3.58232 2.03693 3.75877 2.13059C4.36505 2.4524 5.24232 2.77829 6.31089 2.77829C7.37941 2.77829 8.25727 2.45242 8.86408 2.1307C9.12597 1.99186 9.33972 1.85258 9.49949 1.73786Z" fill="#F56C6C" stroke="#888B8F"/>
</g>
</g>
</g>
</svg>
