<svg width="22" height="25" viewBox="0 0 22 25" fill="none" xmlns="http://www.w3.org/2000/svg">
<g id="detailedshield_f_01">
<g id="_Elements / _detailedshield_f_base">
<g id="stretchable-items">
<path id="detailedshield01" d="M20.2249 9.93198C20.0391 10.0872 19.8239 10.2948 19.6096 10.5627C19.0438 11.2699 18.5 12.3785 18.5 14C18.5 17.8896 17.2887 20.2454 15.7859 21.6326C14.2709 23.031 12.4007 23.5 11 23.5C9.59982 23.5 7.74427 23.0313 6.24349 21.6341C4.75411 20.2474 3.55557 17.8913 3.55557 14C3.55557 12.3747 2.99523 11.2643 2.414 10.5574C2.19325 10.289 1.9717 10.0812 1.78083 9.92628L5.20711 6.5H11H16.7929L20.2249 9.93198Z" fill="white" stroke="#5397F0"/>
</g>
<path id="Vector" d="M13.5 16.5V21.5H12.5V18.1129L11.3334 20.2903H10.5833L9.50001 18.1935V21.5H8.5V16.5H9.58332L10.9167 19.2419L12.25 16.5H13.5Z" fill="#5397F0"/>
</g>
</g>
</svg>
