<svg width="18" height="16" viewBox="0 0 18 16" fill="none" xmlns="http://www.w3.org/2000/svg">
<g id="detailedshield_e_01">
<g id="_Elements / _detailedshield_e_base">
<g id="stretchable-items">
<path id="shape" d="M1.5 2.5H16.5V9.5C16.5 10.9388 16.2119 11.8734 15.8034 12.4757C15.4021 13.0673 14.8522 13.3863 14.2186 13.5357C13.547 13.694 13.0761 13.6938 12.5917 13.6538C12.4605 13.643 12.3218 13.6282 12.174 13.6125C11.7815 13.5708 11.3254 13.5223 10.7778 13.5223C10.4934 13.5223 10.2159 13.6151 9.98553 13.7203C9.74883 13.8283 9.52284 13.9678 9.33182 14.0999C9.20853 14.1851 9.09597 14.2699 9 14.3457C8.90403 14.2699 8.79147 14.1851 8.66818 14.0999C8.47716 13.9678 8.25117 13.8283 8.01448 13.7203C7.78413 13.6151 7.50656 13.5223 7.22222 13.5223C6.66392 13.5223 6.19028 13.5915 5.79403 13.6494C5.64833 13.6707 5.5131 13.6904 5.38797 13.7047C4.91679 13.7582 4.46656 13.7587 3.82267 13.5473C3.16095 13.33 2.6017 13.0004 2.19812 12.4212C1.79048 11.8361 1.5 10.9365 1.5 9.5V2.5Z" fill="white" stroke="#888B8F"/>
</g>
</g>
</g>
</svg>
