<svg width="19" height="16" viewBox="0 0 19 16" fill="none" xmlns="http://www.w3.org/2000/svg">
<g id="netherlands_01">
<g id="_Elements / _netherlands_base">
<g id="stretchable-items">
<path id="Vector" d="M17.5953 12.0686C17.495 12.1343 17.3593 12.2202 17.1909 12.3205C16.7863 12.5615 16.1946 12.8848 15.4537 13.2085C13.9694 13.857 11.9027 14.5 9.55036 14.5C7.19805 14.5 5.13135 13.857 3.64698 13.2085C2.90613 12.8848 2.31443 12.5615 1.90979 12.3205C1.74146 12.2202 1.60574 12.1343 1.50537 12.0686L1.50537 3.93136C1.60574 3.86575 1.74146 3.77983 1.90979 3.67954C2.31444 3.43847 2.90613 3.11519 3.64698 2.79151C5.13135 2.14298 7.19805 1.5 9.55036 1.5C11.9027 1.5 13.9694 2.14298 15.4537 2.79151C16.1946 3.11519 16.7863 3.43847 17.1909 3.67954C17.3593 3.77983 17.495 3.86575 17.5953 3.93136V12.0686Z" fill="white" stroke="#888B8F"/>
</g>
</g>
</g>
</svg>
