<svg width="19" height="16" viewBox="0 0 19 16" fill="none" xmlns="http://www.w3.org/2000/svg">
<g id="simpleshield_a_04">
<g id="_Elements / _simpleshield_a_base ">
<g id="stretchable-items">
<path id="shape" d="M1.5 2.5L17.4979 2.50011V9.26819C17.4831 10.5031 17.4287 11.1799 17.1328 11.6766C16.8537 12.1452 16.2976 12.5409 14.9789 12.9819C14.1358 13.2206 12.7468 13.6032 11.5648 13.9271C10.9715 14.0897 10.431 14.2373 10.0387 14.3443L9.57362 14.4711L9.53392 14.4819L9.49578 14.4715L9.03489 14.346C8.64623 14.2401 8.11059 14.0939 7.52267 13.933C6.34852 13.6115 4.96821 13.2316 4.13309 12.9953C2.76655 12.5768 2.18933 12.1781 1.89669 11.6893C1.58455 11.1679 1.52388 10.4439 1.50001 9.13718L1.5 4.82615L1.5 2.83662L1.5 2.5Z" fill="white" stroke="#888B8F"/>
</g>
</g>
</g>
</svg>
