<svg width="17" height="30" viewBox="0 0 17 30" fill="none" xmlns="http://www.w3.org/2000/svg">
<g id="u_a_emirates_b_02">
<g id="_Elements / _u_a_emirates_b_base">
<g id="stretchable-items">
<rect id="shape" x="1" y="1" width="15" height="20" rx="1" fill="white"/>
</g>
<g id="non-stretchable-items">
<g id="var02">
<path id="symbol02" d="M4 3H2V20H15V2H13V4H12.25V2H10.25V5H9.5V3H7.47059V5H6.75V3H4.75V5H4V3Z" fill="#53C2AE"/>
<g id="symbol01">
<path d="M11.4502 5.63909C11.5813 5.70511 11.7347 5.78241 11.8458 5.90748C11.7731 6.07116 11.7004 6.23483 11.555 6.39852C11.4824 6.3576 11.3915 6.29623 11.3007 6.23485C11.2098 6.17347 11.119 6.1121 11.0463 6.07117C11.0827 5.98933 11.1372 5.90749 11.1917 5.82564C11.2462 5.74379 11.3007 5.66192 11.3371 5.58008C11.3714 5.59939 11.4097 5.6187 11.4502 5.63909Z" fill="#FFF9BA"/>
<path fill-rule="evenodd" clip-rule="evenodd" d="M12.7005 8.63455C12.755 8.655 12.8095 8.67545 12.8458 8.71637H9.93858C9.64786 8.71637 9.35717 8.63454 9.06644 8.47085C8.77571 8.30716 8.63035 8.06163 8.70303 7.6524C8.73937 7.57056 8.7757 7.46825 8.81203 7.36594C8.84836 7.26364 8.88468 7.16133 8.92102 7.07948C8.88468 7.07948 8.86652 7.05903 8.84836 7.03857C8.8302 7.01811 8.81204 6.99766 8.7757 6.99766C8.73936 7.16134 8.68484 7.30457 8.63033 7.44779C8.57581 7.59101 8.52129 7.73424 8.48495 7.89793C8.33959 8.55268 8.55765 8.96193 9.1391 9.20747C9.50251 9.37116 9.93858 9.37117 10.302 9.37117H13.5V7.9798C13.4637 7.85704 13.4455 7.75474 13.4273 7.65245C13.4092 7.55015 13.391 7.44782 13.3547 7.32506C13.2093 6.83399 12.8458 6.75213 12.5551 7.16136C12.4098 7.32493 12.3371 7.57074 12.2644 7.8161C12.1918 8.14348 12.2644 8.38903 12.5551 8.55272C12.5914 8.59364 12.646 8.61409 12.7005 8.63455ZM13.0639 7.73428C13.1366 7.89793 13.1366 8.06153 13.1366 8.30697C12.9916 8.22532 12.9188 8.22532 12.8463 8.22532C12.701 8.14348 12.6278 7.97979 12.7005 7.8161C12.7005 7.73426 12.7732 7.6524 12.8458 7.6524C12.9185 7.57056 12.9912 7.65243 13.0639 7.73428Z" fill="#FFF9BA"/>
<path d="M6.54629 6.78547V5.99976H4V9.77118H4.84876V8.3569H6.12191V7.57118H4.84876V6.78547H6.54629Z" fill="#FFF9BA"/>
</g>
</g>
</g>
</g>
</g>
</svg>
