# Blender v2.92.0 OBJ File: ''
# www.blender.org
mtllib location_indicator_halo_app.mtl
o myposition_marker_halo
v -1.377998 10.065001 0.000001
v 1.379002 10.065001 0.000001
v 0.000000 10.158002 0.000001
v 2.701000 9.794999 0.000001
v -2.700999 9.794999 0.000001
v 3.955000 9.360002 0.000001
v -3.955000 9.360002 0.000001
v 5.128001 8.770999 0.000001
v -5.128000 8.770999 0.000001
v 6.209000 8.042001 0.000001
v -6.208000 8.042001 0.000001
v 7.184999 7.183002 0.000001
v -7.184000 7.183002 0.000001
v 8.042999 6.207002 0.000001
v -8.042999 6.207002 0.000001
v -8.773000 5.127000 0.000000
v 8.773003 5.127000 0.000000
v -9.362000 3.954001 0.000000
v 9.362000 3.954001 0.000000
v -9.797000 2.700000 0.000000
v 9.797003 2.700000 0.000000
v -10.066999 1.378000 0.000000
v 10.068003 1.378000 0.000000
v -10.160000 0.000001 0.000000
v 10.160000 0.000001 0.000000
v -10.066999 -1.378000 -0.000000
v 10.068003 -1.378000 -0.000000
v -9.797000 -2.699999 -0.000000
v 9.797003 -2.699999 -0.000000
v -9.362000 -3.954000 -0.000000
v 9.362000 -3.954000 -0.000000
v -8.773000 -5.127000 -0.000000
v 8.773003 -5.127000 -0.000000
v -8.042999 -6.207000 -0.000001
v 8.042999 -6.207000 -0.000001
v -7.184000 -7.183000 -0.000001
v 7.184999 -7.183000 -0.000001
v -6.208000 -8.041000 -0.000001
v 6.209000 -8.041000 -0.000001
v -5.128000 -8.771000 -0.000001
v 5.128001 -8.771000 -0.000001
v -3.955000 -9.360001 -0.000001
v 3.955000 -9.360001 -0.000001
v -2.700999 -9.795000 -0.000001
v 2.701000 -9.795000 -0.000001
v -1.377998 -10.065001 -0.000001
v 1.379002 -10.065001 -0.000001
v 0.000000 -10.158000 -0.000001
vt 0.719462 0.980100
vt 0.781612 0.980100
vt 0.750526 0.982197
vt 0.811414 0.974012
vt 0.689638 0.974012
vt 0.839682 0.964204
vt 0.661370 0.964204
vt 0.866125 0.950924
vt 0.634927 0.950924
vt 0.890494 0.934487
vt 0.610581 0.934487
vt 0.912495 0.915119
vt 0.588579 0.915119
vt 0.931837 0.893113
vt 0.569215 0.893113
vt 0.552759 0.868762
vt 0.948293 0.868762
vt 0.539481 0.842314
vt 0.961571 0.842314
vt 0.529675 0.814040
vt 0.971377 0.814040
vt 0.523589 0.784233
vt 0.977486 0.784233
vt 0.521492 0.753163
vt 0.979560 0.753163
vt 0.523589 0.722093
vt 0.977486 0.722093
vt 0.529675 0.692286
vt 0.971377 0.692286
vt 0.539481 0.664012
vt 0.961571 0.664012
vt 0.552759 0.637564
vt 0.948293 0.637564
vt 0.569215 0.613213
vt 0.931837 0.613213
vt 0.588579 0.591207
vt 0.912495 0.591207
vt 0.610581 0.571862
vt 0.890494 0.571862
vt 0.634927 0.555402
vt 0.866125 0.555402
vt 0.661370 0.542122
vt 0.839682 0.542122
vt 0.689638 0.532314
vt 0.811414 0.532314
vt 0.719462 0.526226
vt 0.781612 0.526226
vt 0.750526 0.524129
vn 0.0000 -0.0000 1.0000
usemtl lambert6SG.003
s 1
f 1/1/1 2/2/1 3/3/1
f 1/1/1 4/4/1 2/2/1
f 5/5/1 4/4/1 1/1/1
f 5/5/1 6/6/1 4/4/1
f 7/7/1 6/6/1 5/5/1
f 7/7/1 8/8/1 6/6/1
f 9/9/1 8/8/1 7/7/1
f 9/9/1 10/10/1 8/8/1
f 11/11/1 10/10/1 9/9/1
f 11/11/1 12/12/1 10/10/1
f 13/13/1 12/12/1 11/11/1
f 13/13/1 14/14/1 12/12/1
f 15/15/1 14/14/1 13/13/1
f 16/16/1 14/14/1 15/15/1
f 16/16/1 17/17/1 14/14/1
f 18/18/1 17/17/1 16/16/1
f 18/18/1 19/19/1 17/17/1
f 20/20/1 19/19/1 18/18/1
f 20/20/1 21/21/1 19/19/1
f 22/22/1 21/21/1 20/20/1
f 22/22/1 23/23/1 21/21/1
f 24/24/1 23/23/1 22/22/1
f 24/24/1 25/25/1 23/23/1
f 26/26/1 25/25/1 24/24/1
f 26/26/1 27/27/1 25/25/1
f 28/28/1 27/27/1 26/26/1
f 28/28/1 29/29/1 27/27/1
f 30/30/1 29/29/1 28/28/1
f 30/30/1 31/31/1 29/29/1
f 32/32/1 31/31/1 30/30/1
f 32/32/1 33/33/1 31/31/1
f 34/34/1 33/33/1 32/32/1
f 34/34/1 35/35/1 33/33/1
f 36/36/1 35/35/1 34/34/1
f 36/36/1 37/37/1 35/35/1
f 38/38/1 37/37/1 36/36/1
f 38/38/1 39/39/1 37/37/1
f 40/40/1 39/39/1 38/38/1
f 40/40/1 41/41/1 39/39/1
f 42/42/1 41/41/1 40/40/1
f 42/42/1 43/43/1 41/41/1
f 44/44/1 43/43/1 42/42/1
f 44/44/1 45/45/1 43/43/1
f 46/46/1 45/45/1 44/44/1
f 46/46/1 47/47/1 45/45/1
f 48/48/1 47/47/1 46/46/1
