<?xml version="1.0" encoding="iso-8859-1"?>
<!-- Generator: Adobe Illustrator 24.0.1, SVG Export Plug-In . SVG Version: 6.00 Build 0)  -->
<svg version="1.1" id="mountain-layer" xmlns="http://www.w3.org/2000/svg" xmlns:xlink="http://www.w3.org/1999/xlink" x="0px"
	 y="0px" viewBox="0 0 20 20" style="enable-background:new 0 0 20 20;" xml:space="preserve">
<g id="mountain_3_">
	<rect style="fill:none;" width="20" height="20"/>
	<path style="fill:#353232;" d="M10,2.617c-0.742,0-1.44,0.401-1.917,1.101l-2.46,3.625L4.519,8.97l-1.103,1.624l-2.46,3.624
		c-0.501,0.737-0.594,1.527-0.257,2.159c0.336,0.634,1.041,1.002,1.932,1.002h5.404h3.93h5.404c0.887,0,1.595-0.362,1.931-1.002
		c0.338-0.635,0.244-1.42-0.255-2.159l-2.462-3.624L15.186,8.54l-0.81-1.197l-2.459-3.626C11.443,3.018,10.744,2.617,10,2.617
		L10,2.617z"/>
	<path style="fill:#42403E;" d="M11.102,4.282c-0.605-0.892-1.595-0.892-2.202,0L6.444,7.899c-0.606,0.892-1.596,2.353-2.202,3.249
		l-2.455,3.616c-0.606,0.892-0.222,1.622,0.86,1.622H8.04c1.079,0,2.839,0,3.922,0h5.393c1.079,0,1.465-0.73,0.86-1.622
		l-2.455-3.616c-0.605-0.892-1.597-2.353-2.202-3.247L11.102,4.282z"/>
</g>
</svg>
