<?xml version="1.0" encoding="iso-8859-1"?>
<!-- Generator: Adobe Illustrator 16.0.0, SVG Export Plug-In . SVG Version: 6.00 Build 0)  -->
<!DOCTYPE svg PUBLIC "-//W3C//DTD SVG 1.1//EN" "http://www.w3.org/Graphics/SVG/1.1/DTD/svg11.dtd">
<svg version="1.1" id="australia_x5F_3-layer" xmlns="http://www.w3.org/2000/svg" xmlns:xlink="http://www.w3.org/1999/xlink"
	 x="0px" y="0px" width="41.059px" height="46.506px" viewBox="0 0 41.059 46.506"
	 style="enable-background:new 0 0 41.059 46.506;" xml:space="preserve">
<g id="australia_x5F_3">
	<path style="fill:#F3F1E7;" d="M20.53,46.506c-0.254,0-0.506-0.057-0.747-0.172L1.718,37.768C0.689,37.279,0,35.875,0,34.268
		V12.239c0-1.606,0.689-3.011,1.716-3.501l18.065-8.566c0.484-0.229,1.011-0.229,1.494,0l18.065,8.566
		c1.027,0.49,1.718,1.895,1.718,3.501v22.029c0,1.607-0.69,3.012-1.718,3.5l-18.065,8.566C21.034,46.449,20.782,46.506,20.53,46.506
		z"/>
	<polygon style="fill:none;stroke:#588AC6;stroke-linecap:round;stroke-linejoin:round;stroke-miterlimit:10;" points="20.53,3.672 
		38.596,12.239 38.596,34.268 20.53,42.834 2.463,34.268 2.463,12.239 	"/>
</g>
</svg>
