<?xml version="1.0" encoding="iso-8859-1"?>
<!-- Generator: Adobe Illustrator 16.0.0, SVG Export Plug-In . SVG Version: 6.00 Build 0)  -->
<!DOCTYPE svg PUBLIC "-//W3C//DTD SVG 1.1//EN" "http://www.w3.org/Graphics/SVG/1.1/DTD/svg11.dtd">
<svg version="1.1" id="blue_x5F_shield-layer" xmlns="http://www.w3.org/2000/svg" xmlns:xlink="http://www.w3.org/1999/xlink"
	 x="0px" y="0px" width="52.058px" height="48.953px" viewBox="0 0 52.058 48.953"
	 style="enable-background:new 0 0 52.058 48.953;" xml:space="preserve">
<g id="blue_x5F_shield">
	<path style="fill:#588AC6;" d="M26.054,48.953c-0.027,0-0.21-0.002-0.237-0.005C19.539,48.762,0.302,37.689,0.003,18.587
		C-0.167,7.645,6.473,1.262,6.754,0.997C7.44,0.353,8.331,0,9.268,0h33.521c0.938,0,1.832,0.355,2.514,0.997
		c0.283,0.267,6.922,6.643,6.752,17.59c-0.297,19.103-19.533,30.175-25.853,30.364C26.187,48.951,26.066,48.953,26.054,48.953z"/>
	<path style="fill:none;stroke:#FFFFFF;stroke-linecap:round;stroke-linejoin:round;" d="M42.789,3.672
		c0,0,5.742,5.387,5.594,14.859c-0.264,16.907-17.832,26.75-22.377,26.75h0.049c-4.545,0-22.115-9.843-22.379-26.75
		C3.526,9.059,9.268,3.672,9.268,3.672H42.789z"/>
</g>
</svg>
