<?xml version="1.0" encoding="UTF-8"?>
<!DOCTYPE svg PUBLIC "-//W3C//DTD SVG 1.1 Tiny//EN" "http://www.w3.org/Graphics/SVG/1.1/DTD/svg11-tiny.dtd">
<svg baseProfile="tiny" height="20px" version="1.1" viewBox="0 0 24 20" width="24px" x="0px" xmlns="http://www.w3.org/2000/svg" xmlns:xlink="http://www.w3.org/1999/xlink" y="0px">
<path d="M12.004,19c-0.417,0-0.819-0.176-1.102-0.482c-0.006-0.006-0.941-0.979-2.019-1.019  c-0.726-0.028-1.099,0.037-1.767,0.156c-0.292,0.052-0.606,0.106-0.985,0.161c-0.188,0.028-0.412,0.047-0.656,0.047  c-2.45,0-4.943-1.592-4.99-5.146V5.606c0-1.385,1.122-2.511,2.5-2.511H21.02c1.379,0,2.5,1.126,2.5,2.511v7.092  c-0.045,3.569-2.537,5.165-4.988,5.165c-0.244,0-0.469-0.019-0.659-0.047c-0.371-0.055-0.681-0.108-0.959-0.158  c-0.675-0.12-1.06-0.188-1.79-0.159c-1.074,0.039-2.007,1.009-2.018,1.021C12.825,18.823,12.422,19,12.004,19z" fill="#F4F2E9"/>
<path d="M12.004,17.5c0,0-1.317-1.438-3.067-1.5  c-1.249-0.045-1.739,0.146-3.021,0.333c-1.134,0.166-3.886-0.271-3.93-3.635V5.606c0-0.557,0.448-1.011,1-1.011H21.02  c0.557,0,1,0.455,1,1.011v7.092c-0.043,3.364-2.795,3.801-3.93,3.635c-1.281-0.188-1.771-0.378-3.021-0.333  C13.32,16.063,12.004,17.5,12.004,17.5L12.004,17.5z" fill="none" stroke="#323232" stroke-linecap="round" stroke-linejoin="round"/>
</svg>
