<?xml version="1.0" encoding="iso-8859-1"?>
<!-- Generator: Adobe Illustrator 16.0.3, SVG Export Plug-In . SVG Version: 6.00 Build 0)  -->
<!DOCTYPE svg PUBLIC "-//W3C//DTD SVG 1.1//EN" "http://www.w3.org/Graphics/SVG/1.1/DTD/svg11.dtd">
<svg version="1.1" id="CAN_x5F_quebec_x5F_1-layer" xmlns="http://www.w3.org/2000/svg" xmlns:xlink="http://www.w3.org/1999/xlink"
	 x="0px" y="0px" width="16px" height="22.293px" viewBox="0 0 16 22.293" style="enable-background:new 0 0 16 22.293;"
	 xml:space="preserve">
<g id="CAN_x5F_quebec_x5F_1">
	<rect style="fill:none;" width="16" height="22.293"/>
	<path style="fill:#588AC6;" d="M8,22.029c-0.211,0-0.414-0.043-0.605-0.127c-0.277-0.121-6.859-3.07-6.895-9.363V3.297
		c0-1.378,1.121-2.5,2.5-2.5h10c1.379,0,2.5,1.122,2.5,2.5v9.232c-0.037,6.307-6.617,9.252-6.896,9.373
		C8.412,21.986,8.209,22.029,8,22.029z"/>
	<g>
		<path style="fill:#D66867;" d="M14,3.297c0-0.552-0.447-1-1-1H3c-0.553,0-1,0.448-1,1v2.66h12V3.297z"/>
	</g>
	<path style="fill:none;stroke:#FFFFFF;stroke-linecap:round;stroke-linejoin:round;" d="M13,2.297c0.553,0,1,0.448,1,1v9.232
		c-0.031,5.375-6,8-6,8s-5.969-2.625-6-8V3.297c0-0.552,0.447-1,1-1H13z"/>
	<path style="fill:none;stroke:#FFFFFF;stroke-width:1.0023;stroke-linejoin:round;" d="M2,5.957h12H2z"/>
	<circle style="fill:#FFFFFF;" cx="8" cy="17.906" r="0.969"/>
</g>
</svg>
