<?xml version="1.0" encoding="iso-8859-1"?>
<!-- Generator: Adobe Illustrator 16.0.3, SVG Export Plug-In . SVG Version: 6.00 Build 0)  -->
<!DOCTYPE svg PUBLIC "-//W3C//DTD SVG 1.1//EN" "http://www.w3.org/Graphics/SVG/1.1/DTD/svg11.dtd">
<svg version="1.1" id="CAN_x5F_prince_x5F_edward_x5F_isl_x5F_1_x2B_2-layer"
	 xmlns="http://www.w3.org/2000/svg" xmlns:xlink="http://www.w3.org/1999/xlink" x="0px" y="0px" width="20px" height="31.078px"
	 viewBox="0 0 20 31.078" style="enable-background:new 0 0 20 31.078;" xml:space="preserve">
<g id="CAN_x5F_prince_x5F_edward_x5F_isl_x5F_1_x2B_2">
	<polygon style="fill:none;" points="20,31 0,31.078 0,0.078 20,0 	"/>
	<path style="fill:#F4F2E9;" d="M10,24.5c-3.983,0-9.5-2.954-9.5-8.5V3c0-1.378,1.122-2.5,2.5-2.5h14c1.379,0,2.5,1.122,2.5,2.5v13
		C19.5,21.521,14.605,24.5,10,24.5z"/>
	<path style="fill:#559856;" d="M17,1.5H3C2.173,1.5,1.5,2.173,1.5,3v13c0,5.174,4.971,7.5,8.5,7.5c3.286,0,8.5-2.036,8.5-7.5V3
		C18.5,2.173,17.827,1.5,17,1.5z M17.5,16c0,4.77-4.485,6.5-7.5,6.5c-3.114,0-7.5-2.017-7.5-6.5v-5.877h2.966V8.621H4.452
		L3.803,8.16V5.073h5.579l1.361,1.183v2.365H9.464v1.502h3.612V8.621h-1.56V5.073l2.341-1.34l2.34,1.34v3.548h-1.56l-0.012,1.502
		H17.5V16z"/>
</g>
</svg>
