<?xml version="1.0" encoding="iso-8859-1"?>
<!-- Generator: Adobe Illustrator 16.0.3, SVG Export Plug-In . SVG Version: 6.00 Build 0)  -->
<!DOCTYPE svg PUBLIC "-//W3C//DTD SVG 1.1//EN" "http://www.w3.org/Graphics/SVG/1.1/DTD/svg11.dtd">
<svg version="1.1" id="CAN_x5F_quebec_x5F_2-layer" xmlns="http://www.w3.org/2000/svg" xmlns:xlink="http://www.w3.org/1999/xlink"
	 x="0px" y="0px" width="20.5px" height="25.834px" viewBox="0 0 20.5 25.834" style="enable-background:new 0 0 20.5 25.834;"
	 xml:space="preserve">
<g id="CAN_x5F_quebec_x5F_2">
	<rect style="fill:none;" width="20.5" height="25.834"/>
	<path style="fill:#559856;" d="M10.255,21.997h-0.014c-0.463-0.008-0.883-0.21-1.16-0.557c-0.021-0.024-0.754-0.864-2.438-0.875
		c-5.088-0.033-5.887-3.052-5.91-4.847V3.275c0-1.385,1.121-2.511,2.5-2.511h14.033c1.379,0,2.5,1.126,2.5,2.511v12.426
		c-0.021,1.807-0.814,4.831-5.881,4.864c-1.713,0.011-2.443,0.852-2.475,0.888C11.128,21.793,10.694,21.997,10.255,21.997z"/>
	<path style="fill:none;stroke:#FFFFFF;stroke-width:1.0023;stroke-linejoin:round;" d="M10.251,20.503L10.251,20.503
		c0,0-1.111-1.422-3.598-1.438c-1.146-0.008-4.375,0-4.42-3.364V3.275c0-0.557,0.449-1.011,1-1.011h14.033c0.557,0,1,0.454,1,1.011
		v12.426c-0.043,3.364-3.27,3.356-4.42,3.364C11.362,19.081,10.251,20.503,10.251,20.503L10.251,20.503L10.251,20.503z"/>
	
		<line style="fill:none;stroke:#FFFFFF;stroke-width:1.1586;stroke-linejoin:round;" x1="2.233" y1="6.877" x2="18.267" y2="6.877"/>
	<g>
		<circle style="fill:#FFFFFF;" cx="10.251" cy="4.617" r="1"/>
		<circle style="fill:#FFFFFF;" cx="5.239" cy="4.617" r="1"/>
		<circle style="fill:#FFFFFF;" cx="15.261" cy="4.617" r="1"/>
	</g>
</g>
</svg>
