<?xml version="1.0" encoding="iso-8859-1"?>
<!-- Generator: Adobe Illustrator 16.0.3, SVG Export Plug-In . SVG Version: 6.00 Build 0)  -->
<!DOCTYPE svg PUBLIC "-//W3C//DTD SVG 1.1//EN" "http://www.w3.org/Graphics/SVG/1.1/DTD/svg11.dtd">
<svg version="1.1" id="CAN_x5F_manitoba_x5F_1-layer"
	 xmlns="http://www.w3.org/2000/svg" xmlns:xlink="http://www.w3.org/1999/xlink" x="0px" y="0px" width="19.064px"
	 height="27.857px" viewBox="0 0 19.064 27.857" style="enable-background:new 0 0 19.064 27.857;" xml:space="preserve">
<g id="CAN_x5F_manitoba_x5F_1">
	<rect y="0" style="fill:none;" width="19.064" height="27.857"/>
	<path style="fill:#F4F2E9;" d="M9.578,25.188c-0.189,0-0.379-0.035-0.559-0.106l-5.104-2.054C1.244,21.888,0.07,20.981,0,17.085
		V2.471c0-0.069,0.006-0.139,0.016-0.208c0.188-1.334,1.184-2.221,2.533-2.262L16.564,0c1.379,0,2.5,1.122,2.5,2.501v14.587
		c-0.047,3.829-1.438,4.782-3.723,5.897l-5.203,2.095C9.959,25.151,9.771,25.188,9.578,25.188z"/>
	<path style="fill:none;stroke:#323232;stroke-linecap:round;stroke-linejoin:round;" d="M16.564,1.5c0.553,0,1,0.448,1,1.001
		v14.587c-0.037,3.065-0.896,3.581-2.881,4.55l-5.105,2.051l-5.102-2.051c-2.27-0.969-2.92-1.406-2.977-4.58V2.471
		c0.086-0.606,0.447-0.95,1.096-0.97L16.564,1.5L16.564,1.5z"/>
	<path style="fill-rule:evenodd;clip-rule:evenodd;fill:#323232;" d="M13.268,5.702c-0.217-0.705-0.803-0.968-1.432-1.111
		c-0.957-0.218-1.813-0.608-2.605-1.186c-0.895-0.649-1.201-0.591-2.008,0.18C6.975,3.825,6.68,4.021,6.305,4.302
		C6.25,4.342,5.91,4.322,5.797,4.278c0.117,0.192,0.305,0.219,0.365,0.307c0.225,0.317,0.268,0.817,0.4,1.296
		c0.09,0.337,0.279,0.496,0.641,0.561c0.758,0.134,0.994,0.719,0.568,1.3C7.725,7.806,7.678,7.871,7.633,7.935
		C7.67,7.972,7.891,8.054,7.928,8.091C8.191,7.8,8.285,7.528,8.543,7.244c0.502,0.205,0.252,0.487,0,0.874
		c0.107-0.006,0.232,0.04,0.299,0.051c0,0,0.385-0.297,0.434-0.362c0.475-0.624,0.789-1.136,1.479-1.336
		c0.408-0.119,0.58-0.134,0.904,0.068c0.332,0.208,0.285,0.475,0.191,0.854c-0.043,0.18-0.162,0.398-0.213,0.576
		c0.096-0.032,0.363,0.032,0.43,0.053c0.117-0.45,0.264-0.834,0.379-1.282c0.4,0.174,0.4,0.311,0.195,1.262
		c0.123-0.039,0.264-0.026,0.354,0.006c0,0,0.279-0.792,0.164-1.168C13.041,6.459,12.771,6.045,13.268,5.702z M7.873,6.014
		c-0.395,0-0.713-0.319-0.713-0.712c0-0.394,0.318-0.712,0.713-0.712c0.393,0,0.711,0.318,0.711,0.712
		C8.584,5.695,8.266,6.014,7.873,6.014z"/>
</g>
</svg>
