<?xml version="1.0" encoding="iso-8859-1"?>
<!-- Generator: Adobe Illustrator 16.0.3, SVG Export Plug-In . SVG Version: 6.00 Build 0)  -->
<!DOCTYPE svg PUBLIC "-//W3C//DTD SVG 1.1//EN" "http://www.w3.org/Graphics/SVG/1.1/DTD/svg11.dtd">
<svg version="1.1" id="green_x5F_octagon-layer" xmlns="http://www.w3.org/2000/svg" xmlns:xlink="http://www.w3.org/1999/xlink"
	 x="0px" y="0px" width="25.324px" height="22.422px" viewBox="0 0 25.324 22.422"
	 style="enable-background:new 0 0 25.324 22.422;" xml:space="preserve">
<g id="green_x5F_octagon">
	<path style="fill:#569956;" d="M12.662,22.422c-0.115,0-0.229-0.018-0.341-0.049l-9.805-2.859c-0.52-0.15-0.882-0.635-0.882-1.176
		L0,11.211l1.634-7.127c0-0.541,0.363-1.024,0.882-1.176l9.803-2.859c0.222-0.064,0.464-0.065,0.687,0l9.802,2.859
		c0.521,0.152,0.883,0.635,0.883,1.176l1.634,7.127l-1.634,6.127c0,0.541-0.362,2.025-0.883,2.176l-9.802,2.859
		C12.892,22.404,12.777,22.422,12.662,22.422z"/>
	<polygon style="fill:none;stroke:#FFFFFF;stroke-linecap:round;stroke-linejoin:round;" points="12.662,1.225 22.465,4.084 
		24.099,11.211 22.465,18.338 12.662,21.197 2.859,18.338 1.226,11.211 2.859,4.084 	"/>
	<rect style="fill:none;" width="25.324" height="22.422"/>
</g>
</svg>
