<?xml version="1.0" encoding="UTF-8"?>
<!DOCTYPE svg PUBLIC "-//W3C//DTD SVG 1.1 Tiny//EN" "http://www.w3.org/Graphics/SVG/1.1/DTD/svg11-tiny.dtd">
<svg baseProfile="tiny" height="20px" version="1.1" viewBox="0 0 16 20" width="16px" x="0px" xmlns="http://www.w3.org/2000/svg" xmlns:xlink="http://www.w3.org/1999/xlink" y="0px">
<path d="M8,19.5c-0.21,0-0.413-0.043-0.605-0.128c-0.278-0.121-6.859-3.07-6.895-9.363V5c0-1.378,1.122-2.5,2.5-2.5  h10c1.379,0,2.5,1.122,2.5,2.5v5c-0.036,6.307-6.617,9.251-6.896,9.373C8.413,19.457,8.21,19.5,8,19.5z" fill="#F7ECB0"/>
<path d="M13,4c0.553,0,1,0.448,1,1v5  c-0.031,5.375-6,8-6,8s-5.969-2.625-6-8V5c0-0.552,0.447-1,1-1H13z" fill="none" stroke="#588BC6" stroke-linecap="round" stroke-linejoin="round"/>
</svg>
