<?xml version="1.0" encoding="iso-8859-1"?>
<!-- Generator: Adobe Illustrator 16.0.3, SVG Export Plug-In . SVG Version: 6.00 Build 0)  -->
<!DOCTYPE svg PUBLIC "-//W3C//DTD SVG 1.1//EN" "http://www.w3.org/Graphics/SVG/1.1/DTD/svg11.dtd">
<svg version="1.1" id="india_x5F_b_x5F_1-layer" xmlns="http://www.w3.org/2000/svg" xmlns:xlink="http://www.w3.org/1999/xlink"
	 x="0px" y="0px" width="20px" height="31px" viewBox="0 0 20 31" style="enable-background:new 0 0 20 31;" xml:space="preserve">
<g id="india_x5F_b_x5F_1">
	<rect style="fill:none;" width="20" height="31"/>
	<path style="fill:#31917E;" d="M10,24.5c-3.983,0-9.5-2.953-9.5-8.5V3c0-1.378,1.122-2.5,2.5-2.5h14c1.379,0,2.5,1.122,2.5,2.5v13
		C19.5,21.521,14.605,24.5,10,24.5z"/>
	<path style="fill:none;stroke:#FFFFFF;stroke-miterlimit:10;" d="M18,16c0,5.024-4.688,7-8,7c-3.312,0-8-2.186-8-7V3
		c0-0.552,0.448-1,1-1h14c0.553,0,1,0.448,1,1V16"/>
	<polygon style="fill:#FFFFFF;" points="14.969,9.625 13.982,9.625 13.982,6.953 11.641,6.953 11.641,9.625 10.654,9.625 
		10.654,3.751 11.641,3.751 11.641,6.04 13.982,6.04 13.982,3.751 14.969,3.751 	"/>
	<path id="_x3C_Path_x3E_" style="fill:#FFFFFF;" d="M8.129,8.32H6.182L5.797,9.625L4.822,9.63l1.915-5.844l0.867-0.004l1.9,5.843
		H8.527L8.129,8.32z M6.462,7.439h1.409L7.181,5.137L6.462,7.439z"/>
</g>
</svg>
