<?xml version="1.0" encoding="UTF-8"?>
<!DOCTYPE svg PUBLIC "-//W3C//DTD SVG 1.1 Tiny//EN" "http://www.w3.org/Graphics/SVG/1.1/DTD/svg11-tiny.dtd">
<svg baseProfile="tiny" height="20px" version="1.1" viewBox="0 0 26 20" width="26px" x="0px" xmlns="http://www.w3.org/2000/svg" xmlns:xlink="http://www.w3.org/1999/xlink" y="0px">
<path d="M13,19.5c-0.154,0-0.307-0.023-0.454-0.07l-11-3.5C0.92,15.73,0.5,15.156,0.5,14.5v-9  c0-0.656,0.42-1.23,1.045-1.43l11-3.5c0.295-0.094,0.615-0.094,0.909,0l11,3.5C25.08,4.27,25.5,4.844,25.5,5.5v9  c0,0.656-0.42,1.23-1.046,1.43l-11,3.5C13.307,19.477,13.154,19.5,13,19.5z" fill="#F4F2E9"/>
<polygon fill="none" points="13,2 24,5.5   24,14.5 13,18 2,14.5 2,5.5 " stroke="#588BC6" stroke-linecap="round" stroke-linejoin="round" stroke-miterlimit="10"/>
</svg>
