<?xml version="1.0" encoding="utf-8"?>
<!-- Generator: Adobe Illustrator 24.1.1, SVG Export Plug-In . SVG Version: 6.00 Build 0)  -->
<svg version="1.2" baseProfile="tiny" id="Layer_1" xmlns="http://www.w3.org/2000/svg" xmlns:xlink="http://www.w3.org/1999/xlink"
	 x="0px" y="0px" viewBox="0 0 26 20" xml:space="preserve">
<g>
	<rect fill="none" width="26" height="20"/>
	<g>
		<path fill="#52A3DB" d="M19.5,0.5h-13c-0.4,0-0.9,0.2-1.1,0.6L1,8.9c-0.2,0.4-0.2,0.9,0,1.3l4.5,7.7c0.2,0.4,0.6,0.6,1.1,0.6h12.9
			c0.5,0,0.9-0.2,1.1-0.6l4.5-7.7c0.2-0.4,0.2-0.9,0-1.3l-4.5-7.7C20.3,0.7,19.9,0.5,19.5,0.5z"/>
		<path fill="none" stroke="#FFFFFF" d="M19.5,0.5h-13c-0.4,0-0.9,0.2-1.1,0.6L1,8.9c-0.2,0.4-0.2,0.9,0,1.3l4.5,7.7
			c0.2,0.4,0.6,0.6,1.1,0.6h12.9c0.5,0,0.9-0.2,1.1-0.6l4.5-7.7c0.2-0.4,0.2-0.9,0-1.3l-4.5-7.7C20.3,0.7,19.9,0.5,19.5,0.5z"/>
	</g>
</g>
</svg>
