<?xml version="1.0" encoding="iso-8859-1"?>
<!-- Generator: Adobe Illustrator 16.0.0, SVG Export Plug-In . SVG Version: 6.00 Build 0)  -->
<!DOCTYPE svg PUBLIC "-//W3C//DTD SVG 1.1//EN" "http://www.w3.org/Graphics/SVG/1.1/DTD/svg11.dtd">
<svg version="1.1" id="korea_x5F_1-layer" xmlns="http://www.w3.org/2000/svg" xmlns:xlink="http://www.w3.org/1999/xlink" x="0px"
	 y="0px" width="53.848px" height="53.667px" viewBox="0 0 53.848 53.667" style="enable-background:new 0 0 53.848 53.667;"
	 xml:space="preserve">
<g id="korea_x5F_1">
	<rect style="fill:none;" width="53.848" height="53.667"/>
	<path style="fill:#588AC6;" d="M26.854,49.667c-0.832,0-1.646-0.34-2.297-0.951c-0.015-0.016-2.146-1.944-4.9-1.944
		c-0.784,0.012-1.455,0.039-2.108,0.063c-0.884,0.032-1.732,0.059-2.558,0.059c-3.722,0-8.005-0.665-11.58-5.63
		c-4.179-5.803-4.188-12.578-0.031-20.149c0.325-0.591,0.454-1.071,0.378-1.422c-0.18-0.828-1.215-1.793-1.595-2.039
		c-0.872-0.556-1.53-1.529-1.795-2.67c-0.263-1.137-0.122-2.37,0.392-3.384l4.59-9.05c0.986-1.945,3.298-2.669,4.977-1.526
		c0.152,0.099,3.958,2.604,7.35,2.604c2.785,0,6.355-1.95,7.389-2.636c1.083-0.718,2.485-0.72,3.573-0.003
		c0.041,0.026,4.088,2.639,7.396,2.639c2.883,0,6.354-1.928,7.342-2.603c1.67-1.139,3.994-0.425,4.984,1.524l4.59,9.05
		c0.516,1.017,0.656,2.251,0.389,3.391c-0.262,1.134-0.918,2.107-1.795,2.666c-0.471,0.312-1.432,1.276-1.59,2.047
		c-0.07,0.351,0.053,0.825,0.375,1.417c4.154,7.568,4.146,14.344-0.025,20.144c-3.58,4.965-7.863,5.636-11.584,5.636
		c-0.822,0-1.676-0.032-2.559-0.064c-0.652-0.024-1.322-0.052-2.012-0.061c-2.854,0-4.963,1.915-4.99,1.934
		C28.518,49.322,27.697,49.667,26.854,49.667z"/>
	<path style="fill:#D66867;" d="M6.275,15.348c-1.032-1.545-2.368-1.213-2.368-1.213l4.589-9.05c0,0,4.663,3.186,9.179,3.186
		c4.362,0,9.179-3.186,9.179-3.186s4.82,3.186,9.18,3.186c4.512,0,9.178-3.186,9.178-3.186l4.59,9.05c0,0-1.42-0.278-2.463,1.356
		L6.275,15.348z"/>
	<path style="fill:none;stroke:#FFFFFF;stroke-linecap:round;stroke-linejoin:round;" d="M26.854,4.785c0,0,4.82,3.186,9.18,3.186
		c4.512,0,9.178-3.186,9.178-3.186l4.59,9.05c0,0-1.42,0.905-2.463,2.54c-1.066,1.672-1.738,4.106-0.088,7.111
		c3.221,5.866,3.469,10.495,0.256,14.96c-3.613,5.017-7.879,4.071-13.309,3.981c-4.26-0.066-7.344,2.896-7.344,2.896
		s-3.083-2.962-7.343-2.896c-5.434,0.09-9.695,1.035-13.312-3.981c-3.213-4.461-2.964-9.094,0.256-14.96
		c1.699-3.093,0.939-5.58-0.18-7.255c-1.032-1.545-2.368-2.396-2.368-2.396l4.589-9.05c0,0,4.663,3.186,9.179,3.186
		C22.037,7.971,26.854,4.785,26.854,4.785z"/>
	
		<line style="fill:none;stroke:#FFFFFF;stroke-linecap:round;stroke-linejoin:round;" x1="5.618" y1="15.491" x2="47.951" y2="15.491"/>
</g>
</svg>
