<?xml version="1.0" encoding="iso-8859-1"?>
<!-- Generator: Adobe Illustrator 16.0.0, SVG Export Plug-In . SVG Version: 6.00 Build 0)  -->
<!DOCTYPE svg PUBLIC "-//W3C//DTD SVG 1.1//EN" "http://www.w3.org/Graphics/SVG/1.1/DTD/svg11.dtd">
<svg version="1.1" id="korea_x5F_4-layer" xmlns="http://www.w3.org/2000/svg" xmlns:xlink="http://www.w3.org/1999/xlink" x="0px"
	 y="0px" width="56.296px" height="36.714px" viewBox="0 0 56.296 36.714" style="enable-background:new 0 0 56.296 36.714;"
	 xml:space="preserve">
<g id="korea_x5F_4">
	<path style="fill:#E9E48A;" d="M50.177,36.714H6.119C2.749,36.714,0,33.97,0,30.595V6.119C0,2.746,2.749,0,6.119,0h44.058
		c3.375,0,6.119,2.746,6.119,6.119v24.476C56.296,33.97,53.552,36.714,50.177,36.714z"/>
	<path style="fill:none;stroke:#FFFFFF;stroke-width:2;stroke-miterlimit:10;" d="M6.119,3.671h44.058
		c1.353,0,2.447,1.097,2.447,2.448v24.476c0,1.354-1.095,2.447-2.447,2.447H6.119c-1.349,0-2.447-1.094-2.447-2.447V6.119
		C3.672,4.768,4.771,3.671,6.119,3.671z"/>
</g>
</svg>
