<?xml version="1.0" encoding="iso-8859-1"?>
<!-- Generator: Adobe Illustrator 16.0.0, SVG Export Plug-In . SVG Version: 6.00 Build 0)  -->
<!DOCTYPE svg PUBLIC "-//W3C//DTD SVG 1.1//EN" "http://www.w3.org/Graphics/SVG/1.1/DTD/svg11.dtd">
<svg version="1.1" id="luxembourg_x5F_c-layer" xmlns="http://www.w3.org/2000/svg" xmlns:xlink="http://www.w3.org/1999/xlink"
	 x="0px" y="0px" width="24px" height="16px" viewBox="0 0 24 16" style="enable-background:new 0 0 24 16;" xml:space="preserve">
<g id="luxembourg_x5F_c">
	<path style="fill:#D66767;" d="M21,15.5H3c-1.378,0-2.5-1.121-2.5-2.5V3c0-1.378,1.122-2.5,2.5-2.5h18c1.379,0,2.5,1.122,2.5,2.5
		v10C23.5,14.379,22.379,15.5,21,15.5z"/>
	<path style="fill:none;stroke:#323232;stroke-width:0.5;stroke-linecap:round;stroke-linejoin:round;stroke-miterlimit:10;" d="
		M3,2h18c0.553,0,1,0.448,1,1v10c0,0.553-0.447,1-1,1H3c-0.553,0-1-0.447-1-1V3C2,2.448,2.447,2,3,2z"/>
	<rect style="fill:none;" width="24" height="16"/>
</g>
</svg>
