<?xml version="1.0" encoding="UTF-8"?>
<!DOCTYPE svg PUBLIC "-//W3C//DTD SVG 1.1 Tiny//EN" "http://www.w3.org/Graphics/SVG/1.1/DTD/svg11-tiny.dtd">
<svg baseProfile="tiny" height="22px" version="1.1" viewBox="0 0 22 22" width="22px" x="0px" xmlns="http://www.w3.org/2000/svg" xmlns:xlink="http://www.w3.org/1999/xlink" y="0px">
<path d="M11.02,22C8.458,21.956,0.516,18.441,0.377,10.597c-0.007-0.459,0.19-0.889,0.542-1.181  C1.287,9.11,1.516,8.645,1.516,8.203c0-0.639-0.365-1.195-0.51-1.309C0.612,6.617,0.375,6.158,0.375,5.671l0.002-2.922  c0-0.562,0.31-1.071,0.809-1.331l1.832-0.95C3.228,0.358,3.467,0.3,3.708,0.3c0.27,0,0.534,0.073,0.766,0.21  c0.01,0.005,1.465,0.844,2.838,0.844c1.068,0,2.52-0.636,2.989-0.881C10.515,0.36,10.757,0.3,11,0.3  c0.239,0,0.478,0.058,0.691,0.168c0.599,0.305,2.004,0.886,3.016,0.886c1.377,0,2.826-0.837,2.841-0.845  C17.777,0.373,18.042,0.3,18.313,0.3c0.242,0,0.481,0.06,0.694,0.171l1.827,0.948c0.5,0.26,0.811,0.77,0.811,1.331l0.002,2.921  c0,0.485-0.236,0.943-0.633,1.224c-0.145,0.113-0.51,0.669-0.51,1.308c0,0.442,0.229,0.908,0.6,1.214  c0.352,0.29,0.549,0.722,0.541,1.181c-0.137,7.66-7.688,11.307-10.535,11.399C11.098,21.999,11.051,22,11.04,22H11.02z" fill="#F4F2E9"/>
<path d="M19.503,8.203c0-1,0.556-1.858,0.931-2.123c0.133-0.094,0.211-0.246,0.211-0.409L20.643,2.75  c0-0.187-0.104-0.357-0.27-0.443l-1.832-0.95c-0.152-0.08-0.337-0.075-0.484,0.014c-0.018,0.01-1.683,0.984-3.351,0.984  c-1.541,0-3.456-0.988-3.475-0.998c-0.146-0.075-0.319-0.075-0.464,0.001c-0.019,0.01-1.909,0.997-3.455,0.997  c-1.668,0-3.332-0.974-3.349-0.984C3.814,1.282,3.63,1.276,3.478,1.356l-1.831,0.95c-0.166,0.086-0.27,0.257-0.27,0.443L1.375,5.671  c0,0.163,0.079,0.315,0.211,0.409c0.375,0.265,0.93,1.123,0.93,2.123c0,0.742-0.358,1.484-0.959,1.983  c-0.117,0.097-0.183,0.242-0.18,0.393C1.502,17.686,8.749,20.961,10.98,21c0.006,0,0.013,0,0.019,0h0.021c0.006,0,0.012,0,0.019,0  l0,0l0,0c0.012,0,0.024,0,0.036-0.001c2.272-0.074,9.44-3.354,9.565-10.419c0.004-0.152-0.063-0.296-0.181-0.393  C19.861,9.687,19.503,8.946,19.503,8.203z M3.701,2.367c0.575,0.301,2.057,0.987,3.611,0.987c1.462,0,3.092-0.71,3.689-0.997  c0.601,0.285,2.244,0.997,3.705,0.997c1.554,0,3.036-0.687,3.61-0.987l1.326,0.688l0.002,1.863H2.375l0.001-1.863L3.701,2.367z   M11.009,20c-1.427-0.012-8.355-2.555-8.626-9.212c0.443-0.425,1.133-1.294,1.133-2.585c0-0.885-0.315-1.702-0.728-2.286H19.23  c-0.412,0.584-0.729,1.401-0.729,2.286c0,1.291,0.689,2.16,1.133,2.585C19.365,17.445,12.438,19.988,11.009,20z" fill="#323232"/>
</svg>
