<?xml version="1.0" encoding="iso-8859-1"?>
<!-- Generator: Adobe Illustrator 16.0.3, SVG Export Plug-In . SVG Version: 6.00 Build 0)  -->
<!DOCTYPE svg PUBLIC "-//W3C//DTD SVG 1.1//EN" "http://www.w3.org/Graphics/SVG/1.1/DTD/svg11.dtd">
<svg version="1.1" id="puerto_x5F_rico_x5F_1-layer"
	 xmlns="http://www.w3.org/2000/svg" xmlns:xlink="http://www.w3.org/1999/xlink" x="0px" y="0px" width="16px" height="20px"
	 viewBox="0 0 16 20" style="enable-background:new 0 0 16 20;" xml:space="preserve">
<g id="puerto_x5F_rico_x5F_1_1_">
	<rect style="fill:none;" width="16" height="20"/>
	<path style="fill:#588AC6;" d="M8,19.5c-0.211,0-0.414-0.043-0.605-0.129c-0.277-0.121-6.859-3.07-6.895-9.362V5
		c0-1.378,1.121-2.5,2.5-2.5h10c1.379,0,2.5,1.122,2.5,2.5v5c-0.037,6.307-6.617,9.25-6.896,9.373C8.412,19.457,8.209,19.5,8,19.5z"
		/>
	<path style="fill:none;stroke:#FFFFFF;stroke-linecap:round;stroke-linejoin:round;" d="M13,4c0.553,0,1,0.448,1,1v5
		c-0.031,5.375-6,8-6,8s-5.969-2.625-6-8V5c0-0.552,0.447-1,1-1H13z"/>
</g>
</svg>
