<?xml version="1.0" encoding="UTF-8"?>
<!DOCTYPE svg PUBLIC "-//W3C//DTD SVG 1.1 Tiny//EN" "http://www.w3.org/Graphics/SVG/1.1/DTD/svg11-tiny.dtd">
<svg baseProfile="tiny" height="20px" version="1.1" viewBox="0 0 24 20" width="24px" x="0px" xmlns="http://www.w3.org/2000/svg" xmlns:xlink="http://www.w3.org/1999/xlink" y="0px">
<path d="M12.036,19.77c-0.143,0-0.283-0.02-0.417-0.06l-7.102-2.05c-3.783-1.18-3.996-2.462-4.059-5.995V5.639  c0-0.069,0.005-0.139,0.014-0.208c0.189-1.334,1.184-2.221,2.534-2.262l18.016-0.001c1.379,0,2.5,1.122,2.5,2.501l-0.002,6.175  c-0.04,3.335-0.239,4.55-3.896,5.795l-7.172,2.072C12.318,19.75,12.178,19.77,12.036,19.77z" fill="#588BC6"/>
<path d="M21.021,4.668c0.554,0,1,0.448,1,1.001v6  c-0.037,3.065,0.01,3.565-2.881,4.55l-7.104,2.051l-7.103-2.051c-2.857-0.891-2.919-1.406-2.975-4.58v-6  c0.086-0.606,0.446-0.95,1.094-0.97L21.021,4.668L21.021,4.668z" fill="none" stroke="#FFFFFF" stroke-linecap="round" stroke-linejoin="round"/>
</svg>
