<?xml version="1.0" encoding="iso-8859-1"?>
<!-- Generator: Adobe Illustrator 16.0.3, SVG Export Plug-In . SVG Version: 6.00 Build 0)  -->
<!DOCTYPE svg PUBLIC "-//W3C//DTD SVG 1.1//EN" "http://www.w3.org/Graphics/SVG/1.1/DTD/svg11.dtd">
<svg version="1.1" id="saudiarabia_x5F_1-layer" xmlns="http://www.w3.org/2000/svg" xmlns:xlink="http://www.w3.org/1999/xlink"
	 x="0px" y="0px" width="16px" height="16px" viewBox="0 0 16 16" style="enable-background:new 0 0 16 16;" xml:space="preserve">
<g id="saudiarabia_x5F_1">
	<path style="fill:#559856;" d="M13,15.5H3c-1.378,0-2.5-1.121-2.5-2.5V3c0-1.379,1.122-2.5,2.5-2.5h10c1.379,0,2.5,1.121,2.5,2.5
		v10C15.5,14.379,14.379,15.5,13,15.5z"/>
	<path style="fill:#FCF8EF;" d="M2.822,2.047l0.934-0.063l0.598,0.301l0.838,0.246l0.592,0.402l0.579,0.34l0.579,0.272l0.526,0.138
		l0.733,0.373c0,0,0.515,0.559,0.545,0.646c0.029,0.089,0.536,0.494,0.536,0.494l0.689,0.229l0.383,0.052l0.409-0.025l0.203-0.153
		l0.255-0.344l0.231-0.346l0.332-0.256l0.324-0.02l0.236,0.297v0.68l0.178,0.236l1.033,0.473l0.604,0.388v0.688v0.797v0.656
		l-1.076,1.82l-1.803,1.444l-1.715,1.271l-1.095,0.414l-1.053,0.466H6.66H5.682l-0.313-0.938l-0.621-2.07
		c0,0-0.296-0.709-0.533-0.945s-0.68-0.798-0.68-0.798L3.003,8c0,0-0.03-0.68-0.325-0.828C2.383,7.025,2.093,6.378,2.005,6.201
		c-0.089-0.178,0-0.817,0-0.817V4.465V3.818V3.182V2.49L2.822,2.047z"/>
	<rect style="fill:none;" width="16" height="16"/>
	<path style="fill:none;stroke:#FFFFFF;stroke-linecap:round;stroke-linejoin:round;" d="M3,2h10c0.553,0,1,0.449,1,1v10
		c0,0.553-0.447,1-1,1H3c-0.552,0-1-0.447-1-1V3C2,2.449,2.448,2,3,2z"/>
</g>
</svg>
