<?xml version="1.0" encoding="utf-8"?>
<!-- Generator: Adobe Illustrator 16.0.0, SVG Export Plug-In . SVG Version: 6.00 Build 0)  -->
<!DOCTYPE svg PUBLIC "-//W3C//DTD SVG 1.1//EN" "http://www.w3.org/Graphics/SVG/1.1/DTD/svg11.dtd">
<svg version="1.1" id="Layer_1" xmlns="http://www.w3.org/2000/svg" xmlns:xlink="http://www.w3.org/1999/xlink" x="0px" y="0px"
	 width="24px" height="24px" viewBox="0 0 24 24" enable-background="new 0 0 24 24" xml:space="preserve">
<path fill="#588BC6" d="M11.854,23.9c-3.74-0.479-10.182-8.564-11.511-13.482C-0.32,7.96,0.402,6.859,1.125,6.368
	C3.154,4.99,7.166,4.167,11.857,4.167c4.627,0,8.721,0.799,10.948,2.138c0.73,0.44,1.484,1.457,0.92,3.802
	c-1.205,5-7.838,13.463-11.58,13.804"/>
<path fill="none" stroke="#FFFFFF" d="M21.875,7.469c3.055,1.713-6.113,15-9.738,15l0,0c-3.625,0-13.055-13.287-10-15
	C6.44,5.055,17.57,5.055,21.875,7.469z"/>
</svg>
