<?xml version="1.0" encoding="UTF-8"?>
<!DOCTYPE svg PUBLIC "-//W3C//DTD SVG 1.1 Tiny//EN" "http://www.w3.org/Graphics/SVG/1.1/DTD/svg11-tiny.dtd">
<svg baseProfile="tiny" height="20px" version="1.1" viewBox="0 0 20 20" width="20px" x="0px" xmlns="http://www.w3.org/2000/svg" xmlns:xlink="http://www.w3.org/1999/xlink" y="0px">
<path d="M9.941,0.297c-0.938,0-1.815,0.254-2.538,0.736c-0.959,0.64-1.768,1.654-1.979,2.815  c-0.14-0.017-0.283-0.025-0.431-0.025c-1.044,0-2.134,0.423-2.997,1.163C0.292,6.45-0.122,9.007,1.018,11.063  c0.164,0.297,0.64,1.041,1.47,1.508c-0.243,0.492-0.397,1.123-0.376,1.943c0.058,2.393,2.145,4.519,4.559,4.644  c0.094,0.004,0.188,0.007,0.282,0.007c1.195,0,2.247-0.373,2.965-0.999c0.492,0.397,1.148,0.706,1.948,0.903  c0.333,0.084,0.684,0.127,1.038,0.127c1.966,0,3.869-1.303,4.521-3.096c0.439-1.207,0.436-2.432-0.015-3.365  c0.659-0.379,1.146-0.992,1.521-1.558c1.233-1.84,0.799-4.662-0.953-6.159c-0.875-0.75-1.97-1.18-3.002-1.18  c-0.115,0-0.228,0.006-0.336,0.016c-0.113-0.604-0.437-1.212-0.973-1.872C12.814,0.926,11.421,0.297,9.941,0.297L9.941,0.297z" fill="#F4F2E9"/>
<path d="M10.014,2.16c0.921,0,1.829,0.426,2.408,1.228c0.813,1.117,0.735,2.611-0.102,3.633l0.084-0.089  c0.582-0.798,1.488-1.222,2.406-1.222c0.608,0,1.224,0.188,1.752,0.574c1.33,0.972,1.617,2.832,0.646,4.161  c-0.581,0.799-1.486,1.222-2.404,1.222c-0.32,0-0.644-0.054-0.951-0.156l-0.008,0.011c1.562,0.51,2.416,2.188,1.904,3.75  c-0.409,1.256-1.577,2.058-2.829,2.058c-0.306,0-0.614-0.049-0.922-0.146c-1.251-0.406-2.067-1.315-2.078-2.52  c0.014-0.114,0.021-0.229,0.019-0.346c-0.014,0.117-0.02,0.231-0.019,0.346c-0.163,1.48-1.419,2.638-2.947,2.646  c-0.002,0-0.007,0-0.011,0c-1.637,0-2.971-1.328-2.977-2.968C3.983,12.92,4.973,11.729,6.3,11.427l0.02-0.005  c-0.005,0.001-0.013,0.003-0.02,0.005l-0.236,0.052c-0.278,0.084-0.564,0.123-0.847,0.123c-0.925,0-1.835-0.427-2.417-1.234  C1.84,9.033,2.14,7.172,3.472,6.209C3.999,5.831,4.608,5.646,5.21,5.646c0.845,0,1.677,0.358,2.258,1.034  C7.51,6.75,7.556,6.82,7.605,6.886l0.022-0.004C7.578,6.811,7.526,6.743,7.47,6.678c-0.798-1.31-0.466-3.034,0.796-3.952  C8.795,2.342,9.407,2.16,10.014,2.16 M10.014,1.214c-0.833,0-1.629,0.258-2.303,0.75C6.765,2.652,6.21,3.705,6.116,4.804  C5.822,4.736,5.519,4.7,5.213,4.7c-0.827,0-1.618,0.255-2.292,0.74C1.167,6.707,0.77,9.163,2.035,10.916  c0.417,0.58,0.985,1.027,1.627,1.307c-0.395,0.619-0.621,1.348-0.618,2.116c0.008,2.154,1.767,3.908,3.92,3.908  c1.154-0.005,2.195-0.499,2.915-1.298c0.457,0.494,1.076,0.883,1.828,1.125c0.395,0.129,0.803,0.193,1.214,0.193  c1.703,0,3.2-1.086,3.729-2.703c0.367-1.127,0.195-2.305-0.373-3.244c0.672-0.272,1.264-0.727,1.697-1.32  c1.271-1.748,0.889-4.206-0.854-5.48c-0.675-0.495-1.474-0.756-2.31-0.756c-0.299,0-0.597,0.035-0.888,0.102  c-0.049-0.717-0.294-1.423-0.737-2.035C12.453,1.818,11.266,1.214,10.014,1.214L10.014,1.214z" fill="#569956"/>
</svg>
