<?xml version="1.0" encoding="iso-8859-1"?>
<!-- Generator: Adobe Illustrator 16.0.3, SVG Export Plug-In . SVG Version: 6.00 Build 0)  -->
<!DOCTYPE svg PUBLIC "-//W3C//DTD SVG 1.1//EN" "http://www.w3.org/Graphics/SVG/1.1/DTD/svg11.dtd">
<svg version="1.1" id="thailand_x5F_3-layer" xmlns="http://www.w3.org/2000/svg" xmlns:xlink="http://www.w3.org/1999/xlink"
	 x="0px" y="0px" width="15px" height="20.604px" viewBox="0 0 15 20.604" style="enable-background:new 0 0 15 20.604;"
	 xml:space="preserve">
<g id="thailand_x5F_3_2_">
	<path style="fill:#588AC6;" d="M12.5,17h-10C1.122,17,0,15.91,0,14.57V2.428C0,1.09,1.122,0,2.5,0h10C13.879,0,15,1.09,15,2.428
		V14.57C15,15.91,13.879,17,12.5,17z"/>
	<path style="fill:none;stroke:#FFFFFF;" d="M2.5,1.5h10c0.552,0,1,0.433,1,0.965v12.068c0,0.533-0.448,0.967-1,0.967h-10
		c-0.552,0-1-0.434-1-0.967V2.465C1.5,1.933,1.948,1.5,2.5,1.5z"/>
	<polygon style="fill:#FFFFFF;" points="8.808,3.323 8.353,4.065 7.756,4.065 7.756,3.323 7.244,3.323 7.244,4.065 6.647,4.065 
		6.192,3.323 5.724,3.323 5.724,4.205 6.477,4.94 6.885,5.939 8.115,5.939 8.523,4.94 9.276,4.205 9.276,3.323 	"/>
	<rect style="fill:none;" width="15" height="20.604"/>
</g>
</svg>
