<?xml version="1.0" encoding="iso-8859-1"?>
<!-- Generator: Adobe Illustrator 16.0.3, SVG Export Plug-In . SVG Version: 6.00 Build 0)  -->
<!DOCTYPE svg PUBLIC "-//W3C//DTD SVG 1.1//EN" "http://www.w3.org/Graphics/SVG/1.1/DTD/svg11.dtd">
<svg version="1.1" id="u_x5F_a_x5F_emirates_x5F_2a-layer"
	 xmlns="http://www.w3.org/2000/svg" xmlns:xlink="http://www.w3.org/1999/xlink" x="0px" y="0px" width="17px" height="29.517px"
	 viewBox="0 0 17 29.517" style="enable-background:new 0 0 17 29.517;" xml:space="preserve">
<g id="u_x5F_a_x5F_emirates_x5F_2a">
	<rect style="fill:none;" width="17" height="29.517"/>
	<path style="fill:#F4F2E9;" d="M17,19.514c0,0.557-0.461,1.008-1.03,1.008H1.03C0.461,20.521,0,20.07,0,19.514V1.008
		C0,0.451,0.461,0,1.03,0H15.97C16.539,0,17,0.451,17,1.008V19.514z"/>
	<polygon style="fill:#6A996A;" points="1,1 1,19.521 16,19.521 16,1 13.857,1 13.857,3 11.714,3 11.714,1 9.572,1 9.572,3 7.429,3 
		7.429,1 5.286,1 5.286,3 3.143,3 3.143,1 	"/>
	<path style="fill-rule:evenodd;clip-rule:evenodd;fill:#FECE94;" d="M13.732,8.705c-0.027-0.949-0.115-1.857-0.999-2.449
		c-0.03-0.02-0.06-0.051-0.094-0.057c-0.365-0.066-0.414-0.301-0.339-0.612c0.021-0.085,0.012-0.177,0.02-0.265
		c0.01-0.117,0.024-0.234,0.04-0.386c0.361,0.181,0.66,0.411,0.908,0.707c0.416,0.498,0.638,1.088,0.707,1.718
		c0.083,0.768,0.102,1.543,0.149,2.332c-0.118,0.01-0.181,0.019-0.244,0.019c-0.762,0.001-1.523,0.006-2.284-0.003
		c-0.166-0.003-0.342-0.031-0.494-0.094c-0.336-0.137-0.457-0.357-0.423-0.718c0.015-0.161,0.044-0.321,0.076-0.48
		c0.009-0.044,0.053-0.08,0.08-0.12c0.042,0.034,0.104,0.06,0.121,0.104c0.077,0.199,0.232,0.298,0.427,0.301
		C12.157,8.711,12.932,8.705,13.732,8.705z"/>
	<g>
		<path style="fill:#FECE94;" d="M4.738,4.387c0.463,0,0.865,0.068,1.206,0.205c0.341,0.135,0.624,0.327,0.848,0.574
			C7.016,5.414,7.184,5.71,7.296,6.054S7.463,6.78,7.463,7.2c0,0.427-0.056,0.813-0.167,1.159C7.184,8.706,7.015,9.001,6.789,9.243
			C6.561,9.485,6.278,9.674,5.937,9.807c-0.341,0.133-0.741,0.2-1.199,0.2H2.788v-5.62H4.738z M4.738,9.039
			c0.239,0,0.456-0.044,0.651-0.132c0.194-0.088,0.358-0.214,0.492-0.376c0.133-0.162,0.235-0.356,0.307-0.583
			C6.26,7.723,6.297,7.47,6.297,7.193c0-0.625-0.142-1.086-0.424-1.388c-0.282-0.3-0.661-0.451-1.134-0.451H3.914v3.685H4.738z"/>
	</g>
</g>
</svg>
