<?xml version="1.0" encoding="iso-8859-1"?>
<!-- Generator: Adobe Illustrator 16.0.3, SVG Export Plug-In . SVG Version: 6.00 Build 0)  -->
<!DOCTYPE svg PUBLIC "-//W3C//DTD SVG 1.1//EN" "http://www.w3.org/Graphics/SVG/1.1/DTD/svg11.dtd">
<svg version="1.1" id="u_x5F_a_x5F_emirates_x5F_2b-layer"
	 xmlns="http://www.w3.org/2000/svg" xmlns:xlink="http://www.w3.org/1999/xlink" x="0px" y="0px" width="23.998px"
	 height="33.592px" viewBox="0 0 23.998 33.592" style="enable-background:new 0 0 23.998 33.592;" xml:space="preserve">
<g id="u_x5F_a_x5F_emirates_x5F_2b">
	<rect style="fill:none;" width="23.998" height="33.592"/>
	<path style="fill:#FCF8EF;" d="M12.223,25.338c-0.266,0-0.52-0.105-0.707-0.293l-3.207-3.208H4.497
		c-0.266,0-0.52-0.105-0.707-0.293c-0.188-0.188-0.293-0.442-0.293-0.707l0.002-4.306l-3.206-3.207
		c-0.391-0.391-0.391-1.023,0-1.414l3.206-3.207V4.851c0-0.553,0.447-1,1-1h3.812l3.206-3.208c0.188-0.188,0.442-0.293,0.708-0.293
		c0.265,0,0.52,0.105,0.707,0.293l3.207,3.208h3.36c0.552,0,1,0.447,1,1v3.853l3.206,3.207c0.391,0.391,0.391,1.023,0,1.414
		l-3.206,3.207l-0.002,4.306c0,0.553-0.448,1-1,1h-3.36l-3.207,3.208C12.742,25.232,12.487,25.338,12.223,25.338z"/>
	<polygon style="fill:#6A996A;" points="19.499,16.117 19.497,20.837 15.723,20.837 12.223,24.338 8.723,20.837 4.497,20.837 
		4.499,16.117 1,12.617 4.499,9.117 4.499,4.851 8.726,4.851 12.225,1.35 15.725,4.851 19.499,4.851 19.499,9.117 22.998,12.617 	
		"/>
	<g>
		<path style="fill-rule:evenodd;clip-rule:evenodd;fill:#FECE94;" d="M15.65,8.259c0.343,0.472,0.374,1.007,0.382,1.558
			c0.306-0.012,0.604,0.03,0.896-0.056c0.202-0.062,0.287-0.176,0.283-0.385c-0.004-0.113-0.014-0.226-0.027-0.338
			c-0.021-0.178-0.01-0.215,0.135-0.367c0.029,0.153,0.051,0.305,0.09,0.451c0.033,0.122,0.076,0.243,0.131,0.356
			c0.107,0.217,0.293,0.315,0.531,0.32c0.136,0.003,0.21-0.07,0.211-0.206c0.001-0.243-0.113-0.439-0.252-0.626
			c-0.111-0.149-0.115-0.147-0.015-0.309c0.054-0.087,0.106-0.173,0.164-0.266c0.192,0.25,0.304,0.522,0.312,0.828
			c0.01,0.419,0.006,0.838,0.009,1.256c0,0.01-0.007,0.02-0.01,0.028c-0.397,0.065-0.729-0.013-1.095-0.256
			c-0.008,0.001-0.017-0.001-0.021,0.003c-0.232,0.225-0.523,0.268-0.828,0.266c-0.167-0.001-0.334,0-0.499,0
			c-0.026,0.14-0.04,0.278-0.077,0.409c-0.141,0.507-0.461,0.875-0.933,1.091c-0.747,0.342-1.527,0.381-2.309,0.14
			c-0.529-0.163-0.785-0.579-0.771-1.133c0.013-0.534,0.17-1.03,0.374-1.516c0.074-0.177,0.161-0.349,0.247-0.534
			c0.054,0.023,0.102,0.043,0.16,0.068c-0.064,0.144-0.125,0.281-0.187,0.419c-0.143,0.325-0.249,0.661-0.271,1.017
			c-0.035,0.558,0.233,0.937,0.798,1.053c0.773,0.158,1.521,0.06,2.213-0.339c0.418-0.24,0.564-0.581,0.495-1.059
			c-0.054-0.367-0.189-0.699-0.413-0.996c-0.021-0.028-0.043-0.076-0.033-0.104C15.437,8.778,15.542,8.524,15.65,8.259z"/>
		<path style="fill-rule:evenodd;clip-rule:evenodd;fill:#FECE94;" d="M16.948,7.796c-0.223-0.115-0.435-0.225-0.654-0.338
			c0.1-0.196,0.195-0.385,0.298-0.587c0.222,0.113,0.44,0.225,0.663,0.34C17.153,7.406,17.054,7.595,16.948,7.796z"/>
		<path style="fill-rule:evenodd;clip-rule:evenodd;fill:#FECE94;" d="M16.73,5.78c0.224,0.117,0.435,0.229,0.658,0.347
			c-0.104,0.198-0.206,0.392-0.311,0.591c-0.22-0.118-0.429-0.231-0.646-0.349C16.534,6.167,16.632,5.976,16.73,5.78z"/>
		<path style="fill-rule:evenodd;clip-rule:evenodd;fill:#FECE94;" d="M17.87,7.429c-0.223-0.118-0.434-0.23-0.654-0.348
			c0.103-0.195,0.201-0.384,0.303-0.577c0.225,0.115,0.439,0.227,0.666,0.342C18.079,7.041,17.978,7.229,17.87,7.429z"/>
	</g>
	<path style="fill:#FECE94;" d="M7.037,9.107C6.836,9.049,6.645,8.972,6.467,8.876C6.289,8.779,6.132,8.667,6,8.537
		C5.867,8.405,5.762,8.254,5.686,8.083C5.608,7.909,5.569,7.719,5.569,7.511c0-0.558,0.165-0.983,0.495-1.277
		c0.329-0.29,0.809-0.438,1.437-0.438c0.175,0,0.347,0.013,0.518,0.04s0.33,0.061,0.479,0.103C8.646,5.981,8.782,6.03,8.904,6.083
		c0.122,0.053,0.228,0.106,0.32,0.159L8.816,7.089C8.71,7.025,8.542,6.953,8.31,6.873c-0.231-0.08-0.507-0.12-0.826-0.12
		c-0.09,0-0.183,0.01-0.274,0.032C7.116,6.807,7.03,6.841,6.954,6.893c-0.077,0.05-0.14,0.117-0.187,0.198
		C6.718,7.173,6.694,7.272,6.694,7.389c0,0.074,0.01,0.145,0.033,0.211C6.748,7.666,6.789,7.731,6.85,7.795
		c0.062,0.063,0.144,0.123,0.248,0.179c0.103,0.058,0.236,0.11,0.403,0.157l0.51,0.144c0.463,0.129,0.82,0.323,1.073,0.581
		C9.337,9.114,9.463,9.469,9.463,9.92c0,0.268-0.052,0.506-0.156,0.719c-0.104,0.214-0.247,0.395-0.427,0.547
		c-0.181,0.152-0.394,0.268-0.639,0.351c-0.244,0.082-0.507,0.124-0.789,0.124c-0.261,0-0.501-0.021-0.722-0.061
		c-0.222-0.039-0.415-0.085-0.583-0.139s-0.306-0.107-0.415-0.159c-0.109-0.054-0.182-0.094-0.219-0.12l0.406-0.887
		c0.064,0.039,0.148,0.078,0.252,0.119c0.104,0.044,0.22,0.086,0.351,0.126c0.13,0.039,0.276,0.073,0.435,0.099
		c0.159,0.026,0.327,0.039,0.504,0.039c0.094,0,0.194-0.012,0.298-0.035c0.104-0.022,0.196-0.063,0.279-0.119
		c0.082-0.056,0.15-0.125,0.202-0.209c0.054-0.082,0.081-0.184,0.081-0.306c0-0.069-0.011-0.14-0.031-0.212
		C8.269,9.725,8.229,9.656,8.17,9.589C8.111,9.524,8.033,9.461,7.935,9.402c-0.099-0.059-0.227-0.11-0.386-0.151L7.037,9.107z"/>
</g>
</svg>
