<?xml version="1.0" encoding="iso-8859-1"?>
<!-- Generator: Adobe Illustrator 16.0.3, SVG Export Plug-In . SVG Version: 6.00 Build 0)  -->
<!DOCTYPE svg PUBLIC "-//W3C//DTD SVG 1.1//EN" "http://www.w3.org/Graphics/SVG/1.1/DTD/svg11.dtd">
<svg version="1.1" id="u_x5F_a_x5F_emirates_x5F_1-layer"
	 xmlns="http://www.w3.org/2000/svg" xmlns:xlink="http://www.w3.org/1999/xlink" x="0px" y="0px" width="17.052px"
	 height="30.454px" viewBox="0 0 17.052 30.454" style="enable-background:new 0 0 17.052 30.454;" xml:space="preserve">
<g id="u_x5F_a_x5F_emirates_x5F_1_1_">
	<rect style="fill:none;" width="17.052" height="30.454"/>
	<path style="fill:#F3F1E7;" d="M8.524,21.393c-6.316,0-7.446-1.991-7.645-2.602c-0.013-0.039-0.023-0.078-0.031-0.118
		c-0.014-0.074-0.353-1.836-0.57-4.489c-0.101-1.235-0.146-2.915-0.178-4.142C0.09,9.604,0.08,9.237,0.07,8.989
		c-0.03-0.736-0.002-2.841-0.001-2.931c0-1.151,0.368-2.016,1.094-2.555C1.287,3.413,1.717,3.12,2.228,3.047
		C2.364,3.028,2.494,3.02,2.622,3.02c0.528,0,1.052,0.149,1.558,0.444c0.386,0.228,0.802,0.388,0.932,0.402
		c0.247-0.001,0.745-0.078,0.882-0.129c0.031-0.013,0.061-0.025,0.091-0.038c-0.443-0.102-0.769-0.193-0.793-0.2
		c-0.3-0.086-0.542-0.307-0.656-0.598C4.522,2.611,4.55,2.285,4.712,2.019C4.814,1.85,5.792,0.37,8.526,0.37
		c1.916,0,2.351,1.84,2.515,2.533c0.023,0.098,0.041,0.183,0.063,0.245l0.059,0.107c0.167,0.331,0.223,0.442,0.52,0.593
		c0.063,0.015,0.136,0.018,0.24,0.018c0.056,0,0.121-0.001,0.197-0.001c-0.041-0.001,0.079-0.032,0.407-0.195l0.108-0.066
		c0.178-0.109,0.342-0.208,0.576-0.319c0.378-0.18,0.654-0.311,1.074-0.311c0.12,0,0.264,0.011,0.457,0.038
		c0.521,0.074,0.949,0.369,1.068,0.458c0.734,0.545,1.174,1.518,1.174,2.603v2.877c-0.005,0.187-0.115,3.884-0.229,5.235
		c-0.185,2.227-0.342,3.327-0.55,4.477c-0.008,0.044-0.019,0.088-0.032,0.131c-0.199,0.609-1.33,2.601-7.555,2.601
		C8.618,21.393,8.526,21.393,8.524,21.393z"/>
	<path style="fill:#588AC6;" d="M15.223,18.482c0,0-0.627,1.93-6.695,1.91l0,0c-6.07,0.02-6.697-1.91-6.697-1.91
		s-0.34-1.752-0.556-4.381C1.14,12.443,1.106,9.873,1.069,8.949c-0.029-0.718,0-2.877,0-2.877c0-0.613,0.122-1.344,0.69-1.766
		c0.157-0.115,0.405-0.24,0.61-0.27c0.479-0.066,0.912,0.061,1.308,0.291c0.417,0.246,1.051,0.529,1.396,0.537
		c0.322,0.008,1.024-0.088,1.299-0.201c0.376-0.154,1.181-0.549,1.32-0.951c0.167-0.492,0.025-0.75-0.228-0.78
		C6.588,2.829,5.567,2.537,5.567,2.537S6.275,1.37,8.526,1.37c1.439,0,1.462,1.794,1.667,2.188c0.23,0.439,0.371,0.844,1.035,1.182
		c0.229,0.117,0.35,0.125,0.891,0.125c0.26,0,0.74-0.244,0.871-0.309c0.225-0.133,0.383-0.242,0.648-0.368
		c0.444-0.21,0.487-0.253,0.967-0.187c0.203,0.029,0.453,0.154,0.607,0.27c0.568,0.422,0.771,1.188,0.771,1.801v2.877
		c0,0-0.113,3.812-0.225,5.152C15.574,16.338,15.419,17.396,15.223,18.482z"/>
	<g>
		<path style="fill:#FECE94;" d="M3.775,5.813h3.504v0.915H4.895v1.129h1.824v0.915H4.895v1.313h2.464V11H3.775V5.813z"/>
	</g>
	<g>
		<path style="fill-rule:evenodd;clip-rule:evenodd;fill:#FECE94;" d="M13.018,5.864c0.17,0.68,0.354,1.358,0.502,2.04
			c0.106,0.487,0.165,0.977,0.239,1.465c0.069,0.446-0.233,0.841-0.782,1.236c-0.044-0.052-0.096-0.084-0.092-0.113
			c0.145-0.919-0.162-1.825-0.346-2.735c-0.074-0.382-0.186-0.762-0.279-1.144c-0.007-0.025-0.014-0.057,0.008-0.079
			c0.225-0.225,0.453-0.448,0.682-0.673C12.972,5.862,12.995,5.863,13.018,5.864z"/>
		<path style="fill-rule:evenodd;clip-rule:evenodd;fill:#FECE94;" d="M11.42,12.333c0.127-0.2,0.475-0.232,0.767-0.309
			c-0.11-0.038-0.223-0.073-0.323-0.114c-0.196-0.079-0.234-0.155-0.109-0.262c0.2-0.171,0.478-0.311,0.832-0.408
			c0.25-0.071,0.475-0.065,0.621,0.001s0.15,0.179,0.007,0.305c-0.019,0.017-0.046,0.032-0.077,0.056
			c-0.254-0.1-0.531-0.13-0.83-0.073c-0.08,0.016-0.172,0.047-0.196,0.08c-0.015,0.022,0.071,0.071,0.135,0.093
			c0.419,0.146,0.866,0.229,1.407,0.114c-0.035,0.12-0.203,0.169-0.379,0.202c-0.46,0.084-0.928,0.161-1.395,0.242
			C11.745,12.281,11.609,12.303,11.42,12.333z"/>
	</g>
</g>
</svg>
