<?xml version="1.0" encoding="UTF-8"?>
<!DOCTYPE svg PUBLIC "-//W3C//DTD SVG 1.1 Tiny//EN" "http://www.w3.org/Graphics/SVG/1.1/DTD/svg11-tiny.dtd">
<svg baseProfile="tiny" height="22px" version="1.1" viewBox="0 0 22 22" width="22px" x="0px" xmlns="http://www.w3.org/2000/svg" xmlns:xlink="http://www.w3.org/1999/xlink" y="0px">
<path d="M11.01,21.851C8.627,21.812,0.388,18.742,0.367,9.425C0.3,5.189,2.777,1.048,2.883,0.873  c0.27-0.446,0.762-0.724,1.284-0.724c0.228,0,0.457,0.054,0.662,0.155C5.362,0.56,6.634,1.051,7.556,1.051  c1.019,0,2.345-0.539,2.771-0.746c0.208-0.102,0.436-0.154,0.663-0.154c0.226,0,0.452,0.052,0.656,0.15  c0.54,0.258,1.826,0.75,2.798,0.75c0.923,0,2.195-0.491,2.739-0.752c0.196-0.096,0.424-0.148,0.651-0.148  c0.521,0,1.014,0.277,1.283,0.724c0.105,0.174,2.583,4.315,2.516,8.57c-0.021,9.177-8.218,12.331-10.536,12.404  c-0.011,0.001-0.056,0.002-0.067,0.002H11.01z" fill="#31917E"/>
<path d="M18.262,1.392c-0.134-0.222-0.415-0.304-0.646-0.19c-0.018,0.008-1.762,0.85-3.172,0.85  c-1.472,0-3.216-0.842-3.234-0.85c-0.14-0.068-0.301-0.067-0.44,0c-0.017,0.009-1.742,0.85-3.213,0.85  c-1.409,0-3.153-0.842-3.171-0.85C4.153,1.086,3.872,1.17,3.738,1.392c-0.1,0.164-2.434,4.069-2.371,8.031  c0.019,8.497,7.536,11.394,9.605,11.428c0.006,0,0.012,0,0.018,0h0.02c0.006,0,0.014,0,0.02,0c0.012,0,0.023,0,0.035-0.001  c2.121-0.067,9.549-2.979,9.567-11.421C20.695,5.461,18.361,1.556,18.262,1.392z M4.379,2.292c0.666,0.279,1.986,0.759,3.177,0.759  c1.387,0,2.881-0.604,3.435-0.85c0.558,0.246,2.065,0.85,3.452,0.85c1.191,0,2.512-0.479,3.178-0.759  c0.279,0.521,0.783,1.536,1.218,2.787H3.16C3.595,3.828,4.1,2.813,4.379,2.292z M11,19.851c-1.757-0.012-8.616-2.76-8.633-10.438  C2.349,8.274,2.555,7.126,2.847,6.079h16.306c0.292,1.048,0.498,2.199,0.48,3.342C19.616,17.091,12.758,19.839,11,19.851z" fill="#FFFFFF"/>
</svg>
