<?xml version="1.0" encoding="UTF-8"?>
<!DOCTYPE svg PUBLIC "-//W3C//DTD SVG 1.1 Tiny//EN" "http://www.w3.org/Graphics/SVG/1.1/DTD/svg11-tiny.dtd">
<svg baseProfile="tiny" height="22px" version="1.1" viewBox="0 0 22 22" width="22px" x="0px" xmlns="http://www.w3.org/2000/svg" xmlns:xlink="http://www.w3.org/1999/xlink" y="0px">
<path d="M11.02,22C8.637,21.961,0.398,18.892,0.377,9.574C0.31,5.339,2.787,1.197,2.893,1.023  c0.27-0.446,0.762-0.724,1.284-0.724c0.228,0,0.457,0.054,0.662,0.155C5.372,0.709,6.644,1.2,7.566,1.2  c1.019,0,2.345-0.539,2.771-0.746C10.545,0.353,10.772,0.3,11,0.3c0.226,0,0.452,0.052,0.656,0.151  c0.54,0.258,1.826,0.75,2.798,0.75c0.923,0,2.195-0.491,2.739-0.751C17.389,0.353,17.616,0.3,17.844,0.3  c0.521,0,1.014,0.277,1.283,0.724c0.105,0.174,2.583,4.316,2.516,8.571c-0.021,9.176-8.218,12.331-10.536,12.404  C11.096,21.999,11.051,22,11.04,22H11.02z" fill="#588BC6"/>
<polygon fill="#D66767" points="4.125,1.781 2.469,5.844 19.656,5.844 17.781,1.875 14.604,2.792 11.016,1.781 7.417,2.75 "/>
<path d="M18.271,1.541c-0.134-0.221-0.415-0.304-0.646-0.19c-0.018,0.008-1.762,0.85-3.172,0.85  c-1.472,0-3.216-0.841-3.234-0.85c-0.14-0.068-0.301-0.067-0.44,0C10.762,1.36,9.037,2.2,7.566,2.2c-1.409,0-3.153-0.841-3.171-0.85  C4.163,1.236,3.882,1.32,3.748,1.541c-0.1,0.165-2.434,4.07-2.371,8.031C1.396,18.069,8.913,20.966,10.982,21  c0.006,0,0.012,0,0.018,0h0.02c0.006,0,0.014,0,0.02,0c0.012,0,0.023,0,0.035-0.001c2.121-0.067,9.549-2.979,9.567-11.42  C20.705,5.611,18.371,1.706,18.271,1.541z M4.389,2.442C5.055,2.721,6.375,3.2,7.566,3.2c1.387,0,2.881-0.603,3.435-0.85  c0.558,0.246,2.065,0.85,3.452,0.85c1.191,0,2.512-0.479,3.178-0.758c0.279,0.521,0.783,1.536,1.218,2.787H3.17  C3.604,3.978,4.109,2.963,4.389,2.442z M11.01,20c-1.757-0.012-8.616-2.76-8.633-10.437C2.359,8.424,2.565,7.275,2.856,6.229h16.306  c0.292,1.048,0.498,2.199,0.48,3.341C19.626,17.24,12.768,19.988,11.01,20z" fill="#FFFFFF"/>
</svg>
