<?xml version="1.0" encoding="iso-8859-1"?>
<!-- Generator: Adobe Illustrator 16.0.3, SVG Export Plug-In . SVG Version: 6.00 Build 0)  -->
<!DOCTYPE svg PUBLIC "-//W3C//DTD SVG 1.1//EN" "http://www.w3.org/Graphics/SVG/1.1/DTD/svg11.dtd">
<svg version="1.1" id="venezuela_x5F_1-layer" xmlns="http://www.w3.org/2000/svg" xmlns:xlink="http://www.w3.org/1999/xlink"
	 x="0px" y="0px" width="16px" height="25px" viewBox="0 0 16 25" style="enable-background:new 0 0 16 25;" xml:space="preserve">
<g id="venezuela_x5F_1_1_">
	<rect style="fill:none;" width="16" height="25"/>
	<path style="fill:#588AC6;" d="M13,19.359l-5,2.375l-5-2.375c-1.305-0.732-2.285-0.963-2.5-2.293V3.014
		c0-1.384,1.123-2.511,2.5-2.511h10c1.379,0,2.5,1.127,2.5,2.511v14.053C15.32,18.459,14.346,18.691,13,19.359z"/>
	<path style="fill:#D66867;" d="M13.037,2.009H2.773C2.441,2.009,2,2.471,2,3.037v2.625h12V3.039C14,2.47,13.369,2.009,13.037,2.009
		z"/>
	<path style="fill:none;stroke:#FFFFFF;stroke-width:1.0023;stroke-linejoin:round;" d="M2.773,2.009h10.264
		C13.369,2.009,14,2.47,14,3.039v13.264c0.01,0.613-0.285,0.852-0.6,1.027L8.01,20.008l-5.408-2.676
		C2.291,17.154,1.99,16.994,2,16.303V3.037C2,2.471,2.441,2.009,2.773,2.009z"/>
	<line style="fill:none;stroke:#FFFFFF;stroke-width:1.0023;stroke-linejoin:round;" x1="2" y1="5.663" x2="14" y2="5.663"/>
</g>
</svg>
