<?xml version="1.0" encoding="iso-8859-1"?>
<!-- Generator: Adobe Illustrator 16.0.3, SVG Export Plug-In . SVG Version: 6.00 Build 0)  -->
<!DOCTYPE svg PUBLIC "-//W3C//DTD SVG 1.1//EN" "http://www.w3.org/Graphics/SVG/1.1/DTD/svg11.dtd">
<svg version="1.1" id="white_x5F_square_x5F_red-layer"
	 xmlns="http://www.w3.org/2000/svg" xmlns:xlink="http://www.w3.org/1999/xlink" x="0px" y="0px" width="16px" height="16px"
	 viewBox="0 0 16 16" style="enable-background:new 0 0 16 16;" xml:space="preserve">
<g id="white_x5F_square_x5F_red">
	<rect style="fill:none;" width="16" height="16"/>
	<path style="fill:#F4F1E8;" d="M13,15.5H3c-1.378,0-2.5-1.121-2.5-2.5V3c0-1.378,1.122-2.5,2.5-2.5h10c1.379,0,2.5,1.122,2.5,2.5
		v10C15.5,14.379,14.379,15.5,13,15.5z"/>
	<path style="fill:none;stroke:#D66867;stroke-miterlimit:10;" d="M3,2h10c0.553,0,1,0.448,1,1v10c0,0.553-0.447,1-1,1H3
		c-0.552,0-1-0.447-1-1V3C2,2.448,2.448,2,3,2z"/>
</g>
</svg>
