<?xml version="1.0" encoding="UTF-8"?>
<!DOCTYPE svg PUBLIC "-//W3C//DTD SVG 1.1 Tiny//EN" "http://www.w3.org/Graphics/SVG/1.1/DTD/svg11-tiny.dtd">
<svg baseProfile="tiny" height="18px" version="1.1" viewBox="0 0 24 18" width="24px" x="0px" xmlns="http://www.w3.org/2000/svg" xmlns:xlink="http://www.w3.org/1999/xlink" y="0px">
<path d="M12,17.5c-0.34,0-0.673-0.117-0.938-0.329C11.056,17.166,10.185,16.5,9.06,16.5  c-0.321,0.004-0.595,0.014-0.862,0.021c-0.361,0.012-0.708,0.021-1.045,0.021c-1.52,0-3.27-0.23-4.731-1.945  c-1.707-2.003-1.711-4.343-0.013-6.958c0.133-0.204,0.185-0.37,0.154-0.491C2.49,6.862,2.067,6.529,1.912,6.444  C1.555,6.252,1.287,5.916,1.179,5.522c-0.108-0.393-0.05-0.819,0.16-1.169l1.875-3.125C3.617,0.556,4.562,0.306,5.247,0.7  C5.31,0.735,6.864,1.6,8.25,1.6c1.137,0,2.596-0.673,3.018-0.91c0.443-0.248,1.016-0.249,1.46-0.001  C12.745,0.698,14.398,1.6,15.75,1.6c1.178,0,2.596-0.666,3-0.899c0.682-0.393,1.632-0.147,2.036,0.527l1.875,3.125  c0.211,0.351,0.269,0.778,0.159,1.171c-0.107,0.392-0.375,0.728-0.733,0.921c-0.192,0.108-0.585,0.441-0.649,0.707  c-0.03,0.121,0.021,0.285,0.153,0.489c1.697,2.614,1.693,4.954-0.011,6.957c-1.463,1.715-3.213,1.946-4.732,1.946  c-0.336,0-0.685-0.011-1.046-0.022c-0.267-0.008-0.54-0.018-0.821-0.021c-1.166,0-2.029,0.661-2.039,0.668  C12.68,17.381,12.344,17.5,12,17.5z" fill="#F4F2E9"/>
<path d="M12,2c0,0,1.969,1.1,3.75,1.1  C17.594,3.1,19.5,2,19.5,2l1.875,3.125c0,0-2.375,1.281-1.042,3.333c1.315,2.026,1.417,3.625,0.104,5.167  C18.961,15.357,17.219,15.031,15,15c-1.74-0.023-3,1-3,1s-1.26-1.023-3-1c-2.219,0.031-3.961,0.357-5.438-1.375  c-1.313-1.541-1.212-3.141,0.104-5.167C5,6.406,2.625,5.125,2.625,5.125L4.5,2c0,0,1.906,1.1,3.75,1.1C10.032,3.1,12,2,12,2z" fill="none" stroke="#323232" stroke-linecap="round" stroke-linejoin="round"/>
</svg>
