<?xml version="1.0" encoding="iso-8859-1"?>
<!-- Generator: Adobe Illustrator 16.0.3, SVG Export Plug-In . SVG Version: 6.00 Build 0)  -->
<!DOCTYPE svg PUBLIC "-//W3C//DTD SVG 1.1//EN" "http://www.w3.org/Graphics/SVG/1.1/DTD/svg11.dtd">
<svg version="1.1" id="white_x5F_shield_x5F_m-layer"
	 xmlns="http://www.w3.org/2000/svg" xmlns:xlink="http://www.w3.org/1999/xlink" x="0px" y="0px" width="35.007px"
	 height="38.611px" viewBox="0 0 35.007 38.611" style="enable-background:new 0 0 35.007 38.611;" xml:space="preserve">
<g id="white_x5F_shield_x5F_m_1_">
	<rect x="0.001" style="fill:none;" width="35.007" height="38.611"/>
	<path style="fill:#FCF8EF;" d="M17.503,38.611c-7.316,0-14.758-7.156-14.813-15.797c-0.021-3.559-1.557-4.702-1.621-4.748
		c-1.063-0.733-1.385-2.162-0.732-3.253l3.02-5.031C3.79,9.06,4.583,8.611,5.427,8.611h24.149c0.844,0,1.639,0.448,2.072,1.171
		l3.018,5.031c0.674,1.123,0.318,2.6-0.793,3.292c-0.023,0.02-1.535,1.172-1.559,4.71C32.26,31.457,24.82,38.611,17.503,38.611z"/>
	<path style="fill:none;stroke:#588AC6;stroke-linecap:round;stroke-linejoin:round;stroke-miterlimit:10;" d="M29.578,11.026
		l3.02,5.031c0,0-2.664,1.66-2.697,6.742c-0.049,7.797-7.063,13.398-12.396,13.398c-5.334,0-12.348-5.602-12.398-13.398
		c-0.031-5.082-2.695-6.742-2.695-6.742l3.018-5.031H29.578z"/>
	<path style="fill:#578AC5;" d="M20.463,26.9v6.221h-1.176v-4.203l-1.358,2.725h-0.92l-1.287-2.619v4.098h-1.18V26.9h1.33
		l1.633,3.424l1.622-3.424H20.463z"/>
</g>
</svg>
