<svg width="20" height="26" viewBox="0 0 20 26" fill="none" xmlns="http://www.w3.org/2000/svg">
<g id="default / airport">
<g id="POI-base">
<g id="Category_Master">
<g id="Baseshape_Dot">
<path id="Outline Outside" d="M1.5 12C1.5 7.30558 5.30558 3.5 10 3.5C14.6944 3.5 18.5 7.30558 18.5 12C18.5 16.6944 14.6944 20.5 10 20.5C5.30558 20.5 1.5 16.6944 1.5 12Z" fill="#6BC9FF" stroke="#4A91C5"/>
</g>
</g>
<g id="Icon_Master">
<g id="airport">
<path id="Vector" d="M6.8 15.2144C6.7 15.1144 6.7 14.9644 6.85 14.6644L5.4 13.8144L5.85 13.3644L7.45 13.7144C8 12.9644 8.75 11.9644 9.6 11.0644L5 9.51436L6.15 8.36436L11.7 8.81436C13.6 7.01436 14.45 6.76436 14.8 7.16436C15.2 7.56436 14.95 8.41436 13.15 10.2644L13.6 15.8144L12.5 17.0144L11 12.4144C10.05 13.2644 9.1 14.0144 8.35 14.5644L8.7 16.1644L8.25 16.6144L7.4 15.1644C7.05 15.2644 6.9 15.3144 6.8 15.2144Z" fill="white"/>
</g>
</g>
</g>
</g>
</svg>
