<svg width="20" height="26" viewBox="0 0 20 26" fill="none" xmlns="http://www.w3.org/2000/svg">
<g id="default / amusement-park">
<g id="POI-base">
<g id="Category_Master">
<g id="Baseshape_Pin">
<path id="shape" d="M6.12903 20.4794L6.12726 20.4777C3.78964 18.19 2.64527 16.3664 2.07698 14.8457C1.50986 13.3281 1.5 12.0735 1.5 10.8565C1.5 6.24879 5.30485 2.5 9.99133 2.5C14.6791 2.5 18.5 6.25003 18.5 10.8565C18.5 12.0735 18.4901 13.3281 17.923 14.8457C17.3547 16.3664 16.2104 18.19 13.8728 20.4777L13.8717 20.4787L9.99205 24.2977L6.12903 20.4794Z" fill="#45BF94" stroke="#308C7A"/>
</g>
</g>
<g id="Icon_Master">
<g id="amusement-park">
<path id="Vector" d="M13.25 11.75C13.2502 11.1558 13.0874 10.5729 12.7795 10.0647C12.4715 9.55653 12.0301 9.14251 11.5033 8.86765C10.9765 8.5928 10.3844 8.46764 9.79137 8.50579C9.19839 8.54393 8.6272 8.74392 8.13993 9.084C7.65266 9.42409 7.26796 9.89125 7.02764 10.4347C6.78733 10.9782 6.7006 11.5771 6.7769 12.1664C6.8532 12.7557 7.0896 13.3128 7.46039 13.7771C7.83119 14.2414 8.32219 14.5952 8.88 14.8L8 17H12L11.12 14.8C11.7437 14.5695 12.282 14.1538 12.6628 13.6087C13.0435 13.0635 13.2484 12.4149 13.25 11.75ZM10.75 13.865L10.19 12.465C10.298 12.422 10.3877 12.3427 10.4435 12.2407C10.4994 12.1387 10.518 12.0205 10.496 11.9063C10.4741 11.7921 10.4131 11.6891 10.3235 11.6151C10.2339 11.541 10.1213 11.5005 10.005 11.5005C9.88873 11.5005 9.7761 11.541 9.68648 11.6151C9.59686 11.6891 9.53585 11.7921 9.51395 11.9063C9.49205 12.0205 9.51063 12.1387 9.56648 12.2407C9.62234 12.3427 9.71199 12.422 9.82 12.465L9.26 13.865C8.75959 13.6881 8.33783 13.3399 8.06928 12.8821C7.80072 12.4243 7.70265 11.8863 7.7924 11.3632C7.88216 10.8401 8.15395 10.3655 8.55975 10.0234C8.96556 9.68131 9.47923 9.49368 10.01 9.49368C10.5408 9.49368 11.0544 9.68131 11.4602 10.0234C11.866 10.3655 12.1378 10.8401 12.2276 11.3632C12.3173 11.8863 12.2193 12.4243 11.9507 12.8821C11.6822 13.3399 11.2604 13.6881 10.76 13.865H10.75ZM6 9V8.5H7.5V9C7.5 9.13261 7.44732 9.25979 7.35355 9.35355C7.25979 9.44732 7.13261 9.5 7 9.5H6.5C6.36739 9.5 6.24021 9.44732 6.14645 9.35355C6.05268 9.25979 6 9.13261 6 9ZM9.25 7.5V7H10.75V7.5C10.75 7.63261 10.6973 7.75979 10.6036 7.85355C10.5098 7.94732 10.3826 8 10.25 8H9.75C9.61739 8 9.49021 7.94732 9.39645 7.85355C9.30268 7.75979 9.25 7.63261 9.25 7.5ZM12.5 9V8.5H14V9C14 9.13261 13.9473 9.25979 13.8536 9.35355C13.7598 9.44732 13.6326 9.5 13.5 9.5H13C12.8674 9.5 12.7402 9.44732 12.6464 9.35355C12.5527 9.25979 12.5 9.13261 12.5 9ZM6 12.5H5.5C5.36739 12.5 5.24021 12.4473 5.14645 12.3536C5.05268 12.2598 5 12.1326 5 12V11.5H6.5V12C6.5 12.1326 6.44732 12.2598 6.35355 12.3536C6.25979 12.4473 6.13261 12.5 6 12.5ZM15 12C15 12.1326 14.9473 12.2598 14.8536 12.3536C14.7598 12.4473 14.6326 12.5 14.5 12.5H14C13.8674 12.5 13.7402 12.4473 13.6464 12.3536C13.5527 12.2598 13.5 12.1326 13.5 12V11.5H15V12ZM6 14.5H7.5V15C7.5 15.1326 7.44732 15.2598 7.35355 15.3536C7.25979 15.4473 7.13261 15.5 7 15.5H6.5C6.36739 15.5 6.24021 15.4473 6.14645 15.3536C6.05268 15.2598 6 15.1326 6 15V14.5ZM12.5 14.5H14V15C14 15.1326 13.9473 15.2598 13.8536 15.3536C13.7598 15.4473 13.6326 15.5 13.5 15.5H13C12.8674 15.5 12.7402 15.4473 12.6464 15.3536C12.5527 15.2598 12.5 15.1326 12.5 15V14.5Z" fill="white"/>
</g>
</g>
</g>
</g>
</svg>
