<svg width="20" height="26" viewBox="0 0 20 26" fill="none" xmlns="http://www.w3.org/2000/svg">
<g id="default / art-gallery">
<g id="POI-base">
<g id="Category_Master">
<g id="Baseshape_Pin">
<path id="shape" d="M6.12903 20.4794L6.12726 20.4777C3.78964 18.19 2.64527 16.3664 2.07698 14.8457C1.50986 13.3281 1.5 12.0735 1.5 10.8565C1.5 6.24879 5.30485 2.5 9.99133 2.5C14.6791 2.5 18.5 6.25003 18.5 10.8565C18.5 12.0735 18.4901 13.3281 17.923 14.8457C17.3547 16.3664 16.2104 18.19 13.8728 20.4777L13.8717 20.4787L9.99205 24.2977L6.12903 20.4794Z" fill="#CD81DA" stroke="#8F5EAB"/>
</g>
</g>
<g id="Icon_Master">
<g id="art-gallery">
<path id="Vector" d="M12.5 9.5L10 7L7.5 9.5H5V16.5H15V9.5H12.5ZM10 8L11.5 9.5H8.5L10 8ZM14 15.5H6V10.5H14V15.5ZM13 14.5H7V11.5H13V14.5Z" fill="white"/>
</g>
</g>
</g>
</g>
</svg>
