<svg width="20" height="26" viewBox="0 0 20 26" fill="none" xmlns="http://www.w3.org/2000/svg">
<g id="default / atm">
<g id="POI-base">
<g id="Category_Master">
<g id="Baseshape_Pin">
<path id="shape" d="M6.12903 20.4794L6.12726 20.4777C3.78964 18.19 2.64527 16.3664 2.07698 14.8457C1.50986 13.3281 1.5 12.0735 1.5 10.8565C1.5 6.24879 5.30485 2.5 9.99133 2.5C14.6791 2.5 18.5 6.25003 18.5 10.8565C18.5 12.0735 18.4901 13.3281 17.923 14.8457C17.3547 16.3664 16.2104 18.19 13.8728 20.4777L13.8717 20.4787L9.99205 24.2977L6.12903 20.4794Z" fill="#A0B1DA" stroke="#7182AB"/>
</g>
</g>
<g id="Icon_Master">
<g id="atm">
<path id="Vector" d="M8.875 10.875H11.125V11.625H8.875V10.875ZM15 8.5V9.5C15 9.89782 14.842 10.2794 14.5607 10.5607C14.2794 10.842 13.8978 11 13.5 11H13V17H7V11H6.5C6.10218 11 5.72064 10.842 5.43934 10.5607C5.15804 10.2794 5 9.89782 5 9.5V8.5C5 8.10218 5.15804 7.72064 5.43934 7.43934C5.72064 7.15804 6.10218 7 6.5 7H13.5C13.8978 7 14.2794 7.15804 14.5607 7.43934C14.842 7.72064 15 8.10218 15 8.5ZM12 14H8V14.5L9 15.5H9.5V15H12V14ZM12 10.5C12 10.3674 11.9473 10.2402 11.8536 10.1464C11.7598 10.0527 11.6326 10 11.5 10H8.5C8.36739 10 8.24021 10.0527 8.14645 10.1464C8.05268 10.2402 8 10.3674 8 10.5V12C8 12.1326 8.05268 12.2598 8.14645 12.3536C8.24021 12.4473 8.36739 12.5 8.5 12.5H11.5C11.6326 12.5 11.7598 12.4473 11.8536 12.3536C11.9473 12.2598 12 12.1326 12 12V10.5ZM14 8H6V10H7V9H13V10H14V8Z" fill="white"/>
</g>
</g>
</g>
</g>
</svg>
