<svg width="20" height="26" viewBox="0 0 20 26" fill="none" xmlns="http://www.w3.org/2000/svg">
<g id="default / attraction">
<g id="POI-base">
<g id="Category_Master">
<g id="Baseshape_Pin">
<path id="shape" d="M6.12903 20.4794L6.12726 20.4777C3.78964 18.19 2.64527 16.3664 2.07698 14.8457C1.50986 13.3281 1.5 12.0735 1.5 10.8565C1.5 6.24879 5.30485 2.5 9.99133 2.5C14.6791 2.5 18.5 6.25003 18.5 10.8565C18.5 12.0735 18.4901 13.3281 17.923 14.8457C17.3547 16.3664 16.2104 18.19 13.8728 20.4777L13.8717 20.4787L9.99205 24.2977L6.12903 20.4794Z" fill="#CD81DA" stroke="#8F5EAB"/>
</g>
</g>
<g id="Icon_Master">
<g id="attraction">
<path id="Vector" d="M13 12.25C13 12.4972 12.9267 12.7389 12.7893 12.9445C12.652 13.15 12.4568 13.3102 12.2284 13.4048C11.9999 13.4995 11.7486 13.5242 11.5061 13.476C11.2637 13.4278 11.0409 13.3087 10.8661 13.1339C10.6913 12.9591 10.5722 12.7363 10.524 12.4939C10.4758 12.2514 10.5005 12.0001 10.5952 11.7716C10.6898 11.5432 10.85 11.348 11.0555 11.2107C11.2611 11.0733 11.5028 11 11.75 11C12.0815 11 12.3995 11.1317 12.6339 11.3661C12.8683 11.6005 13 11.9185 13 12.25ZM15 9V14.5C15 14.7652 14.8946 15.0196 14.7071 15.2071C14.5196 15.3946 14.2652 15.5 14 15.5H6C5.73478 15.5 5.48043 15.3946 5.29289 15.2071C5.10536 15.0196 5 14.7652 5 14.5V9H6.5V8H8.5V9H15ZM8.5 10H6.5V11H8.5V10ZM14 12.25C14 11.805 13.868 11.37 13.6208 11C13.3736 10.63 13.0222 10.3416 12.611 10.1713C12.1999 10.001 11.7475 9.95642 11.311 10.0432C10.8746 10.13 10.4737 10.3443 10.159 10.659C9.84434 10.9737 9.63005 11.3746 9.54323 11.811C9.45642 12.2475 9.50097 12.6999 9.67127 13.111C9.84157 13.5222 10.13 13.8736 10.5 14.1208C10.87 14.368 11.305 14.5 11.75 14.5C12.0457 14.5007 12.3385 14.4429 12.6118 14.3301C12.8851 14.2172 13.1334 14.0515 13.3425 13.8425C13.5515 13.6334 13.7172 13.3851 13.8301 13.1118C13.9429 12.8385 14.0007 12.5457 14 12.25Z" fill="white"/>
</g>
</g>
</g>
</g>
</svg>
