<svg width="20" height="26" viewBox="0 0 20 26" fill="none" xmlns="http://www.w3.org/2000/svg">
<g id="default / bank">
<g id="POI-base">
<g id="Category_Master">
<g id="Baseshape_Pin">
<path id="shape" d="M6.12903 20.4794L6.12726 20.4777C3.78964 18.19 2.64527 16.3664 2.07698 14.8457C1.50986 13.3281 1.5 12.0735 1.5 10.8565C1.5 6.24879 5.30485 2.5 9.99133 2.5C14.6791 2.5 18.5 6.25003 18.5 10.8565C18.5 12.0735 18.4901 13.3281 17.923 14.8457C17.3547 16.3664 16.2104 18.19 13.8728 20.4777L13.8717 20.4787L9.99205 24.2977L6.12903 20.4794Z" fill="#A0B1DA" stroke="#7182AB"/>
</g>
</g>
<g id="Icon_Master">
<g id="bank">
<path id="Vector" d="M11.0001 15.435V17H9.50015V15.56C8.71209 15.5045 7.96869 15.1735 7.40015 14.625L8.09015 13.855C8.58715 14.3057 9.23419 14.5553 9.90515 14.555C10.6551 14.555 11.1951 14.19 11.1951 13.505C11.1951 12.915 10.9001 12.65 9.80015 12.315C8.32515 11.86 7.68515 11.27 7.68515 10.2C7.68515 9.13 8.42515 8.5 9.50015 8.32V7H11.0001V8.375C11.5221 8.49747 12.0031 8.75429 12.3951 9.12L11.7351 9.885C11.3014 9.49877 10.7409 9.28526 10.1601 9.285C9.52515 9.285 9.07015 9.57 9.07015 10.12C9.07015 10.67 9.34515 10.85 10.5151 11.22C11.6851 11.59 12.6001 12.115 12.6001 13.435C12.602 13.901 12.4442 14.3535 12.1531 14.7174C11.862 15.0813 11.4552 15.3345 11.0001 15.435Z" fill="white"/>
</g>
</g>
</g>
</g>
</svg>
