<svg width="20" height="26" viewBox="0 0 20 26" fill="none" xmlns="http://www.w3.org/2000/svg">
<g id="default / bookstore">
<g id="POI-base">
<g id="Category_Master">
<g id="Baseshape_Pin">
<path id="shape" d="M6.12903 20.4794L6.12726 20.4777C3.78964 18.19 2.64527 16.3664 2.07698 14.8457C1.50986 13.3281 1.5 12.0735 1.5 10.8565C1.5 6.24879 5.30485 2.5 9.99133 2.5C14.6791 2.5 18.5 6.25003 18.5 10.8565C18.5 12.0735 18.4901 13.3281 17.923 14.8457C17.3547 16.3664 16.2104 18.19 13.8728 20.4777L13.8717 20.4787L9.99205 24.2977L6.12903 20.4794Z" fill="#E265A7" stroke="#9E4C88"/>
</g>
</g>
<g id="Icon_Master">
<g id="bookstore">
<path id="Vector" d="M7.92 7C6.445 7.835 5.64 8.665 5.5 9.5V16.5C5.5 16.6326 5.55268 16.7598 5.64645 16.8536C5.74021 16.9473 5.86739 17 6 17H12.5V9.5H6.535C6.655 9.21 7.035 8.69 8.185 8H14V15.5H15V7H7.92ZM7 12H11V13H7V12Z" fill="white"/>
</g>
</g>
</g>
</g>
</svg>
