<svg width="20" height="26" viewBox="0 0 20 26" fill="none" xmlns="http://www.w3.org/2000/svg">
<g id="default / bowling">
<g id="POI-base">
<g id="Category_Master">
<g id="Baseshape_Pin">
<path id="shape" d="M6.12903 20.4794L6.12726 20.4777C3.78964 18.19 2.64527 16.3664 2.07698 14.8457C1.50986 13.3281 1.5 12.0735 1.5 10.8565C1.5 6.24879 5.30485 2.5 9.99133 2.5C14.6791 2.5 18.5 6.25003 18.5 10.8565C18.5 12.0735 18.4901 13.3281 17.923 14.8457C17.3547 16.3664 16.2104 18.19 13.8728 20.4777L13.8717 20.4787L9.99205 24.2977L6.12903 20.4794Z" fill="#C19D95" stroke="#87737B"/>
</g>
</g>
<g id="Icon_Master">
<g id="bowling">
<path id="Vector" d="M11.345 9.69C10.3941 9.69222 9.48212 10.0674 8.805 10.735C8.89755 10.9242 9.00106 11.1078 9.115 11.285C9.54696 11.8669 9.80057 12.5617 9.845 13.285C9.74414 14.3134 9.55171 15.3308 9.27 16.325C9.87488 16.7598 10.6001 16.9957 11.345 17C12.3144 17 13.244 16.6149 13.9295 15.9295C14.6149 15.244 15 14.3144 15 13.345C15 12.3756 14.6149 11.446 13.9295 10.7605C13.244 10.0751 12.3144 9.69 11.345 9.69ZM11.565 12.19C11.5575 12.1103 11.5668 12.03 11.5922 11.9541C11.6176 11.8782 11.6585 11.8084 11.7124 11.7493C11.7663 11.6901 11.8319 11.6428 11.9051 11.6105C11.9783 11.5781 12.0575 11.5614 12.1375 11.5614C12.2175 11.5614 12.2967 11.5781 12.3699 11.6105C12.4431 11.6428 12.5087 11.6901 12.5626 11.7493C12.6165 11.8084 12.6574 11.8782 12.6828 11.9541C12.7082 12.03 12.7175 12.1103 12.71 12.19C12.7175 12.2697 12.7082 12.35 12.6828 12.4259C12.6574 12.5018 12.6165 12.5716 12.5626 12.6307C12.5087 12.6899 12.4431 12.7372 12.3699 12.7695C12.2967 12.8019 12.2175 12.8186 12.1375 12.8186C12.0575 12.8186 11.9783 12.8019 11.9051 12.7695C11.8319 12.7372 11.7663 12.6899 11.7124 12.6307C11.6585 12.5716 11.6176 12.5018 11.5922 12.4259C11.5668 12.35 11.5575 12.2697 11.565 12.19ZM12.525 14.305C12.4097 14.307 12.2964 14.2745 12.1996 14.2118C12.1028 14.1491 12.0269 14.0589 11.9816 13.9528C11.9363 13.8467 11.9237 13.7295 11.9453 13.6162C11.967 13.5029 12.0219 13.3987 12.1031 13.3168C12.1843 13.2348 12.2881 13.179 12.4012 13.1564C12.5143 13.1337 12.6316 13.1453 12.7381 13.1897C12.8446 13.2341 12.9354 13.3092 12.999 13.4054C13.0625 13.5016 13.096 13.6147 13.095 13.73C13.0957 13.8055 13.0814 13.8804 13.0532 13.9504C13.0249 14.0204 12.9831 14.0842 12.9301 14.1381C12.8772 14.1919 12.8142 14.2348 12.7447 14.2643C12.6752 14.2938 12.6005 14.3093 12.525 14.31V14.305ZM13.685 13.15C13.6097 13.15 13.5352 13.1351 13.4657 13.1061C13.3962 13.0772 13.3332 13.0347 13.2802 12.9813C13.2272 12.9278 13.1853 12.8644 13.1569 12.7947C13.1286 12.7249 13.1143 12.6503 13.115 12.575C13.115 12.4611 13.1489 12.3497 13.2123 12.255C13.2757 12.1604 13.3658 12.0867 13.4711 12.0433C13.5765 11.9999 13.6924 11.9888 13.804 12.0114C13.9157 12.034 14.0181 12.0893 14.0984 12.1702C14.1786 12.2511 14.2329 12.3541 14.2546 12.4659C14.2762 12.5778 14.2641 12.6936 14.2198 12.7985C14.1755 12.9035 14.101 12.993 14.0058 13.0555C13.9106 13.1181 13.7989 13.151 13.685 13.15ZM7.685 10.33C7.685 11.44 8.84 12.18 8.84 13.29C8.69152 14.4121 8.46768 15.523 8.17 16.615C8.14262 16.7259 8.07808 16.8242 7.9871 16.8933C7.89613 16.9624 7.78422 16.9983 7.67 16.995H6.17C6.05578 16.9983 5.94387 16.9624 5.8529 16.8933C5.76192 16.8242 5.69738 16.7259 5.67 16.615C5.37035 15.5251 5.14648 14.4158 5 13.295C5 12.185 6.155 11.445 6.155 10.335C6.155 10.335 6.155 10.025 6.125 9.835L5.795 8.335C5.78735 8.25852 5.78735 8.18147 5.795 8.105C5.8028 7.81007 5.92513 7.52977 6.13606 7.3235C6.347 7.11722 6.62997 7.00119 6.925 7C7.22518 6.99464 7.51527 7.10843 7.73174 7.31647C7.94821 7.52451 8.07343 7.80984 8.08 8.11C8.08 8.20476 8.06653 8.29903 8.04 8.39L7.72 9.84C7.7 10.025 7.69 10.335 7.69 10.335L7.685 10.33Z" fill="white"/>
</g>
</g>
</g>
</g>
</svg>
