<svg width="20" height="26" viewBox="0 0 20 26" fill="none" xmlns="http://www.w3.org/2000/svg">
<g id="default / bus">
<g id="POI-base">
<g id="Category_Master">
<g id="Baseshape_Dot">
<path id="Outline Outside" d="M1.5 12C1.5 7.30558 5.30558 3.5 10 3.5C14.6944 3.5 18.5 7.30558 18.5 12C18.5 16.6944 14.6944 20.5 10 20.5C5.30558 20.5 1.5 16.6944 1.5 12Z" fill="#6BC9FF" stroke="#4A91C5"/>
</g>
</g>
<g id="Icon_Master">
<g id="bus">
<path id="Vector" d="M14 9V7.75C14 7.55109 13.921 7.36032 13.7803 7.21967C13.6397 7.07902 13.4489 7 13.25 7H6.75C6.55109 7 6.36032 7.07902 6.21967 7.21967C6.07902 7.36032 6 7.55109 6 7.75V9H5.5V11H6V16.5C6 16.6326 6.05268 16.7598 6.14645 16.8536C6.24021 16.9473 6.36739 17 6.5 17H7.5C7.63261 17 7.75979 16.9473 7.85355 16.8536C7.94732 16.7598 8 16.6326 8 16.5V16H12V16.5C12 16.6326 12.0527 16.7598 12.1464 16.8536C12.2402 16.9473 12.3674 17 12.5 17H13.5C13.6326 17 13.7598 16.9473 13.8536 16.8536C13.9473 16.7598 14 16.6326 14 16.5V11H14.5V9H14ZM7 8H13V9H7V8ZM7 10H13V13H7V10ZM8.5 15H7.25C7.17238 14.9418 7.10938 14.8663 7.06598 14.7795C7.02259 14.6927 7 14.597 7 14.5C7 14.403 7.02259 14.3073 7.06598 14.2205C7.10938 14.1337 7.17238 14.0582 7.25 14H8.5V15ZM11.5 14H12.75C12.8276 14.0582 12.8906 14.1337 12.934 14.2205C12.9774 14.3073 13 14.403 13 14.5C13 14.597 12.9774 14.6927 12.934 14.7795C12.8906 14.8663 12.8276 14.9418 12.75 15H11.5V14Z" fill="white"/>
</g>
</g>
</g>
</g>
</svg>
