<svg width="20" height="26" viewBox="0 0 20 26" fill="none" xmlns="http://www.w3.org/2000/svg">
<g id="default / business">
<g id="POI-base">
<g id="Category_Master">
<g id="Baseshape_Pin">
<path id="shape" d="M6.12903 20.4794L6.12726 20.4777C3.78964 18.19 2.64527 16.3664 2.07698 14.8457C1.50986 13.3281 1.5 12.0735 1.5 10.8565C1.5 6.24879 5.30485 2.5 9.99133 2.5C14.6791 2.5 18.5 6.25003 18.5 10.8565C18.5 12.0735 18.4901 13.3281 17.923 14.8457C17.3547 16.3664 16.2104 18.19 13.8728 20.4777L13.8717 20.4787L9.99205 24.2977L6.12903 20.4794Z" fill="#A0B1DA" stroke="#7182AB"/>
</g>
</g>
<g id="Icon_Master">
<g id="business">
<path id="Vector" d="M5 9.5H7V11H6V12.5H7V14H6V15.5H7V17H5V9.5ZM15 8V17H12V14.5H11V17H8V8H15ZM10 14.5H9V16H10V14.5ZM10 12H9V13.5H10V12ZM10 9.5H9V11H10V9.5ZM12 12H11V13.5H12V12ZM12 9.5H11V11H12V9.5ZM14 14.5H13V16H14V14.5ZM14 12H13V13.5H14V12ZM14 9.5H13V11H14V9.5Z" fill="white"/>
</g>
</g>
</g>
</g>
</svg>
