<svg width="20" height="26" viewBox="0 0 20 26" fill="none" xmlns="http://www.w3.org/2000/svg">
<g id="default / cable-way">
<g id="POI-base">
<g id="Category_Master">
<g id="Baseshape_Dot">
<path id="Outline Outside" d="M1.5 12C1.5 7.30558 5.30558 3.5 10 3.5C14.6944 3.5 18.5 7.30558 18.5 12C18.5 16.6944 14.6944 20.5 10 20.5C5.30558 20.5 1.5 16.6944 1.5 12Z" fill="#6BC9FF" stroke="#4A91C5"/>
</g>
</g>
<g id="Icon_Master">
<g id="cable-way">
<path id="Vector" d="M15 8V7L5 8.25V9.25L9.5 8.685V10.5H5.86C5.63191 10.5 5.41317 10.5906 5.25189 10.7519C5.09061 10.9132 5 11.1319 5 11.36V15C5 15.5304 5.21071 16.0391 5.58579 16.4142C5.96086 16.7893 6.46957 17 7 17H13C13.5304 17 14.0391 16.7893 14.4142 16.4142C14.7893 16.0391 15 15.5304 15 15V11.36C15 11.1319 14.9094 10.9132 14.7481 10.7519C14.5868 10.5906 14.3681 10.5 14.14 10.5H10.5V8.565L15 8ZM9.5 14.25H6.5V11.5H9.5V14.25ZM10.5 11.5H13.5V14.25H10.5V11.5Z" fill="white"/>
</g>
</g>
</g>
</g>
</svg>
