<svg width="20" height="26" viewBox="0 0 20 26" fill="none" xmlns="http://www.w3.org/2000/svg">
<g id="default / car-charging">
<g id="POI-base">
<g id="Category_Master">
<g id="Baseshape_Pin">
<path id="shape" d="M6.12903 20.4794L6.12726 20.4777C3.78964 18.19 2.64527 16.3664 2.07698 14.8457C1.50986 13.3281 1.5 12.0735 1.5 10.8565C1.5 6.24879 5.30485 2.5 9.99133 2.5C14.6791 2.5 18.5 6.25003 18.5 10.8565C18.5 12.0735 18.4901 13.3281 17.923 14.8457C17.3547 16.3664 16.2104 18.19 13.8728 20.4777L13.8717 20.4787L9.99205 24.2977L6.12903 20.4794Z" fill="#6BC9FF" stroke="#4A91C5"/>
</g>
</g>
<g id="Icon_Master">
<g id="car-charging">
<path id="Vector" d="M13.8802 12.5L13.3802 11.35C13.2745 11.1009 13.0986 10.8879 12.874 10.737C12.6494 10.5861 12.3857 10.5037 12.1152 10.5H7.88515C7.61629 10.5056 7.35479 10.5889 7.13213 10.7397C6.90948 10.8905 6.73515 11.1024 6.63015 11.35L6.13015 12.5H5.25015C5.17428 12.5594 5.11292 12.6353 5.07072 12.7219C5.02852 12.8085 5.00659 12.9036 5.00659 13C5.00659 13.0964 5.02852 13.1915 5.07072 13.2781C5.11292 13.3647 5.17428 13.4406 5.25015 13.5H5.50015V16.5C5.50015 16.6326 5.55283 16.7598 5.6466 16.8536C5.74037 16.9473 5.86754 17 6.00015 17H7.50015C7.63276 17 7.75994 16.9473 7.85371 16.8536C7.94747 16.7598 8.00015 16.6326 8.00015 16.5V16H12.0002V16.5C12.0002 16.6326 12.0528 16.7598 12.1466 16.8536C12.2404 16.9473 12.3675 17 12.5002 17H14.0002C14.1328 17 14.2599 16.9473 14.3537 16.8536C14.4475 16.7598 14.5002 16.6326 14.5002 16.5V13.5H14.7502C14.8269 13.4412 14.8891 13.3655 14.9318 13.2788C14.9746 13.1921 14.9969 13.0967 14.9969 13C14.9969 12.9033 14.9746 12.8079 14.9318 12.7212C14.8891 12.6345 14.8269 12.5588 14.7502 12.5H13.8802ZM7.54515 11.755C7.57163 11.6845 7.6177 11.6231 7.67793 11.5779C7.73817 11.5327 7.81007 11.5057 7.88515 11.5H12.1152C12.1902 11.5057 12.2621 11.5327 12.3224 11.5779C12.3826 11.6231 12.4287 11.6845 12.4552 11.755L13.0002 13H7.00015L7.54515 11.755ZM8.00015 15H6.75015C6.67253 14.9418 6.60953 14.8663 6.56614 14.7795C6.52274 14.6927 6.50015 14.597 6.50015 14.5C6.50015 14.403 6.52274 14.3073 6.56614 14.2205C6.60953 14.1337 6.67253 14.0582 6.75015 14H8.00015V15ZM13.2502 15H12.0002V14H13.2502C13.3278 14.0582 13.3908 14.1337 13.4342 14.2205C13.4776 14.3073 13.5002 14.403 13.5002 14.5C13.5002 14.597 13.4776 14.6927 13.4342 14.7795C13.3908 14.8663 13.3278 14.9418 13.2502 15ZM12.0002 9H13.5002V9.25C13.5002 9.38261 13.4475 9.50979 13.3537 9.60355C13.2599 9.69732 13.1328 9.75 13.0002 9.75H12.0002V9ZM11.5002 10H9.50015C9.23494 10 8.98058 9.89464 8.79305 9.70711C8.60551 9.51957 8.50015 9.26522 8.50015 9H6.50015C6.42253 8.94178 6.35953 8.86629 6.31614 8.77951C6.27274 8.69272 6.25015 8.59703 6.25015 8.5C6.25015 8.40297 6.27274 8.30728 6.31614 8.22049C6.35953 8.13371 6.42253 8.05822 6.50015 8H8.50015C8.50015 7.73478 8.60551 7.48043 8.79305 7.29289C8.98058 7.10536 9.23494 7 9.50015 7H11.5002V10ZM13.0002 7.255C13.1328 7.255 13.2599 7.30768 13.3537 7.40145C13.4475 7.49521 13.5002 7.62239 13.5002 7.755V8H12.0002V7.25L13.0002 7.255Z" fill="white"/>
</g>
</g>
</g>
</g>
</svg>
