<svg width="20" height="26" viewBox="0 0 20 26" fill="none" xmlns="http://www.w3.org/2000/svg">
<g id="default / car-dealership">
<g id="POI-base">
<g id="Category_Master">
<g id="Baseshape_Pin">
<path id="shape" d="M6.12903 20.4794L6.12726 20.4777C3.78964 18.19 2.64527 16.3664 2.07698 14.8457C1.50986 13.3281 1.5 12.0735 1.5 10.8565C1.5 6.24879 5.30485 2.5 9.99133 2.5C14.6791 2.5 18.5 6.25003 18.5 10.8565C18.5 12.0735 18.4901 13.3281 17.923 14.8457C17.3547 16.3664 16.2104 18.19 13.8728 20.4777L13.8717 20.4787L9.99205 24.2977L6.12903 20.4794Z" fill="#A0B1DA" stroke="#7182AB"/>
</g>
</g>
<g id="Icon_Master">
<g id="car-dealership">
<path id="Vector" d="M13.88 12.5L13.38 11.35C13.2845 11.1205 13.1293 10.9207 12.9307 10.7712C12.732 10.6218 12.497 10.5281 12.25 10.5V11.525C12.3431 11.5705 12.4162 11.6489 12.455 11.745L13 13H7L7.555 11.755C7.59384 11.6589 7.66686 11.5805 7.76 11.535V10.5C7.51299 10.5281 7.278 10.6218 7.07932 10.7712C6.88065 10.9207 6.72553 11.1205 6.63 11.35L6.13 12.5H5.25C5.17238 12.5582 5.10938 12.6337 5.06598 12.7205C5.02259 12.8073 5 12.903 5 13C5 13.097 5.02259 13.1927 5.06598 13.2795C5.10938 13.3663 5.17238 13.4418 5.25 13.5H5.5V16.5C5.5 16.6326 5.55268 16.7598 5.64645 16.8536C5.74021 16.9473 5.86739 17 6 17H7.5C7.63261 17 7.75979 16.9473 7.85355 16.8536C7.94732 16.7598 8 16.6326 8 16.5V16H12V16.5C12 16.6326 12.0527 16.7598 12.1464 16.8536C12.2402 16.9473 12.3674 17 12.5 17H14C14.1326 17 14.2598 16.9473 14.3536 16.8536C14.4473 16.7598 14.5 16.6326 14.5 16.5V13.5H14.75C14.8276 13.4418 14.8906 13.3663 14.934 13.2795C14.9774 13.1927 15 13.097 15 13C15 12.903 14.9774 12.8073 14.934 12.7205C14.8906 12.6337 14.8276 12.5582 14.75 12.5H13.88ZM8 15H6.75C6.67238 14.9418 6.60938 14.8663 6.56598 14.7795C6.52259 14.6927 6.5 14.597 6.5 14.5C6.5 14.403 6.52259 14.3073 6.56598 14.2205C6.60938 14.1337 6.67238 14.0582 6.75 14H8V15ZM13.25 15H12V14H13.25C13.3276 14.0582 13.3906 14.1337 13.434 14.2205C13.4774 14.3073 13.5 14.403 13.5 14.5C13.5 14.597 13.4774 14.6927 13.434 14.7795C13.3906 14.8663 13.3276 14.9418 13.25 15ZM9.945 11.08C9.59404 11.0783 9.25661 10.9444 9 10.705L8.9 10.63L8.345 11.25L8.43 11.335C8.72641 11.6145 9.09855 11.8006 9.5 11.87V12.5H10.5V11.86C10.8078 11.8102 11.0879 11.6526 11.2903 11.4154C11.4927 11.1782 11.6043 10.8768 11.605 10.565C11.605 9.75 11.105 9.42 10.33 9.18C9.665 8.975 9.595 8.865 9.595 8.68C9.595 8.36 9.94 8.33 10.095 8.33C10.397 8.33004 10.6885 8.44027 10.915 8.64L11.01 8.72L11.545 8.1L11.45 8C11.1878 7.74571 10.8581 7.57215 10.5 7.5V7H9.5V7.565C9.23522 7.62255 8.99771 7.76802 8.82612 7.97774C8.65454 8.18745 8.55898 8.44906 8.555 8.72C8.555 9.375 8.93 9.76 9.85 10.045C10.485 10.24 10.555 10.37 10.555 10.605C10.555 11.045 10.085 11.08 9.945 11.08Z" fill="white"/>
</g>
</g>
</g>
</g>
</svg>
