<svg width="20" height="26" viewBox="0 0 20 26" fill="none" xmlns="http://www.w3.org/2000/svg">
<g id="default / cocktail">
<g id="POI-base">
<g id="Category_Master">
<g id="Baseshape_Pin">
<path id="shape" d="M6.12903 20.4794L6.12726 20.4777C3.78964 18.19 2.64527 16.3664 2.07698 14.8457C1.50986 13.3281 1.5 12.0735 1.5 10.8565C1.5 6.24879 5.30485 2.5 9.99133 2.5C14.6791 2.5 18.5 6.25003 18.5 10.8565C18.5 12.0735 18.4901 13.3281 17.923 14.8457C17.3547 16.3664 16.2104 18.19 13.8728 20.4777L13.8717 20.4787L9.99205 24.2977L6.12903 20.4794Z" fill="#ED97C2" stroke="#A66F9A"/>
</g>
</g>
<g id="Icon_Master">
<g id="cocktail">
<path id="Vector" d="M11.5 16H10.5C10.5 16 10.5 14.265 10.5 13.65C10.4997 13.3956 10.5962 13.1507 10.77 12.965L14.5 9H8.72505L6.72505 7L6.13505 7.63L7.50005 9H5.30005L9.21005 12.95C9.39479 13.1363 9.49894 13.3877 9.50005 13.65C9.50005 14.285 9.50005 16 9.50005 16H8.50005C8.23483 16 7.98048 16.1054 7.79294 16.2929C7.60541 16.4804 7.50005 16.7348 7.50005 17H12.5C12.5 16.7348 12.3947 16.4804 12.2072 16.2929C12.0196 16.1054 11.7653 16 11.5 16ZM10.5 12C10.3419 11.9988 10.1863 11.9602 10.0459 11.8872C9.90563 11.8142 9.78464 11.7089 9.69289 11.5801C9.60114 11.4513 9.54127 11.3025 9.51817 11.146C9.49508 10.9896 9.50943 10.8298 9.56005 10.68C9.62658 10.483 9.75288 10.3116 9.92136 10.1897C10.0898 10.0679 10.2921 10.0015 10.5 10C10.6727 9.99716 10.8427 10.0424 10.991 10.1307C11.1394 10.219 11.2602 10.3469 11.34 10.5C11.4268 10.6501 11.473 10.8202 11.4742 10.9936C11.4754 11.167 11.4314 11.3377 11.3467 11.4889C11.262 11.6402 11.1394 11.7669 10.991 11.8565C10.8425 11.9461 10.6734 11.9955 10.5 12Z" fill="white"/>
</g>
</g>
</g>
</g>
</svg>
