<svg width="20" height="26" viewBox="0 0 20 26" fill="none" xmlns="http://www.w3.org/2000/svg">
<g id="default / exhibition-center">
<g id="POI-base">
<g id="Category_Master">
<g id="Baseshape_Pin">
<path id="shape" d="M6.12903 20.4794L6.12726 20.4777C3.78964 18.19 2.64527 16.3664 2.07698 14.8457C1.50986 13.3281 1.5 12.0735 1.5 10.8565C1.5 6.24879 5.30485 2.5 9.99133 2.5C14.6791 2.5 18.5 6.25003 18.5 10.8565C18.5 12.0735 18.4901 13.3281 17.923 14.8457C17.3547 16.3664 16.2104 18.19 13.8728 20.4777L13.8717 20.4787L9.99205 24.2977L6.12903 20.4794Z" fill="#C19D95" stroke="#87737B"/>
</g>
</g>
<g id="Icon_Master">
<g id="exhibition-center">
<path id="Vector" d="M5 11V16.5H8.5V15H11.5V16.5H15V11H5ZM7.25 14H6V12H7.25V14ZM9.5 14H8.25V12H9.5V14ZM11.75 14H10.5V12H11.75V14ZM14 14H12.75V12H14V14ZM5.105 10C5.56655 9.09909 6.26777 8.34303 7.13145 7.81509C7.99512 7.28714 8.98774 7.00778 10 7.00778C11.0123 7.00778 12.0049 7.28714 12.8686 7.81509C13.7322 8.34303 14.4335 9.09909 14.895 10H13.74C13.3295 9.38117 12.7723 8.87355 12.118 8.52239C11.4636 8.17124 10.7326 7.98747 9.99 7.98747C9.24741 7.98747 8.51636 8.17124 7.86204 8.52239C7.20773 8.87355 6.65048 9.38117 6.24 10H5.105Z" fill="white"/>
</g>
</g>
</g>
</g>
</svg>
