<svg width="20" height="26" viewBox="0 0 20 26" fill="none" xmlns="http://www.w3.org/2000/svg">
<g id="default / fast-food">
<g id="POI-base">
<g id="Category_Master">
<g id="Baseshape_Pin">
<path id="shape" d="M6.12903 20.4794L6.12726 20.4777C3.78964 18.19 2.64527 16.3664 2.07698 14.8457C1.50986 13.3281 1.5 12.0735 1.5 10.8565C1.5 6.24879 5.30485 2.5 9.99133 2.5C14.6791 2.5 18.5 6.25003 18.5 10.8565C18.5 12.0735 18.4901 13.3281 17.923 14.8457C17.3547 16.3664 16.2104 18.19 13.8728 20.4777L13.8717 20.4787L9.99205 24.2977L6.12903 20.4794Z" fill="#FFA857" stroke="#B37B50"/>
</g>
</g>
<g id="Icon_Master">
<g id="fast-food">
<path id="Vector" d="M15 9L14.5 17H12.075C12.1891 16.7664 12.2489 16.51 12.25 16.25V14.87C12.4132 14.6092 12.4998 14.3077 12.4998 14C12.4998 13.6923 12.4132 13.3908 12.25 13.13V12C12.25 11.337 11.9866 10.7011 11.5178 10.2322C11.0489 9.76339 10.413 9.5 9.75 9.5H9.545L9.5 9H11.75V8C11.7494 7.91312 11.779 7.82873 11.8337 7.76125C11.8884 7.69377 11.9649 7.64737 12.05 7.63L14.05 7L14.25 7.75L12.75 8.25V9H15ZM5.25 16.235C5.248 16.3347 5.26593 16.4339 5.30273 16.5266C5.33952 16.6194 5.39445 16.7038 5.4643 16.7751C5.53414 16.8463 5.61749 16.9029 5.70948 16.9415C5.80147 16.9801 5.90023 17 6 17H10.5C10.6989 17 10.8897 16.921 11.0303 16.7803C11.171 16.6397 11.25 16.4489 11.25 16.25V15.5H5.25V16.235ZM11.25 12.235C11.25 11.405 10.58 10.485 9.75 10.485H6.75C5.92 10.485 5.25 11.405 5.25 12.235V12.5H11.25V12.235ZM11.125 13.5H5.375C5.17 13.5 5 13.725 5 14C5 14.275 5.17 14.5 5.375 14.5H11.125C11.33 14.5 11.5 14.275 11.5 14C11.5 13.725 11.33 13.5 11.125 13.5Z" fill="white"/>
</g>
</g>
</g>
</g>
</svg>
