<svg width="20" height="26" viewBox="0 0 20 26" fill="none" xmlns="http://www.w3.org/2000/svg">
<g id="default / ferry">
<g id="POI-base">
<g id="Category_Master">
<g id="Baseshape_Dot">
<path id="Outline Outside" d="M1.5 12C1.5 7.30558 5.30558 3.5 10 3.5C14.6944 3.5 18.5 7.30558 18.5 12C18.5 16.6944 14.6944 20.5 10 20.5C5.30558 20.5 1.5 16.6944 1.5 12Z" fill="#6BC9FF" stroke="#4A91C5"/>
</g>
</g>
<g id="Icon_Master">
<g id="ferry">
<path id="Vector" d="M13.755 12.195L13.5 9.195C13.478 9.00448 13.3871 8.8286 13.2443 8.70056C13.1015 8.57252 12.9168 8.50118 12.725 8.5H10.5V7H9.50003V8.5H7.27503C7.08478 8.50087 6.90131 8.57081 6.75876 8.69681C6.61621 8.82281 6.52426 8.99629 6.50003 9.185L6.24503 12.185L10 11L13.755 12.195ZM10 12.34L5.03003 13.92L6.30503 16.92C6.49435 16.5934 6.76783 16.3236 7.09694 16.1387C7.42605 15.9538 7.79875 15.8605 8.17616 15.8687C8.55357 15.8769 8.92188 15.9862 9.24268 16.1851C9.56348 16.3841 9.82502 16.6655 10 17C10.1732 16.6645 10.4332 16.3815 10.753 16.1807C11.0727 15.9799 11.4405 15.8686 11.818 15.8584C12.1954 15.8482 12.5687 15.9395 12.8989 16.1227C13.229 16.3059 13.504 16.5743 13.695 16.9L14.97 13.9L10 12.34Z" fill="white"/>
</g>
</g>
</g>
</g>
</svg>
