<svg width="20" height="26" viewBox="0 0 20 26" fill="none" xmlns="http://www.w3.org/2000/svg">
<g id="default / fitness">
<g id="POI-base">
<g id="Category_Master">
<g id="Baseshape_Pin">
<path id="shape" d="M6.12903 20.4794L6.12726 20.4777C3.78964 18.19 2.64527 16.3664 2.07698 14.8457C1.50986 13.3281 1.5 12.0735 1.5 10.8565C1.5 6.24879 5.30485 2.5 9.99133 2.5C14.6791 2.5 18.5 6.25003 18.5 10.8565C18.5 12.0735 18.4901 13.3281 17.923 14.8457C17.3547 16.3664 16.2104 18.19 13.8728 20.4777L13.8717 20.4787L9.99205 24.2977L6.12903 20.4794Z" fill="#C19D95" stroke="#87737B"/>
</g>
</g>
<g id="Icon_Master">
<g id="fitness">
<path id="Vector" d="M14.8601 11.5L14.1551 10.8L15.0401 9.91499L14.0001 8.85499L14.5001 8.32499L13.8001 7.61499L13.2701 8.14999L12.2101 7.08499L11.3251 7.96999L10.6201 7.26499C10.5737 7.21813 10.5184 7.18093 10.4574 7.15555C10.3965 7.13016 10.3311 7.11709 10.2651 7.11709C10.1991 7.11709 10.1338 7.13016 10.0728 7.15555C10.0119 7.18093 9.95662 7.21813 9.91014 7.26499L9.03014 8.14999C8.93701 8.24367 8.88474 8.3704 8.88474 8.50249C8.88474 8.63458 8.93701 8.76131 9.03014 8.85499L10.7951 10.62L8.50014 12.92L6.73014 11.155C6.68366 11.1081 6.62835 11.0709 6.56743 11.0455C6.5065 11.0202 6.44114 11.0071 6.37514 11.0071C6.30913 11.0071 6.24378 11.0202 6.18285 11.0455C6.12192 11.0709 6.06662 11.1081 6.02014 11.155L5.31514 11.86C5.22201 11.9537 5.16974 12.0804 5.16974 12.2125C5.16974 12.3446 5.22201 12.4713 5.31514 12.565L6.00014 13.275L5.14014 14.16L6.20014 15.22L5.50014 15.925L6.20014 16.635L6.90514 15.925L7.96514 17L8.85014 16.105L9.56014 16.81C9.65382 16.9031 9.78054 16.9554 9.91264 16.9554C10.0447 16.9554 10.1715 16.9031 10.2651 16.81L10.9701 16.105C11.017 16.0585 11.0542 16.0032 11.0796 15.9423C11.105 15.8814 11.118 15.816 11.118 15.75C11.118 15.684 11.105 15.6186 11.0796 15.5577C11.0542 15.4968 11.017 15.4415 10.9701 15.395L9.20514 13.63L11.5051 11.33L13.2701 13.095C13.3638 13.1881 13.4905 13.2404 13.6226 13.2404C13.7547 13.2404 13.8815 13.1881 13.9751 13.095L14.8601 12.215C14.9078 12.1684 14.9456 12.1128 14.9714 12.0514C14.9973 11.99 15.0106 11.9241 15.0106 11.8575C15.0106 11.7909 14.9973 11.725 14.9714 11.6636C14.9456 11.6022 14.9078 11.5466 14.8601 11.5Z" fill="white"/>
</g>
</g>
</g>
</g>
</svg>
