<svg width="20" height="26" viewBox="0 0 20 26" fill="none" xmlns="http://www.w3.org/2000/svg">
<g id="default / library">
<g id="POI-base">
<g id="Category_Master">
<g id="Baseshape_Pin">
<path id="shape" d="M6.12903 20.4794L6.12726 20.4777C3.78964 18.19 2.64527 16.3664 2.07698 14.8457C1.50986 13.3281 1.5 12.0735 1.5 10.8565C1.5 6.24879 5.30485 2.5 9.99133 2.5C14.6791 2.5 18.5 6.25003 18.5 10.8565C18.5 12.0735 18.4901 13.3281 17.923 14.8457C17.3547 16.3664 16.2104 18.19 13.8728 20.4777L13.8717 20.4787L9.99205 24.2977L6.12903 20.4794Z" fill="#C19D95" stroke="#87737B"/>
</g>
</g>
<g id="Icon_Master">
<g id="library">
<path id="Vector" d="M15 8H13.19C12.4766 8 11.7924 8.28341 11.2879 8.78788C10.7834 9.29236 10.5 9.97657 10.5 10.69V16.5H11C11 16.2348 11.1054 15.9804 11.2929 15.7929C11.4804 15.6054 11.7348 15.5 12 15.5H15V8ZM5 8H6.825C7.17736 8.00065 7.52614 8.07079 7.85137 8.20639C8.1766 8.34199 8.47189 8.5404 8.72036 8.79025C8.96882 9.04011 9.16557 9.33651 9.29935 9.66249C9.43313 9.98847 9.50132 10.3376 9.5 10.69V16.5H9C9 16.2348 8.89464 15.9804 8.70711 15.7929C8.51957 15.6054 8.26522 15.5 8 15.5H5V8Z" fill="white"/>
</g>
</g>
</g>
</g>
</svg>
