<svg width="20" height="26" viewBox="0 0 20 26" fill="none" xmlns="http://www.w3.org/2000/svg">
<g id="default / metro">
<g id="POI-base">
<g id="Category_Master">
<g id="Baseshape_Dot">
<path id="Outline Outside" d="M1.5 12C1.5 7.30558 5.30558 3.5 10 3.5C14.6944 3.5 18.5 7.30558 18.5 12C18.5 16.6944 14.6944 20.5 10 20.5C5.30558 20.5 1.5 16.6944 1.5 12Z" fill="#6BC9FF" stroke="#4A91C5"/>
</g>
</g>
<g id="Icon_Master">
<g id="metro">
<path id="Vector" d="M10 9.885C9.325 9.885 8.25 10.06 8.25 11.25V12.165H11.75V11.25C11.75 10.06 10.68 9.885 10 9.885ZM9.61 15.25L8.5 17H11.5L10.37 15.25H9.61ZM11.5 14.5C11.6658 14.5 11.8247 14.4342 11.9419 14.3169C12.0592 14.1997 12.125 14.0408 12.125 13.875C12.125 13.7092 12.0592 13.5503 11.9419 13.4331C11.8247 13.3158 11.6658 13.25 11.5 13.25C11.3342 13.25 11.1753 13.3158 11.0581 13.4331C10.9408 13.5503 10.875 13.7092 10.875 13.875C10.875 14.0408 10.9408 14.1997 11.0581 14.3169C11.1753 14.4342 11.3342 14.5 11.5 14.5ZM8.5 14.5C8.58208 14.5 8.66335 14.4838 8.73918 14.4524C8.81501 14.421 8.88391 14.375 8.94194 14.3169C8.99998 14.2589 9.04602 14.19 9.07742 14.1142C9.10883 14.0383 9.125 13.9571 9.125 13.875C9.125 13.7929 9.10883 13.7117 9.07742 13.6358C9.04602 13.56 8.99998 13.4911 8.94194 13.4331C8.88391 13.375 8.81501 13.329 8.73918 13.2976C8.66335 13.2662 8.58208 13.25 8.5 13.25C8.33424 13.25 8.17527 13.3158 8.05806 13.4331C7.94085 13.5503 7.875 13.7092 7.875 13.875C7.875 14.0408 7.94085 14.1997 8.05806 14.3169C8.17527 14.4342 8.33424 14.5 8.5 14.5ZM10 7C6.825 7 5 8.54 5 11.23V17H7L8.295 15.25H7.5C7.36739 15.25 7.24021 15.1973 7.14645 15.1036C7.05268 15.0098 7 14.8826 7 14.75V11.185C7 9.685 8.15 8.75 10 8.75C11.85 8.75 13 9.68 13 11.185V14.75C13 14.8826 12.9473 15.0098 12.8536 15.1036C12.7598 15.1973 12.6326 15.25 12.5 15.25H11.675L13 17H15V11.23C15 8.54 13.175 7 10 7Z" fill="white"/>
</g>
</g>
</g>
</g>
</svg>
