<svg width="20" height="26" viewBox="0 0 20 26" fill="none" xmlns="http://www.w3.org/2000/svg">
<g id="default / monorail">
<g id="POI-base">
<g id="Category_Master">
<g id="Baseshape_Dot">
<path id="Outline Outside" d="M1.5 12C1.5 7.30558 5.30558 3.5 10 3.5C14.6944 3.5 18.5 7.30558 18.5 12C18.5 16.6944 14.6944 20.5 10 20.5C5.30558 20.5 1.5 16.6944 1.5 12Z" fill="#6BC9FF" stroke="#4A91C5"/>
</g>
</g>
<g id="Icon_Master">
<g id="monorail">
<path id="Vector" d="M13.9502 12.155L13.5002 8.41C13.4772 8.02798 13.3091 7.66918 13.0302 7.40706C12.7514 7.14494 12.3829 6.99931 12.0002 7H8.00016C7.61745 6.99931 7.24895 7.14494 6.97009 7.40706C6.69124 7.66918 6.52312 8.02798 6.50016 8.41L6.05016 12.155C6.00896 12.5469 6.06211 12.9429 6.20516 13.31L6.97016 15.05C7.04796 15.2531 7.18477 15.4284 7.36298 15.5531C7.54119 15.6779 7.75265 15.7464 7.97016 15.75L8.28016 14.25C8.33647 14.0317 8.4649 13.8388 8.64461 13.7027C8.82432 13.5665 9.04476 13.4951 9.27016 13.5H10.7302C10.9543 13.4991 11.1723 13.5735 11.3492 13.7113C11.526 13.8491 11.6514 14.0424 11.7052 14.26L11.9852 15.76C12.2027 15.7564 12.4141 15.6879 12.5923 15.5631C12.7705 15.4384 12.9074 15.2631 12.9852 15.06L13.7752 13.32C13.9266 12.9515 13.9866 12.5518 13.9502 12.155ZM7.95016 8H12.0602C12.2092 8.00331 12.3517 8.06198 12.4598 8.16458C12.5679 8.26717 12.634 8.40635 12.6452 8.555C12.6452 8.555 12.6952 9.66 12.7252 10.5H7.26016C7.29516 9.66 7.36016 8.555 7.36016 8.555C7.37139 8.40551 7.43817 8.26563 7.54737 8.16292C7.65657 8.0602 7.80026 8.00208 7.95016 8ZM8.50016 12.75H7.50016C7.44284 12.7501 7.3861 12.7385 7.33344 12.7158C7.28078 12.6932 7.23332 12.66 7.19397 12.6183C7.15463 12.5766 7.12423 12.5273 7.10466 12.4734C7.08508 12.4195 7.07675 12.3622 7.08016 12.305L7.10516 11.895C7.11161 11.7863 7.16006 11.6843 7.24029 11.6106C7.32052 11.5369 7.42625 11.4972 7.53516 11.5H8.50016V12.75ZM12.5002 12.75H11.5002V11.5H12.4652C12.5724 11.4998 12.6756 11.5406 12.7536 11.6141C12.8317 11.6875 12.8788 11.788 12.8852 11.895L12.9102 12.305C12.9135 12.3614 12.9055 12.4179 12.8865 12.4711C12.8676 12.5243 12.8381 12.5731 12.7998 12.6147C12.7615 12.6562 12.7153 12.6896 12.6638 12.7129C12.6123 12.7361 12.5566 12.7488 12.5002 12.75ZM10.8552 14.88L11.2352 17H8.73516L9.12516 14.885C9.15253 14.7741 9.21708 14.6758 9.30806 14.6067C9.39903 14.5376 9.51094 14.5017 9.62516 14.505H10.3402C10.4545 14.5002 10.5671 14.5349 10.659 14.6031C10.7509 14.6714 10.8166 14.7691 10.8452 14.88H10.8552Z" fill="white"/>
</g>
</g>
</g>
</g>
</svg>
