<svg width="20" height="26" viewBox="0 0 20 26" fill="none" xmlns="http://www.w3.org/2000/svg">
<g id="default / night-club">
<g id="POI-base">
<g id="Category_Master">
<g id="Baseshape_Pin">
<path id="shape" d="M6.12903 20.4794L6.12726 20.4777C3.78964 18.19 2.64527 16.3664 2.07698 14.8457C1.50986 13.3281 1.5 12.0735 1.5 10.8565C1.5 6.24879 5.30485 2.5 9.99133 2.5C14.6791 2.5 18.5 6.25003 18.5 10.8565C18.5 12.0735 18.4901 13.3281 17.923 14.8457C17.3547 16.3664 16.2104 18.19 13.8728 20.4777L13.8717 20.4787L9.99205 24.2977L6.12903 20.4794Z" fill="#ED97C2" stroke="#A66F9A"/>
</g>
</g>
<g id="Icon_Master">
<g id="night-club">
<path id="Vector" d="M9.5 11.5C9.5 11.6483 9.45602 11.7933 9.3736 11.9167C9.29119 12.04 9.17406 12.1361 9.03701 12.1929C8.89997 12.2497 8.74917 12.2645 8.60368 12.2356C8.4582 12.2067 8.32456 12.1352 8.21967 12.0303C8.11478 11.9254 8.04335 11.7918 8.01441 11.6463C7.98547 11.5008 8.00033 11.35 8.05709 11.213C8.11386 11.0759 8.20999 10.9588 8.33332 10.8764C8.45666 10.794 8.60167 10.75 8.75 10.75C8.94891 10.75 9.13968 10.829 9.28033 10.9697C9.42098 11.1103 9.5 11.3011 9.5 11.5ZM8 15.18C7.33302 15.0474 6.71456 14.7362 6.21064 14.2796C5.70672 13.823 5.33626 13.2381 5.13882 12.5873C4.94137 11.9366 4.92434 11.2444 5.08955 10.5848C5.25476 9.92513 5.59601 9.32272 6.07686 8.84186C6.55772 8.36101 7.16013 8.01976 7.81979 7.85455C8.47945 7.68934 9.17159 7.70637 9.82232 7.90381C10.4731 8.10126 11.058 8.47172 11.5146 8.97564C11.9712 9.47955 12.2824 10.098 12.415 10.765C12.5393 11.3712 12.5112 11.9987 12.3334 12.5913C12.1555 13.184 11.8333 13.7233 11.3958 14.1608C10.9583 14.5983 10.419 14.9205 9.82635 15.0984C9.23369 15.2762 8.60616 15.3043 8 15.18ZM8.275 9.81C7.98693 9.88649 7.72359 10.0363 7.51066 10.2449C7.29772 10.4534 7.14246 10.7136 7.06 11C6.97591 11.2997 6.97302 11.6163 7.05162 11.9174C7.13023 12.2186 7.2875 12.4934 7.50732 12.7137C7.72714 12.934 8.0016 13.092 8.30256 13.1713C8.60352 13.2506 8.92015 13.2484 9.22 13.165C9.50446 13.0904 9.76505 12.9442 9.97688 12.7402C10.1887 12.5363 10.3447 12.2814 10.43 12C10.5194 11.6993 10.5265 11.3801 10.4506 11.0757C10.3747 10.7713 10.2187 10.4928 9.99862 10.2692C9.77859 10.0456 9.50264 9.88506 9.1995 9.8043C8.89636 9.72354 8.57712 9.72551 8.275 9.81ZM13 7V9H13.5V12.78C13.4994 13.0127 13.4446 13.2421 13.34 13.45L12.805 14.525L12.58 14.415L11.76 16.05L11.985 16.16L12.88 16.61L13.105 16.72L13.92 15.085L13.695 15L14.235 13.92C14.4123 13.5663 14.5031 13.1756 14.5 12.78V9H15V7H13Z" fill="white"/>
</g>
</g>
</g>
</g>
</svg>
