<svg width="20" height="26" viewBox="0 0 20 26" fill="none" xmlns="http://www.w3.org/2000/svg">
<g id="default / public-toilet">
<g id="POI-base">
<g id="Category_Master">
<g id="Baseshape_Pin">
<path id="shape" d="M6.12903 20.4794L6.12726 20.4777C3.78964 18.19 2.64527 16.3664 2.07698 14.8457C1.50986 13.3281 1.5 12.0735 1.5 10.8565C1.5 6.24879 5.30485 2.5 9.99133 2.5C14.6791 2.5 18.5 6.25003 18.5 10.8565C18.5 12.0735 18.4901 13.3281 17.923 14.8457C17.3547 16.3664 16.2104 18.19 13.8728 20.4777L13.8717 20.4787L9.99205 24.2977L6.12903 20.4794Z" fill="#C19D95" stroke="#87737B"/>
</g>
</g>
<g id="Icon_Master">
<g id="public-toilet">
<path id="Vector" d="M14.5 13.5H14.1L14.255 17H13.255L13 13.5H12.5L12.25 17H11.25L11.395 13.5H11V10.25C11 9.75 11.28 9.5 11.66 9.5H13.845C14.22 9.5 14.5 9.75 14.5 10.25V13.5ZM9 10.25C9 10.0511 8.92098 9.86032 8.78033 9.71967C8.63968 9.57902 8.44891 9.5 8.25 9.5C7.86 9.5 7.785 9.75 7.25 9.75C6.715 9.75 6.625 9.5 6.25 9.5C6.05109 9.5 5.86032 9.57902 5.71967 9.71967C5.57902 9.86032 5.5 10.0511 5.5 10.25V10.75L6.5 11.25L5 15.5H6.5L6.75 17H7.75L8 15.5H9.5L8 11.25L9 10.75V10.25ZM12.5 9H13C13.1326 9 13.2598 8.94732 13.3536 8.85355C13.4473 8.75979 13.5 8.63261 13.5 8.5V7.5C13.5 7.36739 13.4473 7.24021 13.3536 7.14645C13.2598 7.05268 13.1326 7 13 7H12.5C12.3674 7 12.2402 7.05268 12.1464 7.14645C12.0527 7.24021 12 7.36739 12 7.5V8.5C12 8.63261 12.0527 8.75979 12.1464 8.85355C12.2402 8.94732 12.3674 9 12.5 9ZM7 9H7.5C7.63261 9 7.75979 8.94732 7.85355 8.85355C7.94732 8.75979 8 8.63261 8 8.5V7.5C8 7.36739 7.94732 7.24021 7.85355 7.14645C7.75979 7.05268 7.63261 7 7.5 7H7C6.86739 7 6.74021 7.05268 6.64645 7.14645C6.55268 7.24021 6.5 7.36739 6.5 7.5V8.5C6.5 8.63261 6.55268 8.75979 6.64645 8.85355C6.74021 8.94732 6.86739 9 7 9Z" fill="white"/>
</g>
</g>
</g>
</g>
</svg>
