<svg width="20" height="26" viewBox="0 0 20 26" fill="none" xmlns="http://www.w3.org/2000/svg">
<g id="default / rail-light">
<g id="POI-base">
<g id="Category_Master">
<g id="Baseshape_Dot">
<path id="Outline Outside" d="M1.5 12C1.5 7.30558 5.30558 3.5 10 3.5C14.6944 3.5 18.5 7.30558 18.5 12C18.5 16.6944 14.6944 20.5 10 20.5C5.30558 20.5 1.5 16.6944 1.5 12Z" fill="#6BC9FF" stroke="#4A91C5"/>
</g>
</g>
<g id="Icon_Master">
<g id="rail-light">
<path id="Vector" d="M12 14.5H13.25V12.025C13.2486 11.6826 13.2302 11.3406 13.195 11L12.89 8.36501C12.8564 7.99274 12.6849 7.64645 12.4093 7.39396C12.1337 7.14147 11.7738 7.00098 11.4 7.00001H8.6C8.22763 6.99801 7.86783 7.1346 7.59058 7.38319C7.31334 7.63179 7.13847 7.97462 7.1 8.34501L6.805 11C6.76909 11.3472 6.75074 11.696 6.75 12.045V14.5H8L5.5 17H7L9.25 14.5H10.75L13.5 17H15L12 14.5ZM8.13 8.68001C8.16 8.36001 8.43 8.00001 8.75 8.00001H11.25C11.57 8.00001 11.84 8.36501 11.87 8.68501L12.175 11.075C12.175 11.215 12.205 11.36 12.21 11.505H7.79C7.79 11.36 7.79 11.215 7.825 11.075L8.13 8.68001ZM10 13.75C9.85166 13.75 9.70666 13.706 9.58332 13.6236C9.45999 13.5412 9.36386 13.4241 9.30709 13.287C9.25032 13.15 9.23547 12.9992 9.26441 12.8537C9.29335 12.7082 9.36478 12.5746 9.46967 12.4697C9.57456 12.3648 9.7082 12.2934 9.85368 12.2644C9.99917 12.2355 10.15 12.2503 10.287 12.3071C10.4241 12.3639 10.5412 12.46 10.6236 12.5833C10.706 12.7067 10.75 12.8517 10.75 13C10.75 13.1989 10.671 13.3897 10.5303 13.5303C10.3897 13.671 10.1989 13.75 10 13.75Z" fill="white"/>
</g>
</g>
</g>
</g>
</svg>
