<svg width="20" height="26" viewBox="0 0 20 26" fill="none" xmlns="http://www.w3.org/2000/svg">
<g id="default / rail-regional">
<g id="POI-base">
<g id="Category_Master">
<g id="Baseshape_Dot">
<path id="Outline Outside" d="M1.5 12C1.5 7.30558 5.30558 3.5 10 3.5C14.6944 3.5 18.5 7.30558 18.5 12C18.5 16.6944 14.6944 20.5 10 20.5C5.30558 20.5 1.5 16.6944 1.5 12Z" fill="#6BC9FF" stroke="#4A91C5"/>
</g>
</g>
<g id="Icon_Master">
<g id="rail-regional">
<path id="Vector" d="M14 7.75C14 7.55109 13.921 7.36032 13.7803 7.21967C13.6397 7.07902 13.4489 7 13.25 7H6.75C6.55109 7 6.36032 7.07902 6.21967 7.21967C6.07902 7.36032 6 7.55109 6 7.75V14.5H8L5.5 17H7L9.25 14.5H10.75L13 17H14.5L12 14.5H14V7.75ZM7 8H9.5V11.5H7V8ZM7.75 13.75C7.55109 13.75 7.36032 13.671 7.21967 13.5303C7.07902 13.3897 7 13.1989 7 13C7 12.8011 7.07902 12.6103 7.21967 12.4697C7.36032 12.329 7.55109 12.25 7.75 12.25C7.94891 12.25 8.13968 12.329 8.28033 12.4697C8.42098 12.6103 8.5 12.8011 8.5 13C8.5 13.1989 8.42098 13.3897 8.28033 13.5303C8.13968 13.671 7.94891 13.75 7.75 13.75ZM13 13C13 13.1989 12.921 13.3897 12.7803 13.5303C12.6397 13.671 12.4489 13.75 12.25 13.75C12.0511 13.75 11.8603 13.671 11.7197 13.5303C11.579 13.3897 11.5 13.1989 11.5 13C11.5 12.8011 11.579 12.6103 11.7197 12.4697C11.8603 12.329 12.0511 12.25 12.25 12.25C12.4489 12.25 12.6397 12.329 12.7803 12.4697C12.921 12.6103 13 12.8011 13 13ZM13 11.5H10.5V8H13V11.5Z" fill="white"/>
</g>
</g>
</g>
</g>
</svg>
