<svg width="20" height="26" viewBox="0 0 20 26" fill="none" xmlns="http://www.w3.org/2000/svg">
<g id="default / restaurant">
<g id="POI-base">
<g id="Category_Master">
<g id="Baseshape_Pin">
<path id="shape" d="M6.12903 20.4794L6.12726 20.4777C3.78964 18.19 2.64527 16.3664 2.07698 14.8457C1.50986 13.3281 1.5 12.0735 1.5 10.8565C1.5 6.24879 5.30485 2.5 9.99133 2.5C14.6791 2.5 18.5 6.25003 18.5 10.8565C18.5 12.0735 18.4901 13.3281 17.923 14.8457C17.3547 16.3664 16.2104 18.19 13.8728 20.4777L13.8717 20.4787L9.99205 24.2977L6.12903 20.4794Z" fill="#FFA857" stroke="#B37B50"/>
</g>
</g>
<g id="Icon_Master">
<g id="restaurant">
<path id="Vector" d="M14 7V17H12.5V13H11.5V10.5C11.5 8 14 7 14 7ZM9 7V9.5H8.25V7H7.25V9.5H6.5V7H5.5V9.655C5.50012 10.0381 5.64682 10.4066 5.91 10.685L6.85 11.5C6.89908 11.5481 6.93773 11.6057 6.96353 11.6694C6.98934 11.733 7.00175 11.8013 7 11.87V17H8.5V11.87C8.49889 11.801 8.51209 11.7325 8.53877 11.6688C8.56544 11.6051 8.60502 11.5476 8.655 11.5L9.56 10.725C9.84138 10.444 9.99965 10.0627 10 9.665V7H9Z" fill="white"/>
</g>
</g>
</g>
</g>
</svg>
