<svg width="20" height="26" viewBox="0 0 20 26" fill="none" xmlns="http://www.w3.org/2000/svg">
<g id="default / shopping">
<g id="POI-base">
<g id="Category_Master">
<g id="Baseshape_Pin">
<path id="shape" d="M6.12903 20.4794L6.12726 20.4777C3.78964 18.19 2.64527 16.3664 2.07698 14.8457C1.50986 13.3281 1.5 12.0735 1.5 10.8565C1.5 6.24879 5.30485 2.5 9.99133 2.5C14.6791 2.5 18.5 6.25003 18.5 10.8565C18.5 12.0735 18.4901 13.3281 17.923 14.8457C17.3547 16.3664 16.2104 18.19 13.8728 20.4777L13.8717 20.4787L9.99205 24.2977L6.12903 20.4794Z" fill="#E265A7" stroke="#9E4C88"/>
</g>
</g>
<g id="Icon_Master">
<g id="shopping">
<path id="Vector" d="M12.5 10L12.35 9C12.3131 8.59486 12.1278 8.21764 11.8297 7.94078C11.5317 7.66393 11.1418 7.50695 10.735 7.5H9.26504C8.85828 7.50695 8.46842 7.66393 8.17034 7.94078C7.87226 8.21764 7.68696 8.59486 7.65004 9L7.52504 10H5.66504L5.95004 15.55C5.96288 15.8065 6.07388 16.0481 6.26004 16.225C6.4462 16.4019 6.69326 16.5003 6.95004 16.5H13.05C13.3068 16.5003 13.5539 16.4019 13.74 16.225C13.9262 16.0481 14.0372 15.8065 14.05 15.55L14.335 10H12.5ZM8.64004 9.1C8.65329 8.94104 8.72409 8.79237 8.83917 8.6819C8.95424 8.57143 9.10567 8.50675 9.26504 8.5H10.735C10.8944 8.50675 11.0458 8.57143 11.1609 8.6819C11.276 8.79237 11.3468 8.94104 11.36 9.1L11.445 9.95C11.452 10.0197 11.4443 10.0902 11.4223 10.1567C11.4004 10.2233 11.3647 10.2845 11.3175 10.3363C11.2704 10.3882 11.2128 10.4296 11.1487 10.4578C11.0845 10.486 11.0151 10.5004 10.945 10.5H9.05504C8.98495 10.5004 8.91557 10.486 8.8514 10.4578C8.78723 10.4296 8.72971 10.3882 8.68256 10.3363C8.63542 10.2845 8.5997 10.2233 8.57773 10.1567C8.55576 10.0902 8.54803 10.0197 8.55504 9.95L8.64004 9.1Z" fill="white"/>
</g>
</g>
</g>
</g>
</svg>
