<svg width="20" height="26" viewBox="0 0 20 26" fill="none" xmlns="http://www.w3.org/2000/svg">
<g id="default / ski-run">
<g id="POI-base">
<g id="Category_Master">
<g id="Baseshape_Pin">
<path id="shape" d="M6.12903 20.4794L6.12726 20.4777C3.78964 18.19 2.64527 16.3664 2.07698 14.8457C1.50986 13.3281 1.5 12.0735 1.5 10.8565C1.5 6.24879 5.30485 2.5 9.99133 2.5C14.6791 2.5 18.5 6.25003 18.5 10.8565C18.5 12.0735 18.4901 13.3281 17.923 14.8457C17.3547 16.3664 16.2104 18.19 13.8728 20.4777L13.8717 20.4787L9.99205 24.2977L6.12903 20.4794Z" fill="#45BF94" stroke="#308C7A"/>
</g>
</g>
<g id="Icon_Master">
<g id="ski-run">
<path id="Vector" d="M14.1851 9.04501L14.6851 8.17501C14.7487 8.06067 14.765 7.92594 14.7304 7.79975C14.6958 7.67355 14.6132 7.56594 14.5001 7.50001L14.0651 7.25001C13.9503 7.18483 13.8144 7.16769 13.687 7.20235C13.5596 7.23701 13.4511 7.32065 13.3851 7.43501L12.6351 8.73501L13.0701 8.98001L13.5001 9.23001C13.5572 9.26307 13.6202 9.28452 13.6856 9.29311C13.751 9.3017 13.8175 9.29727 13.8811 9.28007C13.9448 9.26288 14.0044 9.23326 14.0566 9.19291C14.1088 9.15257 14.1525 9.10231 14.1851 9.04501ZM13.6851 15.96C13.2601 16.2 13.0701 16.185 12.7901 16.02L9.75013 14.285L11.5001 13.26L11.0001 11.555L8.85013 10.315L9.96513 12.39L8.66513 13.665L5.84513 12.05L5.25513 12.575L12.4101 16.665C12.633 16.7942 12.8916 16.848 13.1475 16.8183C13.4034 16.7885 13.6428 16.6769 13.8301 16.5L13.6851 15.96ZM14.2451 11.96L12.9451 11.215L12.9001 9.75501L11.2151 8.79001C11.1391 8.74613 11.0529 8.72303 10.9651 8.72303C10.8774 8.72303 10.7911 8.74613 10.7151 8.79001L9.90513 9.50001L7.30013 8.00001L6.93013 8.65001L13.8751 12.62L14.2451 11.96Z" fill="white"/>
</g>
</g>
</g>
</g>
</svg>
