<svg width="20" height="26" viewBox="0 0 20 26" fill="none" xmlns="http://www.w3.org/2000/svg">
<g id="default / theater">
<g id="POI-base">
<g id="Category_Master">
<g id="Baseshape_Pin">
<path id="shape" d="M6.12903 20.4794L6.12726 20.4777C3.78964 18.19 2.64527 16.3664 2.07698 14.8457C1.50986 13.3281 1.5 12.0735 1.5 10.8565C1.5 6.24879 5.30485 2.5 9.99133 2.5C14.6791 2.5 18.5 6.25003 18.5 10.8565C18.5 12.0735 18.4901 13.3281 17.923 14.8457C17.3547 16.3664 16.2104 18.19 13.8728 20.4777L13.8717 20.4787L9.99205 24.2977L6.12903 20.4794Z" fill="#ED97C2" stroke="#A66F9A"/>
</g>
</g>
<g id="Icon_Master">
<g id="theater">
<path id="Vector" d="M5.5 7V12.72C5.5 13.9135 5.97411 15.0581 6.81802 15.902C7.66193 16.7459 8.80653 17.22 10 17.22C11.1935 17.22 12.3381 16.7459 13.182 15.902C14.0259 15.0581 14.5 13.9135 14.5 12.72V7H5.5ZM7 10.375C7 10.0435 7.1317 9.72554 7.36612 9.49112C7.60054 9.2567 7.91848 9.125 8.25 9.125C8.58152 9.125 8.89946 9.2567 9.13388 9.49112C9.3683 9.72554 9.5 10.0435 9.5 10.375C9.5 11.065 8.94 11 8.25 11C7.56 11 7 11.065 7 10.375ZM12.34 13.875C12.161 14.351 11.8411 14.761 11.423 15.0505C11.0049 15.3399 10.5085 15.495 10 15.495C9.49149 15.495 8.99507 15.3399 8.57697 15.0505C8.15888 14.761 7.839 14.351 7.66 13.875C7.629 13.7917 7.62077 13.7016 7.63616 13.6141C7.65155 13.5265 7.69001 13.4446 7.74757 13.3769C7.80513 13.3091 7.87971 13.258 7.96363 13.2286C8.04755 13.1993 8.13777 13.1929 8.225 13.21C9.39988 13.41 10.6001 13.41 11.775 13.21C11.864 13.1913 11.9564 13.1972 12.0423 13.2272C12.1282 13.2571 12.2042 13.3098 12.2624 13.3798C12.3205 13.4497 12.3584 13.5342 12.3721 13.6241C12.3858 13.714 12.3747 13.8059 12.34 13.89V13.875ZM11.75 11C11.06 11 10.5 11.065 10.5 10.375C10.5 10.0435 10.6317 9.72554 10.8661 9.49112C11.1005 9.2567 11.4185 9.125 11.75 9.125C12.0815 9.125 12.3995 9.2567 12.6339 9.49112C12.8683 9.72554 13 10.0435 13 10.375C13 11.065 12.44 11 11.75 11Z" fill="white"/>
</g>
</g>
</g>
</g>
</svg>
