<svg width="20" height="26" viewBox="0 0 20 26" fill="none" xmlns="http://www.w3.org/2000/svg">
<g id="default / toll-booth">
<g id="POI-base">
<g id="Category_Master">
<g id="Baseshape_Pin">
<path id="shape" d="M6.12903 20.4794L6.12726 20.4777C3.78964 18.19 2.64527 16.3664 2.07698 14.8457C1.50986 13.3281 1.5 12.0735 1.5 10.8565C1.5 6.24879 5.30485 2.5 9.99133 2.5C14.6791 2.5 18.5 6.25003 18.5 10.8565C18.5 12.0735 18.4901 13.3281 17.923 14.8457C17.3547 16.3664 16.2104 18.19 13.8728 20.4777L13.8717 20.4787L9.99205 24.2977L6.12903 20.4794Z" fill="#6BC9FF" stroke="#4A91C5"/>
</g>
</g>
<g id="Icon_Master">
<g id="toll-booth">
<path id="Vector" d="M9.75003 15C10.3434 15 10.9234 14.8241 11.4167 14.4944C11.9101 14.1648 12.2946 13.6962 12.5217 13.148C12.7487 12.5999 12.8081 11.9967 12.6924 11.4147C12.5766 10.8328 12.2909 10.2982 11.8714 9.87868C11.4518 9.45912 10.9172 9.1734 10.3353 9.05764C9.75336 8.94189 9.15016 9.0013 8.60198 9.22836C8.05381 9.45542 7.58527 9.83994 7.25563 10.3333C6.92598 10.8266 6.75003 11.4067 6.75003 12C6.75003 12.7956 7.06611 13.5587 7.62871 14.1213C8.19132 14.6839 8.95439 15 9.75003 15ZM9.50003 10H10.5V14H9.50003V11.25H8.50004L9.50003 10ZM15 15V15.5C15 15.8978 14.842 16.2794 14.5607 16.5607C14.2794 16.842 13.8979 17 13.5 17H6.50003C6.10221 17 5.72068 16.842 5.43937 16.5607C5.15807 16.2794 5.00003 15.8978 5.00003 15.5V15C4.99751 14.6307 5.13131 14.2735 5.37579 13.9967C5.62027 13.7199 5.95826 13.5431 6.32503 13.5C6.48228 13.8661 6.69848 14.2039 6.96503 14.5H6.00003V16H14V14.5H12.535C12.8044 14.204 13.0239 13.8663 13.185 13.5H13.5C13.8979 13.5 14.2794 13.658 14.5607 13.9393C14.842 14.2206 15 14.6022 15 15ZM9.75003 8.25C9.65344 8.24489 9.55663 8.24489 9.46003 8.25C9.76669 7.81712 10.2031 7.493 10.7061 7.32454C11.2092 7.15607 11.7528 7.15199 12.2583 7.31288C12.7638 7.47378 13.205 7.79131 13.5181 8.21954C13.8312 8.64777 14 9.1645 14 9.695C13.9984 10.2696 13.7949 10.8253 13.425 11.265C13.2552 10.4152 12.7963 9.65048 12.1263 9.10082C11.4563 8.55117 10.6166 8.25052 9.75003 8.25Z" fill="white"/>
</g>
</g>
</g>
</g>
</svg>
