<svg width="20" height="26" viewBox="0 0 20 26" fill="none" xmlns="http://www.w3.org/2000/svg">
<g id="default / waterfall">
<g id="POI-base">
<g id="Category_Master">
<g id="Baseshape_Pin">
<path id="shape" d="M6.12903 20.4794L6.12726 20.4777C3.78964 18.19 2.64527 16.3664 2.07698 14.8457C1.50986 13.3281 1.5 12.0735 1.5 10.8565C1.5 6.24879 5.30485 2.5 9.99133 2.5C14.6791 2.5 18.5 6.25003 18.5 10.8565C18.5 12.0735 18.4901 13.3281 17.923 14.8457C17.3547 16.3664 16.2104 18.19 13.8728 20.4777L13.8717 20.4787L9.99205 24.2977L6.12903 20.4794Z" fill="#359C7B" stroke="#267369"/>
</g>
</g>
<g id="Icon_Master">
<g id="waterfall">
<path id="Vector" d="M15 12.725V13.725C14.815 13.725 14.74 13.785 14.555 13.965C14.41 14.1228 14.2338 14.2488 14.0376 14.3349C13.8413 14.421 13.6293 14.4653 13.415 14.465C13.2003 14.4681 12.9874 14.4251 12.7907 14.3388C12.594 14.2526 12.4181 14.1251 12.275 13.965C12.09 13.785 12.015 13.725 11.83 13.725C11.645 13.725 11.57 13.785 11.385 13.965C11.2442 14.1288 11.0696 14.2603 10.8733 14.3504C10.677 14.4405 10.4635 14.4872 10.2475 14.4872C10.0315 14.4872 9.818 14.4405 9.62168 14.3504C9.42536 14.2603 9.25082 14.1288 9.11 13.965C8.92 13.785 8.85 13.725 8.665 13.725C8.48 13.725 8.405 13.785 8.22 13.965C8.07918 14.1288 7.90464 14.2603 7.70832 14.3504C7.512 14.4405 7.29852 14.4872 7.0825 14.4872C6.86648 14.4872 6.653 14.4405 6.45668 14.3504C6.26036 14.2603 6.08582 14.1288 5.945 13.965C5.76 13.785 5.685 13.725 5.5 13.725V12.725C5.71351 12.7251 5.92467 12.7696 6.12006 12.8557C6.31545 12.9418 6.49081 13.0675 6.635 13.225C6.825 13.405 6.895 13.465 7.08 13.465C7.265 13.465 7.34 13.405 7.525 13.225C7.67243 13.079 7.84098 12.9559 8.025 12.86V9C8.02504 8.86655 7.99837 8.73444 7.94656 8.61145C7.89475 8.48847 7.81885 8.3771 7.72332 8.28391C7.6278 8.19071 7.51459 8.11758 7.39037 8.06882C7.26614 8.02006 7.13341 7.99666 7 8H6.5V7H10.5C11.0304 7 11.5391 7.21071 11.9142 7.58579C12.2893 7.96086 12.5 8.46957 12.5 9V12.885C12.6712 12.9824 12.8278 13.1036 12.965 13.245C13.155 13.425 13.23 13.485 13.415 13.485C13.6 13.485 13.675 13.425 13.86 13.245C14.003 13.0833 14.1783 12.9534 14.3747 12.8638C14.5711 12.7742 14.7841 12.7269 15 12.725ZM15 16.225V15.225C14.815 15.225 14.74 15.285 14.555 15.465C14.41 15.6228 14.2338 15.7488 14.0376 15.8349C13.8413 15.921 13.6293 15.9653 13.415 15.965C13.2003 15.9681 12.9874 15.9251 12.7907 15.8388C12.594 15.7526 12.4181 15.6251 12.275 15.465C12.09 15.285 12.015 15.225 11.83 15.225C11.645 15.225 11.57 15.285 11.385 15.465C11.2442 15.6288 11.0696 15.7603 10.8733 15.8504C10.677 15.9405 10.4635 15.9872 10.2475 15.9872C10.0315 15.9872 9.818 15.9405 9.62168 15.8504C9.42536 15.7603 9.25082 15.6288 9.11 15.465C8.92 15.285 8.85 15.225 8.665 15.225C8.48 15.225 8.405 15.285 8.22 15.465C8.07918 15.6288 7.90464 15.7603 7.70832 15.8504C7.512 15.9405 7.29852 15.9872 7.0825 15.9872C6.86648 15.9872 6.653 15.9405 6.45668 15.8504C6.26036 15.7603 6.08582 15.6288 5.945 15.465C5.76 15.285 5.685 15.225 5.5 15.225V16.41C5.93795 16.7913 6.4993 17.001 7.08 17C7.66041 17.0059 8.22336 16.8017 8.665 16.425C9.10393 16.8029 9.66584 17.0074 10.245 17C10.8254 17.0059 11.3884 16.8017 11.83 16.425C12.2745 16.7969 12.8355 17.0006 13.415 17.0006C13.9945 17.0006 14.5555 16.7969 15 16.425V16.225Z" fill="white"/>
</g>
</g>
</g>
</g>
</svg>
