<svg width="20" height="26" viewBox="0 0 20 26" fill="none" xmlns="http://www.w3.org/2000/svg">
<g id="default / zoo">
<g id="POI-base">
<g id="Category_Master">
<g id="Baseshape_Pin">
<path id="shape" d="M6.12903 20.4794L6.12726 20.4777C3.78964 18.19 2.64527 16.3664 2.07698 14.8457C1.50986 13.3281 1.5 12.0735 1.5 10.8565C1.5 6.24879 5.30485 2.5 9.99133 2.5C14.6791 2.5 18.5 6.25003 18.5 10.8565C18.5 12.0735 18.4901 13.3281 17.923 14.8457C17.3547 16.3664 16.2104 18.19 13.8728 20.4777L13.8717 20.4787L9.99205 24.2977L6.12903 20.4794Z" fill="#45BF94" stroke="#308C7A"/>
</g>
</g>
<g id="Icon_Master">
<g id="zoo">
<path id="Vector" d="M15 9.875C15.0007 9.49727 14.9267 9.12312 14.7825 8.77401C14.6382 8.4249 14.4265 8.1077 14.1594 7.8406C13.8923 7.5735 13.5751 7.36176 13.226 7.21751C12.8769 7.07326 12.5027 6.99935 12.125 7H10.81C11.1854 7.34986 11.4847 7.77322 11.6894 8.24374C11.8942 8.71426 11.9999 9.22188 12 9.735V12H11V9.735C11 8.315 10 7 8.545 7H7.75C7.02106 7.00133 6.32236 7.29148 5.80692 7.80692C5.29148 8.32236 5.00132 9.02106 5 9.75C5 10.14 5 14.25 5 14.25C5.00394 14.9781 5.29494 15.6753 5.80981 16.1902C6.32468 16.7051 7.02187 16.9961 7.75 17H8V15.5C7.71344 15.4962 7.43668 15.3951 7.21504 15.2135C6.9934 15.0318 6.84001 14.7802 6.78 14.5C6.7425 14.3387 6.73755 14.1716 6.76544 14.0083C6.79333 13.8451 6.85351 13.6891 6.94244 13.5494C7.03137 13.4097 7.14727 13.2892 7.28336 13.1949C7.41945 13.1005 7.57299 13.0343 7.735 13L9 12.75V17H11V14.5L13 14.765V17H14.75L15 10V9.875ZM7.25 11C7.10166 11 6.95666 10.956 6.83332 10.8736C6.70999 10.7912 6.61386 10.6741 6.55709 10.537C6.50032 10.4 6.48547 10.2492 6.51441 10.1037C6.54335 9.9582 6.61478 9.82456 6.71967 9.71967C6.82456 9.61478 6.9582 9.54335 7.10368 9.51442C7.24917 9.48548 7.39997 9.50033 7.53701 9.55709C7.67406 9.61386 7.79119 9.70999 7.8736 9.83333C7.95601 9.95666 8 10.1017 8 10.25C8 10.4489 7.92098 10.6397 7.78033 10.7803C7.63968 10.921 7.44891 11 7.25 11Z" fill="white"/>
</g>
</g>
</g>
</g>
</svg>
