<svg width="28" height="32" viewBox="0 0 28 32" fill="none" xmlns="http://www.w3.org/2000/svg">
<path d="M1.85936 18.9846C-0.618485 16.507 -0.618483 12.4901 1.85936 10.0125L9.51445 2.35819C11.9923 -0.119397 16.0097 -0.119396 18.4875 2.35819L26.1426 10.0125C28.6204 12.4901 28.6204 16.507 26.1426 18.9846L14.001 31.125L1.85936 18.9846Z" fill="#6B7485"/>
<path d="M2.21289 10.3661L9.86798 2.71176C12.1506 0.429412 15.8514 0.429413 18.134 2.71176L25.7891 10.3661C28.0716 12.6484 28.0716 16.3487 25.7891 18.6311L14.001 30.4179L2.21289 18.6311C-0.0696629 16.3487 -0.0696617 12.6484 2.21289 10.3661Z" stroke="white"/>
<path d="M15 15.5H13L12 11.5V7.5H16V11.5L15 15.5ZM16 19.5C16 18.4 15.1 17.5 14 17.5C12.9 17.5 12 18.4 12 19.5C12 20.6 12.9 21.5 14 21.5C15.1 21.5 16 20.6 16 19.5Z" fill="white"/>
</svg>
