<svg width="28" height="32" viewBox="0 0 28 32" fill="none" xmlns="http://www.w3.org/2000/svg">
<path d="M1.85936 19.2346C-0.618485 16.757 -0.618483 12.7401 1.85936 10.2625L9.51445 2.60819C11.9923 0.130603 16.0097 0.130604 18.4875 2.60819L26.1426 10.2625C28.6204 12.7401 28.6204 16.757 26.1426 19.2346L14.001 31.375L1.85936 19.2346Z" fill="#6B7485"/>
<path d="M2.21289 10.6161L9.86798 2.96176C12.1506 0.679412 15.8514 0.679413 18.134 2.96176L25.7891 10.6161C28.0716 12.8984 28.0716 16.5987 25.7891 18.8811L14.001 30.6679L2.21289 18.8811C-0.0696629 16.5987 -0.0696617 12.8984 2.21289 10.6161Z" stroke="white"/>
<path d="M18.2485 11.75H16.4485L14.9485 9.25H10.6485L9.14851 11.75H11.8485V12.05C11.3485 12.25 10.8485 12.65 10.5485 13.05C10.3485 12.85 10.1485 12.75 9.84851 12.75C9.24851 12.75 8.84851 13.15 8.84851 13.75C8.84851 14.15 9.14851 14.55 9.54851 14.65L8.24851 16.75H7.84851C7.24851 16.75 6.84851 16.25 6.84851 15.65V13.35C6.84851 12.95 6.94851 12.65 7.14851 12.35L9.24851 8.75C9.64851 8.15 10.2485 7.75 10.9485 7.75H14.6485C15.3485 7.75 16.0485 8.15 16.3485 8.75L18.2485 11.75ZM20.8485 18.35V20.75C20.8485 21.35 20.4485 21.85 19.8485 21.85H17.8485L16.8485 20.35H12.8485L11.8485 21.75H9.84851C9.24851 21.75 8.84851 21.25 8.84851 20.65V18.25C8.84851 17.85 8.94851 17.55 9.14851 17.25L11.2485 13.75C11.6485 13.15 12.2485 12.75 12.9485 12.75H16.6485C17.3485 12.75 18.0485 13.15 18.3485 13.75L20.4485 17.35C20.7485 17.55 20.8485 17.95 20.8485 18.35ZM12.8485 18.75C12.8485 18.15 12.4485 17.75 11.8485 17.75C11.2485 17.75 10.8485 18.15 10.8485 18.75C10.8485 19.35 11.2485 19.75 11.8485 19.75C12.4485 19.75 12.8485 19.35 12.8485 18.75ZM18.5485 16.75L17.0485 14.25H12.6485L11.1485 16.75H18.5485ZM18.8485 18.75C18.8485 18.15 18.4485 17.75 17.8485 17.75C17.2485 17.75 16.8485 18.15 16.8485 18.75C16.8485 19.35 17.2485 19.75 17.8485 19.75C18.4485 19.75 18.8485 19.35 18.8485 18.75Z" fill="white"/>
</svg>
