<svg width="28" height="31" viewBox="0 0 28 31" fill="none" xmlns="http://www.w3.org/2000/svg">
<path d="M1.85936 18.4846C-0.618485 16.007 -0.618483 11.9901 1.85936 9.51249L9.51445 1.85819C11.9923 -0.619397 16.0097 -0.619396 18.4875 1.85819L26.1426 9.51249C28.6204 11.9901 28.6204 16.007 26.1426 18.4846L14.001 30.625L1.85936 18.4846Z" fill="#E5334B"/>
<path d="M2.21289 9.86606L9.86798 2.21176C12.1506 -0.0705879 15.8514 -0.0705867 18.134 2.21176L25.7891 9.86607C28.0716 12.1484 28.0716 15.8487 25.7891 18.1311L14.001 29.9179L2.21289 18.1311C-0.0696629 15.8487 -0.0696617 12.1484 2.21289 9.86606Z" stroke="white"/>
<path d="M21 13C21 11.9 20.1 11 19 11H9C7.9 11 7 11.9 7 13V17H10V21H11.5V17H16.5V21H18V17H21V13ZM14.8 15.5L16.3 12.5H18.8L17.3 15.5H14.8ZM10.8 12.5H13.3L11.8 15.5H9.2L10.8 12.5Z" fill="white"/>
</svg>
