<svg width="28" height="32" viewBox="0 0 28 32" fill="none" xmlns="http://www.w3.org/2000/svg">
<path d="M1.85936 18.7346C-0.618485 16.257 -0.618483 12.2401 1.85936 9.76249L9.51445 2.10819C11.9923 -0.369397 16.0097 -0.369396 18.4875 2.10819L26.1426 9.76249C28.6204 12.2401 28.6204 16.257 26.1426 18.7346L14.001 30.875L1.85936 18.7346Z" fill="#6B7485"/>
<path d="M2.21289 10.1161L9.86798 2.46176C12.1506 0.179412 15.8514 0.179413 18.134 2.46176L25.7891 10.1161C28.0716 12.3984 28.0716 16.0987 25.7891 18.3811L14.001 30.1679L2.21289 18.3811C-0.0696629 16.0987 -0.0696617 12.3984 2.21289 10.1161Z" stroke="white"/>
<path d="M15 8.75C15 7.95 15.7 7.25 16.5 7.25C17.3 7.25 18 7.95 18 8.75C18 9.55 17.3 10.25 16.5 10.25C15.7 10.25 15 9.55 15 8.75ZM12.2 15.05L11.9 14.65L9.49998 12.25L9.29998 12.35C8.79998 12.95 8.49998 13.55 8.49998 14.35V17.25C8.49998 17.35 8.49998 17.45 8.49998 17.55L7.59998 19.25L8.59998 20.25L9.89998 17.85C9.99998 17.65 9.99998 17.45 9.99998 17.25V14.85L11.1 16.05C11.3 16.25 11.4 16.55 11.4 16.95V20.25H13V16.95C13 16.15 12.7 15.55 12.2 15.05ZM21 18.25L19 20.25H13L16 17.25L8.49998 9.75L7.99998 9.25L10.4 7.85C10.7 7.65 11.1 7.55 11.4 7.55C11.9 7.55 12.4 7.75 12.8 8.15L15.4 10.75C15.8 11.05 16 11.55 16 12.05V15.85L16.7 16.55L18 15.25L21 18.25ZM12.8 10.25L11.8 9.15C11.7 9.05 11.6 9.05 11.4 9.05C11.3 9.05 11.2 9.05 11.1 9.15L9.99998 9.85L11.3 11.15L12.8 10.25ZM14.5 12.15L13.1 12.95L14.5 14.35V12.15Z" fill="white"/>
</svg>
