<svg width="28" height="28" viewBox="0 0 28 28" fill="none" xmlns="http://www.w3.org/2000/svg">
<g id="hazmat_explosivesandflammable_usa">
<rect width="28" height="28" fill="white" fill-opacity="0.01"/>
<g id="non-stretchable_items">
<g id="truck-icon_base03">
<path id="Union" d="M13.9993 1.00018L26.9994 14.0002L14 26.9995L1 13.9995L13.9993 1.00018Z" fill="black"/>
<path id="Union_2" d="M25.0003 13.9998L14.0006 24.9995L3.00098 13.9998L14.0006 3.00018L25.0003 13.9998Z" fill="#FF6600"/>
</g>
<path id="Vector" d="M16.066 12.217C15.876 13.184 15.179 13.785 14.587 14.045C14.582 14.051 14.996 13.269 14.962 12.208C14.919 10.892 14.047 9.713 12.91 9.179C13.008 9.506 13.064 9.852 13.064 10.21C13.064 11.162 12.69 12.031 12.076 12.665C11.314 13.452 10.972 14.18 11.002 15.019C11.092 17.488 13.268 17.984 13.332 17.998C12.931 17.764 12.659 17.312 12.659 16.801C12.659 15.578 13.972 14.649 13.972 14.649C13.972 14.649 15.285 15.596 15.285 16.801C15.285 17.315 15.015 17.759 14.618 17.995C15.383 17.816 15.972 17.414 16.4 16.766C16.412 16.746 16.99 15.86 16.99 14.698C16.99 13.716 16.641 12.832 16.066 12.217ZM14 4L13.09 7.979C13.516 7.765 14.438 7.781 14.91 7.979L14 4ZM13.24 20.021L14 24L14.76 20.021C14.281 20.172 13.688 20.203 13.24 20.021ZM10 11C9.779 11.6 9.619 12.28 9.55 12.99L7 11H10ZM10 17H7L9.555 15.01C9.624 15.721 9.779 16.4 10 17ZM21 11L18.45 13C18.38 12.28 18.221 11.61 18 11H21ZM21 17H18C18.221 16.391 18.38 15.721 18.45 15L21 17Z" fill="black"/>
</g>
</g>
</svg>
