<svg width="28" height="28" viewBox="0 0 28 28" fill="none" xmlns="http://www.w3.org/2000/svg">
<g id="hazmat_flammable_usa">
<rect width="28" height="28" fill="white" fill-opacity="0.01"/>
<g id="non-stretchable_items">
<g id="truck-icon_base05">
<path id="Union" d="M13.9993 1.00018L26.9994 14.0002L14 26.9995L1 13.9995L13.9993 1.00018Z" fill="black"/>
<path id="Union_2" d="M25.0003 13.9998L14.0006 24.9995L3.00098 13.9998L14.0006 3.00018L25.0003 13.9998Z" fill="white"/>
</g>
<path id="Vector" d="M25 14L14 25L3 14H25Z" fill="#E8173E"/>
<path id="Vector_2" d="M17.4431 11.358C17.1251 12.968 15.9641 13.971 14.9761 14.405C14.9651 14.416 15.6591 13.111 15.6011 11.342C15.5291 9.14799 14.0751 7.18199 12.1811 6.29099C12.3431 6.83699 12.4371 7.41299 12.4371 8.01099C12.4371 9.59899 11.8141 11.047 10.7911 12.104C9.52107 13.417 8.94907 14.631 9.00007 16.029C9.14807 20.148 12.7771 20.974 12.8851 21C12.2151 20.607 11.7631 19.859 11.7631 19.003C11.7631 16.965 13.9521 15.413 13.9521 15.413C13.9521 15.413 16.1401 16.993 16.1401 19.003C16.1401 19.857 15.6911 20.602 15.0291 20.995C16.3021 20.7 17.2871 20.025 18.0001 18.947C18.0201 18.916 19.0001 17.437 19.0001 15.497C19.0001 13.857 18.3981 12.384 17.4431 11.358Z" fill="black"/>
</g>
</g>
</svg>
