<svg width="28" height="28" viewBox="0 0 28 28" fill="none" xmlns="http://www.w3.org/2000/svg">
<g id="length_restriction_kpra_usa">
<rect width="28" height="28" fill="white" fill-opacity="0.01"/>
<g id="non-stretchable_items">
<g id="truck-icon_base04">
<path id="Vector" d="M14 1L1 14L14 27L27 14L14 1Z" fill="black"/>
<path id="Vector_2" d="M13.9995 25.5L25.5 14L13.9995 2.5L2.5 14L13.9995 25.5Z" fill="#FDF000"/>
</g>
<path id="Vector_3" d="M6 18.145L2 14.143L6 10.146" fill="black"/>
<path id="Vector_4" d="M22 10.146L26 14.143L22 18.145" fill="black"/>
<path id="Vector_5" d="M23 19H4V27H23V19Z" fill="#FDF000"/>
<path id="Vector_6" d="M23 19V26H5V19H23ZM24 18H23H5H4V19V26V27H5H23H24V26V19V18Z" fill="black"/>
<path id="Vector_7" d="M6.647 25H6V20H6.647V22.312L8.632 20H9.343L7.378 22.29L9.545 25H8.715L6.648 22.383V25H6.647Z" fill="black"/>
<path id="Vector_8" d="M13.045 21.565C13.045 21.735 13.017 21.913 12.958 22.097C12.899 22.281 12.802 22.452 12.666 22.607C12.53 22.762 12.353 22.886 12.135 22.983C11.917 23.08 11.647 23.129 11.322 23.129H10.633V25H10V20H11.386C11.691 20 11.949 20.049 12.159 20.146C12.371 20.244 12.541 20.369 12.673 20.523C12.804 20.677 12.9 20.847 12.958 21.032C13.016 21.217 13.045 21.395 13.045 21.565ZM12.398 21.565C12.398 21.256 12.307 21.012 12.124 20.836C11.941 20.658 11.69 20.569 11.372 20.569H10.633V22.56H11.309C11.661 22.56 11.93 22.47 12.119 22.292C12.304 22.116 12.398 21.874 12.398 21.565Z" fill="black"/>
<path id="Vector_9" d="M17.291 25H16.54L15.364 22.987H14.634V25H14V20H15.429C15.733 20 15.988 20.049 16.191 20.146C16.395 20.244 16.56 20.367 16.684 20.516C16.808 20.665 16.896 20.827 16.949 20.999C17 21.173 17.025 21.338 17.025 21.493C17.025 21.845 16.936 22.139 16.758 22.376C16.579 22.612 16.325 22.783 15.998 22.888L17.291 25ZM16.377 21.493C16.377 21.209 16.294 20.984 16.127 20.817C15.96 20.652 15.723 20.569 15.414 20.569H14.634V22.419H15.364C15.702 22.419 15.955 22.336 16.123 22.173C16.294 22.01 16.377 21.782 16.377 21.493Z" fill="black"/>
<path id="Vector_10" d="M20.878 23.721H19.023L18.619 25H18L19.636 20H20.319L21.961 25H21.285L20.878 23.721ZM19.208 23.144H20.694L19.959 20.832L19.208 23.144Z" fill="black"/>
</g>
</g>
</svg>
